<svg width="132" height="133" viewBox="0 0 132 133" fill="none" xmlns="http://www.w3.org/2000/svg">
<path d="M19.186 122.217C-6.39533 107.928 -6.39533 84.7589 19.186 70.4695C44.7673 56.1802 86.2789 56.1802 111.874 70.4695C137.469 84.7589 137.469 107.928 111.874 122.217C86.2789 136.506 44.781 136.506 19.186 122.217Z" fill="white"/>
<g clip-path="url(#clip0_112_2934)">
<path d="M39.7249 15.6009L32.3724 11.342L13.0105 22.5456V23.3556L20.363 27.6144L39.7249 16.4108V15.6009Z" fill="#EBEBEB"/>
<path d="M20.363 26.8044L39.7249 15.6009L32.3724 11.342L13.0105 22.5456L20.363 26.8044Z" fill="#FAFAFA"/>
<path d="M20.363 26.8043V27.6143L13.0105 23.3555V22.5455L20.363 26.8043Z" fill="#E6E6E6"/>
<path d="M33.5027 3.54028L38.269 6.30459V15.4023L33.5027 12.6406V3.54028Z" fill="#EBEBEB"/>
<path d="M38.1179 6.45614L33.5027 3.79895C33.2247 4.09658 32.8601 4.29864 32.4609 4.37637L37.0371 7.02311C37.4203 6.88184 37.7836 6.69126 38.1179 6.45614Z" fill="white"/>
<path d="M36.5787 7.00745C36.7164 7.07705 36.8685 7.11331 37.0227 7.11331C37.177 7.11331 37.329 7.07705 37.4668 7.00745L38.2481 6.55805C38.3057 6.54489 38.3571 6.51252 38.3939 6.46624C38.4307 6.41996 38.4507 6.36251 38.4507 6.3033C38.4507 6.2441 38.4307 6.18665 38.3939 6.14037C38.3571 6.09409 38.3057 6.06172 38.2481 6.04856L33.7007 3.43579L33.5079 3.54553L37.9799 6.13739C38.0128 6.14714 38.0416 6.16729 38.0621 6.19484C38.0826 6.22238 38.0937 6.25585 38.0937 6.29024C38.0937 6.32463 38.0826 6.3581 38.0621 6.38565C38.0416 6.41319 38.0128 6.43334 37.9799 6.44309L37.2584 6.85329C37.1776 6.89397 37.0884 6.91516 36.998 6.91516C36.9075 6.91516 36.8184 6.89397 36.7375 6.85329L32.2656 4.26665L32.0468 4.39206L36.5787 7.00745Z" fill="#FAFAFA"/>
<path d="M32.0312 4.38684V13.4871L36.5787 16.0999C36.7164 16.1695 36.8685 16.2057 37.0227 16.2057C37.177 16.2057 37.329 16.1695 37.4668 16.0999L38.2481 15.6531C38.2997 15.6305 38.3442 15.5942 38.3767 15.5482C38.4093 15.5022 38.4288 15.4481 38.4331 15.3918V6.30461C38.4288 6.3609 38.4093 6.41496 38.3767 6.46099C38.3442 6.50702 38.2997 6.54328 38.2481 6.56589L37.4668 7.01529C37.329 7.08489 37.177 7.12115 37.0227 7.12115C36.8685 7.12115 36.7164 7.08489 36.5787 7.01529L32.0312 4.38684Z" fill="#E0E0E0"/>
<path d="M37.024 7.11194C37.1781 7.11519 37.3304 7.07923 37.4668 7.00743L38.2482 6.55803C38.2997 6.53542 38.3442 6.49916 38.3768 6.45313C38.4093 6.4071 38.4288 6.35304 38.4331 6.29675V15.4023C38.4288 15.4585 38.4093 15.5126 38.3768 15.5586C38.3442 15.6047 38.2997 15.6409 38.2482 15.6635L37.4668 16.1103C37.3306 16.183 37.1783 16.2199 37.024 16.2174V7.11194Z" fill="#F0F0F0"/>
<path d="M31.6509 5.12097L36.4172 7.88528L34.9378 17.2599L30.1689 14.4956L31.6509 5.12097Z" fill="#EBEBEB"/>
<path d="M36.2296 8.016L31.6145 5.3562C31.2541 5.62231 30.83 5.78816 30.3851 5.83695L34.9612 8.48107C35.3997 8.37311 35.8251 8.21715 36.2296 8.016Z" fill="white"/>
<path d="M34.4846 8.44445C34.6338 8.51587 34.7956 8.55659 34.9607 8.56422C35.1258 8.57185 35.2907 8.54623 35.4457 8.48887L36.3521 8.11525C36.6386 7.99767 36.6724 7.78865 36.4276 7.64756L31.8775 5.03479L31.6509 5.12624L36.1229 7.7181C36.2713 7.80171 36.2505 7.92713 36.0786 7.99767L35.2373 8.33994C35.144 8.37422 35.0449 8.38956 34.9456 8.38508C34.8464 8.38059 34.749 8.35637 34.6591 8.31382L30.195 5.72195L29.9346 5.82646L34.4846 8.44445Z" fill="#FAFAFA"/>
<path d="M29.9346 5.82642L28.4526 15.201L33.0027 17.8138C33.152 17.8847 33.3138 17.9251 33.4788 17.9327C33.6438 17.9403 33.8086 17.915 33.9638 17.8582L34.8832 17.4898C35.0238 17.4323 35.1045 17.3513 35.1176 17.2651L36.5995 7.8905C36.5995 7.97672 36.5058 8.05772 36.3625 8.1152L35.4562 8.48883C35.3011 8.54619 35.1362 8.57181 34.9711 8.56418C34.8061 8.55655 34.6442 8.51582 34.4951 8.44441L29.9346 5.82642Z" fill="#E0E0E0"/>
<path d="M34.9482 8.5646C35.1175 8.57387 35.2868 8.54807 35.4457 8.48883L36.3521 8.1152C36.4953 8.05772 36.576 7.97672 36.5891 7.8905L35.1071 17.2599C35.1071 17.3461 35.0133 17.4271 34.8727 17.4846L33.9637 17.8582C33.8055 17.9164 33.6371 17.9413 33.4689 17.9314L34.9482 8.5646Z" fill="#F0F0F0"/>
<path d="M23.728 22.151L24.064 22.313L30.32 18.6891L29.984 18.5271L23.728 22.151Z" fill="#FAFAFA"/>
<path d="M29.9841 18.5271L24.0328 21.9733L23.1681 13.0429L29.1168 9.59924L29.9841 18.5271Z" fill="white"/>
<path d="M29.9346 8.45752L22.53 12.7451L23.5535 23.2693L30.9581 18.9791L29.9346 8.45752ZM30.32 18.6917L24.0692 22.313L23.1629 13.0429L29.4137 9.42163L30.32 18.6917Z" fill="#F0F0F0"/>
<path d="M30.32 18.689L29.9841 18.5271L29.1168 9.59923L29.4215 9.41895L30.32 18.689Z" fill="#E0E0E0"/>
<path d="M29.9372 8.45747L29.5934 8.2981L22.1888 12.5856L22.53 12.745L29.9372 8.45747Z" fill="#FAFAFA"/>
<path d="M22.1888 12.5857L22.53 12.7451L23.5509 23.2771L23.2097 23.1178L22.1888 12.5857Z" fill="#E0E0E0"/>
<path d="M29.721 18.3572L24.2359 21.5344L24.0901 20.0294L25.1111 15.6112L26.0825 17.1188L25.882 18.3886L27.5046 13.7013L29.5752 16.8523L29.721 18.3572Z" fill="#F0F0F0"/>
<path d="M25.0277 13.7509C24.9137 13.823 24.8202 13.9234 24.7563 14.0425C24.6924 14.1615 24.6603 14.2951 24.6631 14.4302C24.6865 14.6758 24.8897 14.7699 25.1136 14.6419C25.2276 14.5693 25.3208 14.4683 25.3842 14.3488C25.4477 14.2293 25.4792 14.0953 25.4757 13.9599C25.4522 13.7143 25.2465 13.6203 25.0277 13.7509Z" fill="#F0F0F0"/>
<path opacity="0.05" d="M20.6469 21.5319C21.6627 22.1198 21.6627 23.0708 20.6469 23.6587C20.0775 23.9486 19.448 24.0996 18.8094 24.0996C18.1709 24.0996 17.5414 23.9486 16.972 23.6587C15.9562 23.0708 15.9562 22.1198 16.972 21.5319C17.5414 21.242 18.1709 21.0909 18.8094 21.0909C19.448 21.0909 20.0775 21.242 20.6469 21.5319Z" fill="black"/>
<path d="M17.1569 23.0081C16.2714 22.104 15.7531 19.844 16.6152 19.1255H21.0011C21.8606 19.8492 21.3397 22.1067 20.462 23.0081L20.4386 23.0316L20.4073 23.0629C20.3839 23.0864 20.3552 23.11 20.3266 23.1335L20.3057 23.1492L20.2406 23.2014C20.2016 23.2275 20.1651 23.2537 20.126 23.2746C19.718 23.4821 19.2669 23.5902 18.8095 23.5902C18.352 23.5902 17.9009 23.4821 17.4929 23.2746C17.4531 23.2518 17.4148 23.2265 17.3783 23.1988C17.3558 23.1855 17.3348 23.1697 17.3158 23.1518L17.2897 23.1335L17.2116 23.0629C17.1997 23.0523 17.1884 23.0409 17.1777 23.029C17.1701 23.0227 17.1632 23.0157 17.1569 23.0081Z" fill="#F5F5F5"/>
<path d="M20.6209 18.7884C21.6236 19.3684 21.6236 20.3064 20.6209 20.8786C20.0591 21.1646 19.4381 21.3136 18.8081 21.3136C18.1782 21.3136 17.5571 21.1646 16.9954 20.8786C15.9953 20.2986 15.9953 19.3606 16.9954 18.7884C17.5571 18.5024 18.1782 18.3534 18.8081 18.3534C19.4381 18.3534 20.0591 18.5024 20.6209 18.7884Z" fill="white"/>
<path d="M19.9124 19.1986C20.5219 19.5513 20.5219 20.1235 19.9124 20.4762C19.5706 20.6502 19.1927 20.7409 18.8094 20.7409C18.4261 20.7409 18.0482 20.6502 17.7064 20.4762C17.097 20.1235 17.097 19.5513 17.7064 19.1986C18.0482 19.0246 18.4261 18.934 18.8094 18.934C19.1927 18.934 19.5706 19.0246 19.9124 19.1986Z" fill="#EBEBEB"/>
<path d="M17.7064 19.8048C18.0482 19.6308 18.4261 19.5402 18.8094 19.5402C19.1927 19.5402 19.5706 19.6308 19.9124 19.8048C20.0595 19.8846 20.1847 19.9994 20.2771 20.1392C20.1849 20.2799 20.0597 20.3956 19.9124 20.4763C19.5706 20.6503 19.1927 20.7409 18.8094 20.7409C18.4261 20.7409 18.0482 20.6503 17.7064 20.4763C17.5592 20.3956 17.434 20.2799 17.3418 20.1392C17.4341 19.9994 17.5594 19.8846 17.7064 19.8048Z" fill="#E0E0E0"/>
<path d="M19.777 20.134C20.0875 19.8225 20.3555 19.4711 20.574 19.0889C20.9438 18.4357 21.0115 17.5604 20.8214 17.4533C20.6313 17.3462 19.8551 18.2188 19.8551 18.2188C19.9265 17.8515 19.9536 17.477 19.9359 17.1032C19.9046 16.5205 19.764 15.9928 19.5973 15.8856C19.4306 15.7785 19.0582 16.5127 18.8993 17.0457C18.7404 17.5787 18.6388 18.015 18.6388 18.015C18.5761 17.5998 18.4812 17.1901 18.355 16.7897C18.1596 16.2384 17.9851 16.1129 17.8497 16.1678C17.7142 16.2227 17.6231 16.4787 17.5892 17.2129C17.5748 17.5617 17.5862 17.911 17.6231 18.258C17.6231 18.258 17.3626 17.955 17.0449 17.6623C16.7271 17.3697 16.5683 17.2991 16.4745 17.3592C16.3807 17.4193 16.3521 17.921 16.8678 18.8564C17.125 19.33 17.4535 19.761 17.8419 20.134C17.8419 20.134 18.5581 20.6017 19.777 20.134Z" fill="#EBEBEB"/>
<path d="M124.601 57.5671L123.931 57.9669L101.822 45.1591L102.491 44.7567L124.601 57.5671Z" fill="#FAFAFA"/>
<path d="M102.491 44.7568L123.931 57.1779V15.3945L102.491 2.9812V44.7568Z" fill="white"/>
<path d="M100.558 45.8907L125.197 60.1617V14.6629L100.558 0.391968V45.8907ZM101.819 2.58669L123.929 15.3893V57.967L101.819 45.1644V2.58669Z" fill="#F5F5F5"/>
<path d="M101.822 45.1591L102.491 44.7568V2.9812L101.822 2.58667V45.1591Z" fill="#E0E0E0"/>
<path d="M123.931 42.5045V43.2909L101.822 30.4831L102.491 30.0834L123.931 42.5045Z" fill="#FAFAFA"/>
<path d="M123.931 27.8208V28.6098L101.822 15.802L102.491 15.3997L123.931 27.8208Z" fill="#FAFAFA"/>
<path d="M100.558 0.391915L101.238 0L125.874 14.2736L125.194 14.6629L100.558 0.391915Z" fill="#FAFAFA"/>
<path d="M125.874 14.2736L125.194 14.6629V60.1616L125.874 59.7723V14.2736Z" fill="#E0E0E0"/>
<path d="M114.188 9.75342L113.508 9.35889V51.9313L114.188 51.542V9.75342Z" fill="#E0E0E0"/>
<path d="M112.245 8.63L113.508 9.35897V51.9314L112.245 51.1972V8.63Z" fill="#F5F5F5"/>
<path d="M100.558 15.0704V16.531L125.194 30.8045V29.3414L100.558 15.0704Z" fill="#F5F5F5"/>
<path d="M100.558 29.749V31.2096L125.194 45.4831V44.02L100.558 29.749Z" fill="#F5F5F5"/>
<path d="M113.508 22.5743L114.188 22.1798L123.931 27.8208V28.6098L113.508 22.5743Z" fill="#FAFAFA"/>
<path d="M113.508 37.2477L114.188 36.8531L123.931 42.4967V43.2832L113.508 37.2477Z" fill="#FAFAFA"/>
<path d="M103.606 78.0382L85.7126 88.4057L66.8091 77.4712L84.7516 67.1299L103.606 78.0382Z" fill="#E0E0E0"/>
<path opacity="0.1" d="M34.8597 97.182C34.9717 97.3649 35.0941 97.5426 35.2217 97.7046C36.0681 98.8359 37.1985 99.719 38.3471 100.558C41.9674 103.238 46.0981 105.193 49.8199 107.756C54.2658 110.818 58.7508 113.13 64.4338 112.671C66.0147 112.542 67.6608 112.279 69.0047 111.364C72.3307 109.083 70.5127 106.112 68.1504 104.38C64.5927 101.767 60.4229 100.111 56.1958 98.8437C52.7101 97.7725 49.372 96.2671 46.2596 94.3628C43.9364 92.9676 41.5532 91.5071 38.8888 90.88C36.9146 90.4149 34.3075 91.5358 34.021 93.754C33.9016 94.9593 34.1976 96.1692 34.8597 97.182Z" fill="black"/>
<path d="M30.3487 79.0467C33.3334 80.7972 33.3334 83.6321 30.3487 85.3826C27.3639 87.1332 22.5195 87.1306 19.5348 85.3826C16.55 83.6347 16.5474 80.7972 19.5348 79.0467C22.5221 77.2961 27.3613 77.2987 30.3487 79.0467Z" fill="#E0E0E0"/>
<path d="M20.3526 83.2507C17.8992 80.7111 16.4458 74.2889 18.8498 72.2771H31.0311C33.4246 74.2915 31.9843 80.7085 29.5309 83.2507L29.4658 83.3213L29.3798 83.4049C29.3121 83.4728 29.2366 83.5407 29.1584 83.6061L29.0985 83.6531C29.0386 83.7001 28.9813 83.7472 28.9136 83.7942C28.8115 83.8687 28.7054 83.9376 28.5959 84.0006C26.5774 85.1816 23.3035 85.1816 21.285 84.0006C21.1782 83.9379 21.0714 83.8673 20.9673 83.7916C20.9048 83.7498 20.8501 83.7054 20.7928 83.6609L20.7198 83.6035C20.6443 83.5381 20.574 83.4754 20.5063 83.4101L20.4099 83.3134L20.3526 83.2507Z" fill="#EBEBEB"/>
<path d="M29.9736 71.4645C32.7526 73.0922 32.7526 75.7311 29.9736 77.3589C27.1946 78.9866 22.681 78.9866 19.9098 77.3589C17.1386 75.7311 17.1308 73.0922 19.9098 71.4645C22.6888 69.8367 27.1946 69.8367 29.9736 71.4645Z" fill="#FAFAFA"/>
<path d="M28.6323 72.2457C30.6717 73.4424 30.6717 75.3811 28.6323 76.5751C26.593 77.7691 23.2827 77.7717 21.2407 76.5751C19.1988 75.3785 19.1988 73.4398 21.2407 72.2457C23.2827 71.0517 26.5956 71.0517 28.6323 72.2457Z" fill="#EBEBEB"/>
<path d="M21.246 74.3019C23.2879 73.1053 26.5956 73.1053 28.6375 74.3019C29.1321 74.5737 29.5518 74.9642 29.8591 75.4385C29.5496 75.9115 29.1282 76.3002 28.6323 76.5698C26.5904 77.7664 23.2827 77.7664 21.2408 76.5698C20.7525 76.2985 20.339 75.9097 20.0375 75.4385C20.3398 74.9647 20.7552 74.574 21.246 74.3019Z" fill="white"/>
<path d="M23.2749 62.5549C22.4518 63.6 19.9828 64.0546 18.7508 61.5097C17.597 59.1164 16.3755 56.8564 16.0083 55.9733C15.9568 55.8584 15.9289 55.7342 15.9265 55.6082C15.924 55.4822 15.9469 55.357 15.9938 55.2401C16.0408 55.1232 16.1108 55.017 16.1997 54.928C16.2885 54.8389 16.3944 54.7688 16.511 54.7218C16.511 54.7218 16.4797 53.3605 18.8394 54.1052C21.1991 54.8498 22.9233 56.1196 24.0927 58.2856C25.2621 60.4516 24.7855 62.1342 23.2749 62.5549Z" fill="#F0F0F0"/>
<path d="M24.5302 65.9567C24.4546 65.4995 24.3537 65.0468 24.2281 64.6007C23.9696 63.7158 23.6484 62.8505 23.267 62.0114C22.4873 60.3062 21.4672 58.7224 20.238 57.3084C19.5529 56.5 18.7934 55.7582 17.9695 55.0928C17.946 55.0745 17.9304 55.1268 17.9486 55.1425C19.3385 56.4002 20.5535 57.8397 21.5611 59.4222C22.5337 60.9792 23.2998 62.6568 23.84 64.4126C23.9911 64.9064 24.1369 65.4002 24.2672 65.8966C24.3974 66.393 24.4912 66.9156 24.6162 67.4225C24.6162 67.4747 24.7099 67.4982 24.7099 67.4225C24.6868 66.9301 24.6267 66.4401 24.5302 65.9567Z" fill="#E0E0E0"/>
<path opacity="0.1" d="M24.5302 65.9567C24.4546 65.4995 24.3537 65.0468 24.2281 64.6007C23.9696 63.7158 23.6484 62.8505 23.267 62.0114C22.4873 60.3062 21.4672 58.7224 20.238 57.3084C19.5529 56.5 18.7934 55.7582 17.9695 55.0928C17.946 55.0745 17.9304 55.1268 17.9486 55.1425C19.3385 56.4002 20.5535 57.8397 21.5611 59.4222C22.5337 60.9792 23.2998 62.6568 23.84 64.4126C23.9911 64.9064 24.1369 65.4002 24.2672 65.8966C24.3974 66.393 24.4912 66.9156 24.6162 67.4225C24.6162 67.4747 24.7099 67.4982 24.7099 67.4225C24.6868 66.9301 24.6267 66.4401 24.5302 65.9567Z" fill="black"/>
<path d="M25.9523 60.7259C23.8088 61.3896 22.2174 59.7122 22.767 57.0681C23.3165 54.4239 26.0747 51.5159 27.1165 52.2998C27.765 51.6492 29.2001 51.8817 29.872 54.019C30.544 56.1562 29.9346 61.6587 25.9523 60.7259Z" fill="#E0E0E0"/>
<path d="M27.2103 53.9118C26.6014 55.4444 26.1248 57.0266 25.7856 58.6409C25.4198 60.275 25.1433 61.9278 24.9574 63.5921C24.5719 66.8085 24.5068 66.6308 24.5276 69.8628C24.5276 70.7598 24.5398 71.6551 24.5641 72.5487C24.5797 73.471 24.5641 74.4038 24.6448 75.3209C24.6761 75.6736 25.1657 75.5821 25.1814 75.2555C25.2126 73.6435 25.1241 72.0262 25.1084 70.4141C25.0928 68.802 25.1084 70.6545 25.1371 69.0607C25.1927 65.8136 25.4826 62.5749 26.0044 59.3699C26.158 58.479 26.3273 57.588 26.5253 56.7049C26.7415 55.78 27.0097 54.8759 27.2519 53.9432C27.2728 53.9092 27.2311 53.8622 27.2103 53.9118Z" fill="#E0E0E0"/>
<path opacity="0.1" d="M27.2103 53.9118C26.6014 55.4444 26.1248 57.0266 25.7856 58.6409C25.4198 60.275 25.1433 61.9278 24.9574 63.5921C24.5719 66.8085 24.5068 66.6308 24.5276 69.8628C24.5276 70.7598 24.5398 71.6551 24.5641 72.5487C24.5797 73.471 24.5641 74.4038 24.6448 75.3209C24.6761 75.6736 25.1657 75.5821 25.1814 75.2555C25.2126 73.6435 25.1241 72.0262 25.1084 70.4141C25.0928 68.802 25.1084 70.6545 25.1371 69.0607C25.1927 65.8136 25.4826 62.5749 26.0044 59.3699C26.158 58.479 26.3273 57.588 26.5253 56.7049C26.7415 55.78 27.0097 54.8759 27.2519 53.9432C27.2728 53.9092 27.2311 53.8622 27.2103 53.9118Z" fill="black"/>
<path d="M20.9907 67.8379C20.7302 69.2305 18.8159 70.2338 16.6203 69.3219C14.4247 68.4101 10.0908 62.6855 12.0703 62.0532C11.9635 61.0081 17.946 60.1589 20.9047 63.8194C23.0561 66.4792 20.9907 67.8379 20.9907 67.8379Z" fill="#E0E0E0"/>
<path d="M24.1317 69.9046C23.8553 69.5582 23.5569 69.23 23.2384 68.9222C22.5976 68.2846 21.9247 67.6803 21.2225 67.1116C19.7834 65.9596 18.2309 64.9581 16.5891 64.1226C15.6832 63.6376 14.7471 63.2118 13.7866 62.8475C13.7606 62.8475 13.771 62.8893 13.7866 62.8972C14.5862 63.276 15.3884 63.6444 16.1593 64.0755C16.9303 64.5066 17.722 65.024 18.4851 65.5491C19.9336 66.5603 21.3017 67.6828 22.5768 68.9065C22.9362 69.254 23.28 69.6224 23.6447 69.9647C24.0093 70.307 24.426 70.6519 24.7933 71.0281C24.8479 71.0804 24.9417 71.0569 24.8844 70.9785C24.6318 70.6231 24.4 70.2521 24.1317 69.9046Z" fill="#E0E0E0"/>
<path opacity="0.1" d="M24.1317 69.9046C23.8553 69.5582 23.5569 69.23 23.2384 68.9222C22.5976 68.2846 21.9247 67.6803 21.2225 67.1116C19.7834 65.9596 18.2309 64.9581 16.5891 64.1226C15.6832 63.6376 14.7471 63.2118 13.7866 62.8475C13.7606 62.8475 13.771 62.8893 13.7866 62.8972C14.5862 63.276 15.3884 63.6444 16.1593 64.0755C16.9303 64.5066 17.722 65.024 18.4851 65.5491C19.9336 66.5603 21.3017 67.6828 22.5768 68.9065C22.9362 69.254 23.28 69.6224 23.6447 69.9647C24.0093 70.307 24.426 70.6519 24.7933 71.0281C24.8479 71.0804 24.9417 71.0569 24.8844 70.9785C24.6318 70.6231 24.4 70.2521 24.1317 69.9046Z" fill="black"/>
<path d="M26.4159 70.3618C25.2647 69.8549 25.4835 68.3944 27.3301 66.9025C29.1767 65.4106 33.1121 65.374 33.1485 66.1579C33.9898 66.3199 33.4819 68.9666 31.1509 71.0359C28.8198 73.1052 26.2153 72.0183 26.4159 70.3618Z" fill="#E0E0E0"/>
<path d="M29.2704 68.2324C27.4644 69.0357 25.9466 70.3741 24.9209 72.0679C24.861 72.162 25.0094 72.3475 25.0745 72.243C26.105 70.5722 27.551 69.1991 29.2704 68.2585C29.2704 68.2585 29.286 68.2245 29.2704 68.2324Z" fill="#E0E0E0"/>
<path opacity="0.1" d="M29.2704 68.2324C27.4644 69.0357 25.9466 70.3741 24.9209 72.0679C24.861 72.162 25.0094 72.3475 25.0745 72.243C26.105 70.5722 27.551 69.1991 29.2704 68.2585C29.2704 68.2585 29.286 68.2245 29.2704 68.2324Z" fill="black"/>
<path d="M26.6502 72.9118C25.3167 74.2182 26.7909 75.8538 28.9526 76.6585C31.1144 77.4633 33.5079 76.9198 34.5523 76.3973C35.5967 75.8747 35.8103 75.6134 35.8103 75.6134C35.8103 75.6134 35.2894 73.889 34.706 72.9589C34.1332 72.0591 33.3144 71.3436 32.3474 70.8979C31.3803 70.4522 30.3058 70.2951 29.2521 70.4454C26.4836 70.7981 26.257 71.953 26.6502 72.9118Z" fill="#F0F0F0"/>
<path d="M32.2474 73.8942C31.1772 73.3307 30.0392 72.9075 28.8615 72.6349C27.7025 72.4128 26.2752 72.4024 25.335 73.2306C24.9704 73.552 24.4885 74.247 24.7829 74.7408C24.8141 74.7904 24.96 74.8819 24.9912 74.7826C25.0607 74.4694 25.161 74.164 25.2907 73.8707C25.465 73.5803 25.7155 73.3435 26.0148 73.1862C26.7746 72.8074 27.629 72.662 28.4708 72.7681C29.7913 72.8962 31.0337 73.4266 32.2474 73.9256C32.2578 73.9308 32.2578 73.8995 32.2474 73.8942Z" fill="#E0E0E0"/>
<path opacity="0.1" d="M32.2474 73.8942C31.1772 73.3307 30.0392 72.9075 28.8615 72.6349C27.7025 72.4128 26.2752 72.4024 25.335 73.2306C24.9704 73.552 24.4885 74.247 24.7829 74.7408C24.8141 74.7904 24.96 74.8819 24.9912 74.7826C25.0607 74.4694 25.161 74.164 25.2907 73.8707C25.465 73.5803 25.7155 73.3435 26.0148 73.1862C26.7746 72.8074 27.629 72.662 28.4708 72.7681C29.7913 72.8962 31.0337 73.4266 32.2474 73.9256C32.2578 73.9308 32.2578 73.8995 32.2474 73.8942Z" fill="black"/>
<path d="M27.0175 64.6294C26.6842 65.8052 28.1791 66.9025 30.0388 66.2728C31.8984 65.6432 33.8413 65.0736 35.4171 65.0422C36.9928 65.0109 38.0059 63.9762 37.6804 63.2708C37.3548 62.5653 36.9693 60.8879 32.9298 60.3967C28.8902 59.9055 27.0696 61.3608 26.2232 62.4817C25.3767 63.6026 26.343 64.8254 27.0175 64.6294Z" fill="#F0F0F0"/>
<path d="M34.5237 62.1603C34.097 62.0618 33.659 62.0213 33.2215 62.0401C32.8001 62.0415 32.3796 62.0755 31.9635 62.142C31.1437 62.2878 30.3455 62.5371 29.5882 62.884C28.1687 63.5163 26.7597 64.3394 25.8377 65.6222C25.3401 66.3082 24.9395 67.06 24.6474 67.8561C24.5953 68.0077 24.887 68.0939 24.9522 67.958C25.2468 67.2889 25.5844 66.6395 25.9627 66.0141C26.3735 65.3831 26.8982 64.8346 27.5098 64.3968C28.7997 63.4711 30.2552 62.8032 31.7968 62.4294C32.2462 62.3245 32.7036 62.2572 33.1642 62.2282C33.6223 62.2195 34.0806 62.2369 34.5367 62.2805C34.594 62.2831 34.5654 62.1708 34.5237 62.1603Z" fill="#E0E0E0"/>
<path opacity="0.1" d="M34.5237 62.1603C34.097 62.0618 33.659 62.0213 33.2215 62.0401C32.8001 62.0415 32.3796 62.0755 31.9635 62.142C31.1437 62.2878 30.3455 62.5371 29.5882 62.884C28.1687 63.5163 26.7597 64.3394 25.8377 65.6222C25.3401 66.3082 24.9395 67.06 24.6474 67.8561C24.5953 68.0077 24.887 68.0939 24.9522 67.958C25.2468 67.2889 25.5844 66.6395 25.9627 66.0141C26.3735 65.3831 26.8982 64.8346 27.5098 64.3968C28.7997 63.4711 30.2552 62.8032 31.7968 62.4294C32.2462 62.3245 32.7036 62.2572 33.1642 62.2282C33.6223 62.2195 34.0806 62.2369 34.5367 62.2805C34.594 62.2831 34.5654 62.1708 34.5237 62.1603Z" fill="black"/>
<path d="M23.7046 71.2527C23.3894 70.0456 21.8632 69.3663 19.8655 69.2174C18.8819 69.1288 17.8934 69.3219 17.0147 69.7742C16.136 70.2265 15.4032 70.9194 14.9013 71.7727C13.8595 73.565 13.422 74.9916 14.0575 75.2241C14.693 75.4567 17.373 75.8303 19.105 75.9845C20.837 76.1386 23.0118 75.8277 24.4104 74.5082C25.809 73.1888 25.3584 71.5323 23.7046 71.2527Z" fill="#E0E0E0"/>
<path d="M23.7801 71.0829C23.0759 70.8999 22.3415 70.8661 21.6236 70.9836C20.9302 71.0643 20.248 71.222 19.5895 71.4539C18.8929 71.6989 18.2185 72.0031 17.5736 72.3632C17.235 72.5478 16.9033 72.7447 16.5786 72.9537C16.2659 73.1374 15.9673 73.3444 15.6853 73.5729C15.6853 73.5729 15.6853 73.6225 15.6853 73.6147C16.0135 73.4658 16.3208 73.2594 16.6333 73.0922C16.9459 72.9249 17.3105 72.7159 17.6569 72.5409C18.3009 72.2078 18.9686 71.9231 19.6546 71.6891C20.3411 71.4581 21.0514 71.3056 21.772 71.2345C22.4452 71.1996 23.12 71.2171 23.7905 71.2867C23.9442 71.2972 23.8634 71.1221 23.7801 71.0829Z" fill="#E0E0E0"/>
<path opacity="0.1" d="M23.7801 71.0829C23.0759 70.8999 22.3415 70.8661 21.6236 70.9836C20.9302 71.0643 20.248 71.222 19.5895 71.4539C18.8929 71.6989 18.2185 72.0031 17.5736 72.3632C17.235 72.5478 16.9033 72.7447 16.5786 72.9537C16.2659 73.1374 15.9673 73.3444 15.6853 73.5729C15.6853 73.5729 15.6853 73.6225 15.6853 73.6147C16.0135 73.4658 16.3208 73.2594 16.6333 73.0922C16.9459 72.9249 17.3105 72.7159 17.6569 72.5409C18.3009 72.2078 18.9686 71.9231 19.6546 71.6891C20.3411 71.4581 21.0514 71.3056 21.772 71.2345C22.4452 71.1996 23.12 71.2171 23.7905 71.2867C23.9442 71.2972 23.8634 71.1221 23.7801 71.0829Z" fill="black"/>
<path d="M69.9944 60.3367L84.762 51.7825L100.431 60.8827L85.6658 69.4343L69.9944 60.3367Z" fill="#F5F5F5"/>
<path d="M85.6658 86.7413L69.9944 77.6437V60.3367L85.6658 69.4343V86.7413Z" fill="#EBEBEB"/>
<path d="M85.6657 86.7413L100.431 78.1897V60.8827L85.6657 69.4343V86.7413Z" fill="#E0E0E0"/>
<path d="M94.2736 64.4466L78.5919 55.3541L76.1333 56.7807L91.8176 65.8705L94.2736 64.4466Z" fill="#FAFAFA"/>
<path d="M94.2736 64.4465V67.2971L93.9325 67.0959L93.4741 67.7621L93.1902 67.5165L92.6875 68.2194L92.3645 67.9607L91.8176 68.721V65.8705L94.2736 64.4465Z" fill="#E6E6E6"/>
<path d="M72.3463 50.3062L84.8323 43.0741L98.0814 50.7687L85.5954 58.0008L72.3463 50.3062Z" fill="#F5F5F5"/>
<path d="M85.5954 67.642L72.3463 59.95V50.3063L85.5954 58.0009V67.642Z" fill="#EBEBEB"/>
<path d="M85.5954 67.6419L98.0814 60.4098V50.7687L85.5954 58.0008V67.6419Z" fill="#E0E0E0"/>
<path d="M92.875 53.7812L79.6155 46.0945L77.5345 47.3016L90.7992 54.9857L92.875 53.7812Z" fill="#FAFAFA"/>
<path d="M92.875 53.7812V56.1928L92.5859 56.023L92.2004 56.5848L91.9582 56.3783L91.5337 56.9714L91.2602 56.7546L90.7992 57.3973V54.9857L92.875 53.7812Z" fill="#E6E6E6"/>
<path d="M105.525 83.4597L86.007 94.7626L105.525 106.068L125.041 94.7626L105.525 83.4597Z" fill="#E0E0E0"/>
<path d="M88.8979 75.5038V94.7625L105.525 104.388V85.1344L88.8979 75.5038Z" fill="#0BBBB9"/>
<path d="M105.525 85.1344V104.388L122.15 94.7625V75.5038L105.525 85.1344Z" fill="#0BBBB9"/>
<path opacity="0.25" d="M105.525 85.1344V104.388L122.15 94.7625V75.5038L105.525 85.1344Z" fill="white"/>
<path opacity="0.4" d="M105.525 85.1344L105.786 103.91L115.381 98.6816L105.525 104.388V85.1344Z" fill="white"/>
<path d="M105.525 65.8757L88.8979 75.5038L105.525 85.1345L122.15 75.5038L105.525 65.8757Z" fill="#0BBBB9"/>
<path opacity="0.4" d="M105.525 65.8757L88.8979 75.5038L105.525 85.1345L122.15 75.5038L105.525 65.8757Z" fill="white"/>
<path opacity="0.1" d="M88.8979 75.5038L105.47 84.638L122.15 75.5038L105.525 85.1344L88.8979 75.5038Z" fill="white"/>
<path d="M96.0239 71.3783L112.651 81.0089L115.026 79.632L98.4018 70.0013L96.0239 71.3783Z" fill="#0BBBB9"/>
<path d="M115.024 79.632V82.6602L114.737 82.4956L114.44 83.0103L114.141 82.8352L113.844 83.3578L113.544 83.1827L113.247 83.6974L112.948 83.5276L112.651 84.0449V81.0115L115.024 79.632Z" fill="#0BBBB9"/>
<path opacity="0.25" d="M115.024 79.632V82.6602L114.737 82.4956L114.44 83.0103L114.141 82.8352L113.844 83.3578L113.544 83.1827L113.247 83.6974L112.948 83.5276L112.651 84.0449V81.0115L115.024 79.632Z" fill="black"/>
<path d="M48.9475 97.9187C49.111 97.5305 49.1439 97.0994 49.0412 96.6907C48.8728 96.1077 48.635 95.5471 48.3328 95.0212C47.2783 92.837 46.9884 90.36 47.5098 87.9902C47.7442 86.9451 48.5516 86.1377 49.2366 85.3565C50.7316 83.6608 52.362 82.088 54.0132 80.5386L48.3458 74.8506C47.1999 76.7501 43.9677 83.1095 43.9677 83.1095L43.6135 83.7915C43.4989 83.9378 43.4337 84.1128 43.3296 84.2618C43.1702 84.4498 42.996 84.6245 42.8087 84.7843L41.7903 85.8033C41.4678 86.0792 41.216 86.4286 41.0558 86.8223C40.8188 87.5748 41.2772 88.3429 41.5351 89.0902C41.9518 90.3025 41.8398 91.6219 41.9049 92.9048C41.913 93.252 41.9593 93.5972 42.0429 93.9342C42.2415 94.5533 42.5711 95.1219 43.0092 95.6012C43.9665 96.7343 45.1619 97.6408 46.5097 98.2558C46.9589 98.4497 47.453 98.5148 47.9369 98.4439C48.2703 98.3838 48.76 98.2375 48.9475 97.9187Z" fill="#FFA8A7"/>
<path d="M40.4854 86.5741C40.2855 86.9006 40.1527 87.2639 40.0948 87.6427C40.014 88.032 40.9178 89.5422 41.0011 90.313C41.0845 91.0837 41.0011 91.3267 41.035 92.3274C41.061 93.4326 40.7459 94.5822 42.5091 96.7325C44.2724 98.8829 45.9705 99.5517 47.2441 99.7294C47.7081 99.7706 48.1751 99.6998 48.6063 99.523C48.6063 99.523 49.7444 98.4596 49.2105 97.7463C48.6766 97.033 40.4854 86.5741 40.4854 86.5741Z" fill="#263238"/>
<path d="M48.3849 87.3292C48.4526 87.5905 48.2703 87.9171 48.1244 88.4971C47.9519 89.3113 47.9351 90.1509 48.0749 90.9714C48.8693 95.191 50.3409 96.8057 49.3225 98.6686C48.9501 99.3479 47.5749 99.7137 44.6656 98.0415C43.1785 97.1872 41.5715 94.8383 41.4751 93.5162C41.3788 92.1942 41.5871 91.217 41.4751 90.2189C41.3631 89.2208 40.3083 87.5487 40.488 86.5741C40.6365 85.9183 41.3423 85.2155 41.621 84.9829C42.1446 84.5636 42.6309 84.0994 43.0743 83.5955C43.3868 83.1958 43.6108 82.9345 43.965 83.1096L43.6108 83.7915C43.3165 85.0169 43.3504 85.2677 43.4233 85.8086C43.504 86.5244 43.7593 86.8249 43.8765 87.3762C44.1109 86.5636 44.09 85.9131 44.6578 85.7563C44.9626 85.6727 45.2855 85.6492 46.3325 86.0515C47.3795 86.4539 48.3276 87.0888 48.3849 87.3292Z" fill="#455A64"/>
<path d="M44.6917 98.0493C43.2176 97.2106 41.5976 94.8592 41.5012 93.524C41.4719 93.0892 41.4667 92.6531 41.4856 92.2177C41.5038 92.3039 41.5116 92.3927 41.5298 92.4659C41.5663 92.6252 41.608 92.7846 41.6575 92.944C41.8127 93.576 42.1275 94.1573 42.5716 94.6318C42.9884 95.0264 43.9911 96.0349 44.6552 95.7945C45.0303 95.656 45.1944 95.1648 45.1761 94.6919C45.1631 94.4934 45.0694 93.9787 45.0694 93.9787C45.7258 93.8729 46.3949 93.8729 47.0514 93.9787C48.2547 94.2164 48.2781 94.3706 48.2781 94.3706C48.3328 94.6683 48.4376 94.9546 48.588 95.2171C48.7356 95.4721 48.9353 95.693 49.1741 95.8651C49.2657 95.9177 49.3637 95.9581 49.4658 95.9853C49.7939 96.8997 49.9867 97.7149 49.3538 98.6869C48.9006 99.3009 47.6009 99.7215 44.6917 98.0493Z" fill="#37474F"/>
<path d="M47.9942 89.5814C47.9277 89.7752 47.9012 89.9806 47.9161 90.185C47.9315 91.118 48.0317 92.0476 48.2156 92.9623C48.2855 93.3092 48.2703 93.6678 48.1713 94.0075C48.0984 94.1319 48.0398 94.2642 47.9968 94.402C47.981 94.4549 47.9823 94.5115 48.0006 94.5636C48.0188 94.6157 48.0531 94.6606 48.0984 94.692C48.1669 94.7507 48.2512 94.7878 48.3406 94.7985C48.4301 94.8092 48.5207 94.793 48.6011 94.7521C48.7048 94.6724 48.7819 94.5631 48.8224 94.4386C48.8597 94.362 48.8927 94.2835 48.9214 94.2034C48.5756 93.1394 48.2964 92.0547 48.0854 90.9557C48.0034 90.5026 47.9728 90.0415 47.9942 89.5814Z" fill="#37474F"/>
<path d="M42.7644 85.5133C42.7239 84.9483 42.7607 84.3804 42.8738 83.8255C42.9493 83.7445 43.017 83.6635 43.0717 83.5955C43.3842 83.1958 43.6082 82.9345 43.9624 83.1096L43.6082 83.7915C43.4883 84.378 43.4707 84.9809 43.5561 85.5734C43.6916 86.3834 43.7567 86.8249 43.8739 87.3867C44.1682 89.2391 44.038 89.9524 44.5042 91.6246C44.9704 93.2968 45.7257 94.2373 45.546 94.4255C45.3663 94.6136 44.8297 94.6136 44.2255 93.3804C43.6213 92.1471 43.3035 89.7512 43.2853 88.5703C43.267 87.3893 42.879 86.7047 42.7644 85.5133Z" fill="#37474F"/>
<path d="M44.9913 93.95C45.0216 93.9663 45.0559 93.9736 45.0902 93.9709C46.3169 93.8638 47.0202 93.9709 48.1818 94.7338C48.2202 94.7587 48.2669 94.7675 48.3117 94.7582C48.3565 94.7489 48.3959 94.7223 48.4214 94.6842C48.4458 94.6457 48.4541 94.5991 48.4443 94.5545C48.4345 94.5099 48.4076 94.4711 48.3693 94.4464C47.1426 93.6417 46.3664 93.5163 45.059 93.6286C45.0227 93.6323 44.9886 93.6475 44.9615 93.6719C44.9344 93.6963 44.9157 93.7287 44.9082 93.7645C44.9007 93.8003 44.9046 93.8375 44.9196 93.8708C44.9345 93.9042 44.9596 93.9319 44.9913 93.95Z" fill="#EBEBEB"/>
<path d="M44.71 92.6409C44.7406 92.6562 44.7749 92.6625 44.8089 92.6592C46.0825 92.5259 46.8535 92.6357 48.1167 93.3855C48.1365 93.3981 48.1586 93.4064 48.1818 93.41C48.2049 93.4137 48.2286 93.4125 48.2513 93.4066C48.2739 93.4008 48.2952 93.3903 48.3137 93.3759C48.3322 93.3615 48.3476 93.3434 48.3589 93.3228C48.3826 93.2823 48.3894 93.2339 48.3777 93.1884C48.366 93.1428 48.3367 93.1038 48.2964 93.0799C46.9629 92.296 46.1242 92.168 44.7725 92.296C44.7262 92.3013 44.6837 92.3244 44.6541 92.3605C44.6244 92.3966 44.6099 92.4428 44.6136 92.4894C44.6158 92.5207 44.6257 92.551 44.6426 92.5774C44.6594 92.6039 44.6826 92.6257 44.71 92.6409Z" fill="#EBEBEB"/>
<path d="M44.2594 91.2301C44.2933 91.2467 44.3313 91.253 44.3688 91.2484C45.7726 91.0812 46.6764 91.2118 48.0828 92.0139C48.1048 92.0264 48.1292 92.0345 48.1543 92.0376C48.1795 92.0407 48.205 92.0388 48.2294 92.032C48.2539 92.0252 48.2767 92.0136 48.2967 91.998C48.3167 91.9823 48.3334 91.9629 48.3458 91.9408C48.3583 91.9186 48.3663 91.8943 48.3694 91.869C48.3725 91.8438 48.3706 91.8182 48.3639 91.7937C48.3571 91.7692 48.3456 91.7462 48.33 91.7262C48.3144 91.7062 48.295 91.6894 48.2729 91.6769C46.7962 90.833 45.8117 90.6866 44.3219 90.8617C44.2808 90.8674 44.2425 90.8861 44.2127 90.9151C44.1829 90.9441 44.1631 90.9819 44.1561 91.0229C44.1491 91.064 44.1554 91.1062 44.174 91.1435C44.1925 91.1807 44.2224 91.2111 44.2594 91.2301Z" fill="#EBEBEB"/>
<path d="M44.0875 89.7617C44.1208 89.7772 44.1577 89.7835 44.1943 89.7799C45.5721 89.6284 46.4446 89.7564 47.8197 90.5638C47.8637 90.5885 47.9156 90.595 47.9643 90.5818C48.013 90.5686 48.0546 90.5368 48.0802 90.4932C48.0932 90.4717 48.1018 90.4478 48.1055 90.4229C48.1091 90.398 48.1077 90.3726 48.1014 90.3482C48.0951 90.3239 48.084 90.301 48.0687 90.281C48.0534 90.2611 48.0343 90.2444 48.0125 90.232C46.5696 89.3933 45.6137 89.2443 44.1552 89.4037C44.1049 89.4096 44.059 89.4351 44.0273 89.4747C43.9957 89.5143 43.9808 89.5648 43.9859 89.6153C43.9901 89.646 44.0015 89.6753 44.0192 89.7008C44.0368 89.7262 44.0602 89.7471 44.0875 89.7617Z" fill="#EBEBEB"/>
<path d="M43.9442 88.2541C43.9765 88.2702 44.0125 88.2774 44.0484 88.275C45.4314 88.1601 46.4394 88.4658 47.7937 89.3018C47.8149 89.3157 47.8387 89.3252 47.8636 89.3298C47.8885 89.3343 47.9141 89.3338 47.9388 89.3283C47.9636 89.3228 47.9869 89.3124 48.0076 89.2977C48.0283 89.283 48.0458 89.2643 48.0592 89.2428C48.0725 89.2212 48.0815 89.1971 48.0854 89.172C48.0894 89.1469 48.0883 89.1213 48.0823 89.0966C48.0762 89.0719 48.0653 89.0487 48.0502 89.0283C48.0351 89.0079 48.0161 88.9908 47.9942 88.9779C46.5722 88.1 45.4809 87.7708 44.0172 87.8936C43.9669 87.8982 43.9205 87.9224 43.8879 87.961C43.8553 87.9996 43.839 88.0495 43.8427 88.1C43.8456 88.1321 43.8565 88.1629 43.8742 88.1898C43.8919 88.2167 43.916 88.2388 43.9442 88.2541Z" fill="#EBEBEB"/>
<path d="M64.4365 36.4717C65.5981 40.0825 66.6842 42.9905 67.5228 50.5806C68.3042 57.703 68.7521 61.016 68.0698 64.6635C67.8353 65.9176 65.8794 68.5826 64.4 70.2391C60.6157 74.4979 53.9169 81.2127 53.9169 81.2127C52.3434 81.0307 50.8962 80.26 49.8643 79.0546C47.7286 76.5333 48.4474 74.6573 48.4474 74.6573C48.4474 74.6573 49.2288 73.1706 51.6483 68.614C54.6748 62.9286 57.1751 62.0585 57.1751 62.0585L53.5444 37.9662C58.3966 38.4234 62.1758 38.3372 64.4365 36.4717Z" fill="#263238"/>
<path d="M59.4645 75.543C59.8109 72.2665 60.1651 68.3787 60.1208 66.4949C60.0401 62.8893 60.0635 50.2435 60.0635 50.2435C63.34 48.0462 63.4494 45.6032 63.3478 43.1002C60.587 43.0741 57.8627 43.4111 55.1097 43.513C54.8685 43.5241 54.6283 43.5521 54.3909 43.5966L57.1751 62.0637C57.1751 62.0637 54.6748 62.9337 51.6483 68.6191C49.2236 73.1758 48.4474 74.6625 48.4474 74.6625C48.4474 74.6625 47.7286 76.5384 49.8643 79.0597C50.8962 80.2652 52.3434 81.0358 53.9169 81.2179C53.9169 81.2179 56.5604 78.5685 59.4645 75.543Z" fill="black"/>
<path d="M59.8629 101.318C59.8629 101.318 57.3704 98.1826 57.3704 94.4124C57.3704 90.6422 57.7793 84.1808 57.7793 84.1808L50.07 86.156L51.7629 96.2727L51.8541 97.0565C51.8541 97.0565 51.4139 101.477 54.8571 101.608C56.6203 101.689 59.8629 101.318 59.8629 101.318Z" fill="#FFA8A7"/>
<path d="M50.7706 101.318C50.7877 101.718 50.8833 102.11 51.0519 102.473C51.2082 102.86 52.8751 103.641 53.396 104.26C53.9169 104.879 53.9924 105.135 54.5966 105.99C55.2634 106.933 55.6567 108.119 58.4383 108.95C61.2199 109.781 63.0847 109.373 64.2932 108.783C64.7198 108.546 65.0841 108.211 65.3559 107.805C65.3559 107.805 65.7257 106.214 64.848 105.906C63.9703 105.598 50.7706 101.318 50.7706 101.318Z" fill="#263238"/>
<path d="M58.0632 97.3465C58.2768 97.5399 58.3055 97.924 58.519 98.5119C58.8439 99.3189 59.3175 100.057 59.915 100.688C63.0613 103.886 65.2803 104.427 65.4783 106.64C65.5512 107.45 64.5667 108.568 61.0688 108.822C59.2821 108.95 56.5188 107.852 55.6645 106.76C54.8102 105.668 54.4273 104.699 53.7424 103.902C53.0574 103.105 51.1769 102.269 50.7654 101.318C50.505 100.66 50.7159 99.6353 50.8227 99.2722C51.0329 98.6011 51.1854 97.9131 51.2785 97.2159C51.3176 96.6934 51.3592 96.3276 51.7681 96.2727L51.8593 97.0565C52.3151 98.295 52.5 98.4883 52.8672 98.922C53.3543 99.4942 53.7502 99.6066 54.1695 100.025C53.9091 99.1833 53.5054 98.6294 53.9091 98.167C54.1252 97.9057 54.3909 97.7071 55.5343 97.4406C56.6776 97.1741 57.8679 97.1741 58.0632 97.3465Z" fill="#455A64"/>
<path d="M61.0871 108.817C59.3004 108.947 56.537 107.85 55.6853 106.755C55.4038 106.393 55.143 106.015 54.904 105.624C54.9691 105.689 55.029 105.76 55.0863 105.815C55.2113 105.93 55.3467 106.045 55.4743 106.154C55.9765 106.613 56.5885 106.933 57.2506 107.084C57.8418 107.181 59.3004 107.471 59.7379 106.873C59.9827 106.533 59.8421 106.011 59.5426 105.616C59.415 105.449 59.0373 105.06 59.0373 105.06C59.5438 104.581 60.1244 104.189 60.7563 103.897C61.9387 103.4 62.0585 103.521 62.0585 103.521C62.2799 103.746 62.5369 103.933 62.8191 104.075C63.0966 104.209 63.3991 104.284 63.7072 104.294C63.8169 104.284 63.9252 104.262 64.0301 104.229C64.8454 104.83 65.4835 105.425 65.5043 106.638C65.473 107.448 64.5745 108.563 61.0871 108.817Z" fill="#37474F"/>
<path d="M59.0269 99.5334C59.0817 99.7408 59.1783 99.9347 59.3108 100.103C59.8671 100.904 60.4948 101.653 61.1861 102.34C61.4514 102.602 61.6489 102.926 61.7616 103.283C61.772 103.433 61.7973 103.582 61.8372 103.727C61.8529 103.783 61.8872 103.833 61.9344 103.868C61.9817 103.902 62.0392 103.92 62.0976 103.918C62.1911 103.929 62.2857 103.912 62.3696 103.869C62.4535 103.826 62.5229 103.76 62.569 103.677C62.6095 103.547 62.6095 103.408 62.569 103.278C62.5577 103.19 62.5412 103.102 62.5196 103.016C61.6047 102.294 60.7349 101.515 59.9151 100.686C59.5773 100.336 59.2794 99.9494 59.0269 99.5334Z" fill="#37474F"/>
<path d="M52.1224 99.0605C51.7579 98.5943 51.4591 98.08 51.2343 97.5321C51.2525 97.4171 51.2655 97.3074 51.2733 97.2159C51.3124 96.6934 51.3541 96.3276 51.763 96.2727L51.8541 97.0565C52.0892 97.6375 52.4242 98.1726 52.8438 98.6373C53.4351 99.2617 53.745 99.6066 54.1747 100.025C55.5082 101.462 55.8104 102.157 57.1855 103.338C58.5607 104.519 59.7692 104.892 59.7119 105.167C59.6546 105.441 59.191 105.749 57.9513 105.02C56.7115 104.291 55.042 102.407 54.3388 101.394C53.6356 100.38 52.9116 100.03 52.1224 99.0605Z" fill="#37474F"/>
<path d="M58.9618 105.083C58.9969 105.079 59.0302 105.065 59.0582 105.044C60.0635 104.234 60.7381 103.915 62.1836 103.897C62.231 103.895 62.2761 103.876 62.3091 103.841C62.3422 103.807 62.3607 103.762 62.3607 103.714C62.3607 103.69 62.356 103.667 62.347 103.645C62.3379 103.624 62.3246 103.604 62.3079 103.587C62.2912 103.571 62.2713 103.558 62.2495 103.549C62.2278 103.54 62.2044 103.536 62.181 103.536C60.6443 103.557 59.8968 103.899 58.829 104.762C58.8097 104.777 58.7935 104.795 58.7816 104.817C58.7697 104.838 58.7621 104.862 58.7595 104.886C58.7568 104.911 58.759 104.935 58.766 104.959C58.7731 104.982 58.7847 105.004 58.8003 105.023C58.8204 105.045 58.8455 105.063 58.8737 105.073C58.9018 105.083 58.932 105.087 58.9618 105.083Z" fill="#EBEBEB"/>
<path d="M57.9565 104.108C57.9918 104.105 58.0254 104.092 58.0528 104.069C59.0816 103.207 59.8161 102.852 61.3475 102.763C61.3719 102.762 61.3959 102.756 61.418 102.745C61.4401 102.735 61.4599 102.72 61.4762 102.702C61.4924 102.684 61.5049 102.662 61.5128 102.639C61.5206 102.616 61.5238 102.591 61.522 102.567C61.5187 102.518 61.4964 102.472 61.4599 102.439C61.4234 102.407 61.3756 102.39 61.3267 102.392C59.7119 102.488 58.9097 102.873 57.8158 103.784C57.7782 103.816 57.7546 103.861 57.7502 103.91C57.7458 103.959 57.761 104.008 57.7924 104.046C57.8123 104.069 57.8377 104.087 57.8664 104.098C57.8951 104.109 57.9261 104.113 57.9565 104.108Z" fill="#EBEBEB"/>
<path d="M56.761 103.147C56.7994 103.141 56.8355 103.125 56.8652 103.1C57.9877 102.133 58.8472 101.718 60.5349 101.592C60.5886 101.588 60.6383 101.562 60.6734 101.521C60.7084 101.48 60.726 101.427 60.7224 101.373C60.7208 101.346 60.7139 101.32 60.7021 101.296C60.6903 101.272 60.6738 101.251 60.6537 101.233C60.6336 101.216 60.6102 101.202 60.5848 101.194C60.5595 101.186 60.5328 101.183 60.5063 101.185C58.73 101.318 57.7898 101.767 56.5995 102.792C56.5594 102.827 56.5347 102.877 56.5308 102.931C56.5269 102.985 56.5441 103.038 56.5787 103.079C56.6008 103.105 56.6292 103.125 56.6611 103.137C56.693 103.148 56.7273 103.152 56.761 103.147Z" fill="#EBEBEB"/>
<path d="M55.7426 101.974C55.7797 101.968 55.8146 101.953 55.8442 101.929C56.9511 100.991 57.7846 100.592 59.4436 100.482C59.4959 100.478 59.5446 100.454 59.5791 100.414C59.6137 100.374 59.6314 100.323 59.6286 100.27C59.6269 100.244 59.6201 100.219 59.6086 100.195C59.5971 100.172 59.5811 100.151 59.5615 100.134C59.5419 100.116 59.5191 100.103 59.4944 100.095C59.4697 100.086 59.4436 100.083 59.4176 100.085C57.6778 100.197 56.761 100.628 55.5864 101.624C55.5462 101.658 55.5212 101.707 55.5168 101.76C55.5124 101.813 55.529 101.865 55.5629 101.906C55.5852 101.931 55.6132 101.95 55.6445 101.962C55.6758 101.974 55.7094 101.978 55.7426 101.974Z" fill="#EBEBEB"/>
<path d="M54.7399 100.748C54.7775 100.746 54.8133 100.732 54.8415 100.707C55.9744 99.7973 57.0293 99.4733 58.6935 99.4002C58.746 99.3977 58.7954 99.3745 58.8308 99.3355C58.8663 99.2966 58.8848 99.2451 58.8824 99.1924C58.88 99.1398 58.8568 99.0902 58.818 99.0547C58.7791 99.0192 58.7278 99.0006 58.6753 99.003C56.9329 99.071 55.7947 99.4263 54.5941 100.39C54.5604 100.417 54.5363 100.454 54.5256 100.496C54.5148 100.538 54.5179 100.582 54.5344 100.622C54.5508 100.662 54.5798 100.695 54.6169 100.717C54.654 100.739 54.6972 100.748 54.7399 100.743V100.748Z" fill="#EBEBEB"/>
<path d="M64.3505 35.6382C64.3505 35.6382 64.9678 39.7794 63.6525 43.5549C62.5091 46.8365 60.9907 48.7464 58.6805 49.5172C58.6805 49.5172 58.7716 64.1853 58.98 66.2389C59.1884 68.2926 58.7039 75.7181 58.2716 80.6092C57.8392 85.5003 57.7064 87.1751 57.7064 87.1751C57.7064 87.1751 56.688 88.2776 53.8387 88.3351C50.9894 88.3926 50.083 87.1829 50.083 87.1829C50.083 87.1829 48.2807 81.5341 48.2052 77.0924C48.1609 74.5502 48.7052 73.2882 48.2338 70.7669C47.7624 68.2455 44.2802 57.0263 43.6916 51.6936C43.1029 46.361 42.3893 42.6456 46.1372 35.923C50.1038 38.5854 60.738 38.2483 64.3505 35.6382Z" fill="#263238"/>
<path d="M49.2991 37.0805C47.3014 39.9101 44.4208 45.7392 46.4654 54.1001C47.0462 56.4751 47.627 58.7691 48.1869 60.9899C49.4892 66.1841 50.531 70.2888 50.6768 71.8538C50.7256 72.7372 50.6837 73.6232 50.5518 74.498C50.2664 76.5591 50.2664 78.65 50.5518 80.7111C50.9112 83.3892 51.4295 86.1979 51.8072 88.1027C51.6848 88.0713 51.5728 88.0373 51.466 88.0034C51.0936 86.0987 50.5909 83.3605 50.2419 80.7555C49.9552 78.6733 49.9578 76.5612 50.2497 74.4797C50.3799 73.6258 50.4218 72.7607 50.3747 71.8983C50.2367 70.3567 49.2027 66.2651 47.8926 61.0814C47.3327 58.8631 46.7518 56.5665 46.171 54.1889C44.1109 45.7679 46.9836 39.8657 49.0126 36.9681C49.0985 37.0021 49.2079 37.0413 49.2991 37.0805Z" fill="black"/>
<path d="M59.7874 2.06674C58.6065 2.2311 57.5306 2.83557 56.774 3.75981C55.5759 5.19945 55.3962 7.29489 54.1695 8.7084C53.7007 9.24924 53.1016 9.65945 52.5781 10.1454C51.5205 11.1117 50.817 12.4063 50.5805 13.8216C50.406 14.9947 50.5674 16.484 51.242 17.4795C51.9606 18.5367 52.9147 19.4116 54.0288 20.0348C54.6778 20.3884 55.3612 20.6747 56.0682 20.8891C60.0192 22.1433 64.1708 21.8506 68.1218 20.8447C69.183 20.5569 70.1448 19.9818 70.9019 19.1822C71.6589 18.3826 72.1821 17.3895 72.414 16.3116C72.5625 15.5721 72.5573 14.7674 72.1848 14.1142C72.487 14.2521 72.7302 14.4937 72.8706 14.7955C73.0109 15.0972 73.0393 15.4394 72.9506 15.7603C73.5392 15.4284 73.646 14.6002 73.4715 13.947C73.297 13.2938 72.9089 12.7085 72.7604 12.0345C72.6644 11.5966 72.6769 11.1417 72.7969 10.7098C72.9115 10.2996 73.1199 9.92595 73.2709 9.52097C73.5891 8.68256 73.6587 7.76974 73.4715 6.89252C73.3326 6.31539 73.1162 5.75987 72.8282 5.24125C71.907 3.48769 70.4838 2.05085 68.7417 1.11569C66.9832 0.187145 64.9576 -0.0991867 63.0118 0.305734C61.8067 0.6119 60.6978 1.21752 59.7874 2.06674Z" fill="#37474F"/>
<path d="M46.1372 35.9283C45.9966 35.7637 46.9967 31.5493 47.6114 27.7869C48.226 24.0245 50.8826 17.1634 52.1693 16.9596C55.6645 16.4031 62.556 15.4154 64.8662 16.9596C66.6894 18.1693 68.7339 22.8801 69.3876 25.2159C70.4008 28.8242 68.7053 32.0091 65.8273 32.5317L64.4365 36.49C64.4365 36.49 64.0718 38.98 58.17 39.5235C52.4479 40.0277 47.4447 38.2014 46.1372 35.9283Z" fill="#0BBBB9"/>
<path d="M56.9772 11.9613C58.1362 12.8732 58.9774 12.1338 58.9774 12.1338L56.8209 16.9308C56.8209 16.9308 56.7818 18.1196 58.1231 19.7683C59.7431 21.767 61.2486 23.5045 63.379 24.5601C63.7124 22.2504 63.3113 20.4972 63.2801 19.3346L63.9807 17.8714C63.9807 17.8714 64.7021 18.2921 66.3247 18.1327C67.726 18.0047 68.7417 17.5709 69.51 16.1627C70.3044 14.7047 70.3956 13.0953 70.8123 11.2663C71.0727 10.1533 71.3332 8.96448 71.0727 7.82793C70.8409 6.74624 69.9997 5.58878 68.8329 5.46076C68.0125 5.36931 67.4056 5.89448 66.5774 5.59662C65.9367 5.3667 65.3819 4.90685 64.6761 4.88334C63.7593 4.85459 62.806 5.37454 62.4675 6.23152C62.332 6.57118 62.293 6.94481 62.1732 7.27663C61.9848 7.81278 61.6079 8.26153 61.1131 8.5386C60.9204 8.64572 60.6964 8.73978 60.6261 8.96448C60.5167 9.3172 60.4985 9.98607 59.9046 9.76399C59.7984 9.71468 59.7029 9.64472 59.6238 9.55817C59.5447 9.47161 59.4834 9.37017 59.4436 9.25972C59.3499 9.04548 59.2978 8.81294 59.2014 8.59869C58.73 7.55358 57.36 7.36024 56.5318 8.07614C55.3415 9.09512 56.1385 11.3029 56.9772 11.9613Z" fill="#FFA8A7"/>
<path d="M59.7145 12.4969C59.4675 13.5453 59.5672 14.6457 59.9984 15.6323C60.5375 16.8577 62.6602 18.2032 63.5613 18.7467L63.9729 17.8871C62.5534 17.2783 61.0766 16.2071 60.4568 15.1933C59.8369 14.1796 59.7145 12.4969 59.7145 12.4969Z" fill="#F28F8F"/>
<path d="M65.6371 7.89848C65.5955 7.89848 65.546 7.922 65.546 7.9638C65.546 8.00561 65.5851 8.01867 65.6163 8.03696C65.669 8.06699 65.7187 8.10198 65.7648 8.14147C65.8144 8.176 65.8555 8.22161 65.8846 8.27472C65.9034 8.31429 65.9157 8.35664 65.921 8.40014C65.9293 8.47125 65.9337 8.54278 65.9341 8.61438C65.9341 8.67448 65.9835 8.71367 66.0408 8.66664C66.0625 8.6478 66.0787 8.62342 66.0877 8.59609C66.1259 8.51468 66.1413 8.42433 66.132 8.33482C66.1272 8.28617 66.1149 8.23857 66.0955 8.19373C66.0552 8.10573 65.9906 8.03115 65.9094 7.97883C65.8282 7.92651 65.7337 7.89862 65.6371 7.89848ZM67.9812 8.02128C67.9859 7.99796 67.9846 7.97383 67.9774 7.95115C67.9703 7.92846 67.9576 7.90795 67.9404 7.89153C67.9233 7.8751 67.9022 7.8633 67.8793 7.8572C67.8564 7.85111 67.8323 7.85093 67.8093 7.85668C67.7302 7.89335 67.66 7.94698 67.6038 8.01379C67.5475 8.0806 67.5065 8.15896 67.4837 8.24337C67.4373 8.35613 67.4236 8.47981 67.4443 8.60005C67.4651 8.72028 67.5194 8.83216 67.6009 8.92269C67.627 8.9462 67.6687 8.96972 67.6999 8.94882C67.7702 8.89918 67.7181 8.64051 67.7234 8.56735C67.7315 8.46017 67.7645 8.35639 67.8197 8.26427C67.8817 8.19015 67.9342 8.10851 67.976 8.02128H67.9812ZM66.7128 7.45431C66.7077 7.45016 66.7016 7.44737 66.6952 7.44619C66.6887 7.44501 66.6821 7.44548 66.6758 7.44757C66.6696 7.44965 66.664 7.45328 66.6595 7.45811C66.6551 7.46294 66.6519 7.46882 66.6503 7.47521C66.643 7.50369 66.642 7.53341 66.6474 7.5623C66.6528 7.59119 66.6645 7.61854 66.6816 7.64243C66.7112 7.70292 66.7356 7.76586 66.7545 7.83055C66.7925 7.95865 66.8127 8.09142 66.8144 8.22508C66.8166 8.35025 66.807 8.47535 66.7857 8.59871C66.7649 8.71628 66.7284 8.82863 66.7102 8.94359C66.7102 8.94359 66.7102 8.99062 66.731 8.97494C66.8245 8.88451 66.8964 8.77414 66.9415 8.65202C66.9866 8.5299 67.0037 8.39915 66.9915 8.2695C66.9874 8.12821 66.9628 7.98826 66.9186 7.85407C66.8943 7.70107 66.8201 7.56048 66.7076 7.45431H66.7128Z" fill="#F28F8F"/>
<path d="M63.5327 8.73195L64.9652 8.35571C65.0103 8.55153 64.9787 8.75725 64.8769 8.93035C64.7751 9.10345 64.6109 9.23072 64.4182 9.28586C64.3238 9.30978 64.2255 9.31432 64.1292 9.29921C64.0329 9.2841 63.9407 9.24966 63.858 9.19794C63.7753 9.14622 63.7039 9.07829 63.648 8.99822C63.5921 8.91815 63.5529 8.82758 63.5327 8.73195Z" fill="#37474F"/>
<path d="M68.812 8.66663L70.07 9.47397C70.0229 9.55993 69.9588 9.6353 69.8816 9.69546C69.8044 9.75562 69.7157 9.79928 69.621 9.82375C69.5264 9.84823 69.4277 9.853 69.3311 9.83778C69.2345 9.82256 69.1421 9.78767 69.0595 9.73525C68.8871 9.62501 68.7646 9.45138 68.7183 9.2516C68.6721 9.05182 68.7057 8.84181 68.812 8.66663Z" fill="#37474F"/>
<path d="M65.1266 10.0252C65.0876 9.69078 64.7881 10.0644 64.387 10.1114C63.9859 10.1585 63.6369 9.85016 63.6759 10.195C63.7267 10.3618 63.8341 10.5054 63.9796 10.6008C64.1251 10.6963 64.2993 10.7375 64.4719 10.7173C64.6445 10.697 64.8046 10.6167 64.9243 10.4902C65.0439 10.3638 65.1155 10.1992 65.1266 10.0252Z" fill="#263238"/>
<path d="M69.8252 10.8326C69.9372 10.5139 69.5022 10.7177 69.122 10.5713C68.7417 10.425 68.5594 10.0148 68.4474 10.331C68.4183 10.5037 68.4507 10.6812 68.5391 10.8322C68.6275 10.9833 68.7662 11.0982 68.9307 11.1569C69.0952 11.2155 69.2751 11.2141 69.4387 11.1529C69.6023 11.0917 69.7391 10.9746 69.8252 10.8222V10.8326Z" fill="#263238"/>
<path d="M66.4628 9.73523L66.7128 13.5316L68.5073 12.9333L66.4628 9.73523Z" fill="#F28F8F"/>
<path d="M64.7047 14.1247C64.6039 14.1723 64.5149 14.242 64.4443 14.3285C64.2333 14.6055 64.4703 14.7805 64.7334 14.838C65.0263 14.8993 65.3053 15.0145 65.5564 15.1777C65.6615 15.2724 65.7936 15.3318 65.9341 15.3475C65.9793 15.3465 66.0239 15.3363 66.0651 15.3174C66.1063 15.2985 66.1433 15.2714 66.1737 15.2378C66.2215 15.165 66.246 15.0793 66.244 14.9922C66.239 14.8136 66.1873 14.6394 66.0941 14.4871C66.0008 14.3349 65.8693 14.2099 65.7127 14.1247C65.5561 14.0467 65.3836 14.0061 65.2087 14.0061C65.0338 14.0061 64.8613 14.0467 64.7047 14.1247Z" fill="#B16668"/>
<path d="M65.5616 15.1698C65.6202 15.2123 65.6811 15.2516 65.7439 15.2874C65.7092 15.0018 65.58 14.7361 65.377 14.5329C65.1739 14.3297 64.9088 14.2006 64.624 14.1665C64.5577 14.2079 64.4988 14.2599 64.4495 14.3207C64.2385 14.5976 64.4755 14.7727 64.7386 14.8301C65.0315 14.8915 65.3105 15.0066 65.5616 15.1698Z" fill="#F28F8F"/>
<path d="M52.1692 16.9595C47.9525 17.401 47.5853 17.6101 43.616 19.4912C40.8449 20.7976 36.9459 22.3653 35.4587 23.332C33.0808 24.8526 33.5653 26.5379 35.8572 28.6412C37.347 30.0103 41.0975 33.2893 42.8477 34.9432C43.142 35.2201 43.3243 35.3769 43.2488 35.7766C43.1576 36.2495 42.9649 36.8217 42.8607 37.2738C42.7731 37.6176 42.7069 37.9667 42.6628 38.3189C42.6372 38.6299 42.6285 38.9422 42.6368 39.2542C42.6368 40.8219 42.6003 42.3896 42.6368 43.9572C42.6337 44.0138 42.6445 44.0703 42.668 44.1218C42.7722 44.3204 43.2957 44.2681 43.465 44.1924C43.6563 44.0683 43.8017 43.8847 43.8791 43.6698C44.0442 43.2812 44.1394 42.8663 44.1604 42.4444C44.1968 42.0603 44.2906 41.7024 44.3245 41.3131C44.3597 40.9939 44.4145 40.6771 44.4886 40.3647C44.7398 39.0254 45.2832 37.7584 46.0799 36.6545C46.132 36.5814 46.2075 36.503 46.2961 36.5161C46.3846 36.5291 46.4419 36.6571 46.4628 36.7617C46.5826 37.3521 46.6998 37.9426 46.8196 38.5305C46.9628 39.2438 47.2363 40.1844 48.1505 40.1191C48.1953 40.1207 48.2399 40.1122 48.2809 40.0941C48.322 40.076 48.3584 40.0488 48.3875 40.0145C48.4236 39.9446 48.4355 39.8647 48.4214 39.7872C48.3562 38.8597 48.3224 37.9322 48.2677 37.0073C48.2507 36.4799 48.1862 35.9552 48.075 35.4396C47.8926 34.695 47.429 34.0731 46.9993 33.4539C46.5696 32.8347 46.1841 32.299 45.7569 31.7347C44.8688 30.5642 43.8166 28.8476 42.9415 27.664L49.5309 25.6208C52.5547 24.2465 54.4378 19.5513 52.1692 16.9595Z" fill="#FFA8A7"/>
<path d="M42.931 27.6823C41.1079 28.1212 38.2976 28.1891 37.123 27.5778C38.3211 28.7091 40.9646 29.0514 43.353 28.2728L42.931 27.6823Z" fill="#F28F8F"/>
</g>
<defs>
<clipPath id="clip0_112_2934">
<rect width="119.505" height="118.541" fill="white" transform="translate(11.565)"/>
</clipPath>
</defs>
</svg>
