<svg width="158" height="147" viewBox="0 0 158 147" fill="none" xmlns="http://www.w3.org/2000/svg">
<path d="M41.4493 137.174C17.9944 124.072 17.9944 102.83 41.4493 89.7281C64.9041 76.6266 102.965 76.6266 126.432 89.7281C149.9 102.83 149.9 124.072 126.432 137.174C102.965 150.275 64.9167 150.275 41.4493 137.174Z" fill="white"/>
<path d="M9.08027 109.146H11.4715L11.0829 111.483C11.0686 111.545 11.0407 111.603 11.0011 111.653C10.9616 111.703 10.9114 111.743 10.8543 111.771C10.6751 111.863 10.4769 111.91 10.2759 111.91C10.0748 111.91 9.87663 111.863 9.69751 111.771C9.64056 111.743 9.59055 111.702 9.55103 111.652C9.51151 111.603 9.48347 111.545 9.4689 111.483L9.08027 109.146Z" fill="#E0E0E0"/>
<path opacity="0.1" d="M9.08027 109.146H11.4715L11.0829 111.483C11.0686 111.545 11.0407 111.603 11.0011 111.653C10.9616 111.703 10.9114 111.743 10.8543 111.771C10.6751 111.863 10.4769 111.91 10.2759 111.91C10.0748 111.91 9.87663 111.863 9.69751 111.771C9.64056 111.743 9.59055 111.702 9.55103 111.652C9.51151 111.603 9.48347 111.545 9.4689 111.483L9.08027 109.146Z" fill="black"/>
<path d="M43.2066 89.4122H45.6024L45.216 91.7581C45.2022 91.8204 45.1745 91.8788 45.1349 91.9288C45.0953 91.9788 45.0449 92.0191 44.9874 92.0467C44.808 92.1372 44.6099 92.1843 44.4091 92.1843C44.2082 92.1843 44.0101 92.1372 43.8307 92.0467C43.7736 92.0187 43.7234 91.9782 43.6838 91.9283C43.6443 91.8784 43.6164 91.8202 43.6021 91.7581L43.2066 89.4122Z" fill="#E0E0E0"/>
<path opacity="0.1" d="M43.2066 89.4122H45.6024L45.216 91.7581C45.2022 91.8204 45.1745 91.8788 45.1349 91.9288C45.0953 91.9788 45.0449 92.0191 44.9874 92.0467C44.808 92.1372 44.6099 92.1843 44.4091 92.1843C44.2082 92.1843 44.0101 92.1372 43.8307 92.0467C43.7736 92.0187 43.7234 91.9782 43.6838 91.9283C43.6443 91.8784 43.6164 91.8202 43.6021 91.7581L43.2066 89.4122Z" fill="black"/>
<path d="M2.09172 105.098H4.48295L4.10118 107.434C4.08691 107.497 4.05898 107.555 4.01943 107.605C3.97988 107.655 3.92971 107.695 3.87257 107.723C3.69313 107.814 3.49506 107.861 3.2942 107.861C3.09333 107.861 2.89526 107.814 2.71582 107.723C2.65839 107.696 2.60797 107.655 2.56837 107.605C2.52877 107.555 2.50102 107.497 2.48721 107.434L2.09172 105.098Z" fill="#E0E0E0"/>
<path opacity="0.1" d="M2.09172 105.098H4.48295L4.10118 107.434C4.08691 107.497 4.05898 107.555 4.01943 107.605C3.97988 107.655 3.92971 107.695 3.87257 107.723C3.69313 107.814 3.49506 107.861 3.2942 107.861C3.09333 107.861 2.89526 107.814 2.71582 107.723C2.65839 107.696 2.60797 107.655 2.56837 107.605C2.52877 107.555 2.50102 107.497 2.48721 107.434L2.09172 105.098Z" fill="black"/>
<path d="M1.50195 79.7744V106.131L10.2896 111.221V84.8625L1.50195 79.7744Z" fill="#EBEBEB"/>
<path d="M10.2896 111.221L47.0404 89.9711V63.6122L10.2896 84.8624V111.221Z" fill="#FAFAFA"/>
<path d="M21.4959 104.738L21.9668 104.466V78.1067L21.4959 78.3793V104.738Z" fill="#E6E6E6"/>
<path d="M37.5258 95.4624L37.9967 95.1897V68.8308L37.5258 69.1034V95.4624Z" fill="#E6E6E6"/>
<path d="M48.284 63.7703C48.2785 63.7073 48.2563 63.6468 48.2198 63.5953C48.1832 63.5437 48.1335 63.5029 48.076 63.477L38.5019 57.9331C38.3455 57.8529 38.1724 57.811 37.9967 57.811C37.821 57.811 37.6479 57.8529 37.4915 57.9331L0.210318 79.4812C0.152611 79.5065 0.102702 79.5469 0.0657328 79.598C0.0287637 79.6491 0.00607318 79.7092 0 79.7721V80.4433C0.00568194 80.5066 0.0281919 80.5672 0.0651838 80.6187C0.102176 80.6703 0.152295 80.711 0.210318 80.7366L9.78436 86.2828C9.94074 86.363 10.1139 86.4049 10.2896 86.4049C10.4653 86.4049 10.6384 86.363 10.7948 86.2828L48.076 64.7256C48.1334 64.7001 48.1829 64.6597 48.2195 64.6085C48.2561 64.5573 48.2784 64.4973 48.284 64.4346V63.7703Z" fill="#EBEBEB"/>
<path d="M9.53674e-06 79.7721V80.4434C0.00569148 80.5066 0.0282015 80.5672 0.0651933 80.6188C0.102185 80.6704 0.152304 80.7111 0.210327 80.7366L9.78437 86.2828C9.93978 86.3656 10.1136 86.4074 10.2896 86.4043L18.5537 74.9086L11.6795 72.8468L0.210327 79.4904C0.153861 79.515 0.104769 79.5539 0.0678885 79.6033C0.0310081 79.6527 0.00761338 79.7109 9.53674e-06 79.7721Z" fill="#E0E0E0"/>
<path d="M37.4921 57.9331L0.210915 79.4812C0.150394 79.5023 0.0979307 79.5417 0.0608044 79.5941C0.0236781 79.6464 0.00373077 79.709 0.00373077 79.7732C0.00373077 79.8375 0.0236781 79.9001 0.0608044 79.9524C0.0979307 80.0048 0.150394 80.0442 0.210915 80.0653L9.78496 85.6116C9.94166 85.6907 10.1147 85.7319 10.2902 85.7319C10.4657 85.7319 10.6387 85.6907 10.7954 85.6116L48.0766 64.0612C48.1371 64.0401 48.1895 64.0006 48.2267 63.9483C48.2638 63.896 48.2837 63.8333 48.2837 63.7691C48.2837 63.7049 48.2638 63.6423 48.2267 63.5899C48.1895 63.5376 48.1371 63.4981 48.0766 63.477L38.5025 57.9331C38.3461 57.8529 38.173 57.811 37.9973 57.811C37.8216 57.811 37.6485 57.8529 37.4921 57.9331Z" fill="#F5F5F5"/>
<path d="M13.8718 86.718C13.8718 86.8807 14.3565 86.7295 14.9554 86.3836L16.3842 85.5611C16.9832 85.2129 17.4701 84.7983 17.4701 84.6448V84.3516L13.8718 86.4225V86.718Z" fill="#E0E0E0"/>
<path d="M39.8301 71.7082C39.8301 71.8708 40.317 71.7219 40.916 71.376L42.3448 70.5513C42.9414 70.2053 43.4284 69.7907 43.4284 69.6349V69.3417L39.8301 71.4218V71.7082Z" fill="#E0E0E0"/>
<path d="M27.7711 80.8397C27.7711 81.0024 28.2558 80.8535 28.8547 80.5075L30.2835 79.6828C30.8825 79.3369 31.3671 78.9223 31.3671 78.7665V78.4709L27.7711 80.5465V80.8397Z" fill="#E0E0E0"/>
<path d="M27.7711 87.0846C27.7711 87.2473 28.2558 87.0984 28.8547 86.7502L30.2835 85.9277C30.8825 85.5795 31.3671 85.1649 31.3671 85.0114V84.7181L27.7711 86.7891V87.0846Z" fill="#E0E0E0"/>
<path d="M27.7711 96.0488C27.7711 96.2115 28.2558 96.0626 28.8547 95.7166L30.2835 94.8919C30.8825 94.546 31.3671 94.1314 31.3671 93.9756V93.6801L27.7711 95.7556V96.0488Z" fill="#E0E0E0"/>
<path d="M37.7612 78.9314L21.6559 88.2484V88.7685L37.7612 79.4514V78.9314Z" fill="#E6E6E6"/>
<path d="M37.7612 87.8956L21.6559 97.2149V97.735L37.7612 88.418V87.8956Z" fill="#E6E6E6"/>
<path opacity="0.3" d="M67.1817 108.634L61.524 115.242C59.8633 117.186 56.0111 117.785 52.9101 116.586C49.809 115.387 48.6513 112.851 50.3121 110.915L55.9697 104.306C57.6305 102.363 61.4827 101.763 64.5768 102.928C67.671 104.093 68.8356 106.697 67.1817 108.634Z" fill="#E0E0E0"/>
<path opacity="0.3" d="M130.388 105.76C131.559 106.449 131.566 107.538 130.388 108.213L88.9302 132.332C88.2747 132.665 87.5498 132.839 86.8146 132.839C86.0794 132.839 85.3546 132.665 84.699 132.332L71.4886 124.704C70.3171 124.015 70.3102 122.933 71.4886 122.251L112.953 98.1316C113.608 97.7986 114.333 97.6251 115.068 97.6251C115.804 97.6251 116.529 97.7986 117.184 98.1316L130.388 105.76Z" fill="#318C8B"/>
<path d="M66.1342 50.8167C66.1342 51.2164 65.4451 51.2784 65.1212 51.1544C65.0799 51.1544 65.0178 51.1544 64.9834 51.1544C64.9709 51.1404 64.9614 51.124 64.9555 51.1062C64.9496 51.0884 64.9474 51.0696 64.9489 51.051C64.911 50.6959 64.911 50.3379 64.9489 49.9828C64.9489 49.8106 64.9903 48.9698 65.1901 48.9698C65.39 48.9698 66.1549 50.3688 66.1342 50.8167Z" fill="#FFA89F"/>
<path d="M65.9827 52.7668C67.8984 54.338 68.1189 58.7346 68.8976 62.7246L75.0997 63.0416C76.1196 63.331 75.8646 65.3984 75.5821 66.0668C72.867 67.638 69.4696 67.1074 66.4651 67.1074C64.0531 66.2667 64.0669 58.0248 63.1091 57.5424L65.9827 52.7668Z" fill="#49D1CF"/>
<path d="M75.2581 65.4883C75.8783 65.1023 76.3139 65.0484 76.5 65.0001V63.152L75.2236 63.1521L74.6999 63.2831C74.1899 63.6552 74.5069 65.7157 75.2581 65.4883Z" fill="#FFA89F"/>
<path d="M73.5645 42.9736C73.668 42.2505 73.542 41.8299 73.5112 41.6402L75.2029 40.896L75.7167 42.0644L75.8077 42.5965C75.6725 43.2131 73.6588 43.7527 73.5645 42.9736Z" fill="#FFA89F"/>
<path d="M76.7339 64.9813C77.2979 64.5654 77.3104 64.6768 77.4796 64.6248L78.9397 64.3203C79.1427 64.3048 79.3405 64.237 79.519 64.1215C79.6976 64.0061 79.8528 63.8458 79.9737 63.6519L80.0802 63.4737C80.2194 63.4398 80.3493 63.3659 80.4586 63.2584C80.5679 63.1509 80.6532 63.0131 80.7069 62.8573L80.9137 62.2409L81.3336 61.3719L81.9602 59.7381C82.1044 59.2925 81.8286 59.2702 81.5842 59.4856L80.6004 60.5996L80.0364 61.0749L78.7831 60.9709V60.503L79.4849 59.8346L79.9111 59.5301C80.2808 59.2405 80.1116 58.9212 79.7418 59.0177L78.7831 59.4113L77.4984 60.5773L76.7025 62.4637L76.2263 62.6048C75.7626 63.0058 76.0508 65.2264 76.7339 64.9813Z" fill="#109592"/>
<path d="M54.7156 102.714C54.3503 103.197 54.3503 104.299 54.4399 105.54C54.7776 106.801 55.9698 106.704 56.9828 106.863C58.9536 107.173 59.9253 108.647 62.5439 108.641C64.0945 108.641 65.135 108.31 65.4589 107.324C65.4537 107.05 65.3813 106.78 65.248 106.54C65.1146 106.3 64.9244 106.096 64.694 105.946C64.694 105.946 61.1313 104.354 61.0417 104.292C60.442 103.866 59.8668 103.405 59.3189 102.914L58.7055 100.054H54.8672L54.7156 102.714Z" fill="white"/>
<path d="M52.8342 108.703C52.5108 109.424 52.4146 110.227 52.5585 111.004C52.7239 111.452 52.8962 111.652 53.0823 112.265C53.2959 113.023 53.2615 114.291 54.3916 115.022C55.7698 116.083 58.3402 116.131 59.1603 115.022C59.0481 114.03 58.6879 113.082 58.1128 112.265L56.7897 109.812L56.8724 107.51L53.0823 106.635L52.8342 108.703Z" fill="white"/>
<path d="M59.1811 73.3785V88.7666C57.9475 93.232 55.5632 97.4219 55.1842 101.86C55.1842 103.741 58.9881 104.148 59.9529 102.942C60.325 99.4961 63.2469 94.8032 65.0179 89.3523C66.1963 83.8394 67.1679 78.1472 66.8372 73.5577L59.1811 73.3785Z" fill="#174242"/>
<path d="M66.7269 73.9712C66.8372 75.5355 64.6595 79.6633 62.2407 81.5515C62.1305 84.8937 61.6963 90.6892 61.1313 94.4656C59.3602 99.9165 57.7408 105.14 57.3687 108.592C56.7278 109.392 54.8189 109.709 53.6199 109.282L53.3787 109.185C53.3558 109.167 53.3302 109.153 53.3029 109.144C53.0952 109.043 52.9203 108.885 52.7984 108.688C52.6765 108.492 52.6125 108.265 52.6138 108.034C52.7178 103.534 53.4129 99.0671 54.6811 94.7481L54.3228 74.8877V74.3364L66.7269 73.9712Z" fill="#256868"/>
<g style="mix-blend-mode:multiply">
<path d="M56.9414 95.1271C54.5984 97.9663 54.1023 103.596 53.6199 109.233L53.3787 109.137C53.3558 109.119 53.3302 109.105 53.3029 109.096C53.0952 108.994 52.9203 108.836 52.7984 108.64C52.6765 108.444 52.6125 108.217 52.6138 107.986C52.7178 103.486 53.4129 99.0189 54.6811 94.6998L54.3228 74.8877L56.6451 76.4727C55.1704 81.4205 56.3212 88.1601 56.9414 95.1271Z" fill="#49D1CF"/>
</g>
<path d="M67.6985 90.882C66.5477 93.4937 60.7384 95.9125 56.6106 95.7058C54.1849 95.5818 52.3381 94.5412 52.3381 92.0879C52.5035 90.4203 53.3717 70.6426 53.0272 65.8394L52.3381 57.0738C54.406 54.8396 56.7738 52.9031 59.374 51.3197L64.6871 51.5678C66.7544 53.0356 67.2161 54.8549 67.5262 57.315C67.3264 62.2836 67.3884 67.4382 67.5262 72.1655C67.5262 72.455 67.5262 72.7513 67.5262 73.0338C67.8157 82.1164 68.3187 89.5175 67.6985 90.882Z" fill="#49D1CF"/>
<g style="mix-blend-mode:multiply">
<path d="M67.9328 72.4619C67.9087 72.5741 67.862 72.6801 67.7957 72.7737C67.7294 72.8673 67.6447 72.9464 67.5469 73.0063C67.4861 73.0509 67.4215 73.0901 67.354 73.1235C66.2858 73.6679 63.9084 73.5714 61.4758 72.5722C58.8158 73.0132 56.1144 72.269 56.0524 72.7858C54.1573 87.4089 55.8457 93.3767 56.6106 95.6783C54.1849 95.5543 52.3381 94.5137 52.3381 92.0604C52.5035 90.3928 53.3717 70.6151 53.0272 65.8119L56.7622 62.7316C56.3134 63.6826 55.9579 64.675 55.701 65.6948C55.6114 66.0324 59.436 67.4245 61.1657 68.6993C63.1917 70.1741 66.3961 71.5178 67.54 72.1449C67.5815 72.1718 67.6253 72.1949 67.6709 72.2138C67.8432 72.3241 67.9466 72.4068 67.9328 72.4619Z" fill="#49D1CF"/>
</g>
<path d="M52.3381 57.0188C50.9786 59.7127 49.8535 62.5186 48.9752 65.4054C48.6908 66.3028 48.7591 67.2749 49.1662 68.1237C49.5733 68.9725 50.2887 69.6343 51.1666 69.9742C54.0684 71.0603 57.1019 71.7555 60.1871 72.0415C61.145 71.8072 62.1442 69.547 61.4551 68.6787L54.7982 66.2599L56.4039 63.1519C58.5608 59.5754 54.6673 54.7654 52.3381 57.0188Z" fill="#49D1CF"/>
<path d="M60.6075 70.9803C59.9184 70.8425 60.3318 68.465 61.0416 68.5408L61.8479 68.7958C62.633 68.53 63 69.5 63 69.5C62.1418 69.4937 63.8184 69.7587 63 69.5L62.3785 71.4282L60.6075 70.9803Z" fill="#FFA89F"/>
<path d="M61.3829 71.4931C60.6358 71.3231 61.0841 68.3911 61.8536 68.4845L62.7277 68.799C63.5788 68.4712 64.4472 68.2044 65.3277 68.0001L67.4495 68.6375L68.5403 69.2834L69.0333 69.4534C69.6684 69.5639 69.6012 70.1843 69.0333 70.3457L68.0995 70.2777L66.8219 69.7338L66.2616 70.0313L68.4058 71.8925L70.423 71.7395C71.1701 71.7395 71.1327 72.3429 70.6471 72.5129L69.8253 72.7933L69.3621 73.3202L68.869 73.6942L68.2414 74.0001C67.3109 73.9924 66.3867 73.8262 65.4995 73.5072L63.303 72.0455L61.3829 71.4931Z" fill="#109592"/>
<path d="M63.1572 55.3717C63.1021 55.5032 63.0204 55.6219 62.9173 55.7204C62.8141 55.8188 62.6917 55.8948 62.5577 55.9437C60.0837 56.6741 58.0646 53.8763 58.3472 52.1949C58.6297 50.5134 58.7055 49.5555 58.7055 49.5555L63.488 50.7339C63.488 50.7339 63.5362 51.1819 63.5638 51.8158C63.612 52.884 63.5982 54.5034 63.1572 55.3717Z" fill="#FFA89F"/>
<g style="mix-blend-mode:multiply" opacity="0.5">
<path d="M62.3854 55.3995C60.952 55.682 59.5738 53.2357 59.7874 51.4853C61.1656 51.3199 62.1235 52.009 63.5224 51.8505C63.8256 54.1591 63.5431 55.1721 62.3854 55.3995Z" fill="#FFA89F"/>
</g>
<path d="M58.678 50.9545C58.678 50.9545 59.1052 56.7983 63.0814 56.7914C63.0814 56.7914 64.3081 56.7914 64.3494 55.0479C64.3908 53.3044 63.7637 52.7669 63.7637 52.7669C63.4467 55.2546 62.3854 55.5234 61.0623 53.7179L59.4222 50.4584L60.6282 53.8488L60.1389 54.345C59.5118 54.0349 59.0915 52.5257 58.678 50.9545Z" fill="#C8F7F6"/>
<path d="M58.5608 49.8313C59.2623 50.844 60.0337 51.8065 60.8694 52.7118C61.5309 53.3713 62.4108 53.766 63.3433 53.8213C63.7949 53.8319 64.2343 53.6747 64.5768 53.3802C65.645 52.7394 65.5209 48.9768 65.5209 48.9768C65.5568 48.1451 65.4638 47.3129 65.2453 46.5097C64.9834 45.2624 63.7843 42.9125 60.1527 43.4087C59.4018 43.449 58.6893 43.7532 58.1409 44.2676C57.5924 44.782 57.2433 45.4736 57.155 46.2203C57.1243 47.3266 57.2876 48.4298 57.6374 49.4798L58.5608 49.8313Z" fill="#FFA89F"/>
<path d="M57.7683 51.0855C58.7262 52.6842 60.4008 52.5602 60.5731 51.0855C60.6075 50.7822 61.4551 50.8787 61.7928 50.796L61.5309 49.7486C61.4816 49.6081 61.4626 49.4587 61.4752 49.3103C61.4877 49.1619 61.5316 49.0179 61.6039 48.8877C61.6761 48.7575 61.7752 48.644 61.8944 48.5549C62.0137 48.4657 62.1505 48.4028 62.2959 48.3703C63.8739 47.7157 64.3219 47.0955 65.2315 46.9921C64.8869 45.0005 63.047 42.8574 60.8211 42.9539C59.8655 42.9068 58.9283 43.2289 58.2035 43.8536C57.4788 44.4783 57.022 45.3577 56.9276 46.3099C56.7018 47.2459 56.7521 48.2272 57.0723 49.1353C57.41 49.9622 57.7683 51.0855 57.7683 51.0855Z" fill="black"/>
<path d="M60.4214 49.7141C60.3349 49.6503 60.2309 49.6146 60.1234 49.612C60.016 49.6093 59.9103 49.6398 59.8208 49.6992C59.7312 49.7587 59.6622 49.8442 59.6229 49.9443C59.5836 50.0443 59.5761 50.1541 59.6014 50.2585C59.6354 50.4041 59.6863 50.5451 59.753 50.6789C59.8679 50.916 59.9967 51.1461 60.1389 51.368C60.2299 51.5605 60.3934 51.7091 60.5937 51.7815C60.8073 51.8297 61.0554 51.9744 61.1726 51.7815C61.2962 51.4025 61.2894 50.993 61.1533 50.6183C61.0172 50.2437 60.7595 49.9253 60.4214 49.7141Z" fill="#FFA89F"/>
<path d="M65.3969 47.3712C60.1044 50.6928 57.1274 49.1078 57.1274 49.1078C56.6261 47.8984 56.355 46.606 56.3281 45.297C56.3335 45.234 56.345 45.1717 56.3625 45.1109C56.8793 43.333 63.2537 41.5895 64.3769 43.0849C65.11 44.3906 65.4633 45.8753 65.3969 47.3712Z" fill="#A8E3E2"/>
<path d="M64.3494 43.1125C63.2022 43.9938 61.8554 44.5784 60.4283 44.8146C59.0888 45.1334 57.7079 45.2426 56.3349 45.1385C56.8518 43.3606 63.233 41.6171 64.3494 43.1125Z" fill="#C8F7F6"/>
<path d="M88.4202 48.9975C85.5535 48.3566 82.0941 48.6599 78.0835 48.5978L76.7052 42.6714C76.2435 41.7411 74.2864 42.3475 73.6938 42.7334C72.6394 45.6346 73.742 48.8252 74.2657 51.7402C75.4993 53.9316 83.1347 54.0212 84.8919 54.0901L88.4202 48.9975Z" fill="#49D1CF"/>
<path d="M94.5604 96.8843C94.8774 97.3391 94.836 98.3728 94.7051 99.5305C94.3467 100.695 93.2372 100.557 92.2794 100.668C90.4325 100.881 89.4609 102.218 87.0214 102.115C85.5674 102.053 84.6164 101.708 84.3476 100.771C84.3629 100.514 84.4413 100.264 84.5759 100.044C84.7105 99.824 84.8972 99.6406 85.1194 99.5098C85.1194 99.5098 88.503 98.1316 88.565 98.1316C89.1412 97.7674 89.6936 97.3669 90.2189 96.9325C90.2534 96.8223 90.908 94.2932 90.908 94.2932L94.4983 94.4379L94.5604 96.8843Z" fill="black"/>
<path d="M96.0833 102.501C96.36 103.187 96.4201 103.942 96.2556 104.664C96.0561 105.041 95.8767 105.427 95.7181 105.822C95.4838 106.511 95.47 107.703 94.3881 108.372C93.0856 109.309 90.6599 109.261 89.9364 108.165C90.0801 107.243 90.452 106.371 91.0183 105.629L92.3483 103.39V101.233L95.9248 100.599L96.0833 102.501Z" fill="black"/>
<path d="M91.5351 69.3127L90.9425 83.6877C91.9279 87.9051 93.9952 91.902 94.1813 96.0918C94.1055 97.8421 90.5359 98.0833 89.6883 96.9187C89.4677 93.6799 86.9318 89.1937 85.4709 84.0322C84.5888 78.8569 83.8996 73.4956 84.3751 69.2162L91.5351 69.3127Z" fill="#332C28"/>
<path d="M88.2894 78.8362C88.2929 82.2008 88.4907 85.5624 88.882 88.9042C90.3292 94.0657 91.6385 98.9998 91.859 102.239C92.7066 103.403 96.2556 103.617 96.3314 101.88C96.4083 97.6779 95.9286 93.4838 94.9049 89.4073L95.8835 74.2467H88.5444C88.3772 75.7709 88.2921 77.3029 88.2894 78.8362Z" fill="#534741"/>
<g style="mix-blend-mode:multiply" opacity="0.5">
<path d="M88.2894 78.8363C88.9338 79.4105 89.689 79.8466 90.5083 80.118C91.6439 80.4812 92.6446 81.1762 93.3816 82.1133C94.1185 83.0505 94.5579 84.1869 94.6431 85.376L94.898 89.4005L95.8766 74.2399L88.5444 74.2468C88.3772 75.7709 88.2921 77.303 88.2894 78.8363Z" fill="#534741"/>
</g>
<path d="M97.048 67.1626C96.9378 70.815 97.6338 82.4955 97.0894 83.7015C96.9722 83.8875 96.8482 84.0667 96.7241 84.239C96.2128 85.0662 95.4633 85.7196 94.5741 86.1134C92.4378 87.023 87.807 86.5889 86.8629 85.7481C86.6217 85.5621 86.3943 83.9013 86.2564 81.6754C86.0704 83.5361 85.7878 84.8592 85.395 84.9281C84.7859 84.76 84.251 84.3921 83.876 83.8835C83.5011 83.3748 83.308 82.7549 83.3277 82.1234C83.3277 81.7444 83.5413 73.4612 83.7343 68.658L83.7687 67.8586C83.8239 66.5562 83.879 65.6259 83.9272 65.3502C84.3407 63.1382 84.3545 53.9729 84.3545 53.9729C84.7404 51.6919 85.2434 50.0036 87.2212 48.7218L92.1898 48.6874C94.5578 50.2666 96.696 52.1659 98.5434 54.3313L97.5855 62.4835L97.048 67.011V67.1626Z" fill="#49D1CF"/>
<path d="M89.6331 52.8428H93.692L87.1661 63.7515C85.3675 59.3963 84.9954 55.7784 87.2143 51.2578L89.6331 52.8428Z" fill="#246665"/>
<path d="M91.6247 48.0947L93.8092 49.8658C94.8911 53.2493 92.114 54.6069 90.3016 56.4744L89.2679 53.5181L86.6493 54.0074L87.6485 49.218L91.6247 48.0947Z" fill="#A8E3E2"/>
<path d="M92.9684 49.1836C94.5878 50.4378 93.692 52.8704 91.7831 55.0893C90.0535 57.0809 87.2763 61.5464 86.9593 64.8472C88.6821 61.6291 91.7349 57.6391 93.4026 56.502L92.9271 55.3099L94.0228 55.5648C95.0383 54.3336 95.5613 52.7696 95.4906 51.1751L92.9684 49.1836Z" fill="white"/>
<path d="M89.2128 48.6598C86.5183 50.8167 86.7113 60.4644 87.4004 64.5577C85.6776 61.4085 85.2021 57.6665 85.3951 51.9538L86.2909 51.5127L85.7189 50.9476L87.6554 48.646L89.2128 48.6598Z" fill="white"/>
<g style="mix-blend-mode:multiply">
<path d="M97.048 83.7014C96.9309 83.8875 96.8068 84.0667 96.6828 84.2389C96.3038 79.8768 95.5458 71.3938 95.2701 69.1335C95.2081 68.658 91.8245 68.9888 89.3644 68.4788C86.8835 69.3747 84.5405 69.3127 83.686 68.658C83.5952 68.598 83.5178 68.5199 83.4585 68.4286C83.3992 68.3373 83.3594 68.2347 83.3415 68.1274C83.3415 68.0722 83.4724 67.9827 83.7205 67.8586C84.7886 67.3211 87.8552 66.1772 89.8261 64.8747C91.4937 63.7584 95.1116 62.6006 95.0427 62.2768C94.8416 61.316 94.5485 60.3767 94.1675 59.472L97.5373 62.4835L97.048 67.011V67.1626C96.924 70.8011 97.62 82.5162 97.048 83.7014Z" fill="#49D1CF"/>
</g>
<path d="M92.803 47.3712L92.8789 49.7418C93.6231 52.0021 90.9011 53.7525 89.2748 53.4148C87.9654 52.7739 88.5857 50.8099 88.4203 48.97L92.803 47.3712Z" fill="#FFA89F"/>
<path d="M98.5228 54.3313C99.6877 56.8967 100.631 59.5573 101.341 62.2837C101.578 63.1343 101.478 64.0431 101.064 64.8228C100.65 65.6024 99.9525 66.1933 99.1154 66.4736C96.3653 67.3716 93.508 67.8999 90.6186 68.0447C89.7296 67.7898 89.1439 65.0057 89.8192 64.2133L95.8697 62.835L94.4914 59.8787C92.617 56.4469 96.4348 52.1123 98.5228 54.3313Z" fill="#49D1CF"/>
<path d="M90.267 67.0248C90.9562 66.9215 90.6254 64.6887 89.9569 64.7301L89.192 64.9368C88.4677 64.6602 88 65.9084 88 65.9084L88 66.0001L90.267 67.0248Z" fill="#FFA89F"/>
<path d="M89.603 66.8911C90.3204 66.7835 89.976 64.4592 89.2802 64.5023L88.4839 64.7175C87.7299 64.4296 86.9584 64.19 86.174 64.0001L84.2586 64.4234L83.2614 64.8968L82.8095 65.0116C82.2356 65.0762 82.2786 65.564 82.8095 65.729H83.6488L84.811 65.3416L85.2988 65.5927L83.3188 66.9844L81.5182 66.7907C80.8798 66.7907 80.8654 67.2355 81.2886 67.3933L82.006 67.6444L82.4077 68.0748L82.831 68.3833L83.3905 68.6559C84.2232 68.6806 85.0548 68.5815 85.8583 68.3618L87.8741 67.2929L89.603 66.8911Z" fill="#109592"/>
<g style="mix-blend-mode:multiply" opacity="0.5">
<path d="M89.5229 51.2854C90.9011 51.2854 92.2794 48.5703 92.3276 48.591C91.0183 48.4394 89.7641 48.1155 88.4617 47.9639C88.1791 50.1277 88.4203 51.2854 89.5229 51.2854Z" fill="#FFA89F"/>
</g>
<path d="M92.6308 48.2187C92.2518 48.745 91.7626 49.1824 91.1974 49.5005C90.3188 49.6547 89.4217 49.6733 88.5374 49.5556C88.3752 49.5861 88.2079 49.5773 88.0498 49.5299C87.8916 49.4825 87.7471 49.3979 87.6283 49.2832C87.5096 49.1685 87.42 49.027 87.3672 48.8706C87.3143 48.7142 87.2997 48.5474 87.3246 48.3841L87.9517 45.0557L88.1791 44.3183C88.1791 44.3183 89.0681 42.3406 90.0673 41.8651C90.6388 41.5844 91.2711 41.4501 91.9074 41.4742C92.5436 41.4982 93.164 41.6799 93.7127 42.0029C94.9187 42.7678 95.7318 43.8911 95.339 45.3382C94.3743 48.8803 92.6308 48.2187 92.6308 48.2187Z" fill="#FFA89F"/>
<path d="M92.8444 48.9975L92.8031 48.4875C92.7539 48.4052 92.7279 48.3112 92.7279 48.2153C92.7279 48.1195 92.7539 48.0254 92.8031 47.9431L93.5749 46.5649C93.3613 46.365 92.6446 45.8757 92.9616 43.8842C91.0734 43.767 89.6607 42.2854 88.6477 43.4776C88.1653 43.0297 89.2403 41.6239 89.8468 41.2724C90.4532 40.921 91.7694 40.7074 93.3888 41.4861C95.0083 42.2648 95.6491 43.2709 95.6629 44.973C95.6767 46.6751 93.6025 48.7494 92.8444 48.9975Z" fill="black"/>
<path d="M94.4157 46.2479C94.4505 46.348 94.4618 46.4548 94.4487 46.56C94.4355 46.6651 94.3983 46.7659 94.3399 46.8543C94.2497 47.0688 94.1316 47.2704 93.9884 47.4538C93.8455 47.6403 93.648 47.7776 93.4234 47.8466C93.319 47.8859 93.2045 47.889 93.0982 47.8552C92.9919 47.8215 92.9001 47.7529 92.8376 47.6606C92.8036 47.5835 92.7861 47.5002 92.7861 47.4159C92.7861 47.3317 92.8036 47.2484 92.8376 47.1713C92.9487 46.8215 93.1508 46.5075 93.4234 46.2617C93.7059 46.0618 94.2158 45.8689 94.4157 46.2479Z" fill="#FFA89F"/>
<g style="mix-blend-mode:multiply">
<path d="M84.8682 41.9868L75 38.107L79.1278 25L88.996 28.8797L84.8682 41.9868Z" fill="#4D4D4D"/>
</g>
<path d="M95.4485 45.3878C89.2774 44.4079 88.5 42.5001 88.5 42.5001C88.5 42.5001 89.9147 39.0961 90.7555 38.0925C90.801 38.0486 90.8507 38.0093 90.9039 37.975C92.4627 36.976 97.6377 39.6234 97.5 41.4886C97.1932 42.9542 96.4826 44.3048 95.4485 45.3878Z" fill="#A8E3E2"/>
<path d="M73.4342 41.4187C73.5878 40.735 73.4807 40.7683 73.4602 40.5925L73.1509 39.1334C73.0834 38.9414 73.0659 38.7331 73.0996 38.5231C73.1334 38.3131 73.2176 38.1066 73.3464 37.9178L73.4666 37.7485C73.4416 37.6075 73.4569 37.4588 73.5113 37.3155C73.5657 37.1721 73.6575 37.0386 73.7785 36.9267L74.2594 36.4892L74.8857 35.755L76.1289 34.5234C76.4787 34.2121 76.6102 34.4555 76.5114 34.7659L75.888 36.1151L75.68 36.8227L76.2799 37.9281L76.7081 37.7397L77.0373 36.8281L77.1444 36.3154C77.2607 35.8603 77.6211 35.8866 77.6816 36.2639L77.7074 37.3L77.1575 38.9454L75.7513 40.4335L75.8139 40.9263C75.6336 41.5123 73.4849 42.1426 73.4342 41.4187Z" fill="#109592"/>
<g style="mix-blend-mode:screen" opacity="0.5">
<path d="M87.0145 39.4326L85.6776 43.6775L84.5475 43.2365L85.8017 39.2603L86.2289 34.8086L84.2305 40.9348L83.6585 42.885L79.0483 41.0658L79.5583 39.3499L81.4396 32.9273L79.6065 36.5176L78.1111 40.7005L77.0568 40.2871L78.3937 36.0352L81.0537 30.8324C81.1085 30.6878 81.2016 30.5607 81.3229 30.4649C81.4443 30.369 81.5894 30.3079 81.7428 30.288H83.376C83.6999 30.288 84.0306 29.9848 84.1822 29.523L84.5337 28.4756L86.415 29.2198L86.0704 30.2122C85.9818 30.4128 85.9515 30.6343 85.9832 30.8513C86.0149 31.0683 86.1073 31.2719 86.2496 31.4388L87.428 32.4862C87.5467 32.6163 87.631 32.7739 87.6731 32.9448C87.7152 33.1158 87.7139 33.2945 87.6692 33.4648L87.0145 39.4326Z" fill="#CCCCCC"/>
</g>
<g opacity="0.5">
<path d="M85.957 31.2019C85.9637 31.1608 85.9637 31.1189 85.957 31.0779C85.9507 31.0499 85.9348 31.0251 85.9122 31.0075C85.8896 30.9899 85.8616 30.9807 85.833 30.9814C85.7896 30.9743 85.7454 30.9743 85.7021 30.9814L83.7174 29.7272C83.6485 29.6858 83.5727 29.7272 83.5038 29.7823L84.3583 27.0672L83.9517 26.9087L83.1041 29.6376C83.1041 29.5342 83.049 29.4584 82.9663 29.4447L80.7266 29.0312L80.6164 28.9416C80.5681 28.9416 80.513 28.8934 80.4648 28.9416C80.4364 28.9681 80.4151 29.0013 80.4027 29.0381C80.36 29.1345 80.3232 29.2335 80.2925 29.3344C80.2824 29.3821 80.2824 29.4314 80.2925 29.4791C80.2886 29.5042 80.2886 29.5298 80.2925 29.5549C80.3075 29.6175 80.3347 29.6764 80.3726 29.7285C80.4104 29.7805 80.4581 29.8246 80.513 29.8581C80.5543 29.8581 80.5613 29.8581 80.5681 29.8581L80.6715 29.6721L82.8422 30.0718C82.8728 30.0759 82.9039 30.0724 82.9327 30.0616C82.9616 30.0508 82.9873 30.033 83.0076 30.0097L82.7595 30.8022C82.6439 30.8401 82.5229 30.8587 82.4012 30.8573C82.2401 30.8587 82.0798 30.8354 81.9257 30.7884C81.7697 30.7345 81.6214 30.6604 81.4847 30.5679C81.3452 30.4631 81.2181 30.3429 81.1057 30.2096C81.0643 30.1613 81.0023 30.1682 80.954 30.2096C80.9359 30.2423 80.9265 30.279 80.9265 30.3164C80.9265 30.3538 80.9359 30.3905 80.954 30.4232C81.0666 30.5918 81.1984 30.7468 81.3468 30.8849C81.4842 31.0128 81.6398 31.1196 81.8085 31.2019C81.9719 31.2865 82.1494 31.3402 82.3323 31.3604C82.4193 31.3708 82.5072 31.3708 82.5942 31.3604L82.5114 31.6223C82.3831 31.6553 82.2511 31.6715 82.1187 31.6705C81.9453 31.6705 81.7731 31.6426 81.6087 31.5878C81.441 31.5269 81.2814 31.4459 81.1332 31.3466C80.9791 31.242 80.838 31.1194 80.7129 30.9814C80.6715 30.9263 80.6095 30.94 80.5612 30.9814C80.5425 31.0151 80.5327 31.0531 80.5327 31.0916C80.5327 31.1302 80.5425 31.1682 80.5612 31.2019C80.6852 31.374 80.8285 31.5313 80.9885 31.6705C81.1382 31.7994 81.3024 31.9104 81.4778 32.0013C81.6532 32.0886 81.8418 32.1468 82.0359 32.1736C82.1367 32.1841 82.2384 32.1841 82.3392 32.1736L82.2565 32.4354C82.1282 32.4684 81.9961 32.4847 81.8637 32.4837C81.6897 32.4847 81.5169 32.4543 81.3537 32.3941C81.1845 32.3399 81.0243 32.2609 80.8782 32.1598C80.7241 32.0551 80.583 31.9325 80.4579 31.7945C80.4165 31.7394 80.3545 31.7532 80.3063 31.7945C80.2882 31.8272 80.2787 31.864 80.2787 31.9014C80.2787 31.9387 80.2882 31.9755 80.3063 32.0082C80.4285 32.1837 80.572 32.3434 80.7335 32.4837C80.8817 32.6127 81.0462 32.7216 81.2228 32.8075C81.3967 32.9 81.5857 32.9607 81.781 32.9867C81.8819 32.9938 81.9832 32.9938 82.0842 32.9867L82.0015 33.2486C81.8735 33.2827 81.741 33.2966 81.6087 33.2899C81.4349 33.2967 81.2615 33.2686 81.0988 33.2072C80.9296 33.153 80.7693 33.0741 80.6233 32.9729C80.4692 32.8683 80.3281 32.7457 80.2029 32.6077C80.1616 32.5526 80.0995 32.5664 80.0513 32.6077C80.0311 32.6397 80.0203 32.6767 80.0203 32.7145C80.0203 32.7523 80.0311 32.7894 80.0513 32.8213C80.1736 32.9968 80.3171 33.1566 80.4786 33.2968C80.6267 33.4258 80.7912 33.5347 80.9678 33.6207C81.1417 33.7132 81.3308 33.7739 81.526 33.7999C81.627 33.8069 81.7283 33.8069 81.8292 33.7999L81.7396 34.0686C81.4695 34.1464 81.1829 34.1464 80.9127 34.0686C80.7555 34.0176 80.6068 33.9432 80.4717 33.8481C80.3311 33.7473 80.2038 33.6292 80.0927 33.4967C80.0846 33.4839 80.0734 33.4733 80.0601 33.466C80.0469 33.4587 80.032 33.4548 80.0168 33.4548C80.0017 33.4548 79.9868 33.4587 79.9736 33.466C79.9603 33.4733 79.9491 33.4839 79.941 33.4967C79.9223 33.5304 79.9125 33.5683 79.9125 33.6069C79.9125 33.6455 79.9223 33.6834 79.941 33.7172C80.0534 33.8819 80.1827 34.0343 80.3269 34.172C80.4662 34.3008 80.6242 34.4076 80.7955 34.489C80.9573 34.5787 81.1354 34.6349 81.3193 34.6544C81.4063 34.6648 81.4942 34.6648 81.5811 34.6544L81.4916 34.9231C81.385 34.9603 81.2735 34.9812 81.1608 34.9852C81.0089 34.9921 80.8571 34.9711 80.7129 34.9231C80.5672 34.871 80.4284 34.8016 80.2994 34.7164C80.1674 34.6177 80.0492 34.5019 79.9479 34.3718C79.8997 34.3167 79.8446 34.3236 79.7963 34.3718C79.7761 34.4038 79.7654 34.4408 79.7654 34.4787C79.7654 34.5165 79.7761 34.5535 79.7963 34.5855C79.8955 34.7499 80.016 34.9005 80.1547 35.0334C80.2862 35.1573 80.4347 35.2617 80.5957 35.3435C80.7513 35.4279 80.9225 35.4795 81.0988 35.4951C81.1744 35.502 81.2505 35.502 81.3262 35.4951L80.4441 38.2998L79.8377 37.5693L79.0245 37.5142L78.5835 38.5961V39.3679L81.6569 40.5739L82.1118 39.995L82.3667 38.8373L81.6776 38.3136L80.7955 38.4583L81.6776 35.6536C81.7338 35.7102 81.7937 35.7632 81.8568 35.8121C82.0021 35.9188 82.1655 35.9982 82.3392 36.0464C82.5047 36.0945 82.6769 36.1155 82.8491 36.1084C83.032 36.1026 83.2131 36.0701 83.3866 36.0119C83.4487 36.0119 83.49 35.9086 83.49 35.8328C83.49 35.757 83.4417 35.7018 83.3935 35.7156C83.082 35.7831 82.7569 35.7442 82.4701 35.6054C82.3291 35.5416 82.2007 35.4528 82.0911 35.3435C82.0043 35.2612 81.928 35.1687 81.8637 35.0679L81.9464 34.7922C82.0091 34.8594 82.0811 34.9174 82.16 34.9645C82.308 35.0781 82.4765 35.1623 82.6562 35.2126C82.8311 35.2618 83.0119 35.2873 83.1937 35.2884C83.3853 35.2848 83.5754 35.2547 83.7587 35.1988C83.7912 35.1818 83.8182 35.1559 83.8365 35.1242C83.8548 35.0925 83.8637 35.0562 83.8621 35.0196C83.8621 34.9438 83.8139 34.8887 83.7656 34.9025C83.5965 34.9265 83.4248 34.9265 83.2557 34.9025C83.0956 34.8809 82.9398 34.8344 82.794 34.7646C82.6406 34.6986 82.5005 34.6052 82.3805 34.489C82.2873 34.4021 82.2041 34.305 82.1324 34.1996L82.222 33.9308C82.2958 34.003 82.3766 34.0676 82.4632 34.1238C82.6265 34.2388 82.8083 34.325 83.0007 34.3787C83.1836 34.4364 83.374 34.4666 83.5658 34.4683C83.7685 34.4768 83.9711 34.4512 84.1653 34.3925C84.2205 34.3925 84.2687 34.3029 84.2687 34.2202C84.2687 34.1375 84.2273 34.0893 84.1722 34.0962C83.9939 34.1203 83.8131 34.1203 83.6347 34.0962C83.4599 34.0731 83.2901 34.0219 83.1317 33.9446C82.9625 33.9142 82.7995 33.856 82.6493 33.7723C82.5435 33.6822 82.4507 33.5778 82.3736 33.4622L82.4563 33.2003C82.5301 33.2725 82.6109 33.3371 82.6975 33.3933C82.8608 33.5083 83.0426 33.5946 83.235 33.6483C83.6137 33.7541 84.0141 33.7541 84.3927 33.6483C84.4277 33.6339 84.4571 33.6088 84.4769 33.5766C84.4967 33.5444 84.5059 33.5068 84.503 33.4691C84.503 33.3864 84.4616 33.3382 84.4065 33.3451C84.2282 33.3692 84.0474 33.3692 83.869 33.3451C83.6942 33.322 83.5244 33.2708 83.366 33.1935C83.2028 33.1233 83.0516 33.028 82.918 32.9109C82.8138 32.8167 82.7212 32.7103 82.6424 32.5939L82.7251 32.3321C82.7989 32.4042 82.8797 32.4688 82.9663 32.525C83.128 32.6427 83.3103 32.7292 83.5038 32.78C83.6868 32.8371 83.8771 32.8673 84.0689 32.8696C84.271 32.877 84.4732 32.8537 84.6684 32.8007C84.7014 32.7844 84.7289 32.7587 84.7473 32.7268C84.7657 32.6949 84.7742 32.6582 84.7717 32.6215C84.7717 32.5457 84.7304 32.4905 84.6753 32.4974C84.4972 32.525 84.3159 32.525 84.1378 32.4974C83.964 32.4735 83.7946 32.4248 83.6347 32.3527C83.4735 32.276 83.323 32.1787 83.1868 32.0633C83.0825 31.9691 82.99 31.8626 82.9111 31.7463L82.9938 31.4913C83.0563 31.556 83.1256 31.6138 83.2006 31.6636C83.3505 31.7725 83.5185 31.8542 83.6967 31.9048C83.8703 31.9603 84.0521 31.9859 84.2342 31.9806C84.4257 31.9826 84.6164 31.9547 84.7993 31.8979C84.8313 31.8803 84.8578 31.8543 84.876 31.8227C84.8942 31.7912 84.9034 31.7552 84.9027 31.7187C84.9027 31.636 84.8613 31.5878 84.8062 31.5947C84.4771 31.6474 84.1398 31.6044 83.8346 31.4707C83.6837 31.3999 83.5444 31.307 83.4211 31.195C83.3297 31.1038 83.2467 31.0046 83.173 30.8987L83.428 30.1062C83.4288 30.1389 83.4373 30.1709 83.4529 30.1997C83.4685 30.2284 83.4906 30.2531 83.5176 30.2716L85.4402 31.4775C85.4402 31.5533 85.4402 31.6223 85.4402 31.6981V31.7394C85.5022 31.7625 85.5692 31.7689 85.6345 31.758C85.6998 31.7471 85.7611 31.7193 85.8123 31.6774C85.8324 31.6633 85.8509 31.6471 85.8675 31.6292C85.8928 31.5888 85.9114 31.5446 85.9226 31.4982C85.9408 31.4003 85.9523 31.3013 85.957 31.2019ZM79.624 39.1681C79.5951 39.1786 79.5634 39.1786 79.5345 39.1681L79.2726 39.0372C79.1475 38.9886 79.0429 38.8986 78.9763 38.7822C78.9614 38.7094 78.9614 38.6344 78.9763 38.5617C78.9865 38.4971 79.0135 38.4364 79.0546 38.3856C79.0958 38.3347 79.1495 38.2957 79.2106 38.2723C79.562 38.162 79.6998 38.6168 79.7343 39.0303C79.7443 39.0593 79.7443 39.0908 79.7343 39.1199C79.7241 39.1392 79.7076 39.1545 79.6876 39.1633C79.6676 39.1721 79.6452 39.1737 79.624 39.1681ZM80.8989 39.4713C81.1539 39.1819 81.5191 38.92 81.7259 39.2508C81.7567 39.3117 81.7728 39.379 81.7728 39.4472C81.7728 39.5154 81.7567 39.5827 81.7259 39.6436C81.6945 39.7062 81.6438 39.757 81.5811 39.7883C81.5224 39.8137 81.4591 39.8268 81.3951 39.8268C81.3311 39.8268 81.2678 39.8137 81.209 39.7883L80.9334 39.7056C80.9007 39.7006 80.8712 39.6833 80.8507 39.6574C80.8416 39.6417 80.8368 39.6238 80.8368 39.6057C80.8368 39.5875 80.8416 39.5697 80.8507 39.554C80.8583 39.5223 80.875 39.4935 80.8989 39.4713Z" fill="white"/>
<path d="M77.7565 35.0059L77.5843 35.1713H77.5429L76.4472 38.6169L76.0682 38.4722L77.1708 34.9714V34.875C77.1526 34.8097 77.1411 34.7427 77.1363 34.6751C77.1302 34.6022 77.142 34.5288 77.1708 34.4615C77.2948 34.2272 77.4258 34.5097 77.5222 34.5649C77.6187 34.62 77.8048 34.4684 77.8737 34.6751C77.881 34.7045 77.881 34.7353 77.8737 34.7647C77.873 34.811 77.8621 34.8566 77.8419 34.8983C77.8216 34.94 77.7925 34.9767 77.7565 35.0059Z" fill="white"/>
<path d="M85.4057 37.7693C85.3915 37.8398 85.3608 37.9059 85.3161 37.9623C85.2714 38.0096 85.223 38.0534 85.1714 38.0932L85.0956 38.1483L83.993 41.649L83.6209 41.4975L84.7166 38.0519V37.9967C84.7166 37.9209 84.6822 37.8313 84.6753 37.7486C84.6511 37.6795 84.6511 37.6042 84.6753 37.535C84.6881 37.51 84.707 37.4886 84.7304 37.473C84.8958 37.3627 84.944 37.597 85.0681 37.6315C85.1921 37.666 85.454 37.5006 85.4057 37.7693Z" fill="white"/>
<path d="M80.2443 29.7755C80.1777 29.6191 80.1539 29.4479 80.1754 29.2793C80.1829 29.2313 80.1829 29.1825 80.1754 29.1346C80.1409 29.0657 80.0582 29.0726 79.9962 29.1346C79.9376 29.2033 79.8931 29.283 79.8653 29.3689C79.8101 29.5034 79.764 29.6416 79.7274 29.7824C79.7174 29.8532 79.7174 29.9251 79.7274 29.996C79.7274 29.996 79.7274 29.996 79.7274 30.0304L77.6601 33.8206L77.5774 33.8826C77.5272 33.9137 77.4829 33.9533 77.4465 33.9998C77.414 34.0513 77.3885 34.1069 77.3706 34.1651C77.3675 34.1949 77.3675 34.2249 77.3706 34.2547V34.3099L77.4809 34.4546C77.4809 34.4959 77.536 34.5373 77.5843 34.5373C77.6325 34.5373 77.667 34.5373 77.7014 34.4959C77.7444 34.4854 77.7894 34.4854 77.8324 34.4959C77.8549 34.5005 77.8781 34.4991 77.8999 34.4918C77.9217 34.4846 77.9412 34.4717 77.9564 34.4546C77.9905 34.4066 78.0052 34.3475 77.9977 34.2892C77.9936 34.2395 77.982 34.1907 77.9633 34.1445L80.0996 30.2647H80.1478C80.1815 30.2749 80.2174 30.2749 80.2512 30.2647C80.2819 30.2343 80.3059 30.1977 80.3213 30.1573C80.3368 30.1169 80.3434 30.0736 80.3407 30.0304C80.3293 29.939 80.2963 29.8516 80.2443 29.7755Z" fill="white"/>
<path d="M85.6538 31.9049C85.7932 31.8251 85.9077 31.7082 85.9846 31.5673C86.0075 31.5252 86.0407 31.4896 86.0811 31.4639C86.1431 31.4294 86.2051 31.4639 86.2189 31.581C86.2356 31.6722 86.2356 31.7656 86.2189 31.8567C86.189 31.9999 86.1475 32.1405 86.0948 32.277C86.0675 32.3421 86.0303 32.4025 85.9846 32.4562L85.4677 36.8941C85.4646 36.9285 85.4646 36.9631 85.4677 36.9975C85.492 37.0567 85.5059 37.1197 85.5091 37.1836C85.5124 37.2455 85.5124 37.3077 85.5091 37.3696C85.5018 37.3966 85.4902 37.4222 85.4746 37.4454C85.4659 37.4492 85.4566 37.4512 85.4471 37.4512C85.4376 37.4512 85.4282 37.4492 85.4195 37.4454L85.2541 37.4868C85.2351 37.497 85.2137 37.5024 85.1921 37.5024C85.1705 37.5024 85.1491 37.497 85.1301 37.4868C85.0991 37.4504 85.0756 37.4083 85.0612 37.3627C85.0302 37.3299 84.9926 37.3041 84.9509 37.2869C84.9309 37.2727 84.9144 37.2541 84.9025 37.2327C84.8906 37.2112 84.8835 37.1874 84.882 37.1629C84.8788 37.1049 84.8986 37.0479 84.9371 37.0044C84.9704 36.9705 85.0074 36.9404 85.0474 36.9148L85.5642 32.3942L85.5229 32.3597C85.4921 32.3325 85.4704 32.2964 85.4608 32.2564C85.453 32.2145 85.4538 32.1715 85.4633 32.13C85.4728 32.0885 85.4907 32.0494 85.516 32.0152C85.554 31.9695 85.6009 31.932 85.6538 31.9049Z" fill="white"/>
</g>
<path d="M97.5 41.5001C96.061 41.3521 94.2226 40.4609 94.2226 40.4609C93.0304 39.772 91.9521 38.9025 91.0262 37.8833C92.6235 36.9468 97.7166 39.6466 97.5 41.5001Z" fill="#C8F7F6"/>
<path d="M81.3293 38.4677C81.3322 38.5243 81.3465 38.5797 81.3714 38.6306C81.3962 38.6816 81.4311 38.7269 81.474 38.764C81.5498 38.826 81.6325 38.8674 81.7083 38.9363C81.7841 39.0052 81.8392 39.0741 81.9081 39.1361C81.9407 39.1668 81.9809 39.1882 82.0246 39.1979C82.0683 39.2076 82.1137 39.2053 82.1562 39.1913C82.2144 39.1603 82.2659 39.1181 82.3078 39.0672C82.5585 38.8311 82.7173 38.5136 82.7558 38.1714C82.7558 37.7234 82.3836 37.2617 82.0666 37.3513C81.8698 37.4724 81.7018 37.6351 81.5744 37.8279C81.447 38.0207 81.3634 38.2391 81.3293 38.4677Z" fill="white"/>
<path d="M81.8875 37.7236V36.4694L82.3905 34.719V34.8086L81.7014 33.7405C81.6966 33.7308 81.694 33.7202 81.694 33.7094C81.694 33.6987 81.6966 33.6881 81.7014 33.6784L82.3905 32.0383L81.7496 33.7198V33.6578L82.5283 34.6639V34.719L82.1011 36.4694V36.4073L82.1631 37.6133L81.8875 37.7236Z" fill="white"/>
<path d="M82.3422 37.9302L83.4242 37.6959L83.3415 37.7855L83.7963 36.4624V36.421L85.0849 36.1178L83.8307 36.5519L83.8721 36.4968L83.4862 37.8751V37.944H83.431L82.3491 38.2954L82.3422 37.9302Z" fill="white"/>
<path d="M82.3768 38.5366L83.0659 39.7701L83.0108 39.7357L83.7412 39.7977H83.817V39.9011L83.1279 41.9202L83.7206 39.8528L83.7619 39.9562H83.0245C82.9901 39.9562 82.9694 39.9218 82.9694 39.9218L82.1838 38.7847L82.3768 38.5366Z" fill="white"/>
<path d="M81.8323 38.3645L80.7297 37.8683L80.8607 37.7787L80.4334 39.026V38.9571L81.0536 41.4379L80.3025 39.0398C80.2969 39.0195 80.2969 38.9981 80.3025 38.9778L80.6677 37.7029L80.7022 37.5789L80.7987 37.6133L81.9357 37.9992L81.8323 38.3645Z" fill="white"/>
<path d="M82.2114 37.3652L83.4174 35.8561L83.3829 35.9388L83.631 33.9059C83.631 33.8645 84.706 33.0858 84.706 33.0858L83.6861 33.9541V33.9059L83.5345 35.9319V35.9801V36.0146L82.3906 37.6133L82.2114 37.3652Z" fill="white"/>
<path d="M74.5277 118.04C74.7671 118.184 74.9596 118.394 75.0819 118.644C75.2043 118.895 75.2511 119.176 75.2168 119.453C75.1784 120.186 74.9674 120.899 74.601 121.535C74.2345 122.171 73.723 122.712 73.1081 123.112C72.8944 123.267 72.643 123.363 72.3801 123.388C72.1172 123.414 71.8522 123.368 71.6127 123.257L70.1104 122.396C69.8932 122.242 69.7207 122.033 69.6105 121.791C69.5004 121.549 69.4565 121.282 69.4833 121.017C69.5225 120.284 69.7346 119.57 70.1022 118.934C70.4699 118.298 70.9828 117.758 71.5989 117.358C71.8117 117.207 72.0605 117.114 72.3204 117.088C72.5804 117.063 72.8424 117.106 73.0805 117.213L74.5897 118.082L74.5277 118.04Z" fill="black"/>
<path d="M75.2237 119.453C75.2237 118.075 74.2796 117.551 73.115 118.219C72.498 118.619 71.9846 119.158 71.6168 119.794C71.249 120.431 71.0375 121.145 70.9994 121.879C70.9994 123.257 71.9435 123.788 73.115 123.112C73.7299 122.711 74.2414 122.171 74.6078 121.535C74.9743 120.899 75.1853 120.186 75.2237 119.453Z" fill="#B6BDC1"/>
<path d="M74.5277 119.859C74.5277 118.95 73.8937 118.585 73.115 119.033C72.709 119.303 72.3726 119.666 72.1331 120.091C71.8936 120.516 71.7578 120.991 71.7367 121.479C71.7367 122.382 72.3638 122.754 73.115 122.306C73.5262 122.038 73.8684 121.677 74.1139 121.252C74.3593 120.827 74.5011 120.35 74.5277 119.859Z" fill="#CAD1D6"/>
<path d="M130.98 101.336C131.009 101.04 130.942 100.742 130.788 100.488C130.634 100.233 130.402 100.035 130.126 99.9233L116.915 92.2948C116.26 91.9618 115.535 91.7883 114.8 91.7883C114.065 91.7883 113.34 91.9618 112.684 92.2948L71.22 116.414C70.9804 116.522 70.7738 116.692 70.6213 116.907C70.4688 117.121 70.3757 117.372 70.3517 117.634V119.99C70.3781 120.256 70.4742 120.51 70.6303 120.727C70.7864 120.943 70.997 121.115 71.2406 121.224L84.4373 128.825C85.0928 129.158 85.8176 129.331 86.5528 129.331C87.288 129.331 88.0129 129.158 88.6684 128.825L130.133 104.706C130.372 104.597 130.579 104.427 130.731 104.213C130.884 103.999 130.977 103.748 131.001 103.486V101.129C130.998 101.199 130.992 101.268 130.98 101.336Z" fill="black"/>
<path d="M130.126 99.9233C131.297 100.612 131.304 101.694 130.126 102.37L88.6614 126.489C88.0059 126.822 87.2811 126.995 86.5459 126.995C85.8106 126.995 85.0858 126.822 84.4303 126.489L71.2199 118.86C70.0484 118.171 70.0484 117.089 71.2199 116.414L112.684 92.2948C113.34 91.9618 114.064 91.7883 114.8 91.7883C115.535 91.7883 116.26 91.9618 116.915 92.2948L130.126 99.9233Z" fill="#666666"/>
<path d="M86.5666 125.814C86.0307 125.828 85.4996 125.708 85.023 125.462L71.8126 117.84C71.7074 117.779 71.6121 117.703 71.5301 117.613C71.606 117.522 71.6998 117.447 71.8057 117.392L113.27 93.2734C113.742 93.0292 114.268 92.9084 114.8 92.9219C115.333 92.9102 115.861 93.0309 116.336 93.2734L129.547 100.902C129.655 100.958 129.751 101.036 129.829 101.129C129.755 101.219 129.664 101.294 129.561 101.35L88.0965 125.469C87.623 125.709 87.0973 125.827 86.5666 125.814Z" fill="#B6BDC1"/>
<path d="M91.6798 127.943C91.9204 128.087 92.1137 128.298 92.2361 128.55C92.3585 128.802 92.4047 129.084 92.3689 129.362C92.3309 130.096 92.1193 130.81 91.7515 131.447C91.3837 132.083 90.8703 132.623 90.2534 133.022C90.0403 133.176 89.7898 133.27 89.528 133.294C89.2661 133.318 89.0026 133.272 88.7649 133.159L87.2626 132.298C87.0432 132.146 86.8691 131.938 86.7586 131.696C86.6482 131.453 86.6056 131.185 86.6355 130.92C86.6739 130.187 86.8849 129.473 87.2513 128.838C87.6178 128.202 88.1293 127.661 88.7442 127.261C88.9569 127.106 89.207 127.011 89.4687 126.986C89.7304 126.96 89.9942 127.005 90.2327 127.116L91.7418 127.977L91.6798 127.943Z" fill="black"/>
<path d="M92.3827 129.376C92.3827 127.998 91.4386 127.467 90.2671 128.136C89.652 128.538 89.1406 129.08 88.7742 129.717C88.4078 130.354 88.1968 131.068 88.1584 131.802C88.1584 133.146 89.1025 133.704 90.2671 133.035C90.884 132.636 91.3974 132.096 91.7652 131.46C92.133 130.824 92.3446 130.11 92.3827 129.376Z" fill="#B6BDC1"/>
<path d="M91.6798 129.762C91.6798 128.859 91.0527 128.487 90.3016 128.935C89.8904 129.203 89.5481 129.564 89.3027 129.989C89.0572 130.415 88.9155 130.891 88.8889 131.382C88.8889 132.284 89.5229 132.656 90.3016 132.209C90.7076 131.938 91.044 131.575 91.2835 131.15C91.5229 130.725 91.6587 130.25 91.6798 129.762Z" fill="#CAD1D6"/>
<path d="M132.731 104.244C132.97 104.389 133.162 104.601 133.284 104.852C133.407 105.104 133.454 105.386 133.42 105.664C133.38 106.397 133.168 107.111 132.8 107.747C132.432 108.383 131.92 108.923 131.304 109.323C131.09 109.476 130.84 109.569 130.579 109.593C130.317 109.618 130.054 109.572 129.816 109.461L128.306 108.599C128.089 108.446 127.916 108.238 127.806 107.996C127.695 107.753 127.652 107.486 127.679 107.221C127.718 106.488 127.93 105.773 128.298 105.137C128.665 104.501 129.178 103.962 129.795 103.562C130.008 103.407 130.258 103.312 130.519 103.287C130.781 103.262 131.045 103.306 131.283 103.417L132.793 104.279L132.731 104.244Z" fill="black"/>
<path d="M133.433 105.664C133.433 104.285 132.489 103.755 131.318 104.423C130.702 104.824 130.19 105.364 129.822 105.999C129.454 106.635 129.242 107.349 129.202 108.082C129.202 109.461 130.153 109.991 131.318 109.323C131.934 108.922 132.446 108.382 132.814 107.747C133.181 107.111 133.394 106.397 133.433 105.664Z" fill="#B6BDC1"/>
<path d="M132.731 106.063C132.731 105.154 132.097 104.789 131.352 105.237C130.941 105.504 130.599 105.866 130.354 106.291C130.108 106.716 129.966 107.193 129.94 107.683C129.94 108.586 130.574 108.958 131.352 108.51C131.757 108.238 132.093 107.875 132.332 107.45C132.571 107.026 132.708 106.551 132.731 106.063Z" fill="#CAD1D6"/>
<path d="M94.1055 117.592L85.9463 112.851L91.3972 102.294L99.5564 107.035L94.1055 117.592Z" fill="#CAD1D6"/>
<path d="M99.5564 107.035L91.3973 102.294L91.3766 95.4303L99.5426 100.171L99.5564 107.035Z" fill="#A3A8AC"/>
<path d="M99.5426 100.172L91.3766 95.4304L87.5244 90.2551L95.6836 94.9962L99.5426 100.172Z" fill="#A3A8AC"/>
<path d="M95.6836 94.9962L87.5244 90.2551L107.24 78.8708L115.399 83.612L95.6836 94.9962Z" fill="#A3A8AC"/>
<path d="M94.1055 117.592L99.5564 107.035L99.5426 100.171L95.6836 94.9962L115.399 83.6119L111.588 93.2113L111.609 100.082L117.101 104.313L94.1055 117.592Z" fill="#DEE5EB"/>
<path d="M98.95 112.01L101.3 107.455L101.272 99.5926L98.247 95.5199L110.527 88.4289L111.94 87.6157L109.852 92.8806L109.879 100.943L113.987 104.106L98.3711 113.127L98.95 112.01Z" fill="#A3A8AC"/>
<path d="M98.95 112.01L101.3 107.455L101.272 99.5926L98.247 95.5199L110.527 88.4288L108.839 92.6876L108.859 100.736L112.973 103.906L98.95 112.01Z" fill="#B6BDC1"/>
<path d="M134.708 71.5937C134.704 71.164 134.575 70.7449 134.336 70.3876C134.097 70.0302 133.76 69.7501 133.365 69.5815L126.515 65.6259C125.512 65.1147 124.402 64.8481 123.276 64.8481C122.15 64.8481 121.04 65.1147 120.037 65.6259L116.474 67.6933C116.283 67.795 116.073 67.8555 115.857 67.8709C115.641 67.8864 115.424 67.8564 115.22 67.7829C114.381 67.4824 113.489 67.3561 112.599 67.4118C111.709 67.4675 110.84 67.704 110.045 68.1068L65.0729 94.2312C64.74 94.382 64.453 94.6183 64.2412 94.9161C64.0293 95.2139 63.9002 95.5625 63.867 95.9265V98.2763C63.8986 98.6461 64.0292 99.0006 64.245 99.3025C64.4608 99.6044 64.754 99.8427 65.0936 99.9922L78.304 107.614C79.2118 108.078 80.2167 108.32 81.2362 108.32C82.2557 108.32 83.2606 108.078 84.1684 107.614L129.133 81.4963C129.465 81.3461 129.752 81.1109 129.963 80.8144C130.175 80.5179 130.305 80.1707 130.339 79.808V77.465L133.378 75.7008C133.746 75.5358 134.063 75.2758 134.297 74.9476C134.531 74.6194 134.673 74.2347 134.708 73.8333V71.4903C134.715 71.4903 134.708 71.5524 134.708 71.5937ZM130.319 77.6924C130.325 77.6237 130.325 77.5544 130.319 77.4857C130.332 77.5539 130.332 77.6242 130.319 77.6924Z" fill="#7C8083"/>
<path d="M133.365 69.5816C135.156 70.6152 135.17 72.2967 133.365 73.3304L129.802 75.3977C129.464 75.5907 129.395 75.8939 129.657 76.1213C130.691 77.0516 130.512 78.3127 129.113 79.1258L84.1685 105.257C83.2602 105.72 82.2554 105.961 81.2363 105.961C80.2171 105.961 79.2123 105.72 78.3041 105.257L65.0937 97.6286C63.4674 96.6914 63.4605 95.1685 65.0937 94.2313L110.066 68.1137C110.861 67.7109 111.73 67.4745 112.62 67.4188C113.51 67.3631 114.401 67.4893 115.241 67.7898C115.444 67.8633 115.661 67.8933 115.877 67.8779C116.093 67.8625 116.304 67.802 116.495 67.7003L120.058 65.6329C121.061 65.1216 122.171 64.8551 123.297 64.8551C124.422 64.8551 125.532 65.1216 126.535 65.6329L133.365 69.5816Z" fill="#DEE5EB"/>
<path d="M133.427 69.0233C133.459 68.685 133.382 68.3453 133.207 68.0539C133.032 67.7625 132.769 67.5347 132.455 67.4039L125.605 63.4552C124.858 63.0735 124.032 62.8745 123.193 62.8745C122.355 62.8745 121.528 63.0735 120.781 63.4552L118.362 64.8334C118.09 64.9556 117.855 65.1473 117.681 65.3893C117.507 65.6313 117.4 65.915 117.37 66.2117V67.2522L115.013 65.874C114.359 65.5379 113.634 65.3625 112.898 65.3625C112.162 65.3625 111.437 65.5379 110.782 65.874L100.494 71.8969C100.253 72.0059 100.046 72.177 99.8933 72.3926C99.7407 72.6081 99.6482 72.8604 99.6253 73.1235V74.1641C98.4532 73.7995 97.1852 73.9058 96.0901 74.4604L65.7689 92.0536C65.5294 92.1621 65.3228 92.3321 65.1703 92.5464C65.0178 92.7606 64.9247 93.0114 64.9007 93.2733V95.6094C64.9251 95.8748 65.0196 96.1289 65.1746 96.3457C65.3296 96.5624 65.5395 96.7341 65.7827 96.843L78.9931 104.471C79.6486 104.804 80.3735 104.978 81.1087 104.978C81.8439 104.978 82.5688 104.804 83.2243 104.471L113.546 86.8714C113.785 86.7653 113.992 86.5968 114.145 86.3835C114.298 86.1702 114.391 85.9199 114.414 85.6586V84.6042C115.585 84.9739 116.854 84.87 117.949 84.3148L128.217 78.347C128.456 78.2403 128.663 78.0717 128.816 77.8585C128.968 77.6453 129.061 77.3953 129.085 77.1342V74.7705C129.08 74.8336 129.069 74.896 129.051 74.9566C129.092 74.7574 129.07 74.5502 128.989 74.3639C129.355 74.2745 129.707 74.1354 130.036 73.9505L132.455 72.5722C132.727 72.4501 132.962 72.2583 133.136 72.0163C133.31 71.7744 133.418 71.4907 133.447 71.194V68.8303C133.446 68.8951 133.439 68.9597 133.427 69.0233ZM113.587 84.5353C113.676 84.4802 113.745 84.4251 113.821 84.3699C113.711 84.4251 113.642 84.4802 113.587 84.5353Z" fill="black"/>
<path d="M132.455 67.4039C133.792 68.1826 133.799 69.4368 132.455 70.2086L130.036 71.5868C129.288 71.9653 128.462 72.1624 127.624 72.1624C126.786 72.1624 125.96 71.9653 125.212 71.5868L118.369 67.6313C117.026 66.8594 116.991 65.6052 118.369 64.8334L120.788 63.4552C121.535 63.0735 122.361 62.8745 123.2 62.8745C124.039 62.8745 124.865 63.0735 125.612 63.4552L132.455 67.4039Z" fill="#686C6F"/>
<path d="M128.21 73.5578C129.381 74.2469 129.381 75.3357 128.21 76.0111L117.942 81.9788C117.287 82.3118 116.562 82.4853 115.827 82.4853C115.091 82.4853 114.366 82.3118 113.711 81.9788L100.494 74.3503C99.3222 73.6612 99.3153 72.5793 100.494 71.897L110.762 65.9362C111.416 65.6 112.141 65.4247 112.877 65.4247C113.613 65.4247 114.338 65.6 114.993 65.9362L128.21 73.5578Z" fill="#686C6F"/>
<path d="M113.539 82.082C114.71 82.7711 114.717 83.86 113.539 84.5353L83.2174 102.128C82.5619 102.461 81.837 102.635 81.1018 102.635C80.3666 102.635 79.6417 102.461 78.9862 102.128L65.8103 94.5068C64.6388 93.8177 64.6319 92.7289 65.8103 92.0536L96.1315 74.4604C96.787 74.1275 97.5118 73.954 98.247 73.954C98.9823 73.954 99.7071 74.1275 100.363 74.4604L113.539 82.082Z" fill="#686C6F"/>
<path d="M119.059 87.0092L111.265 91.5091C110.844 91.7503 110.507 91.5505 110.507 91.075C110.52 90.8131 110.595 90.5582 110.727 90.3316C110.859 90.105 111.043 89.9133 111.265 89.7726L119.059 85.2726C119.472 85.0383 119.81 85.2313 119.81 85.7137C119.794 85.9731 119.717 86.2252 119.587 86.4501C119.457 86.675 119.276 86.8664 119.059 87.0092Z" fill="#55585A"/>
<path d="M100.19 98.0697L92.3965 102.57C91.983 102.811 91.6454 102.611 91.6454 102.135C91.6588 101.874 91.7338 101.62 91.8644 101.394C91.9949 101.168 92.1773 100.975 92.3965 100.833L100.19 96.2986C100.611 96.0643 100.948 96.2573 100.948 96.7397C100.938 97.0059 100.864 97.2657 100.732 97.4972C100.6 97.7287 100.414 97.925 100.19 98.0697Z" fill="#55585A"/>
<path d="M111.988 90.2205C111.979 90.3745 111.935 90.5243 111.858 90.6582C111.782 90.7921 111.675 90.9064 111.547 90.9923C111.299 91.1302 111.099 90.9923 111.099 90.7305C111.108 90.5757 111.153 90.4251 111.231 90.291C111.309 90.1568 111.417 90.043 111.547 89.9587C111.788 89.8208 111.988 89.9311 111.988 90.2205Z" fill="#22B573"/>
<path d="M93.058 101.35C93.0494 101.505 93.0043 101.655 92.9264 101.789C92.8486 101.923 92.7402 102.037 92.6101 102.122C92.3689 102.259 92.1691 102.122 92.1691 101.86C92.178 101.706 92.2225 101.556 92.299 101.422C92.3755 101.288 92.482 101.174 92.6101 101.088C92.8582 100.95 93.058 101.067 93.058 101.35Z" fill="#ED1C24"/>
<path d="M94.3674 100.585C94.36 100.739 94.3162 100.89 94.2396 101.024C94.1629 101.158 94.0556 101.272 93.9263 101.357C93.6783 101.501 93.4784 101.357 93.4784 101.102C93.4871 100.947 93.5322 100.796 93.61 100.662C93.6878 100.528 93.7962 100.414 93.9263 100.33C94.1675 100.192 94.3674 100.302 94.3674 100.585Z" fill="#FBB03B"/>
<path d="M95.6699 99.8268C95.6617 99.9818 95.6169 100.133 95.539 100.267C95.4611 100.401 95.3524 100.515 95.2219 100.599C94.9739 100.743 94.774 100.599 94.774 100.344C94.7827 100.189 94.8278 100.038 94.9056 99.9041C94.9834 99.77 95.0918 99.6562 95.2219 99.5718C95.4838 99.4271 95.6699 99.5443 95.6699 99.8268Z" fill="white"/>
<path d="M119.403 85.8998C119.396 86.0541 119.352 86.2045 119.275 86.3387C119.199 86.4728 119.091 86.5869 118.962 86.6716C118.714 86.8163 118.514 86.6716 118.514 86.4166C118.523 86.2618 118.568 86.1112 118.646 85.9771C118.724 85.843 118.832 85.7292 118.962 85.6448C119.21 85.5001 119.403 85.6173 119.403 85.8998Z" fill="white"/>
<path d="M3.30468 69.517L3.95849 69.895L34.0134 52.5071L33.3596 52.1292L3.30468 69.517Z" fill="#F0F0F0"/>
<path d="M33.3596 52.129L3.95851 69.1389L3.96079 50.3559L33.3596 33.3461V52.129Z" fill="#FAFAFA"/>
<path d="M5.33929 65.6018C5.33929 66.2112 5.76678 66.4586 6.29486 66.154L15.1374 61.0384C15.4158 60.8569 15.6475 60.6121 15.8135 60.3239C15.9796 60.0356 16.0753 59.7122 16.0929 59.3798V42.8602L5.33929 49.0708V65.6018Z" fill="#E0E0E0"/>
<path d="M14.5613 51.1852C14.4333 50.459 13.8755 49.9207 13.0433 51.0569C12.2112 52.1932 11.6488 54.2092 10.8556 54.7384C10.3572 55.082 9.64395 54.168 9.02671 53.9389C8.40947 53.7098 7.59563 53.9755 7.08355 56.09C6.57147 58.2045 6.6492 59.0132 7.01954 59.3385C7.53391 59.7967 8.25859 59.421 8.83468 59.3202C9.41077 59.2194 8.91698 60.2365 9.15473 60.8253C9.39248 61.414 9.97085 61.3064 10.3183 60.5458C10.39 60.3931 10.454 60.2403 10.5104 60.0876C10.6955 59.6294 11.0407 59.4003 11.2465 59.6019C11.295 59.6514 11.3469 59.6973 11.4019 59.7394C11.8363 60.067 12.4855 59.114 12.4558 58.3328C12.4261 57.5516 12.3941 57.0109 12.7027 56.6627C13.0113 56.3145 13.8594 56.0786 14.3029 55.1095C14.7464 54.1405 14.6916 51.9114 14.5613 51.1852ZM9.30332 56.6513C9.26324 56.8641 9.18584 57.0681 9.07471 57.2538C8.99158 57.4213 8.89445 57.5815 8.78438 57.7326C8.60725 57.9587 8.36052 58.1198 8.08256 58.1908C7.98449 58.2273 7.87659 58.2273 7.77852 58.1908C7.40131 58.0121 7.6505 56.7383 7.81052 56.1564C7.87055 55.9156 7.96365 55.6843 8.08713 55.4692C8.11803 55.4158 8.15653 55.3671 8.20144 55.3249C8.26272 55.2701 8.33624 55.2309 8.41582 55.2105C8.49539 55.1902 8.57868 55.1893 8.65865 55.208C8.71701 55.2142 8.77355 55.2319 8.82497 55.2603C8.87639 55.2886 8.92166 55.3269 8.95813 55.373C9.01355 55.4624 9.05517 55.5597 9.08157 55.6616L9.2256 56.1198C9.29629 56.2875 9.32607 56.4697 9.31247 56.6513H9.30332ZM10.14 59.8723C10.0862 60.0067 9.98432 60.1161 9.85426 60.1792C9.80005 60.1875 9.7446 60.1804 9.69424 60.1586C9.64295 60.146 9.59672 60.118 9.56165 60.0784C9.53692 60.0463 9.51959 60.0092 9.51089 59.9695C9.5022 59.9299 9.50236 59.8889 9.51135 59.8494C9.53151 59.7458 9.57276 59.6476 9.63251 59.5607C9.75139 59.3706 9.86112 59.1987 9.96857 58.9903C10.0509 58.8322 10.1263 58.7108 10.2269 58.7612C10.4486 58.8941 10.3115 59.5584 10.1492 59.8723H10.14ZM11.9803 58.8757C11.8797 59.004 11.7677 59.1415 11.6625 59.1415C11.5574 59.1415 11.53 59.0567 11.4911 58.9605C11.4534 58.8685 11.4265 58.7724 11.4111 58.6741C11.3866 58.5358 11.3904 58.3939 11.4225 58.2572C11.546 57.7669 11.8271 58.0075 11.978 58.0762C12.1289 58.1449 12.2021 58.6054 11.9894 58.8757H11.9803ZM14.0881 52.9378C14.0663 53.3464 14.0151 53.753 13.9349 54.1542C13.912 54.2955 13.8673 54.4323 13.8023 54.5597C13.7757 54.6169 13.7348 54.6661 13.6835 54.7027C13.6322 54.7392 13.5723 54.7618 13.5097 54.7682C13.2889 54.7681 13.0738 54.6983 12.8947 54.5689C12.7819 54.5022 12.6866 54.4093 12.617 54.2981C12.5474 54.1869 12.5054 54.0606 12.4947 53.9297C12.5088 53.7261 12.5615 53.527 12.6501 53.3432C12.7416 53.1142 12.8101 52.8644 12.9153 52.6399C12.9864 52.464 13.0976 52.3071 13.2399 52.1818C13.2868 52.1459 13.3414 52.1216 13.3994 52.1108C13.4574 52.1001 13.5171 52.1032 13.5737 52.1199C13.6417 52.142 13.7075 52.1704 13.7703 52.2047C13.8446 52.2327 13.9112 52.278 13.9645 52.337C14.0178 52.396 14.0562 52.4668 14.0766 52.5437C14.1009 52.6736 14.1078 52.8061 14.0972 52.9378H14.0881Z" fill="white"/>
<path d="M8.67237 60.232C8.38204 60.0647 8.32031 60.2915 7.89968 60.3396C7.47904 60.3878 7.38531 60.0739 7.04926 60.1266C6.71321 60.1793 6.36344 61.2377 6.80008 61.4668C7.23672 61.6958 7.37617 61.6844 7.38074 62.0807C7.38531 62.477 7.33959 64.7908 7.33959 64.7908L8.52149 64.1036C8.52149 64.1036 8.52149 61.973 8.52149 61.7004C8.54874 61.4228 8.61017 61.1497 8.70437 60.8872C8.74324 60.6764 8.82096 60.319 8.67237 60.232Z" fill="white"/>
<path d="M12.8262 57.547C13.1165 57.043 13.0868 57.2996 13.5783 56.9445C13.8641 56.7406 13.8823 56.4382 14.2184 56.1038C14.5544 55.7693 15.1008 56.3145 14.6619 57.0522C14.223 57.7899 14.1201 58.2251 14.1155 58.6283C14.111 59.0315 14.1658 60.8345 14.1658 60.8345L12.9816 61.5217C12.9816 61.5217 12.9816 59.3843 12.9816 59.1071C12.9895 58.8296 12.9524 58.5526 12.8719 58.287C12.8125 58.1358 12.6662 57.8128 12.8262 57.547Z" fill="white"/>
<path d="M10.7161 52.7362C10.108 53.089 9.76281 53.0065 9.68279 53.2104C9.60278 53.4143 9.65307 53.5678 9.7468 53.6273C9.95712 53.7579 10.4326 53.5861 10.7115 53.467C11.0229 53.3199 11.2919 53.0961 11.4934 52.8163C11.5582 52.7178 11.5975 52.6047 11.6079 52.4871C11.6183 52.3695 11.5993 52.2512 11.5528 52.1428C11.3836 52.1566 11.2808 52.4177 10.7161 52.7362Z" fill="#FAFAFA"/>
<path d="M10.7161 51.3616C10.108 51.7144 9.76281 51.6343 9.68279 51.8359C9.60278 52.0375 9.65307 52.1955 9.7468 52.2528C9.95712 52.3834 10.4326 52.2116 10.7115 52.0924C11.0234 51.9462 11.2926 51.7222 11.4934 51.4418C11.5582 51.3433 11.5975 51.2301 11.6079 51.1126C11.6183 50.995 11.5993 50.8767 11.5528 50.7683C11.3836 50.7821 11.2808 51.0432 10.7161 51.3616Z" fill="#FAFAFA"/>
<path d="M10.7161 49.9872C10.108 50.3423 9.76281 50.2598 9.68279 50.4637C9.60278 50.6676 9.65307 50.821 9.7468 50.8806C9.95712 51.0112 10.4326 50.8371 10.7115 50.7202C11.0236 50.5732 11.2927 50.3484 11.4934 50.0673C11.5581 49.9692 11.5975 49.8565 11.6079 49.7393C11.6183 49.6221 11.5993 49.5041 11.5528 49.3961C11.3836 49.4076 11.2808 49.6687 10.7161 49.9872Z" fill="#FAFAFA"/>
<path d="M6.42516 50.5254L8.45062 49.3479C8.55578 49.286 8.64036 49.3479 8.64036 49.4579V50.5506C8.63696 50.6167 8.618 50.6811 8.58502 50.7384C8.55204 50.7957 8.50598 50.8444 8.45062 50.8805L6.42516 52.0489C6.31772 52.1107 6.23314 52.0626 6.23314 51.9389V50.8576C6.23643 50.7909 6.25558 50.726 6.28898 50.6682C6.32238 50.6104 6.36907 50.5615 6.42516 50.5254Z" fill="white"/>
<path d="M19.1746 57.5998C19.1746 58.2114 19.6021 58.4588 20.1301 58.1542L28.9704 53.0386C29.2483 52.8566 29.4796 52.6116 29.6456 52.3235C29.8116 52.0354 29.9076 51.7122 29.9259 51.38V34.8673L19.1814 41.0894L19.1746 57.5998Z" fill="#E0E0E0"/>
<path d="M24.2565 49.3548C24.2565 49.3548 24.1444 49.4648 24.2084 49.0364C24.2725 48.608 24.3182 48.3056 24.3662 48.0468C24.3113 48.1453 23.3717 49.7351 23.2232 49.8062C23.1363 49.8451 23.3443 48.9952 23.342 48.9242C22.7156 50.2323 22.1464 51.3571 21.9704 51.6732C21.552 52.3926 20.8274 52.5552 20.7085 53.2379C20.5896 53.9206 21.2571 53.6044 21.6046 53.6594C21.9521 53.7144 21.9247 54.6285 22.3224 54.5758C23.5066 54.4177 22.8094 53.5678 23.0814 52.4407C23.1706 51.9527 23.5912 50.9035 24.2565 49.3548Z" fill="#FAFAFA"/>
<path d="M27.3175 41.7811C27.0203 41.229 27.6376 40.095 27.3953 39.5818C27.1529 39.0687 26.1013 39.1237 26.0099 40.5898C25.9185 42.056 25.9939 42.5371 25.3241 44.4133C25.0017 45.3136 24.3068 46.8577 23.6233 48.3078C23.6233 48.4499 23.6233 48.5919 23.6233 48.7339C23.6233 48.7156 23.9662 48.1017 24.0805 47.9253C24.3091 47.5954 24.7137 46.7202 24.972 46.4156C25.036 46.34 24.5148 48.3972 24.5034 48.5988C24.4874 48.7339 24.5743 48.6125 24.6245 48.4957C25.4132 46.6492 26.2248 44.7936 26.4008 44.3904C26.7277 43.6138 27.4387 43.3733 27.6467 42.9701C27.9622 42.3286 27.5164 42.1522 27.3175 41.7811Z" fill="#FAFAFA"/>
<path d="M20.2604 42.5234L22.2859 41.3459C22.391 41.2863 22.4779 41.3459 22.4779 41.4581V42.5486C22.4739 42.6151 22.4544 42.6798 22.4211 42.7375C22.3878 42.7951 22.3415 42.8442 22.2859 42.8808L20.2604 44.0583C20.1553 44.1179 20.0707 44.0583 20.0707 43.9483V42.8556C20.0743 42.7892 20.0933 42.7246 20.1262 42.6669C20.1592 42.6093 20.2051 42.5601 20.2604 42.5234Z" fill="white"/>
<path d="M34.6672 31.8319L3.30468 49.9872V71.0381L34.6672 52.8943V31.8319ZM34.0134 52.5071L3.95849 69.895V50.356L34.0134 32.9682V52.5071Z" fill="#EBEBEB"/>
<path d="M34.0134 52.5071L33.3596 52.1291V33.3461L34.0134 32.9681V52.5071Z" fill="#E0E0E0"/>
<path d="M34.6672 31.8342L34.0134 31.4562L2.65088 49.6L3.30469 49.978L34.6672 31.8342Z" fill="#F5F5F5"/>
<path d="M2.65088 49.6L3.30469 49.978V71.0312L2.65088 70.6532V49.6Z" fill="#E0E0E0"/>
<path d="M2.65088 48.5621L3.95851 49.3181L35.321 31.1743L34.0134 30.4183L2.65088 48.5621Z" fill="#F5F5F5"/>
<path d="M3.95851 49.3181V51.3937L35.321 33.2476V31.1743L3.95851 49.3181Z" fill="#EBEBEB"/>
<path d="M2.65088 48.5621L3.95851 49.3181V51.3937L2.65088 50.6377V48.5621Z" fill="#E0E0E0"/>
<g style="mix-blend-mode:multiply">
<path d="M125.329 70.7621C125.422 70.7236 125.517 70.6912 125.613 70.6652C126.029 70.5682 126.458 70.6028 126.874 70.5197C127.083 70.4926 127.28 70.4047 127.44 70.2668C127.6 70.129 127.716 69.9472 127.774 69.7441C127.802 69.6586 127.802 69.5664 127.774 69.481C127.746 69.4433 127.721 69.404 127.698 69.3632C127.698 69.294 127.698 69.2178 127.635 69.1485C127.601 69.1013 127.556 69.0624 127.505 69.0348C127.453 69.0072 127.396 68.9916 127.338 68.9893C127.085 68.9522 126.831 68.9291 126.576 68.92L124.983 68.8577C124.815 68.8404 124.646 68.8404 124.478 68.8577C123.785 68.9546 123.259 69.5502 122.601 69.4325C122.304 69.3617 122.021 69.2424 121.763 69.0793C121.469 68.9423 121.156 68.8512 120.835 68.8092C120.039 68.7192 117.372 68.733 117.372 68.733C116.624 69.1901 115.883 69.6818 115.129 70.1181C114.485 70.492 113.744 69.9519 113.224 69.5433L111.638 68.2968C111.547 68.2151 111.442 68.1516 111.327 68.1098C111.21 68.0891 111.09 68.0891 110.974 68.1098L109.824 68.2968C109.158 68.3732 108.505 68.5313 107.878 68.7677C106.992 69.2234 106.191 69.8278 105.51 70.5544C104.626 71.4392 103.618 72.1904 102.518 72.7842C101.205 73.3231 99.8439 73.7358 98.4529 74.0169C97.9026 74.2235 97.3228 74.3404 96.7355 74.3632C96.0123 74.3927 95.2936 74.4901 94.5887 74.654C94.4564 74.6581 94.3265 74.6898 94.2073 74.747C94.088 74.8043 93.982 74.8858 93.8962 74.9864C93.8306 75.151 93.7864 75.3232 93.7646 75.4989C93.6261 75.9698 93.1136 76.233 92.9197 76.6831C93.107 76.7152 93.2848 76.7884 93.4404 76.8974C93.5961 77.0063 93.7257 77.1483 93.82 77.3133C93.8705 77.4248 93.9383 77.5276 94.0208 77.618C94.1142 77.6795 94.2211 77.7176 94.3324 77.7288L95.7729 78.0127C95.0156 78.9547 94.1867 79.8368 93.2937 80.6512C92.435 81.4337 91.2161 81.7523 90.1912 82.2786C89.3394 82.708 88.5084 83.1858 87.6843 83.6636L85.7106 84.7924C84.2564 85.5819 82.8159 86.4268 81.4309 87.3409C80.0249 88.3323 78.6855 89.4149 77.4213 90.5818C76.7842 91.1566 76.154 91.7522 75.5307 92.3477C75.2607 92.6541 74.9563 92.9283 74.6235 93.1649C74.2703 93.3796 73.8825 93.5527 73.5224 93.7674C73.3698 93.8291 73.2327 93.9237 73.1208 94.0444C73.019 94.2074 72.9797 94.4017 73.0099 94.5915C73.0876 94.9781 73.2571 95.3404 73.5042 95.6477C73.7513 95.9551 74.0687 96.1985 74.4296 96.3574C75.149 96.6659 75.8436 97.0294 76.5071 97.4446C76.8296 97.7476 77.1671 98.0342 77.5182 98.3034C77.6429 98.4099 77.7899 98.4872 77.9483 98.5297C78.1067 98.5722 78.2727 98.5787 78.4339 98.5489C78.5952 98.519 78.7478 98.4535 78.8805 98.3571C79.0132 98.2607 79.1227 98.1359 79.201 97.9917C79.6132 97.3307 80.1116 96.7276 80.683 96.1981C81.871 95.1436 83.223 94.2898 84.6857 93.6704C86.1885 92.9779 87.6982 92.417 89.1871 91.7037C90.676 90.9904 92.3449 90.2079 93.9308 89.4807C97.1625 88.0034 100.394 86.5814 103.626 85.2149C104.415 84.8894 105.392 84.5847 106.05 85.1248C106.137 85.1858 106.199 85.2771 106.223 85.3811C106.258 85.6511 105.953 85.8589 105.953 86.1428C105.981 86.3824 106.046 86.6161 106.147 86.8353C106.341 87.2785 106.839 87.3201 107.248 87.3201C108.163 87.335 109.061 87.0718 109.824 86.5653C110.626 85.9337 111.376 85.239 112.068 84.4877C112.455 84.1693 112.862 83.8755 113.287 83.6082C116.437 81.5307 119.685 79.5224 122.469 76.9601C122.771 76.6094 123.103 76.2851 123.46 75.9906C123.806 75.7621 124.242 75.5197 124.394 75.118C124.615 74.6688 124.807 74.2063 124.969 73.733C125.129 73.2542 125.129 72.7367 124.969 72.2579C124.893 72.064 124.782 71.877 124.713 71.6831C124.616 71.3715 124.595 71.2399 124.852 71.0322C124.997 70.919 125.158 70.8279 125.329 70.7621Z" fill="#BD9393"/>
</g>
<path d="M93.4806 76.8701C93.5643 76.9547 93.6741 77.0084 93.7923 77.0225C93.7923 77.0225 93.8961 77.3479 94.1385 77.3202C94.3809 77.2925 96.1122 76.7316 96.1122 76.7316L96.0498 77.7842L100.205 74.5156C100.205 74.5156 105.745 71.4339 105.877 71.3993C106.008 71.3646 107.816 70.4228 107.816 70.4228C107.816 70.4228 112.262 69.2525 113.446 68.7539L113.57 68.6915C114.879 68.0683 118.418 65.5337 117.774 65.3675C117.13 65.2013 117.192 64.8065 115.696 64.9935C114.201 65.1805 112.054 65.319 110.606 66.1362C109.159 66.9533 104.519 69.0032 104.035 69.3979C103.55 69.7926 98.9307 73.0059 98.7437 73.269C98.1837 73.2376 97.622 73.2655 97.0678 73.3521C96.5464 73.5084 96.0372 73.7028 95.5443 73.9339C95.0387 74.0735 94.5415 74.2423 94.0554 74.4394C94.0273 74.4636 94.007 74.4956 93.9971 74.5314C93.9873 74.5671 93.9883 74.605 94 74.6402C94.0248 74.7402 94.0644 74.836 94.1177 74.9242L95.9113 74.5502L95.0942 74.9449C95.0942 74.9449 93.4945 75.9214 93.5014 75.9906C93.5029 76.0114 93.5029 76.0322 93.5014 76.0529C93.5014 76.1638 93.5014 76.3784 93.5014 76.3784H93.6676C93.6676 76.3784 93.3421 76.7316 93.4806 76.8701Z" fill="#F8C3A6"/>
<g style="mix-blend-mode:multiply">
<path d="M94.09 76.7316L93.4806 76.8701C93.5643 76.9546 93.6741 77.0083 93.7923 77.0224C93.7923 77.0224 93.8961 77.3479 94.1385 77.3202C94.3809 77.2925 96.1122 76.7316 96.1122 76.7316L96.0499 77.7842L100.205 74.5155C100.205 74.5155 105.745 71.4339 105.877 71.3992C106.008 71.3646 107.816 70.4228 107.816 70.4228C107.816 70.4228 112.262 69.2524 113.446 68.7538L113.57 68.6915C113.432 68.1167 113.183 67.7635 112.767 67.8189C111.762 67.7748 110.772 68.0699 109.956 68.6569C108.828 69.3992 107.623 70.0169 106.361 70.499L103.307 71.7039L96.4584 76.3853L94.651 77.0778C94.651 77.0778 94.2147 77.2302 94.1524 77.1402C94.09 77.0501 94.2701 76.8839 94.2701 76.8839L96.1676 75.8175L94.09 76.7316Z" fill="#F6CFBA"/>
</g>
<g style="mix-blend-mode:multiply">
<path d="M95.8975 74.5502L96.1883 74.3494H95.5582C95.5582 74.3494 94.2216 74.7233 94.1177 74.7302C94.0138 74.7372 94.0415 74.7303 93.9861 74.661C94.0109 74.761 94.0506 74.8567 94.1039 74.9449L95.8975 74.5502Z" fill="#F6CFBA"/>
</g>
<g style="mix-blend-mode:multiply">
<path d="M93.4806 76.87L93.9308 76.3299L95.9044 75.2357L94.2285 75.8728C94.0234 75.976 93.8131 76.0685 93.5983 76.1498C93.5983 76.1498 93.536 76.1083 93.5014 76.0529C93.5014 76.1637 93.5014 76.3784 93.5014 76.3784H93.6676C93.6676 76.3784 93.3421 76.7315 93.4806 76.87Z" fill="#F6CFBA"/>
</g>
<path d="M73.2592 93.4351C73.2592 93.5043 73.6124 94.7162 73.6401 94.9032C73.7067 95.0718 73.8003 95.2285 73.9171 95.3672C73.9202 95.3832 73.9202 95.3997 73.9171 95.4157C73.9171 95.4572 73.9794 95.4919 74.0071 95.5403L74.0487 95.5819L74.3464 95.9489C74.3464 95.9489 74.7758 96.5168 75.0874 96.4821C75.4256 96.3869 75.7211 96.1793 75.9254 95.8935C76.0708 95.6858 77.1511 93.9614 77.4212 93.6221C78.0347 93.0645 78.6848 92.5486 79.3672 92.0778C80.3041 90.9575 81.4834 90.0648 82.8159 89.467C84.6926 88.7191 100.517 81.1984 101.258 80.9629C101.611 80.8452 102.913 79.4325 104.18 77.9851C105.565 76.4062 106.881 74.7926 106.881 74.7926C106.881 74.7926 105.752 72.258 103.356 71.7386C101.486 72.2788 97.2894 75.5821 95.9529 77.0017C94.6163 78.4214 92.1717 80.3812 91.3546 80.6028C90.0712 80.8817 88.8169 81.2805 87.6081 81.7939C86.5104 82.4262 85.5 83.1991 84.6026 84.0931C84.4779 84.2524 80.309 87.798 80.309 87.798L79.5472 88.2343L79.1179 88.2828C78.5933 88.3574 78.1073 88.6005 77.7328 88.9753C77.3184 89.4682 76.8694 89.931 76.3893 90.3603C76.3893 90.3603 74.4849 91.6553 74.2495 91.9254C74.021 92.272 73.8284 92.6409 73.6747 93.0265C73.6747 93.0265 73.2523 93.352 73.2592 93.4351Z" fill="#F8C3A6"/>
<g style="mix-blend-mode:multiply">
<path d="M74.0972 95.5957L74.395 95.9627C74.395 95.9627 74.8243 96.5306 75.136 96.4959C75.4741 96.4007 75.7697 96.1931 75.9739 95.9073C76.1193 95.6996 77.1996 93.9752 77.4697 93.6359C78.0833 93.0783 78.7334 92.5624 79.4157 92.0916C80.3373 90.9721 81.4995 90.0749 82.8159 89.4669C84.6926 88.719 100.517 81.1983 101.258 80.9629C101.611 80.8451 102.913 79.4324 104.18 77.9851L104.055 77.0225L102.594 77.2025C102.594 77.2025 100.745 78.7814 100.586 78.8715C100.427 78.9615 97.9681 80.5958 96.4723 81.3091C94.9765 82.0224 93.0097 83.1443 93.0097 83.1443C91.791 83.352 90.6186 83.774 89.5472 84.3908C87.9613 85.3534 85.8491 86.9185 84.6442 87.4309C83.4392 87.9434 82.2758 88.8783 81.0777 89.1484C79.8797 89.4185 80.1497 89.5777 80.1497 89.5777C79.7107 90.2607 79.2199 90.909 78.6816 91.5168C78.2833 91.9537 77.9327 92.432 77.6359 92.9433C77.6359 92.9433 75.9739 95.194 75.8008 95.3602C75.621 95.6021 75.459 95.8567 75.316 96.122C75.1983 96.2397 74.5058 96.0112 74.0972 95.5957Z" fill="#F6CFBA"/>
</g>
<path d="M106.922 73.0128C107.109 73.0474 111.23 76.5654 111.901 78.1097C112 78.3346 112.083 78.566 112.151 78.8022C112.344 79.3131 112.344 79.8772 112.151 80.3881C113.116 79.8735 113.985 79.1965 114.72 78.3867C115.856 77.1055 116.985 75.7967 118.875 74.9795C119.796 74.5779 121.07 73.8715 122.137 73.2621C123.203 72.6527 124.124 72.0918 124.124 72.0918L124.318 71.1015C124.318 71.1015 124.117 70.4089 123.674 69.3217C122.847 67.7814 121.528 66.5624 119.928 65.8591C118.862 65.4719 117.766 65.1708 116.652 64.9589C115.245 65.3769 113.94 66.0846 112.823 67.0364C111.562 68.1583 110.378 69.5087 109.872 69.8688C109.367 70.2289 109.138 70.6929 106.95 71.0807C104.762 71.4685 106.742 72.9712 106.922 73.0128Z" fill="#F8C3A6"/>
<g style="mix-blend-mode:multiply">
<path d="M112.185 80.3604C113.15 79.8459 114.02 79.1689 114.755 78.3591C115.89 77.0779 117.019 75.7691 118.91 74.9519C119.831 74.5502 121.105 73.8439 122.171 73.2345C122.227 72.7151 122.171 72.2719 121.652 72.4658C120.613 72.8744 117.656 74.6195 117.656 74.6195C116.752 75.6395 115.713 76.5318 114.568 77.2718C112.961 78.2206 112.49 77.9643 112.49 77.9643C112.372 78.2621 112.269 78.5391 112.185 78.8023C112.372 79.3049 112.372 79.8578 112.185 80.3604Z" fill="#F6CFBA"/>
</g>
<path d="M120 66.0002C121.355 66.9229 121.623 67.166 122.795 68.2624C123.704 69.189 124.487 69.9573 124.523 69.9731C124.984 70.0092 125.446 70.0092 125.907 69.9731C126.322 69.8081 126.713 69.6008 127.071 69.3553C127.314 69.2119 127.534 69.0415 127.726 68.8485C127.996 68.0225 128.067 67.1571 127.936 66.3061C127.864 66.0502 127.73 65.8105 127.543 65.603C127.356 65.3954 127.121 65.2248 126.853 65.1023C126.198 64.8726 122.795 66 122 66C121 66 120 66.0002 120 66.0002Z" fill="#F8C3A6"/>
<path d="M123.287 66.2215C123.768 66.5135 124.216 66.8504 124.623 67.2271C124.698 67.4282 125.794 67.3431 125.794 67.3431C125.986 67.5004 126.158 67.6768 126.309 67.8691C126.375 68.2709 126.326 68.6816 126.168 69.0604C125.919 69.4162 125.337 69.8339 125.337 69.9577C125.337 70.0814 126.168 69.9577 126.168 69.9577C126.168 69.9577 127.098 69.4626 127.405 69.3002C127.981 68.8343 128.474 68.2859 128.866 67.6757C129.08 66.9293 129.037 66.139 128.741 65.417C128.252 64.3803 127.613 63.9559 126.5 63.5C125.437 63.1132 123.988 63.953 123.988 63.953L123 65.5001L123.096 65.7341L123.287 66.2215Z" fill="#4A2727"/>
<path d="M76.5833 95.6233C76.5833 95.7964 77.0334 96.9183 77.1096 97.1329C77.1971 97.3623 77.3515 97.5602 77.5528 97.7008C77.7295 97.7959 77.8906 97.9173 78.0306 98.0609C78.1728 98.1375 78.3334 98.1734 78.4946 98.1648C78.5568 98.1716 78.6195 98.1716 78.6816 98.1648C78.9448 98.1163 78.924 97.8116 78.9586 97.68C78.9932 97.5484 79.0694 96.662 79.0625 96.5928C79.0556 96.5235 80.0459 95.2562 80.0459 95.2562C80.794 94.5411 81.5776 93.8639 82.3935 93.2272C82.989 92.8463 90.1496 89.9031 91.4516 89.356C92.7535 88.8089 95.2465 87.2023 96.2576 86.856C97.2687 86.5098 102.372 85.3948 105.122 84.3076C106.937 83.5538 108.657 82.5892 110.246 81.4337C110.803 80.8808 111.198 80.1864 111.389 79.4254C111.479 78.876 111.374 78.3124 111.091 77.8326C110.724 77.0916 108.107 73.9337 107.49 73.6013C106.874 73.2689 103.958 75.3465 103.958 75.3465C103.496 76.0746 103.207 76.899 103.113 77.7564C101.555 78.8921 97.0471 81.399 95.6136 82.2508C94.1801 83.1026 92.5457 83.4696 90.5859 84.1968C88.6261 84.9239 88.169 85.7619 87.1233 86.489C86.0777 87.2161 83.1968 89.3006 82.3173 89.7161C82.0475 89.8337 81.7564 89.8945 81.462 89.8945C81.1677 89.8945 80.8766 89.8337 80.6068 89.7161C80.2813 89.6746 79.3395 89.7161 79.0694 90.2701C78.7993 90.8241 78.7855 92.874 78.5639 93.1441C78.3423 93.4141 77.2758 94.1205 76.888 94.4737C76.7231 94.6329 76.6159 94.8424 76.5833 95.0692C76.5567 95.253 76.5567 95.4395 76.5833 95.6233Z" fill="#F8C3A6"/>
<g style="mix-blend-mode:multiply">
<path d="M78.4877 98.1996C78.5498 98.2064 78.6125 98.2064 78.6747 98.1996C78.9378 98.1511 78.9171 97.8464 78.9517 97.7148C78.9863 97.5832 79.0625 96.6968 79.0556 96.6276C79.0486 96.5583 80.0458 95.2564 80.0458 95.2564C80.794 94.5413 81.5775 93.8641 82.3935 93.2273C82.989 92.8464 90.1496 89.9033 91.4515 89.3562C92.7535 88.8091 95.2465 87.2025 96.2576 86.8562C97.2687 86.51 102.372 85.395 105.122 84.3078C106.937 83.554 108.657 82.5894 110.246 81.4338C110.803 80.881 111.198 80.1865 111.389 79.4255C111.389 79.4255 111.147 80.3466 107.746 82.2718C104.483 83.9886 101.003 85.2559 97.4002 86.039L95.0249 86.3368C93.6829 87.2205 92.296 88.0341 90.8698 88.7745C88.5845 89.9587 83.4669 92.1055 82.6774 92.4586C82.053 92.8058 81.4912 93.2553 81.0154 93.7883L79.381 95.5611L78.8409 96.8146C78.8409 96.8146 78.6193 98.1996 78.4877 98.1996Z" fill="#F6CFBA"/>
</g>
<g style="mix-blend-mode:multiply">
<path d="M76.5832 95.6233C76.5832 95.7964 77.0334 96.9183 77.1096 97.1329C77.1971 97.3623 77.3515 97.5602 77.5528 97.7008C77.7294 97.7959 77.8905 97.9173 78.0306 98.0609C78.1728 98.1375 78.3333 98.1734 78.4946 98.1648C77.9997 97.6906 77.537 97.1839 77.1096 96.6482C77.1096 96.6482 76.8187 95.7964 76.6179 95.0762C76.5804 95.256 76.5687 95.4402 76.5832 95.6233Z" fill="#F6CFBA"/>
</g>
<g style="mix-blend-mode:multiply">
<path d="M122.857 68.7053C123.55 69.5156 124.145 70.1873 124.173 70.2012C124.523 70.2327 124.875 70.2327 125.225 70.2012C125.541 70.0569 125.839 69.8756 126.112 69.661L125.932 69.2732C125.932 69.2732 125.454 69.4394 125.066 69.5294C124.771 69.5476 124.48 69.4564 124.249 69.2732C124.063 68.8056 123.811 68.3672 123.501 67.9713C123.273 67.8466 122.719 67.4727 122.719 67.4727C122.719 67.4727 122.795 68.179 122.857 68.7053Z" fill="#F6CFBA"/>
</g>
<path d="M108.273 72.8396C108.273 72.8396 111.119 74.0931 111.943 75.2773C112.536 76.0365 112.916 76.9401 113.044 77.895C113.023 78.6446 112.89 79.3868 112.649 80.0972C112.483 80.2495 110.274 81.4337 110.274 81.4337C110.719 80.9708 111.011 80.3833 111.113 79.7497C111.214 79.1161 111.12 78.4666 110.842 77.888C109.886 75.8105 107.989 74.6886 106.853 74.7994C105.927 74.7931 105.02 75.0579 104.242 75.5612C103.686 76.1013 103.317 76.805 103.19 77.5695L103.107 76.9254C103.353 75.8882 103.511 74.8317 103.577 73.7676C103.637 73.1841 103.623 72.5955 103.536 72.0155L103.176 71.787C103.95 71.475 104.759 71.2587 105.586 71.143C106.375 71.143 107.04 71.0945 107.04 71.0945C107.298 71.7705 107.722 72.3707 108.273 72.8396Z" fill="#DADCF7"/>
<g style="mix-blend-mode:multiply">
<path d="M115.142 68.6638C114.277 69.1694 113.065 70.6514 112.033 71.1846C111.199 71.5581 110.315 71.8055 109.408 71.9187C109.883 72.1467 110.399 72.2741 110.925 72.2926C111.548 72.2372 113.377 70.9699 113.377 70.9699C114.022 70.2318 114.716 69.5377 115.454 68.8924C116.344 68.4338 117.271 68.0493 118.224 67.7428C117.171 67.9561 116.14 68.2643 115.142 68.6638Z" fill="#F6CFBA"/>
</g>
<path d="M125.689 68.7261C125.907 68.6222 126.142 68.5611 126.382 68.546C126.68 68.546 126.52 68.92 126.52 68.92C126.52 68.92 125.579 69.1277 125.419 69.1485C125.26 69.1693 125.239 68.9269 125.239 68.9269L125.689 68.7261Z" fill="#FFD2BB"/>
<path d="M106.715 86.8284C106.715 86.8284 106.645 87.1955 106.77 87.2647C106.895 87.334 107.296 87.1608 107.296 87.1608C107.296 87.1608 107.67 87.424 107.698 87.3617C107.946 87.1691 108.205 86.991 108.474 86.8284C108.474 86.8284 108.425 87.147 108.647 87.2301C108.723 87.2301 108.924 87.1539 109.159 86.9946C109.588 86.6969 110.108 86.2398 110.108 86.2398L111.825 84.3908C111.825 84.3908 115.503 81.5446 116.334 81.0598C117.471 80.3638 118.538 79.559 119.519 78.6568C120.451 77.69 121.501 76.8433 122.642 76.136C123.51 75.5458 124.19 74.719 124.602 73.7538C124.836 73.2208 124.856 72.6182 124.658 72.071C124.57 71.7326 124.457 71.4015 124.318 71.0807C124.013 70.3882 122.511 71.8355 121.929 72.2441C121.347 72.6527 120.066 73.7953 120.066 73.7953C119.283 74.5978 118.46 75.3605 117.601 76.0806C116.739 76.7081 115.966 77.4488 115.302 78.2828C114.036 79.7275 112.669 81.0791 111.209 82.3271C110.935 82.5181 110.597 82.5951 110.267 82.5418C109.94 82.5112 109.611 82.5112 109.284 82.5418C109.201 82.5418 108.065 83.4628 108.065 83.4628L107.282 84.0999C107.282 84.0999 106.943 84.5154 107.185 84.6886C107.428 84.8617 107.795 84.647 107.829 84.6262C107.864 84.6055 106.915 85.7758 106.59 86.2259C106.547 86.279 106.508 86.3345 106.472 86.3922C106.361 86.5653 106.715 86.8284 106.715 86.8284Z" fill="#F8C3A6"/>
<g style="mix-blend-mode:multiply">
<path d="M110.641 85.478L109.131 86.9946C109.561 86.6968 110.08 86.2398 110.08 86.2398L111.798 84.3907C111.798 84.3907 115.475 81.5445 116.306 81.0597C117.453 80.3652 118.529 79.5604 119.519 78.6567C120.451 77.69 121.501 76.8432 122.642 76.136C123.51 75.5457 124.19 74.719 124.602 73.7537C124.836 73.2208 124.856 72.6181 124.658 72.0709C124.976 74.1485 122.622 75.6374 122.248 76.039C121.443 76.689 120.604 77.2947 119.734 77.8534C119.692 77.895 119.09 78.075 118.66 78.2135C118.231 78.352 117.857 79.3285 117.352 80.0141C116.846 80.6996 113.647 82.6456 113.647 82.6456L112.082 83.7536L111.805 83.5667L111.528 84.363L110.641 85.478Z" fill="#F6CFBA"/>
</g>
<g style="mix-blend-mode:multiply">
<path d="M108.141 84.6747L109.187 83.2897L108.03 84.3492L107.192 84.647C107.421 84.8063 107.802 84.6054 107.836 84.5847C107.871 84.5639 106.922 85.7342 106.597 86.1844L108.141 84.6747Z" fill="#F6CFBA"/>
</g>
<g style="mix-blend-mode:multiply">
<path d="M106.715 86.8284C106.715 86.8284 106.645 87.1955 106.77 87.2647C106.895 87.334 107.296 87.1608 107.296 87.1608C107.296 87.1608 107.67 87.424 107.698 87.3617C107.946 87.1691 108.205 86.991 108.474 86.8284C108.474 86.8284 108.425 87.147 108.647 87.2301C108.723 87.2301 108.924 87.1539 109.159 86.9946L108.709 87.0708L108.536 86.7869L109.921 85.4019L108.667 86.4683L108.127 86.9115C107.955 87.0025 107.771 87.07 107.58 87.1124C107.359 87.1124 107.386 86.9046 107.386 86.9046L108.986 85.3603L107.303 86.8284C107.303 86.8284 107.068 87.0916 106.943 87.0223C106.818 86.9531 106.943 86.5999 106.943 86.5999L108.439 85.0417L106.915 86.3437L106.631 86.5307L106.576 86.219C106.534 86.272 106.494 86.3275 106.458 86.3852C106.361 86.5653 106.715 86.8284 106.715 86.8284Z" fill="#F6CFBA"/>
</g>
<path d="M118.425 65.7534L117.598 64.2925C116.389 63.9025 115.087 63.9025 113.877 64.2925C111.713 64.9334 106.896 67.7725 106.896 67.7725L97.8483 73.1408L99.3505 74.1882L118.425 65.7534Z" fill="#A8E3E2"/>
<path d="M90.5 81C91.0926 80.5 91.5015 81.479 91.5015 81.479C91.5015 81.479 92.673 84.3112 95.4984 85.0693C95.9141 85.169 96.3059 85.3501 96.6513 85.602C96.9966 85.8539 97.2887 86.1717 97.5106 86.5371C97.5106 87.5 97.5399 86.6624 97.5106 87.5C97.5106 87.5 107.544 83.5532 109.184 82.6367C110.429 81.9413 111.29 81.0051 113.5 79.5C114.203 79.0214 115.649 77.2328 116.5 77C118.579 76.2987 119 75.5 121.5 74C122.554 73.1868 122.5 73 122.5 73L123.759 71.3834L121.526 66.787C120.384 65.7181 119.052 64.872 117.598 64.2924C110.707 64.7196 108.178 70.6601 101.5 72.5C94.8225 74.3399 90.7205 80.8139 90.5 81Z" fill="#A8E3E2"/>
<g style="mix-blend-mode:multiply">
<path d="M97.49 87.5C97.49 87.5 107.544 83.5531 109.184 82.6366C110.356 81.9817 112.039 80.5 114 79C114 79 115.5 77.5 116.337 77C118.417 76.2987 120.302 74.8901 122 73.5L123.738 71.3833C121.726 73.5395 119.169 75.1131 116.337 75.9384C111.589 77.3166 111.479 79.5631 108.116 81.4513C104.753 83.3395 100.846 86.5577 97.49 86.5094C97.49 87.5 97.49 87.5 97.49 87.5Z" fill="#49D1CF"/>
</g>
<path d="M112 81.5C113.192 81.5 114.5 83 114.5 83C115.947 82.7933 121 78 121 78C121 78 127.074 74.2433 127.646 71.3972C127.69 71.1336 127.68 70.8637 127.616 70.6041C127.552 70.3445 127.435 70.1008 127.274 69.888L127.205 69.7984C125.764 67.9034 121.499 66.8008 121.499 66.8008L122.767 71.8796L116 77.5L112 81.5Z" fill="#A8E3E2"/>
<g style="mix-blend-mode:multiply">
<path d="M114.5 83C115.947 82.7933 122.5 77 122.5 77C122.5 77 127.074 74.2433 127.646 71.3972C127.69 71.1336 127.68 70.8637 127.616 70.6041C127.552 70.3445 127.435 70.1009 127.274 69.8881L127.205 69.7985C127.205 69.7985 121.378 76.2596 120 77.5C118.622 78.7404 114.5 83 114.5 83Z" fill="#49D1CF"/>
</g>
<path d="M118 70L113.8 67L109 70L113.2 73L118 70Z" fill="#F8C3A6"/>
<path d="M136.463 59.2102C135.835 59.188 135.224 59.0024 134.69 58.6715L131.653 56.9173C129.537 55.6969 127.811 52.7128 127.811 50.2674C127.812 50.2096 127.836 50.1545 127.877 50.1137C127.918 50.0728 127.973 50.0493 128.03 50.0481C128.089 50.0481 128.144 50.0712 128.185 50.1123C128.227 50.1534 128.25 50.2092 128.25 50.2674C128.319 51.524 128.683 52.7467 129.312 53.8365C129.942 54.9263 130.819 55.8527 131.873 56.5407L134.909 58.2901C135.834 58.8288 136.692 58.9194 137.326 58.5523C137.96 58.1853 138.308 57.3987 138.308 56.3262C138.309 56.2684 138.333 56.2133 138.374 56.1725C138.414 56.1316 138.469 56.1081 138.527 56.1069C138.585 56.1069 138.641 56.13 138.682 56.1711C138.723 56.2122 138.747 56.268 138.747 56.3262C138.747 57.5608 138.322 58.4856 137.545 58.9337C137.215 59.12 136.842 59.2154 136.463 59.2102Z" fill="#C1E7EA"/>
<path d="M156.203 30.2177C155.76 29.9651 155.045 30.375 154.606 31.1425C154.168 31.91 154.163 32.7347 154.606 32.9873L150.702 30.7373C150.263 30.4799 150.263 29.6552 150.702 28.8877C151.141 28.1203 151.86 27.7103 152.304 27.9677L156.203 30.2177Z" fill="#CFECEF"/>
<path d="M156.205 32.0683C156.646 31.3045 156.645 30.4783 156.203 30.2229C155.76 29.9676 155.044 30.3797 154.603 31.1435C154.162 31.9073 154.163 32.7335 154.606 32.9889C155.048 33.2443 155.764 32.8321 156.205 32.0683Z" fill="#BCE2E5"/>
<path d="M123.426 39.8231C123.111 39.642 122.601 39.9328 122.286 40.481C121.972 41.0292 121.972 41.6107 122.286 41.7919L115.236 37.7209C114.921 37.5397 114.921 36.9534 115.236 36.4052C115.551 35.857 116.061 35.5662 116.375 35.7474L123.426 39.8231Z" fill="#8EC3C8"/>
<path d="M123.426 39.823C123.74 40.0041 123.74 40.5904 123.426 41.1386C123.111 41.6868 122.601 41.9776 122.286 41.7917C121.972 41.6058 121.972 41.0242 122.286 40.4808C122.601 39.9374 123.111 39.6418 123.426 39.823Z" fill="#81BBC0"/>
<path d="M152.452 19.4301C152.452 19.7494 152.9 20.0069 153.453 20.0069C154.006 20.0069 154.454 19.7494 154.454 19.4301V29.2738C154.454 29.5932 154.006 29.8554 153.453 29.8554C152.9 29.8554 152.452 29.5932 152.452 29.2738V19.4301Z" fill="#C1E7EA"/>
<path d="M153.453 20.0069C154.005 20.0069 154.454 19.7486 154.454 19.4301C154.454 19.1115 154.005 18.8533 153.453 18.8533C152.9 18.8533 152.452 19.1115 152.452 19.4301C152.452 19.7486 152.9 20.0069 153.453 20.0069Z" fill="#A7D0D4"/>
<path d="M134.537 4.62866C134.537 5.13873 135.252 5.55345 136.134 5.55345C137.016 5.55345 137.731 5.13873 137.731 4.62866V9.30503C137.731 9.8151 137.016 10.2298 136.134 10.2298C135.252 10.2298 134.537 9.8151 134.537 9.30503V4.62866Z" fill="#B0D9DD"/>
<path d="M134.537 4.62877C134.537 4.1187 135.252 3.70398 136.134 3.70398C137.016 3.70398 137.731 4.1187 137.731 4.62877C137.731 5.13883 137.016 5.55355 136.134 5.55355C135.252 5.55355 134.537 5.13883 134.537 4.62877Z" fill="#A7D0D4"/>
<path d="M131.83 2.27856C131.83 3.53704 133.593 4.55716 135.772 4.55716C137.95 4.55716 139.714 3.53704 139.714 2.27856V4.69064C139.714 5.94911 137.95 6.96447 135.772 6.96447C133.593 6.96447 131.83 5.94911 131.83 4.69064V2.27856Z" fill="#81BBC0"/>
<path d="M135.772 4.5572C137.949 4.5572 139.714 3.53704 139.714 2.2786C139.714 1.02016 137.949 0 135.772 0C133.595 0 131.83 1.02016 131.83 2.2786C131.83 3.53704 133.595 4.5572 135.772 4.5572Z" fill="#9ACDD1"/>
<path d="M137.498 7.03122L152.752 15.9168V19.0487L137.45 10.2155C137.233 10.0883 137.054 9.90639 136.93 9.68799C136.807 9.46959 136.742 9.22243 136.744 8.97137L136.768 7.44118C136.767 7.3556 136.789 7.27133 136.832 7.1972C136.875 7.12307 136.937 7.06182 137.011 7.01989C137.086 6.97795 137.17 6.95688 137.256 6.95887C137.342 6.96086 137.425 6.98586 137.498 7.03122Z" fill="#C1E7EA"/>
<path d="M151.856 14.8347C151.856 15.3448 152.571 15.7595 153.453 15.7595C154.334 15.7595 155.049 15.3448 155.049 14.8347V19.5111C155.049 20.0212 154.334 20.4359 153.453 20.4359C152.571 20.4359 151.856 20.0212 151.856 19.5111V14.8347Z" fill="#BCE2E5"/>
<path d="M151.856 14.8347C151.856 14.3246 152.571 13.9099 153.453 13.9099C154.334 13.9099 155.049 14.3246 155.049 14.8347C155.049 15.3448 154.334 15.7595 153.453 15.7595C152.571 15.7595 151.856 15.3448 151.856 14.8347Z" fill="#CFECEF"/>
<path d="M152.785 31.7527L139.586 39.232L137.474 38.0117L151.856 29.8459C151.856 29.8459 152.757 29.4455 153.066 30.5466C153.104 30.7562 153.099 30.9713 153.051 31.1788C153.002 31.3862 152.912 31.5815 152.785 31.7527Z" fill="#C1E7EA"/>
<path d="M139.471 56.1021C139.579 56.0423 139.682 55.972 139.776 55.8924C141.979 54.0428 139.972 48.0174 135.286 42.4305C130.8 37.0868 124.598 34.6414 123.111 34.8034C123.111 34.8034 130.328 32.3485 137.378 41.2388C144.867 50.6774 140.558 56.0545 140.448 56.1164L139.471 56.1021Z" fill="#ADD3D7"/>
<path d="M139.862 56.598C137.369 58.0281 131.806 54.8914 127.11 49.295C122.2 43.4412 120.093 37.1298 122.405 35.1896C122.504 35.108 122.609 35.0347 122.72 34.9704C125.218 33.5403 130.776 36.6722 135.476 42.2733C140.386 48.1224 142.489 54.4386 140.181 56.3739C140.082 56.4582 139.975 56.5332 139.862 56.598Z" fill="#A7D5D9"/>
<path d="M139.261 56.2404C136.968 57.5561 131.796 54.5815 127.396 49.3379C122.801 43.8654 120.794 37.983 122.911 36.205C123.001 36.1286 123.098 36.0615 123.202 36.0048C125.494 34.6938 130.667 37.6636 135.062 42.9073C139.657 48.3845 141.669 54.2621 139.552 56.0402C139.461 56.1155 139.364 56.1825 139.261 56.2404Z" fill="#C1E7EA"/>
<path d="M126.024 37.7732C127.158 39.127 127.625 40.6334 127.058 41.1101C126.491 41.5868 125.118 40.867 123.979 39.5132C122.839 38.1594 122.377 36.653 122.944 36.2049C123.511 35.7568 124.889 36.4194 126.024 37.7732Z" fill="#B4DFE2"/>
<path d="M131.353 39.2607C132.488 40.6192 132.955 42.1208 132.387 42.5975C131.82 43.0742 130.443 42.3544 129.308 41.0006C128.173 39.6468 127.706 38.1404 128.274 37.6923C128.841 37.2442 130.214 37.9069 131.353 39.2607Z" fill="#B4DFE2"/>
<path d="M137.545 46.6446C138.68 47.9984 139.147 49.5048 138.58 49.9528C138.012 50.4009 136.64 49.7145 135.5 48.3559C134.361 46.9973 133.899 45.4958 134.466 45.0477C135.033 44.5996 136.411 45.286 137.545 46.6446Z" fill="#B4DFE2"/>
<path d="M126.977 43.1503C128.111 44.5041 128.579 46.0105 128.011 46.4586C127.444 46.9067 126.071 46.2202 124.932 44.8617C123.793 43.5031 123.33 42.0015 123.897 41.5534C124.465 41.1053 125.842 41.7917 126.977 43.1503Z" fill="#B4DFE2"/>
<path d="M133.169 50.5297C134.308 51.8835 134.771 53.3899 134.204 53.838C133.636 54.2861 132.263 53.5997 131.124 52.2458C129.985 50.892 129.527 49.3857 130.09 48.909C130.652 48.4323 132.035 49.1759 133.169 50.5297Z" fill="#B4DFE2"/>
<path d="M138.446 52.1886C139.581 53.5471 140.043 55.0487 139.481 55.5016C138.918 55.9545 137.536 55.2585 136.401 53.9047C135.267 52.5509 134.799 51.0445 135.362 50.5964C135.924 50.1483 137.307 50.8348 138.446 52.1886Z" fill="#B4DFE2"/>
<path d="M133.515 48.7768C134.08 48.303 133.616 46.8202 132.479 45.465C131.341 44.1097 129.962 43.3951 129.397 43.869C128.832 44.3428 129.297 45.8256 130.434 47.1809C131.571 48.5361 132.951 49.2507 133.515 48.7768Z" fill="#B4DFE2"/>
<path d="M125.809 37.9878C126.948 39.3416 127.411 40.8479 126.848 41.296C126.286 41.7441 124.903 41.0577 123.769 39.7039C122.634 38.35 122.167 36.8437 122.73 36.3908C123.292 35.938 124.674 36.6339 125.809 37.9878Z" fill="white"/>
<path d="M131.138 39.4751C132.278 40.8289 132.74 42.3114 132.178 42.7833C131.615 43.2552 130.233 42.545 129.093 41.1912C127.954 39.8373 127.497 38.331 128.059 37.8543C128.622 37.3776 130.013 38.1212 131.138 39.4751Z" fill="white"/>
<path d="M137.331 46.8591C138.47 48.2129 138.932 49.7192 138.37 50.1959C137.807 50.6726 136.425 49.9528 135.29 48.599C134.156 47.2452 133.689 45.7388 134.251 45.2907C134.814 44.8426 136.211 45.5005 137.331 46.8591Z" fill="white"/>
<path d="M127.802 46.6703C128.366 46.1964 127.902 44.7137 126.765 43.3584C125.628 42.0031 124.248 41.2886 123.683 41.7624C123.119 42.2362 123.583 43.719 124.72 45.0743C125.857 46.4296 127.237 47.1441 127.802 46.6703Z" fill="white"/>
<path d="M132.959 50.7393C134.094 52.0979 134.556 53.5995 133.994 54.0762C133.431 54.5529 132.049 53.8331 130.914 52.4792C129.78 51.1254 129.313 49.6429 129.875 49.171C130.438 48.6991 131.82 49.3855 132.959 50.7393Z" fill="white"/>
<path d="M138.232 52.4031C139.371 53.7569 139.833 55.2633 139.266 55.74C138.699 56.2166 137.326 55.4968 136.187 54.143C135.047 52.7892 134.59 51.2829 135.152 50.8062C135.715 50.3295 137.097 51.0493 138.232 52.4031Z" fill="white"/>
<path d="M132.268 45.6817C133.403 47.0355 133.87 48.5418 133.303 48.9899C132.735 49.438 131.358 48.7516 130.223 47.3978C129.089 46.0439 128.622 44.5614 129.189 44.0847C129.756 43.608 131.129 44.3278 132.268 45.6817Z" fill="white"/>
<path d="M133.608 41.3486C133.55 41.3486 133.494 41.3254 133.453 41.2843C133.412 41.2432 133.389 41.1874 133.389 41.1293C133.389 38.3835 131.119 36.6674 129.77 35.8856L126.529 34.1648C125.261 33.4354 124.374 33.2114 123.883 33.4926C123.516 33.7071 123.33 34.2363 123.33 35.0705C123.33 35.1286 123.307 35.1844 123.266 35.2255C123.225 35.2667 123.169 35.2898 123.111 35.2898C123.053 35.2898 122.997 35.2667 122.956 35.2255C122.915 35.1844 122.892 35.1286 122.892 35.0705C122.892 34.0551 123.144 33.4164 123.664 33.116C124.307 32.7442 125.313 32.9635 126.739 33.7834L129.98 35.5043C131.444 36.3337 133.827 38.1642 133.827 41.1388C133.825 41.1953 133.8 41.2487 133.76 41.2877C133.719 41.3268 133.664 41.3486 133.608 41.3486Z" fill="#C1E7EA"/>
<path d="M140.196 57.6086C139.582 57.5918 138.979 57.4387 138.432 57.1605C138.406 57.1479 138.383 57.1304 138.363 57.1089C138.344 57.0874 138.329 57.0623 138.32 57.0351C138.31 57.0079 138.306 56.9791 138.308 56.9503C138.31 56.9215 138.317 56.8933 138.329 56.8673C138.342 56.8413 138.359 56.8181 138.381 56.7988C138.402 56.7796 138.428 56.7649 138.455 56.7553C138.482 56.7458 138.511 56.7418 138.54 56.7434C138.568 56.745 138.597 56.7523 138.623 56.7648C139.633 57.2415 140.587 57.3035 141.23 56.8983C141.503 56.7032 141.721 56.441 141.863 56.1371C142.005 55.8331 142.066 55.4976 142.04 55.1631V52.2362C142.04 50.3294 140.424 47.9936 138.432 47.0355C138.379 47.0102 138.339 46.9651 138.32 46.9101C138.301 46.8551 138.304 46.7948 138.329 46.7423C138.355 46.6898 138.4 46.6496 138.455 46.6303C138.51 46.6111 138.57 46.6145 138.623 46.6398C140.749 47.6647 142.479 50.1769 142.479 52.2362V55.1631C142.514 55.4789 142.48 55.7984 142.379 56.0998C142.279 56.4012 142.115 56.6774 141.898 56.9095C141.681 57.1417 141.417 57.3244 141.123 57.445C140.829 57.5656 140.513 57.6214 140.196 57.6086Z" fill="#C1E7EA"/>
<path d="M139.504 37.84L133.079 33.5212L125.375 31.6239L117.934 36.6388L116.99 36.0906L125.189 30.5657L133.484 32.6059L140.053 37.0249L139.504 37.84Z" fill="#C1E7EA"/>
<path d="M142.527 37.759C142.083 37.5016 141.368 37.9163 140.93 38.679C140.491 39.4417 140.486 40.2712 140.93 40.5286L137.026 38.2786C136.587 38.0259 136.587 37.1965 137.026 36.4338C137.464 35.6711 138.184 35.2564 138.627 35.509L142.527 37.759Z" fill="#CFECEF"/>
<path d="M142.527 37.759C142.97 38.0116 142.97 38.8411 142.527 39.6038C142.083 40.3665 141.368 40.7812 140.93 40.5286C140.491 40.2759 140.486 39.4465 140.93 38.679C141.373 37.9115 142.083 37.5016 142.527 37.759Z" fill="#BCE2E5"/>
</svg>
