<svg width="14" height="16" viewBox="0 0 14 16" fill="none" xmlns="http://www.w3.org/2000/svg">
<path d="M12.6426 7.70163C12.6818 7.74081 12.7129 7.78734 12.7341 7.83855C12.7554 7.88977 12.7663 7.94467 12.7663 8.00011C12.7663 8.05555 12.7554 8.11044 12.7341 8.16166C12.7129 8.21287 12.6818 8.2594 12.6426 8.29858L6.87273 14.0642C6.16047 14.7762 5.19455 15.1761 4.18746 15.1759C3.18037 15.1757 2.2146 14.7754 1.50262 14.0632C0.790636 13.3509 0.390759 12.385 0.390957 11.3779C0.391155 10.3708 0.79141 9.40502 1.50367 8.69304L8.48359 1.61116C8.73161 1.36292 9.02609 1.16595 9.35022 1.03152C9.67435 0.897078 10.0218 0.8278 10.3727 0.827637C10.7236 0.827474 11.0711 0.896429 11.3954 1.03056C11.7196 1.1647 12.0143 1.36139 12.2625 1.6094C12.5108 1.85742 12.7077 2.1519 12.8422 2.47603C12.9766 2.80017 13.0459 3.1476 13.0461 3.49851C13.0462 3.84942 12.9773 4.19692 12.8431 4.52118C12.709 4.84544 12.5123 5.1401 12.2643 5.38835L5.28367 12.4674C4.99379 12.7579 4.6004 12.9212 4.19005 12.9216C3.77969 12.922 3.38599 12.7594 3.09555 12.4695C2.8051 12.1796 2.64171 11.7862 2.64132 11.3759C2.64092 10.9655 2.80355 10.5718 3.09344 10.2814L8.94906 4.32804C9.02757 4.24822 9.13457 4.20287 9.24652 4.20194C9.35847 4.20102 9.4662 4.24461 9.54602 4.32311C9.62583 4.40162 9.67119 4.50862 9.67211 4.62057C9.67303 4.73252 9.62945 4.84025 9.55094 4.92007L3.69531 10.8762C3.62985 10.9414 3.57785 11.0188 3.5423 11.104C3.50674 11.1893 3.48833 11.2807 3.4881 11.373C3.48787 11.4654 3.50584 11.5569 3.54097 11.6423C3.5761 11.7277 3.62771 11.8053 3.69285 11.8708C3.75799 11.9363 3.83539 11.9883 3.92063 12.0238C4.00587 12.0594 4.09727 12.0778 4.18963 12.078C4.28198 12.0783 4.37348 12.0603 4.45889 12.0252C4.5443 11.99 4.62196 11.9384 4.68742 11.8733L11.6652 4.79351C12.0084 4.45094 12.2013 3.9861 12.2017 3.50125C12.2021 3.01639 12.0099 2.55124 11.6673 2.20811C11.3248 1.86499 10.8599 1.672 10.3751 1.67161C9.89023 1.67121 9.42508 1.86344 9.08195 2.206L2.10133 9.28507C1.54711 9.83863 1.23549 10.5897 1.23503 11.373C1.23457 12.1563 1.5453 12.9078 2.09887 13.462C2.65243 14.0162 3.40349 14.3278 4.18681 14.3283C4.97014 14.3287 5.72156 14.018 6.27578 13.4644L12.0456 7.69882C12.085 7.65978 12.1317 7.62888 12.183 7.60789C12.2343 7.5869 12.2892 7.57623 12.3447 7.57649C12.4001 7.57675 12.455 7.58794 12.5061 7.60941C12.5572 7.63088 12.6036 7.66222 12.6426 7.70163Z" fill="#676767"/>
</svg>