<?xml version="1.0" encoding="UTF-8"?>
<!DOCTYPE svg PUBLIC "-//W3C//DTD SVG 1.1//EN" "http://www.w3.org/Graphics/SVG/1.1/DTD/svg11.dtd">
<!-- Creator: CorelDRAW -->
<svg xmlns="http://www.w3.org/2000/svg" xml:space="preserve" width="265px" height="47px" version="1.1" style="shape-rendering:geometricPrecision; text-rendering:geometricPrecision; image-rendering:optimizeQuality; fill-rule:evenodd; clip-rule:evenodd"
viewBox="0 0 56.67 10.08"
 xmlns:xlink="http://www.w3.org/1999/xlink"
 xmlns:xodm="http://www.corel.com/coreldraw/odm/2003">
 <defs>
  <style type="text/css">
   <![CDATA[
    .fil0 {fill:#00A4A7;fill-rule:nonzero}
   ]]>
  </style>
 </defs>
 <g id="Слой_x0020_1">
  <metadata id="CorelCorpID_0Corel-Layer"/>
  <g id="_2595983888736">
   <path class="fil0" d="M0.46 6.6l0.72 -1.69 0.63 -1.52c0.24,-0.59 0.47,-1.16 0.67,-1.71 0.2,-0.5 0.39,-1 0.56,-1.49 0.04,0 0.09,0 0.13,0 0.05,0.01 0.09,0.02 0.11,0.02 0.03,0.01 0.07,0.01 0.11,0.02 0.04,0 0.07,0 0.09,0 0.04,0 0.09,0 0.13,0 0.04,-0.01 0.08,-0.02 0.1,-0.02 0.08,-0.01 0.16,-0.02 0.22,-0.02 0.69,1.9 1.52,4.03 2.49,6.41l0.51 0 -0.07 0.56c0,0.17 0.03,0.36 0.07,0.56l-0.16 0c-0.13,-0.15 -0.34,-0.25 -0.66,-0.29 -0.31,-0.05 -0.66,-0.07 -1.06,-0.07l-3.1 0c-0.46,0 -0.84,0.02 -1.14,0.06 -0.3,0.04 -0.52,0.14 -0.65,0.3l-0.16 0c0.02,-0.07 0.03,-0.15 0.04,-0.25 0.01,-0.1 0.02,-0.2 0.02,-0.31 0,-0.06 -0.01,-0.14 -0.02,-0.24 -0.01,-0.1 -0.02,-0.21 -0.04,-0.32l0.46 0zm4.19 0c-0.2,-0.62 -0.43,-1.26 -0.68,-1.93l-0.93 -2.49c-0.78,1.92 -1.34,3.39 -1.69,4.42l0.71 0.02 0.87 0.02 0.94 -0.02 0.78 -0.02zm2.54 -1.62c0,-0.41 0.06,-0.78 0.18,-1.12 0.13,-0.34 0.3,-0.63 0.54,-0.87 0.24,-0.25 0.52,-0.43 0.84,-0.57 0.33,-0.13 0.69,-0.19 1.08,-0.19 0.53,0 0.99,0.1 1.4,0.3 0.41,0.2 0.72,0.49 0.95,0.87 0.22,0.39 0.34,0.83 0.34,1.35 0,0.53 -0.11,1.01 -0.34,1.43 -0.22,0.42 -0.53,0.75 -0.94,0.98 -0.4,0.24 -0.87,0.35 -1.41,0.35 -0.51,0 -0.97,-0.1 -1.37,-0.3 -0.4,-0.21 -0.71,-0.51 -0.94,-0.89 -0.22,-0.39 -0.33,-0.83 -0.33,-1.34zm1.55 -0.03c0,0.28 0.03,0.58 0.09,0.9 0.06,0.32 0.18,0.6 0.34,0.84 0.16,0.23 0.38,0.35 0.66,0.35 0.37,0 0.66,-0.25 0.85,-0.74 0.19,-0.5 0.28,-1.07 0.28,-1.73 0,-0.53 -0.09,-0.98 -0.27,-1.34 -0.19,-0.36 -0.45,-0.54 -0.79,-0.54 -0.4,0 -0.69,0.21 -0.88,0.62 -0.19,0.41 -0.28,0.96 -0.28,1.64zm4.61 -2.62c0.11,0.02 0.23,0.03 0.37,0.04 0.13,0.01 0.25,0.01 0.35,0.01 0.22,0 0.47,-0.01 0.73,-0.05l0 2.24 0.09 0.01c0.09,-0.09 0.19,-0.2 0.31,-0.33 0.08,-0.08 0.18,-0.19 0.31,-0.33l0.63 -0.72 0.76 -0.87 0.12 0.01 0.11 0.02 0.13 0.01 0.09 0 0.1 0 0.12 -0.01 0.11 -0.02 0.12 -0.01 0 0.06c-0.06,0.08 -0.12,0.15 -0.2,0.24 -0.05,0.05 -0.12,0.13 -0.21,0.23l-0.5 0.51 -0.47 0.46 -0.39 0.42 0.85 1.33c0.14,0.22 0.26,0.41 0.36,0.57 0.12,0.21 0.24,0.4 0.34,0.58 0.08,0.14 0.19,0.34 0.33,0.59l0 0.07 -0.4 -0.02 -0.4 -0.01c-0.11,0 -0.24,0 -0.4,0.02l-0.39 0.02c-0.47,-0.87 -0.88,-1.57 -1.23,-2.09 -0.09,-0.15 -0.19,-0.26 -0.29,-0.33l0 2.41 -0.38 -0.02 -0.35 -0.01c-0.05,0 -0.1,0 -0.15,0 -0.09,0.01 -0.16,0.01 -0.21,0.02l-0.36 0.02 0 -5.07zm7.6 0.61l0 4.45c-0.05,0 -0.1,0 -0.15,0 -0.08,-0.01 -0.15,-0.02 -0.21,-0.02l-0.36 -0.01 -0.36 0.01c-0.15,0.01 -0.27,0.02 -0.36,0.02l0 -4.45c-0.1,0 -0.21,0 -0.32,0 -0.11,0 -0.23,0 -0.36,0 -0.07,0 -0.14,0 -0.18,0.01 -0.05,0 -0.18,0.01 -0.38,0.04l-0.37 0.03 0.03 -0.17 0.02 -0.18c0,-0.05 -0.01,-0.11 -0.02,-0.17l-0.03 -0.17 2.33 0 2.34 0c0,0.04 -0.01,0.1 -0.03,0.17l-0.03 0.17 0.03 0.17c0,0.04 0.01,0.07 0.02,0.1 0,0.04 0.01,0.07 0.01,0.08l-0.37 -0.03 -0.57 -0.05 -0.68 0zm1.64 2.04c0,-0.41 0.06,-0.78 0.19,-1.12 0.12,-0.34 0.3,-0.63 0.53,-0.87 0.24,-0.25 0.52,-0.43 0.85,-0.57 0.32,-0.13 0.68,-0.19 1.08,-0.19 0.52,0 0.99,0.1 1.4,0.3 0.4,0.2 0.72,0.49 0.94,0.87 0.23,0.39 0.34,0.83 0.34,1.35 0,0.53 -0.11,1.01 -0.33,1.43 -0.22,0.42 -0.54,0.75 -0.94,0.98 -0.41,0.24 -0.88,0.35 -1.41,0.35 -0.52,0 -0.97,-0.1 -1.37,-0.3 -0.4,-0.21 -0.72,-0.51 -0.94,-0.89 -0.23,-0.39 -0.34,-0.83 -0.34,-1.34zm1.56 -0.03c0,0.28 0.03,0.58 0.09,0.9 0.06,0.32 0.17,0.6 0.33,0.84 0.17,0.23 0.39,0.35 0.67,0.35 0.37,0 0.65,-0.25 0.84,-0.74 0.19,-0.5 0.29,-1.07 0.29,-1.73 0,-0.53 -0.09,-0.98 -0.28,-1.34 -0.18,-0.36 -0.44,-0.54 -0.78,-0.54 -0.4,0 -0.69,0.21 -0.88,0.62 -0.19,0.41 -0.28,0.96 -0.28,1.64zm4.6 -2.62l0.19 0.01 0.18 0.02 0.19 0.01 0.15 0 0.14 0 0.19 -0.01 0.17 -0.02 0.19 -0.01 0 0.91c0.12,-0.31 0.3,-0.56 0.55,-0.74 0.25,-0.18 0.54,-0.27 0.88,-0.27 0.37,0 0.68,0.07 0.95,0.2 0.26,0.13 0.48,0.32 0.64,0.55 0.17,0.24 0.29,0.51 0.37,0.82 0.07,0.3 0.11,0.63 0.11,0.98 0,0.61 -0.09,1.11 -0.29,1.52 -0.19,0.41 -0.45,0.71 -0.77,0.91 -0.32,0.2 -0.66,0.3 -1.04,0.3 -0.58,0 -1.03,-0.25 -1.35,-0.75l0 3.31c-0.13,-0.01 -0.25,-0.03 -0.38,-0.03 -0.13,-0.01 -0.24,-0.02 -0.35,-0.02 -0.08,0 -0.19,0.01 -0.32,0.02 -0.13,0.01 -0.26,0.02 -0.4,0.04l0 -7.75zm3.35 2.57c0,-1.34 -0.31,-2 -0.91,-2 -0.4,0 -0.67,0.21 -0.81,0.64 -0.14,0.43 -0.21,0.9 -0.21,1.41 0,1.26 0.32,1.88 0.96,1.88 0.32,-0.04 0.57,-0.22 0.73,-0.57 0.16,-0.33 0.24,-0.79 0.24,-1.36z"/>
   <path class="fil0" d="M39.53 7.5c-0.78,0 -1.46,-0.15 -2.04,-0.44 -0.58,-0.29 -1.03,-0.72 -1.35,-1.28 -0.32,-0.56 -0.48,-1.23 -0.48,-2.02 0,-0.52 0.09,-1 0.27,-1.46 0.18,-0.45 0.45,-0.86 0.82,-1.21 0.36,-0.34 0.79,-0.61 1.3,-0.8 0.51,-0.19 1.08,-0.29 1.73,-0.29 0.7,0 1.31,0.11 1.82,0.34 0.5,0.23 0.91,0.52 1.2,0.88 0.29,0.36 0.51,0.76 0.64,1.19 0.14,0.44 0.2,0.87 0.2,1.31 0,0.51 -0.09,0.99 -0.28,1.45 -0.19,0.46 -0.47,0.86 -0.82,1.21 -0.36,0.35 -0.79,0.62 -1.31,0.82 -0.51,0.2 -1.08,0.3 -1.7,0.3zm-2.14 -3.43c0,0.48 0.08,0.93 0.23,1.35 0.15,0.43 0.39,0.78 0.72,1.05 0.33,0.27 0.74,0.4 1.24,0.4 0.5,0 0.93,-0.15 1.29,-0.46 0.35,-0.31 0.61,-0.72 0.78,-1.23 0.17,-0.51 0.26,-1.06 0.26,-1.66 0,-0.35 -0.04,-0.7 -0.13,-1.04 -0.08,-0.33 -0.21,-0.64 -0.39,-0.93 -0.18,-0.28 -0.41,-0.51 -0.7,-0.67 -0.28,-0.17 -0.61,-0.25 -0.99,-0.25 -0.48,0 -0.9,0.12 -1.25,0.38 -0.33,0.24 -0.59,0.62 -0.78,1.13 -0.19,0.52 -0.28,1.16 -0.28,1.93zm13.11 2.08l-0.23 0.9c-0.58,0.3 -1.27,0.45 -2.06,0.45 -0.56,0 -1.08,-0.09 -1.56,-0.25 -0.48,-0.17 -0.9,-0.41 -1.25,-0.72 -0.35,-0.31 -0.63,-0.68 -0.83,-1.12 -0.2,-0.44 -0.3,-0.92 -0.3,-1.44 0,-0.66 0.11,-1.24 0.32,-1.75 0.22,-0.5 0.51,-0.92 0.9,-1.25 0.38,-0.33 0.82,-0.57 1.32,-0.73 0.5,-0.16 1.04,-0.24 1.63,-0.24 0.36,0 0.73,0.04 1.11,0.13 0.39,0.09 0.73,0.22 1.02,0.39l-0.13 0.55c-0.04,0.18 -0.05,0.27 -0.06,0.29 -0.01,0.07 -0.03,0.14 -0.05,0.23l-0.15 0c-0.2,-0.3 -0.46,-0.53 -0.77,-0.7 -0.16,-0.09 -0.32,-0.15 -0.48,-0.2 -0.15,-0.04 -0.31,-0.06 -0.48,-0.06 -0.42,0 -0.78,0.09 -1.1,0.27 -0.31,0.18 -0.56,0.42 -0.76,0.73 -0.2,0.32 -0.35,0.66 -0.44,1.03 -0.05,0.2 -0.08,0.39 -0.11,0.58 -0.02,0.18 -0.03,0.38 -0.03,0.59 0,0.59 0.09,1.12 0.29,1.58 0.19,0.47 0.48,0.82 0.85,1.08 0.37,0.25 0.82,0.38 1.35,0.38 0.31,0 0.64,-0.07 0.99,-0.22 0.34,-0.14 0.63,-0.33 0.88,-0.56l0.13 0.06zm4.3 1.19l-0.39 -0.02 -0.39 -0.01 -0.39 0.02 -0.4 0.02 0 -6.42c-0.56,0 -1.2,0.05 -1.94,0.15 0.03,-0.24 0.05,-0.39 0.05,-0.45 0,-0.06 -0.02,-0.21 -0.05,-0.44l5.38 0 -0.03 0.17 -0.02 0.14 -0.01 0.13 0.01 0.13 0.02 0.15 0.03 0.17c-0.83,-0.1 -1.46,-0.15 -1.87,-0.15l0 6.41z"/>
  </g>
 </g>
</svg>
