<svg width="223" height="191" viewBox="0 0 223 191" fill="none" xmlns="http://www.w3.org/2000/svg">
<path d="M102.142 190.038C45.7305 190.038 0 163.614 0 131.019C0 98.4237 45.7305 72 102.142 72C158.554 72 204.284 98.4237 204.284 131.019C204.284 163.614 158.554 190.038 102.142 190.038Z" fill="white"/>
<path d="M52.6187 87.1459L5.24959 114.625C5.17669 114.651 5.11348 114.698 5.06876 114.762C5.02403 114.825 5 114.9 5 114.978C5 115.055 5.02403 115.131 5.06876 115.194C5.11348 115.257 5.17669 115.305 5.24959 115.33L18.8021 123.18C18.9909 123.275 19.1993 123.325 19.4107 123.325C19.6222 123.325 19.8306 123.275 20.0194 123.18L67.3885 95.7004C67.4614 95.6749 67.5246 95.6273 67.5693 95.5642C67.614 95.501 67.6381 95.4255 67.6381 95.348C67.6381 95.2705 67.614 95.195 67.5693 95.1318C67.5246 95.0687 67.4614 95.021 67.3885 94.9956L53.836 87.1459C53.6473 87.05 53.4388 87 53.2273 87C53.0158 87 52.8073 87.05 52.6187 87.1459Z" fill="#E0E0E0"/>
<path d="M199.042 57.5672L198.373 57.967L176.263 45.1592L176.933 44.7568L199.042 57.5672Z" fill="#FAFAFA"/>
<path d="M176.933 44.7568L198.373 57.1779V15.3945L176.933 2.9812V44.7568Z" fill="white"/>
<path d="M175 45.8906L199.639 60.1616V14.6628L175 0.391846V45.8906ZM176.261 2.58657L198.37 15.3891V57.9668L176.261 45.1643V2.58657Z" fill="#F5F5F5"/>
<path d="M176.263 45.1591L176.933 44.7568V2.9812L176.263 2.58667V45.1591Z" fill="#E0E0E0"/>
<path d="M198.373 42.5046V43.291L176.263 30.4832L176.933 30.0835L198.373 42.5046Z" fill="#FAFAFA"/>
<path d="M198.373 27.8208V28.6098L176.263 15.802L176.933 15.3997L198.373 27.8208Z" fill="#FAFAFA"/>
<path d="M175 0.391915L175.68 0L200.316 14.2736L199.636 14.6629L175 0.391915Z" fill="#FAFAFA"/>
<path d="M200.316 14.2734L199.636 14.6627V60.1615L200.316 59.7722V14.2734Z" fill="#E0E0E0"/>
<path d="M188.629 9.75342L187.95 9.35889V51.9313L188.629 51.542V9.75342Z" fill="#E0E0E0"/>
<path d="M186.686 8.62988L187.95 9.35885V51.9313L186.686 51.1971V8.62988Z" fill="#F5F5F5"/>
<path d="M175 15.0706V16.5311L199.636 30.8047V29.3415L175 15.0706Z" fill="#F5F5F5"/>
<path d="M175 29.749V31.2096L199.636 45.4831V44.02L175 29.749Z" fill="#F5F5F5"/>
<path d="M187.95 22.5742L188.629 22.1797L198.373 27.8207V28.6097L187.95 22.5742Z" fill="#FAFAFA"/>
<path d="M187.95 37.2476L188.629 36.853L198.373 42.4966V43.2831L187.95 37.2476Z" fill="#FAFAFA"/>
<path d="M221.694 36.1493L221.297 36.3787L211.397 30.6435L211.793 30.4141L221.694 36.1493Z" fill="#F0F0F0"/>
<path d="M211.793 30.414L221.297 35.9198V27.6528L211.793 22.147V30.414Z" fill="#FAFAFA"/>
<path d="M211 30.8728L221.691 37.0669V27.4234L211 21.2266V30.8728ZM211.397 21.9176L221.311 27.6528V36.3786L211.397 30.6434V21.9176Z" fill="#EBEBEB"/>
<path d="M211.397 30.6436L211.793 30.4142V22.1471L211.397 21.9177V30.6436Z" fill="#E0E0E0"/>
<path d="M211 21.2294L211.397 21L222.088 27.1941L221.694 27.4235L211 21.2294Z" fill="#F5F5F5"/>
<path d="M222.088 27.1941L221.694 27.4235V37.0698L222.088 36.8403V27.1941Z" fill="#E0E0E0"/>
<path d="M219.43 32.2327C219.625 32.3599 219.786 32.5313 219.903 32.7329C220.019 32.9346 220.086 33.1609 220.099 33.3936C220.099 33.822 219.799 33.9961 219.43 33.7833C219.236 33.6553 219.074 33.4833 218.959 33.2812C218.843 33.0791 218.776 32.8525 218.764 32.6196C218.764 32.1912 219.061 32.0199 219.43 32.2327Z" fill="#E0E0E0"/>
<path d="M214.029 24.2256L219.064 27.1416C219.138 27.1892 219.2 27.254 219.244 27.3304C219.288 27.4069 219.313 27.4929 219.317 27.5811C219.317 27.7442 219.201 27.8105 219.064 27.7276L214.029 24.831C213.955 24.7833 213.894 24.7186 213.849 24.6421C213.805 24.5657 213.78 24.4797 213.776 24.3915V24.3749C213.776 24.2118 213.889 24.1455 214.029 24.2256Z" fill="#E0E0E0"/>
<path d="M213.234 25.602L219.857 29.4467C219.925 29.4852 219.984 29.5393 220.028 29.6046C220.072 29.6698 220.1 29.7445 220.11 29.8226C220.11 29.9498 219.997 29.9857 219.857 29.9055L213.228 26.0636C213.159 26.0255 213.101 25.9715 213.057 25.9061C213.014 25.8407 212.986 25.7659 212.977 25.6877C212.977 25.5578 213.093 25.5219 213.234 25.602Z" fill="#F0F0F0"/>
<path d="M213.234 26.5197L219.857 30.3561C219.925 30.3951 219.983 30.4493 220.027 30.5145C220.071 30.5797 220.1 30.6541 220.11 30.732C220.11 30.8592 219.997 30.8979 219.857 30.8149L213.228 26.9758C213.16 26.9375 213.101 26.8834 213.058 26.8181C213.014 26.7527 212.987 26.678 212.977 26.5999C212.977 26.4727 213.093 26.4368 213.234 26.5197Z" fill="#F0F0F0"/>
<path d="M213.234 27.4344L219.857 31.2736C219.925 31.3121 219.984 31.3662 220.028 31.4314C220.072 31.4967 220.1 31.5714 220.11 31.6495C220.11 31.7766 219.997 31.8126 219.857 31.7324L213.228 27.8905C213.16 27.8526 213.102 27.799 213.058 27.7342C213.014 27.6693 212.987 27.595 212.977 27.5174C212.977 27.3902 213.093 27.3543 213.234 27.4344Z" fill="#F0F0F0"/>
<path d="M218.243 32.8187C218.181 32.777 218.126 32.7267 218.078 32.6694C218.029 32.6187 217.993 32.5574 217.971 32.4904C217.95 32.4233 217.944 32.3522 217.954 32.2824C217.954 32.2382 217.893 32.0973 217.86 32.1194C217.766 32.1642 217.67 32.203 217.571 32.2355C217.516 32.2631 217.409 32.3488 217.271 32.1608C217.222 32.0915 217.196 32.0083 217.197 31.9231C217.236 31.8834 217.265 31.8341 217.281 31.7799C217.296 31.7257 217.298 31.6684 217.285 31.6136C217.285 31.5638 217.208 31.4256 217.186 31.4588C217.132 31.5409 217.102 31.6368 217.1 31.7352C217.034 31.7738 216.961 31.7983 216.885 31.807C216.84 31.8205 216.794 31.8297 216.748 31.8347C216.739 31.8388 216.73 31.841 216.72 31.841C216.711 31.841 216.701 31.8388 216.693 31.8347C216.678 31.821 216.665 31.8044 216.657 31.7858C216.648 31.7673 216.644 31.7473 216.643 31.7269C216.641 31.6884 216.649 31.6501 216.668 31.6163C216.668 31.5693 216.61 31.4394 216.588 31.4671C216.548 31.5296 216.491 31.5802 216.425 31.6137C216.359 31.6472 216.285 31.6624 216.211 31.6578H216.186C216.186 31.6301 216.186 31.597 216.186 31.5666C216.18 31.494 216.169 31.4219 216.153 31.351C216.153 31.3095 216.092 31.2045 216.065 31.2128C215.924 31.2542 215.811 31.3648 215.624 31.3151C215.592 31.3019 215.561 31.2872 215.53 31.2708C215.503 31.2183 215.547 31.1105 215.555 31.0939C215.573 31.0464 215.594 31.0002 215.618 30.9557C215.646 30.9235 215.665 30.8844 215.674 30.8424C215.674 30.7982 215.588 30.6047 215.569 30.6572C215.552 30.7002 215.532 30.7417 215.508 30.7816C215.402 30.8771 215.275 30.9453 215.137 30.9806C215.049 31.0071 214.957 31.0119 214.867 30.9945C214.777 30.9772 214.693 30.9383 214.622 30.8811C214.524 30.8241 214.443 30.7421 214.387 30.6434C214.346 30.5631 214.326 30.4739 214.327 30.3836C214.321 30.2518 214.342 30.1202 214.387 29.9966C214.564 30.1126 214.759 30.1993 214.963 30.2537C215.1 30.3152 215.255 30.3231 215.398 30.2758C215.456 30.2371 215.492 30.1017 215.349 29.875C215.269 29.7585 215.162 29.6635 215.037 29.5986C214.942 29.5369 214.835 29.4955 214.723 29.477C214.636 29.4719 214.549 29.4963 214.478 29.5465C214.406 29.5966 214.353 29.6694 214.327 29.7534L214.283 29.8584C214.002 29.6598 213.755 29.4161 213.553 29.137C213.553 29.1205 213.534 29.137 213.553 29.1619C213.753 29.4483 213.993 29.7043 214.266 29.922C214.219 30.0736 214.209 30.2344 214.236 30.3908C214.264 30.5472 214.329 30.6945 214.426 30.8203C214.492 30.9484 214.594 31.0534 214.721 31.1216C214.847 31.1897 214.991 31.2176 215.134 31.2017C215.236 31.186 215.331 31.142 215.409 31.0746C215.409 31.0746 215.426 31.0746 215.434 31.0746C215.429 31.1447 215.44 31.2151 215.466 31.2802C215.492 31.3454 215.533 31.4037 215.585 31.4505C215.625 31.4926 215.676 31.5214 215.732 31.5328C215.789 31.5442 215.847 31.5376 215.899 31.5141C215.963 31.4956 216.026 31.4725 216.087 31.445C216.085 31.589 216.136 31.7286 216.23 31.8374C216.335 31.9397 216.431 31.8568 216.483 31.8374C216.529 31.823 216.571 31.8016 216.61 31.7739C216.616 31.7976 216.624 31.8207 216.635 31.843C216.726 32.0475 216.836 32.0669 216.894 32.0586C216.982 32.05 217.069 32.0315 217.152 32.0033C217.177 32.0921 217.214 32.1769 217.263 32.2548C217.403 32.487 217.538 32.5312 217.618 32.5119C217.719 32.4978 217.815 32.4556 217.893 32.3902C217.911 32.4781 217.944 32.5622 217.99 32.639C218.068 32.7869 218.183 32.9124 218.323 33.0038C218.331 32.9928 218.29 32.8491 218.243 32.8187ZM215.142 29.7783C215.208 29.8197 215.346 29.922 215.351 30.0547C215.351 30.1238 215.296 30.1348 215.263 30.1431C215.134 30.1654 215.001 30.154 214.878 30.11C214.71 30.0673 214.548 30.0032 214.396 29.9193C214.517 29.6373 214.748 29.524 215.142 29.7811V29.7783Z" fill="#E0E0E0"/>
<path d="M17.0803 117.335H19.4715L19.0829 119.671C19.0686 119.734 19.0407 119.792 19.0011 119.842C18.9616 119.892 18.9114 119.932 18.8542 119.96C18.6751 120.052 18.4769 120.099 18.2759 120.099C18.0748 120.099 17.8766 120.052 17.6975 119.96C17.6406 119.932 17.5905 119.891 17.551 119.841C17.5115 119.791 17.4835 119.733 17.4689 119.671L17.0803 117.335Z" fill="#E0E0E0"/>
<path opacity="0.1" d="M17.0803 117.335H19.4715L19.0829 119.671C19.0686 119.734 19.0407 119.792 19.0011 119.842C18.9616 119.892 18.9114 119.932 18.8542 119.96C18.6751 120.052 18.4769 120.099 18.2759 120.099C18.0748 120.099 17.8766 120.052 17.6975 119.96C17.6406 119.932 17.5905 119.891 17.551 119.841C17.5115 119.791 17.4835 119.733 17.4689 119.671L17.0803 117.335Z" fill="black"/>
<path d="M51.2066 97.6011H53.6024L53.2161 99.9469C53.2022 100.009 53.1745 100.068 53.1349 100.118C53.0953 100.168 53.0449 100.208 52.9874 100.236C52.808 100.326 52.6099 100.373 52.4091 100.373C52.2082 100.373 52.0101 100.326 51.8307 100.236C51.7736 100.208 51.7234 100.167 51.6838 100.117C51.6443 100.067 51.6164 100.009 51.6021 99.9469L51.2066 97.6011Z" fill="#E0E0E0"/>
<path opacity="0.1" d="M51.2066 97.6011H53.6024L53.2161 99.9469C53.2022 100.009 53.1745 100.068 53.1349 100.118C53.0953 100.168 53.0449 100.208 52.9874 100.236C52.808 100.326 52.6099 100.373 52.4091 100.373C52.2082 100.373 52.0101 100.326 51.8307 100.236C51.7736 100.208 51.7234 100.167 51.6838 100.117C51.6443 100.067 51.6164 100.009 51.6021 99.9469L51.2066 97.6011Z" fill="black"/>
<path d="M10.0917 113.287H12.483L12.1012 115.624C12.0869 115.686 12.059 115.744 12.0194 115.794C11.9799 115.844 11.9297 115.884 11.8726 115.912C11.6931 116.003 11.4951 116.05 11.2942 116.05C11.0933 116.05 10.8953 116.003 10.7158 115.912C10.6584 115.885 10.608 115.844 10.5684 115.794C10.5288 115.744 10.501 115.686 10.4872 115.624L10.0917 113.287Z" fill="#E0E0E0"/>
<path opacity="0.1" d="M10.0917 113.287H12.483L12.1012 115.624C12.0869 115.686 12.059 115.744 12.0194 115.794C11.9799 115.844 11.9297 115.884 11.8726 115.912C11.6931 116.003 11.4951 116.05 11.2942 116.05C11.0933 116.05 10.8953 116.003 10.7158 115.912C10.6584 115.885 10.608 115.844 10.5684 115.794C10.5288 115.744 10.501 115.686 10.4872 115.624L10.0917 113.287Z" fill="black"/>
<path d="M9.50195 87.9634V114.32L18.2896 119.41V93.0514L9.50195 87.9634Z" fill="#EBEBEB"/>
<path d="M18.2896 119.41L55.0403 98.16V71.801L18.2896 93.0513V119.41Z" fill="#FAFAFA"/>
<path d="M29.4959 112.927L29.9668 112.655V86.2957L29.4959 86.5683V112.927Z" fill="#E6E6E6"/>
<path d="M45.5258 103.651L45.9967 103.379V77.0198L45.5258 77.2924V103.651Z" fill="#E6E6E6"/>
<path d="M56.284 71.9592C56.2785 71.8962 56.2563 71.8358 56.2198 71.7843C56.1832 71.7327 56.1335 71.6919 56.076 71.666L46.5019 66.1221C46.3455 66.0418 46.1724 66 45.9967 66C45.821 66 45.6479 66.0418 45.4915 66.1221L8.21032 87.6701C8.15261 87.6955 8.1027 87.7358 8.06573 87.787C8.02876 87.8381 8.00607 87.8982 8 87.9611V88.6323C8.00568 88.6956 8.02819 88.7561 8.06518 88.8077C8.10218 88.8593 8.15229 88.9 8.21032 88.9255L17.7844 94.4718C17.9407 94.552 18.1139 94.5938 18.2896 94.5938C18.4653 94.5938 18.6384 94.552 18.7948 94.4718L56.076 72.9145C56.1334 72.889 56.1829 72.8486 56.2195 72.7975C56.2561 72.7463 56.2784 72.6863 56.284 72.6236V71.9592Z" fill="#EBEBEB"/>
<path d="M8 87.961V88.6322C8.00568 88.6955 8.02819 88.7561 8.06518 88.8076C8.10218 88.8592 8.15229 88.8999 8.21032 88.9255L17.7844 94.4717C17.9398 94.5544 18.1136 94.5962 18.2896 94.5931L26.5537 83.0974L19.6795 81.0356L8.21032 87.6792C8.15385 87.7038 8.10476 87.7427 8.06788 87.7922C8.031 87.8416 8.0076 87.8998 8 87.961Z" fill="#E0E0E0"/>
<path d="M45.4921 66.1221L8.21091 87.6701C8.15039 87.6912 8.09792 87.7307 8.0608 87.783C8.02367 87.8354 8.00372 87.898 8.00372 87.9622C8.00372 88.0264 8.02367 88.089 8.0608 88.1414C8.09792 88.1937 8.15039 88.2332 8.21091 88.2543L17.785 93.8005C17.9417 93.8797 18.1147 93.9209 18.2902 93.9209C18.4657 93.9209 18.6387 93.8797 18.7954 93.8005L56.0765 72.2502C56.1371 72.2291 56.1895 72.1896 56.2267 72.1373C56.2638 72.0849 56.2837 72.0223 56.2837 71.9581C56.2837 71.8939 56.2638 71.8312 56.2267 71.7789C56.1895 71.7266 56.1371 71.6871 56.0765 71.666L46.5025 66.1221C46.3461 66.0418 46.173 66 45.9973 66C45.8216 66 45.6484 66.0418 45.4921 66.1221Z" fill="#F5F5F5"/>
<path d="M21.8718 94.907C21.8718 95.0697 22.3565 94.9185 22.9554 94.5725L24.3842 93.7501C24.9832 93.4019 25.4701 92.9872 25.4701 92.8338V92.5405L21.8718 94.6115V94.907Z" fill="#E0E0E0"/>
<path d="M47.8301 79.897C47.8301 80.0597 48.317 79.9107 48.916 79.5648L50.3448 78.7401C50.9414 78.3942 51.4283 77.9795 51.4283 77.8238V77.5305L47.8301 79.6106V79.897Z" fill="#E0E0E0"/>
<path d="M35.7711 89.0287C35.7711 89.1913 36.2558 89.0424 36.8547 88.6965L38.2835 87.8718C38.8825 87.5259 39.3671 87.1112 39.3671 86.9554V86.6599L35.7711 88.7355V89.0287Z" fill="#E0E0E0"/>
<path d="M35.7711 95.2735C35.7711 95.4361 36.2558 95.2872 36.8547 94.939L38.2835 94.1166C38.8825 93.7684 39.3671 93.3537 39.3671 93.2002V92.907L35.7711 94.9779V95.2735Z" fill="#E0E0E0"/>
<path d="M35.7711 104.238C35.7711 104.4 36.2558 104.251 36.8547 103.905L38.2835 103.081C38.8825 102.735 39.3671 102.32 39.3671 102.164V101.869L35.7711 103.944V104.238Z" fill="#E0E0E0"/>
<path d="M45.7612 87.1204L29.6559 96.4374V96.9574L45.7612 87.6404V87.1204Z" fill="#E6E6E6"/>
<path d="M45.7612 96.0845L29.6559 105.404V105.924L45.7612 96.6068V96.0845Z" fill="#E6E6E6"/>
<path d="M16.7869 86.271C14.3335 83.7314 12.8801 77.3092 15.2841 75.2974H27.4654C29.8589 77.3118 28.4186 83.7288 25.9652 86.271L25.9001 86.3415L25.8141 86.4251C25.7464 86.4931 25.6709 86.561 25.5927 86.6263L25.5328 86.6734C25.4729 86.7204 25.4156 86.7674 25.3479 86.8144C25.2458 86.889 25.1397 86.9579 25.0302 87.0209C23.0117 88.2018 19.7378 88.2018 17.7193 87.0209C17.6125 86.9582 17.5057 86.8876 17.4016 86.8118C17.3391 86.77 17.2844 86.7256 17.2271 86.6812L17.1541 86.6237C17.0786 86.5584 17.0083 86.4957 16.9406 86.4304L16.8442 86.3337L16.7869 86.271Z" fill="#EBEBEB"/>
<path d="M26.408 74.4847C29.187 76.1125 29.187 78.7514 26.408 80.3791C23.6289 82.0069 19.1153 82.0069 16.3441 80.3791C13.573 78.7514 13.5651 76.1125 16.3441 74.4847C19.1231 72.857 23.6289 72.857 26.408 74.4847Z" fill="#FAFAFA"/>
<path d="M25.0666 75.2659C27.1059 76.4625 27.1059 78.4012 25.0666 79.5952C23.0273 80.7893 19.717 80.7919 17.675 79.5952C15.6331 78.3986 15.6331 76.4599 17.675 75.2659C19.717 74.0719 23.0299 74.0719 25.0666 75.2659Z" fill="#EBEBEB"/>
<path d="M17.6802 77.3223C19.7222 76.1256 23.0299 76.1256 25.0718 77.3223C25.5664 77.5941 25.986 77.9846 26.2933 78.4588C25.9839 78.9319 25.5624 79.3206 25.0666 79.5902C23.0247 80.7868 19.717 80.7868 17.675 79.5902C17.1867 79.3188 16.7733 78.9301 16.4717 78.4588C16.774 77.985 17.1894 77.5944 17.6802 77.3223Z" fill="white"/>
<path d="M19.7092 65.5752C18.8861 66.6203 16.4171 67.075 15.1851 64.5301C14.0313 62.1368 12.8098 59.8768 12.4426 58.9937C12.3911 58.8787 12.3632 58.7546 12.3607 58.6286C12.3583 58.5026 12.3812 58.3774 12.4281 58.2605C12.4751 58.1436 12.5451 58.0374 12.6339 57.9484C12.7228 57.8593 12.8287 57.7892 12.9453 57.7422C12.9453 57.7422 12.914 56.3809 15.2737 57.1255C17.6334 57.8702 19.3576 59.14 20.527 61.306C21.6964 63.472 21.2198 65.1546 19.7092 65.5752Z" fill="#F0F0F0"/>
<path d="M20.9645 68.9769C20.8888 68.5196 20.788 68.0669 20.6624 67.6208C20.4039 66.7359 20.0827 65.8706 19.7013 65.0316C18.9216 63.3264 17.9015 61.7425 16.6723 60.3286C15.9872 59.5202 15.2277 58.7784 14.4038 58.113C14.3803 58.0947 14.3647 58.1469 14.3829 58.1626C15.7728 59.4204 16.9878 60.8598 17.9954 62.4423C18.968 63.9994 19.7341 65.677 20.2743 67.4327C20.4254 67.9265 20.5712 68.4203 20.7015 68.9168C20.8317 69.4132 20.9255 69.9357 21.0505 70.4426C21.0505 70.4949 21.1442 70.5184 21.1442 70.4426C21.1211 69.9502 21.061 69.4602 20.9645 68.9769Z" fill="#E0E0E0"/>
<path opacity="0.1" d="M20.9645 68.9769C20.8888 68.5196 20.788 68.0669 20.6624 67.6208C20.4039 66.7359 20.0827 65.8706 19.7013 65.0316C18.9216 63.3264 17.9015 61.7425 16.6723 60.3286C15.9872 59.5202 15.2277 58.7784 14.4038 58.113C14.3803 58.0947 14.3647 58.1469 14.3829 58.1626C15.7728 59.4204 16.9878 60.8598 17.9954 62.4423C18.968 63.9994 19.7341 65.677 20.2743 67.4327C20.4254 67.9265 20.5712 68.4203 20.7015 68.9168C20.8317 69.4132 20.9255 69.9357 21.0505 70.4426C21.0505 70.4949 21.1442 70.5184 21.1442 70.4426C21.1211 69.9502 21.061 69.4602 20.9645 68.9769Z" fill="black"/>
<path d="M22.3866 63.7462C20.2431 64.4098 18.6517 62.7324 19.2013 60.0883C19.7508 57.4442 22.509 54.5362 23.5508 55.32C24.1993 54.6694 25.6344 54.902 26.3064 57.0392C26.9783 59.1765 26.3689 64.679 22.3866 63.7462Z" fill="#E0E0E0"/>
<path d="M23.6446 56.9322C23.0357 58.4648 22.5591 60.047 22.2199 61.6613C21.8541 63.2954 21.5776 64.9482 21.3917 66.6125C21.0062 69.8288 20.9411 69.6512 20.9619 72.8832C20.9619 73.7802 20.9741 74.6755 20.9984 75.5691C21.014 76.4914 20.9984 77.4242 21.0791 78.3412C21.1104 78.694 21.6 78.6025 21.6156 78.2759C21.6469 76.6638 21.5583 75.0465 21.5427 73.4345C21.5271 71.8224 21.5427 73.6748 21.5714 72.0811C21.627 68.834 21.9169 65.5953 22.4387 62.3903C22.5923 61.4993 22.7616 60.6084 22.9596 59.7253C23.1757 58.8003 23.444 57.8963 23.6862 56.9636C23.7071 56.9296 23.6654 56.8826 23.6446 56.9322Z" fill="#E0E0E0"/>
<path opacity="0.1" d="M23.6446 56.9322C23.0357 58.4648 22.5591 60.047 22.2199 61.6613C21.8541 63.2954 21.5776 64.9482 21.3917 66.6125C21.0062 69.8288 20.9411 69.6512 20.9619 72.8832C20.9619 73.7802 20.9741 74.6755 20.9984 75.5691C21.014 76.4914 20.9984 77.4242 21.0791 78.3412C21.1104 78.694 21.6 78.6025 21.6156 78.2759C21.6469 76.6638 21.5583 75.0465 21.5427 73.4345C21.5271 71.8224 21.5427 73.6748 21.5714 72.0811C21.627 68.834 21.9169 65.5953 22.4387 62.3903C22.5923 61.4993 22.7616 60.6084 22.9596 59.7253C23.1757 58.8003 23.444 57.8963 23.6862 56.9636C23.7071 56.9296 23.6654 56.8826 23.6446 56.9322Z" fill="black"/>
<path d="M17.425 70.8582C17.1646 72.2509 15.2503 73.2542 13.0547 72.3423C10.8591 71.4304 6.52516 65.7059 8.50458 65.0736C8.3978 64.0285 14.3803 63.1793 17.3391 66.8398C19.4904 69.4996 17.425 70.8582 17.425 70.8582Z" fill="#E0E0E0"/>
<path d="M20.566 72.9248C20.2897 72.5783 19.9913 72.2502 19.6727 71.9424C19.0319 71.3048 18.3591 70.7004 17.6568 70.1317C16.2178 68.9798 14.6652 67.9783 13.0234 67.1427C12.1175 66.6578 11.1814 66.2319 10.2209 65.8677C10.1949 65.8677 10.2053 65.9095 10.2209 65.9173C11.0205 66.2962 11.8227 66.6646 12.5936 67.0957C13.3646 67.5268 14.1563 68.0441 14.9195 68.5693C16.368 69.5804 17.736 70.7029 19.0111 71.9267C19.3706 72.2742 19.7144 72.6426 20.079 72.9849C20.4436 73.3271 20.8603 73.672 21.2276 74.0483C21.2823 74.1005 21.376 74.077 21.3187 73.9986C21.0661 73.6433 20.8343 73.2723 20.566 72.9248Z" fill="#E0E0E0"/>
<path opacity="0.1" d="M20.566 72.9248C20.2897 72.5783 19.9913 72.2502 19.6727 71.9424C19.0319 71.3048 18.3591 70.7004 17.6568 70.1317C16.2178 68.9798 14.6652 67.9783 13.0234 67.1427C12.1175 66.6578 11.1814 66.2319 10.2209 65.8677C10.1949 65.8677 10.2053 65.9095 10.2209 65.9173C11.0205 66.2962 11.8227 66.6646 12.5936 67.0957C13.3646 67.5268 14.1563 68.0441 14.9195 68.5693C16.368 69.5804 17.736 70.7029 19.0111 71.9267C19.3706 72.2742 19.7144 72.6426 20.079 72.9849C20.4436 73.3271 20.8603 73.672 21.2276 74.0483C21.2823 74.1005 21.376 74.077 21.3187 73.9986C21.0661 73.6433 20.8343 73.2723 20.566 72.9248Z" fill="black"/>
<path d="M22.8502 73.3822C21.699 72.8753 21.9178 71.4148 23.7644 69.9229C25.611 68.431 29.5464 68.3944 29.5828 69.1783C30.4241 69.3403 29.9162 71.987 27.5852 74.0563C25.2542 76.1256 22.6497 75.0387 22.8502 73.3822Z" fill="#E0E0E0"/>
<path d="M25.7047 71.2526C23.8987 72.056 22.381 73.3944 21.3552 75.0882C21.2953 75.1822 21.4437 75.3678 21.5089 75.2632C22.5393 73.5925 23.9853 72.2194 25.7047 71.2788C25.7047 71.2788 25.7203 71.2448 25.7047 71.2526Z" fill="#E0E0E0"/>
<path opacity="0.1" d="M25.7047 71.2526C23.8987 72.056 22.381 73.3944 21.3552 75.0882C21.2953 75.1822 21.4437 75.3678 21.5089 75.2632C22.5393 73.5925 23.9853 72.2194 25.7047 71.2788C25.7047 71.2788 25.7203 71.2448 25.7047 71.2526Z" fill="black"/>
<path d="M23.0846 75.9322C21.7511 77.2386 23.2253 78.8742 25.387 79.6789C27.5487 80.4837 29.9423 79.9402 30.9867 79.4177C32.0311 78.8951 32.2446 78.6338 32.2446 78.6338C32.2446 78.6338 31.7237 76.9094 31.1403 75.9793C30.5676 75.0794 29.7488 74.364 28.7817 73.9183C27.8146 73.4726 26.7402 73.3155 25.6865 73.4658C22.9179 73.8185 22.6913 74.9733 23.0846 75.9322Z" fill="#F0F0F0"/>
<path d="M28.6817 76.9145C27.6115 76.351 26.4736 75.9277 25.2958 75.6552C24.1368 75.4331 22.7096 75.4226 21.7693 76.2509C21.4047 76.5722 20.9229 77.2672 21.2172 77.761C21.2484 77.8107 21.3943 77.9021 21.4255 77.8029C21.495 77.4897 21.5953 77.1842 21.7251 76.891C21.8993 76.6006 22.1498 76.3638 22.4491 76.2064C23.2089 75.8276 24.0633 75.6822 24.9052 75.7884C26.2256 75.9164 27.468 76.4468 28.6817 76.9459C28.6921 76.9511 28.6921 76.9197 28.6817 76.9145Z" fill="#E0E0E0"/>
<path opacity="0.1" d="M28.6817 76.9145C27.6115 76.351 26.4736 75.9277 25.2958 75.6552C24.1368 75.4331 22.7096 75.4226 21.7693 76.2509C21.4047 76.5722 20.9229 77.2672 21.2172 77.761C21.2484 77.8107 21.3943 77.9021 21.4255 77.8029C21.495 77.4897 21.5953 77.1842 21.7251 76.891C21.8993 76.6006 22.1498 76.3638 22.4491 76.2064C23.2089 75.8276 24.0633 75.6822 24.9052 75.7884C26.2256 75.9164 27.468 76.4468 28.6817 76.9459C28.6921 76.9511 28.6921 76.9197 28.6817 76.9145Z" fill="black"/>
<path d="M23.4519 67.6497C23.1185 68.8254 24.6135 69.9228 26.4731 69.2931C28.3327 68.6634 30.2757 68.0939 31.8514 68.0625C33.4271 68.0311 34.4403 66.9965 34.1147 66.291C33.7891 65.5856 33.4037 63.9082 29.3641 63.417C25.3245 62.9258 23.5039 64.3811 22.6575 65.502C21.811 66.6229 22.7773 67.8456 23.4519 67.6497Z" fill="#F0F0F0"/>
<path d="M30.958 65.1806C30.5313 65.082 30.0933 65.0416 29.6558 65.0604C29.2344 65.0617 28.8139 65.0958 28.3978 65.1623C27.578 65.308 26.7798 65.5574 26.0225 65.9043C24.603 66.5366 23.194 67.3596 22.272 68.6425C21.7744 69.3285 21.3738 70.0802 21.0817 70.8764C21.0296 71.0279 21.3213 71.1142 21.3865 70.9783C21.6811 70.3091 22.0187 69.6598 22.397 69.0344C22.8078 68.4034 23.3325 67.8549 23.9441 67.4171C25.234 66.4914 26.6895 65.8235 28.2311 65.4497C28.6805 65.3448 29.1379 65.2775 29.5985 65.2485C30.0566 65.2398 30.5149 65.2572 30.971 65.3008C31.0283 65.3034 30.9997 65.191 30.958 65.1806Z" fill="#E0E0E0"/>
<path opacity="0.1" d="M30.958 65.1806C30.5313 65.082 30.0933 65.0416 29.6558 65.0604C29.2344 65.0617 28.8139 65.0958 28.3978 65.1623C27.578 65.308 26.7798 65.5574 26.0225 65.9043C24.603 66.5366 23.194 67.3596 22.272 68.6425C21.7744 69.3285 21.3738 70.0802 21.0817 70.8764C21.0296 71.0279 21.3213 71.1142 21.3865 70.9783C21.6811 70.3091 22.0187 69.6598 22.397 69.0344C22.8078 68.4034 23.3325 67.8549 23.9441 67.4171C25.234 66.4914 26.6895 65.8235 28.2311 65.4497C28.6805 65.3448 29.1379 65.2775 29.5985 65.2485C30.0566 65.2398 30.5149 65.2572 30.971 65.3008C31.0283 65.3034 30.9997 65.191 30.958 65.1806Z" fill="black"/>
<path d="M20.1389 74.2731C19.8238 73.066 18.2975 72.3867 16.2999 72.2378C15.3162 72.1492 14.3277 72.3423 13.4491 72.7946C12.5704 73.2469 11.8376 73.9398 11.3357 74.7931C10.2939 76.5854 9.85632 78.012 10.4918 78.2445C11.1273 78.4771 13.8074 78.8507 15.5394 79.0049C17.2713 79.159 19.4461 78.8481 20.8447 77.5286C22.2433 76.2092 21.7928 74.5527 20.1389 74.2731Z" fill="#E0E0E0"/>
<path d="M20.2144 74.1032C19.5103 73.9202 18.7758 73.8863 18.0579 74.0039C17.3646 74.0845 16.6823 74.2423 16.0238 74.4742C15.3272 74.7192 14.6528 75.0233 14.0079 75.3834C13.6693 75.5681 13.3377 75.7649 13.013 75.9739C12.7002 76.1577 12.4016 76.3647 12.1196 76.5932C12.1196 76.5932 12.1196 76.6428 12.1196 76.635C12.4478 76.486 12.7551 76.2796 13.0677 76.1124C13.3802 75.9452 13.7448 75.7362 14.0912 75.5611C14.7352 75.228 15.4029 74.9433 16.0889 74.7094C16.7754 74.4784 17.4857 74.3259 18.2064 74.2547C18.8795 74.2199 19.5544 74.2373 20.2248 74.307C20.3785 74.3174 20.2978 74.1424 20.2144 74.1032Z" fill="#E0E0E0"/>
<path opacity="0.1" d="M20.2144 74.1032C19.5103 73.9202 18.7758 73.8863 18.0579 74.0039C17.3646 74.0845 16.6823 74.2423 16.0238 74.4742C15.3272 74.7192 14.6528 75.0233 14.0079 75.3834C13.6693 75.5681 13.3377 75.7649 13.013 75.9739C12.7002 76.1577 12.4016 76.3647 12.1196 76.5932C12.1196 76.5932 12.1196 76.6428 12.1196 76.635C12.4478 76.486 12.7551 76.2796 13.0677 76.1124C13.3802 75.9452 13.7448 75.7362 14.0912 75.5611C14.7352 75.228 15.4029 74.9433 16.0889 74.7094C16.7754 74.4784 17.4857 74.3259 18.2064 74.2547C18.8795 74.2199 19.5544 74.2373 20.2248 74.307C20.3785 74.3174 20.2978 74.1424 20.2144 74.1032Z" fill="black"/>
<ellipse cx="70.5" cy="132.5" rx="27.5" ry="18.5" fill="#F7F7F7"/>
<ellipse cx="142" cy="132.5" rx="20" ry="13.5" fill="#F7F7F7"/>
<path d="M127.976 131.567C129.23 130.326 133.086 127.737 133.967 125.909C134.442 124.807 134.813 123.664 135.075 122.493C134.648 118.25 133.18 108.428 131.071 98.2866C130.071 93.1357 131.912 64.032 131.912 64.032L139.278 64.5658C140.612 69.9921 141.134 75.5864 140.826 81.166C140.359 90.8539 139.025 99.154 139.025 99.154C140.239 106.066 141.16 110.603 141.146 114.86C141.054 117.874 140.733 120.876 140.186 123.841C140.194 124.434 140.266 125.024 140.399 125.602C140.879 127.524 141.733 127.991 141.133 129.512C140.532 131.033 139.025 131.02 137.97 131.113C136.916 131.207 135.462 132.648 133.967 133.369C133.123 133.943 132.163 134.324 131.155 134.483C130.146 134.642 129.115 134.576 128.136 134.289C127.148 133.929 126.735 132.821 127.976 131.567Z" fill="#FFB9A4"/>
<path d="M140.399 125.562C139.824 126.534 139.062 127.382 138.157 128.058C136.823 129.152 133.607 131.314 131.752 131.46C131.297 131.554 130.823 131.485 130.414 131.265C130.004 131.046 129.685 130.69 129.51 130.259C128.625 130.907 127.787 131.616 127.001 132.381C126.281 133.182 126.161 134.249 128.576 134.743C130.781 135.033 133.016 134.496 134.848 133.235C135.822 132.448 137.703 131.127 137.703 131.127V131.674C138.428 131.763 139.162 131.685 139.852 131.447C140.309 131.276 140.703 130.97 140.982 130.57C141.261 130.169 141.412 129.693 141.413 129.205C141.376 127.927 141.028 126.676 140.399 125.562Z" fill="#2A2A2A"/>
<path d="M132.446 62.2573C130.463 72.5317 129.92 83.0319 130.831 93.4561C130.831 93.4561 131.899 95.5644 135.435 95.5644C137.026 95.5885 138.572 95.0337 139.785 94.0032L144.042 76.0819L144.816 62.7377C144.816 62.7377 133.033 59.6151 132.446 62.2573Z" fill="#5B5B5B"/>
<path d="M140.079 138.72C141.333 137.465 145.19 134.876 146.07 133.048C146.549 131.948 146.92 130.804 147.178 129.632C146.751 125.389 145.283 115.567 143.175 105.426C142.174 100.275 141.84 71.4915 141.84 71.4915L151.395 71.705C152.705 77.1258 153.205 82.7111 152.876 88.2785C152.409 97.953 151.074 106.253 151.074 106.253C152.289 113.165 153.21 117.702 153.196 121.959C153.104 124.973 152.783 127.975 152.235 130.94C152.251 131.533 152.322 132.122 152.449 132.701C152.929 134.623 153.783 135.103 153.183 136.611C152.582 138.119 151.088 138.119 150.02 138.226C148.953 138.333 147.512 139.747 146.017 140.468C145.173 141.041 144.213 141.422 143.205 141.583C142.197 141.745 141.167 141.683 140.186 141.402C139.251 141.068 138.838 139.974 140.079 138.72Z" fill="#FFB9A4"/>
<path d="M152.502 132.702C151.933 133.678 151.17 134.527 150.261 135.197C148.926 136.291 145.71 138.466 143.869 138.6C143.413 138.699 142.937 138.632 142.527 138.412C142.116 138.192 141.797 137.833 141.627 137.399C140.736 138.045 139.893 138.754 139.105 139.521C138.384 140.335 138.264 141.389 140.679 141.882C142.884 142.173 145.119 141.635 146.951 140.375C147.925 139.601 149.807 138.28 149.807 138.28V138.827C150.532 138.909 151.266 138.826 151.955 138.586C152.415 138.422 152.813 138.12 153.094 137.721C153.376 137.322 153.528 136.846 153.53 136.358C153.486 135.074 153.133 133.82 152.502 132.702Z" fill="#2A2A2A"/>
<path d="M150.994 61.1497C152.886 66.0761 154.09 71.2401 154.571 76.4955C154.651 78.0034 154.571 80.6322 154.344 83.648C153.85 91.2942 152.075 101.556 152.075 101.556C150.608 102.565 148.865 103.096 147.085 103.077C146.203 103.15 145.316 103.032 144.485 102.73C143.653 102.428 142.897 101.95 142.267 101.329L140.025 78.4971C138.222 76.6135 137.226 74.0994 137.25 71.4914C137.156 66.8743 137.25 63.3248 137.25 63.3248L150.994 61.1497Z" fill="#626262"/>
<path d="M133.26 46.5644C133.26 46.5644 131.699 50.2608 130.898 51.6619C129.764 53.2831 128.35 54.6886 126.721 55.812C125.574 56.5593 125.027 55.812 124.88 54.5843C125.161 50.9261 126.168 47.3605 127.842 44.0958C129.524 41.4936 133.26 46.5644 133.26 46.5644Z" fill="#FFC6B3"/>
<path d="M154.09 31.6725C152.916 25.3474 153.196 22.2382 151.501 18.395C151.171 17.5418 150.631 16.7854 149.931 16.1955C149.232 15.6055 148.395 15.201 147.498 15.0189C145.27 11.8297 142.401 11.6162 138.691 12.3501C136.51 12.7631 134.454 13.6767 132.686 15.0189C129.897 16.767 130.137 21.1173 132.953 21.1039C132.786 26.5373 132.977 31.9757 133.527 37.3838C134.154 42.6148 142.281 41.0535 147.391 42.1744C150.794 42.9217 152.836 46.7248 153.903 42.7749C154.667 39.1192 154.73 35.3519 154.09 31.6725Z" fill="#2A2A2A"/>
<path d="M134.167 49.14C133.215 48.6441 132.289 48.1007 131.392 47.512C129.974 46.5853 128.761 45.3771 127.829 43.9625C129.39 40.4129 132.139 34.3146 133.447 32.1395C135.342 28.9769 136.823 30.0178 136.823 30.0178L136.289 45.8974L134.167 49.14Z" fill="#0AA2A0"/>
<path d="M146.991 33.1269L153.383 37.4237C153.477 41.6096 152.742 45.7728 151.221 49.6737C149.126 55.4251 152.649 66.2339 152.649 66.2339C152.649 66.2339 150.554 68.6759 142.894 69.2897C135.235 69.9035 131.885 65.153 131.885 65.153C132.949 60.045 133.152 54.7952 132.486 49.6203C131.58 48.7557 130.933 47.6568 130.614 46.4458C130.296 45.2349 130.321 43.9594 130.684 42.7614C132.172 38.2851 134.025 33.9381 136.222 29.7642L141.827 32.433L146.991 33.1269Z" fill="#0BBBB9"/>
<path d="M144.856 28.0562C142.42 28.7537 139.903 29.1261 137.37 29.1637C137.77 30.086 137.977 31.0807 137.977 32.0861C137.977 33.0915 137.77 34.0862 137.37 35.0085C136.609 37.3838 140.666 39.7724 143.308 37.8108C144.781 36.688 146.065 35.3364 147.111 33.8075C146.064 32.0197 145.303 30.0791 144.856 28.0562Z" fill="#FFB6A1"/>
<path d="M136.356 19.3957C139.505 18.6884 141.146 18.555 143.949 19.6892C145.534 20.1329 147.039 20.8266 148.406 21.7443C148.465 21.7828 148.512 21.8368 148.542 21.9003C148.573 21.9638 148.586 22.0344 148.579 22.1046C147.872 26.2546 146.471 30.6448 141.827 32.4863C137.997 33.9942 135.849 29.8175 135.155 26.9885C134.367 23.7059 134.167 19.8894 136.356 19.3957Z" fill="#FFC6B3"/>
<path d="M149.713 20.3298C149.446 17.394 147.578 16.8469 145.47 15.3257C143.615 13.9913 142.427 12.4567 139.919 13.2306C138.268 13.8418 136.862 14.9758 135.915 16.4599C135.915 16.4599 135.915 16.4599 135.915 16.5267C135.128 17.5808 134.421 18.7151 133.634 19.6492C133.207 20.1429 133.927 20.8635 134.341 20.3564C134.403 20.2886 134.46 20.2173 134.514 20.1429C134.981 21.2639 136.85 21.5574 137.93 21.6909C139.827 22.0052 141.774 21.6262 143.415 20.6233C143.817 23.0265 145.09 25.1974 146.991 26.7216C147.068 26.7675 147.155 26.7917 147.245 26.7917C147.334 26.7917 147.422 26.7675 147.498 26.7216C149.326 25.7475 149.887 22.1846 149.713 20.3298Z" fill="#2A2A2A"/>
<path d="M147.498 48.4995C146.004 49.9407 144.442 51.5153 143.135 51.7288C140.992 52.1369 138.775 51.8323 136.823 50.8614C137.522 51.8406 138.491 52.5953 139.612 53.0336C140.733 53.4719 141.956 53.575 143.135 53.3301C144.265 53.06 145.287 52.4539 146.066 51.5916C146.844 50.7293 147.344 49.6513 147.498 48.4995Z" fill="#0AA2A0"/>
<path d="M129.524 39.1318C129.395 39.1966 129.283 39.2907 129.197 39.4066C129.112 39.5225 129.054 39.6569 129.03 39.799C128.57 42.6972 128.4 45.6342 128.523 48.5661C128.683 53.1832 128.162 54.104 127.188 55.4251C125.627 57.5868 124.066 55.8654 122.918 52.1424C121.771 48.4193 125.587 38.4379 125.587 38.4379C126.225 36.3447 127.481 34.4933 129.19 33.1269C131.859 31.0585 134.114 29.8442 135.141 30.0043C136.85 30.2579 135.061 31.9126 135.061 31.9126C135.061 31.9126 136.169 31.7791 135.555 32.8333C134.836 34.2477 133.863 35.5186 132.686 36.583C131.729 37.5465 130.668 38.4012 129.524 39.1318Z" fill="#FFC6B3"/>
<path d="M157.133 51.8088C157.133 51.8088 157.68 56.4793 157.96 58.3608C158.007 59.2253 157.823 60.0866 157.426 60.8562C156.893 61.9985 156.24 63.0809 155.478 64.0855C153.943 66.2072 149.833 70.5841 148.873 71.9986C149.167 73.8522 148.979 75.7503 148.326 77.5098C147.805 79.4981 147.885 81.5131 147.378 81.9267C146.871 82.3404 146.551 79.805 146.551 79.805C146.551 79.805 146.471 81.9801 145.376 82.7808C144.282 83.5814 144.282 81.9267 144.282 81.9267C144.282 81.9267 143.335 83.2611 142.854 82.7808C142.374 82.3004 142.854 78.6574 142.854 78.6574C142.854 78.6574 142.147 81.0994 141.106 81.3262C140.065 81.5531 142.441 76.162 143.522 73.4398C144.99 69.8425 146.698 66.3474 148.632 62.9779C149.833 61.1765 151.742 58.6277 151.742 58.6277L150.594 53.0365L157.133 51.8088Z" fill="#FFC6B3"/>
<path d="M150.607 55.7321C150.167 53.557 149.273 51.0349 149.019 49.2334C147.912 40.7198 152.476 36.7566 152.476 36.7566C152.729 36.9301 155.718 37.9709 156.372 40.573C156.772 42.1743 157.787 52.5828 158 54.491C156.332 55.0382 153.129 56.1057 150.607 55.7321Z" fill="#0AA2A0"/>
<path d="M138.392 22.8885L136.616 22.7767C136.616 22.7767 135.625 22.7026 135.71 22.6485C135.796 22.5944 136.033 22.566 136.37 22.5694C136.533 22.5711 136.717 22.5809 136.91 22.5981C137.103 22.6154 137.3 22.6398 137.49 22.6698C137.68 22.6998 137.859 22.7347 138.014 22.7723C138.169 22.81 138.298 22.8495 138.392 22.8885Z" fill="#263238"/>
<path d="M141.053 22.8969L142.876 22.7795C142.876 22.7795 143.893 22.7024 143.805 22.6485C143.717 22.5947 143.474 22.567 143.129 22.5715C142.961 22.5736 142.773 22.584 142.575 22.6019C142.377 22.6197 142.174 22.6448 141.979 22.6753C141.784 22.7059 141.601 22.7414 141.442 22.7795C141.282 22.8177 141.15 22.8576 141.053 22.8969Z" fill="#263238"/>
<path d="M136.369 25.1251C136.738 25.1251 137.036 24.8253 137.036 24.4555C137.036 24.0857 136.738 23.7859 136.369 23.7859C136.001 23.7859 135.702 24.0857 135.702 24.4555C135.702 24.8253 136.001 25.1251 136.369 25.1251Z" fill="#263238"/>
<path d="M142.374 24.4553C142.374 24.5877 142.335 24.7172 142.262 24.8273C142.188 24.9374 142.084 25.0232 141.962 25.0739C141.84 25.1246 141.706 25.1379 141.577 25.112C141.447 25.0862 141.328 25.0224 141.235 24.9288C141.142 24.8351 141.078 24.7158 141.052 24.5859C141.027 24.456 141.04 24.3214 141.09 24.199C141.141 24.0767 141.226 23.9721 141.336 23.8985C141.446 23.8249 141.575 23.7856 141.707 23.7856C141.883 23.7868 142.052 23.8577 142.177 23.983C142.302 24.1083 142.373 24.278 142.374 24.4553Z" fill="#263238"/>
<path d="M139.918 23.7859L139.462 28.3188L137.036 27.5848L139.918 23.7859Z" fill="#FFB69E"/>
<path d="M137.287 29.4384L138.538 29.5658L140.728 30.1603C140.7 30.1093 140.625 30.0487 140.509 29.9821C140.393 29.9155 140.238 29.8443 140.053 29.7728C139.868 29.7013 139.657 29.6309 139.433 29.5658C139.209 29.5007 138.976 29.4423 138.748 29.3941C138.283 29.2982 137.871 29.2492 137.598 29.2574C137.325 29.2657 137.214 29.3306 137.287 29.4384Z" fill="#B16668"/>
<path d="M74.2734 26.4548L73.4209 30.9301C73.4209 30.9301 75.6529 30.2496 75.6529 29.7909C75.6529 29.3322 74.2734 26.4548 74.2734 26.4548Z" fill="#F9B194"/>
<rect x="108.552" y="34.5505" width="1.33442" height="28.0228" transform="rotate(8.57914 108.552 34.5505)" fill="#B8B8B8"/>
<path d="M49.5917 41.6487L48.2572 51.4434C47.9559 52.7008 47.9189 54.0072 48.1486 55.2797C48.3783 56.5523 48.8697 57.7633 49.5917 58.836C50.4057 60.0503 51.4065 61.5049 52.474 62.8393C53.6973 64.491 55.0588 66.0356 56.544 67.4564C56.544 67.4564 60.6674 67.4564 61.1077 64.5874L54.7425 53.2582C54.7425 53.2582 59.5198 48.0272 57.5982 44.5577C56.157 41.9156 52.434 41.3284 49.5917 41.6487Z" fill="#0AA2A0"/>
<path d="M50.7259 121.274L50.0854 126.265C50.0854 126.265 48.2038 129.307 49.2847 130.268C49.6501 130.533 50.0647 130.722 50.5043 130.825C50.9439 130.928 51.3996 130.942 51.8446 130.866C52.2896 130.79 52.7149 130.626 53.0957 130.383C53.4765 130.141 53.805 129.825 54.0619 129.454C55.6028 127.792 57.5269 126.532 59.6665 125.784C61.548 124.957 62.8291 123.476 62.6689 121.861C62.5088 120.246 57.3313 120.727 55.6499 121.3L55.2496 119.966L50.7259 121.274Z" fill="#8A5646"/>
<path d="M62.669 122.101C62.552 122.919 62.209 123.689 61.6786 124.323C61.1482 124.957 60.4514 125.431 59.6666 125.691C57.527 126.438 55.6029 127.698 54.062 129.36C53.805 129.731 53.4765 130.048 53.0958 130.29C52.715 130.532 52.2896 130.696 51.8446 130.772C51.3996 130.848 50.944 130.834 50.5044 130.732C50.0648 130.629 49.6501 130.439 49.2848 130.174L49.2047 130.081C49.1891 130.247 49.2109 130.415 49.2686 130.572C49.3264 130.729 49.4185 130.872 49.5383 130.988C49.9029 131.254 50.3168 131.444 50.7559 131.548C51.195 131.652 51.6503 131.667 52.0952 131.592C52.5402 131.518 52.9658 131.355 53.347 131.114C53.7283 130.873 54.0576 130.558 54.3155 130.188C55.857 128.523 57.7806 127.259 59.9201 126.505C61.8016 125.677 63.0827 124.209 62.9225 122.595C62.9045 122.404 62.8138 122.227 62.669 122.101Z" fill="#7A7A7A"/>
<path d="M55.6367 69.2314L52.741 98.6554C52.741 98.6554 48.8579 105.141 48.8846 108.81C48.9113 112.48 49.8053 123.315 49.8053 123.315C49.8053 123.315 53.475 125.597 56.1305 122.582L60.2138 104.34L68.5006 83.4697C68.8855 79.7993 68.9524 76.1026 68.7007 72.4207C68.1136 68.8311 57.1179 64.3341 55.6367 69.2314Z" fill="#70506E"/>
<path d="M55.6367 69.2314L52.741 98.6554C52.741 98.6554 48.8579 105.141 48.8846 108.81C48.9113 112.48 49.8053 123.315 49.8053 123.315C49.8053 123.315 53.475 125.597 56.1305 122.582L60.2138 104.34L68.5006 83.4697C68.8855 79.7993 68.9524 76.1026 68.7007 72.4207C68.1136 68.8311 57.1179 64.3341 55.6367 69.2314Z" fill="#5B5B5B"/>
<path d="M62.629 76.6106C62.629 76.6106 61.1745 87.8064 64.3638 93.7846L68.3671 84.2301L62.629 76.6106Z" fill="#331F3A"/>
<path d="M75.8398 133.417L75.653 136.9C75.653 136.9 73.5045 141.61 76.5604 141.931C78.5887 142.144 88.0364 139.849 89.9046 138.554C91.7728 137.26 91.1323 134.017 88.9571 134.071C86.782 134.124 82.8855 134.818 80.9506 133.71L80.3101 131.682C80.3101 131.682 76.2935 131.949 75.8398 133.417Z" fill="#8A5646"/>
<path d="M90.9454 135.952C91.0421 136.451 90.9943 136.968 90.8075 137.441C90.6208 137.913 90.3029 138.323 89.8913 138.621C88.0364 139.956 78.5887 142.211 76.5471 141.997C76.2741 141.978 76.0099 141.893 75.7773 141.749C75.5448 141.605 75.351 141.406 75.2126 141.17C75.2262 141.589 75.3996 141.987 75.6974 142.283C75.9951 142.578 76.3947 142.748 76.8139 142.758C78.8422 142.971 88.2899 140.69 90.1581 139.382C90.6829 139.003 91.0521 138.446 91.197 137.815C91.3418 137.184 91.2524 136.522 90.9454 135.952Z" fill="#575757"/>
<path d="M80.8171 75.6498C80.8171 75.6498 81.0306 83.2159 81.0306 87.5394C81.0306 91.863 81.0306 110.451 81.0306 110.451C81.0306 110.451 81.1241 120.713 81.0306 123.902C80.9372 127.092 81.2975 134.017 81.2975 134.017C81.2975 134.017 80.0299 136.246 75.1726 134.898C75.1726 134.898 71.7164 123.382 71.7964 119.939C71.8765 116.496 72.2502 112.293 72.2502 112.293L67.3795 91.1424C67.3795 91.1424 61.7349 86.5119 61.7349 74.6089C61.7681 73.1432 61.9288 71.6832 62.2153 70.2454C62.9092 66.3755 70.462 71.2462 74.3719 71.6598C77.321 71.9 80.1766 72.9542 80.8171 75.6498Z" fill="#5B5B5B"/>
<path d="M79.9097 75.9034C77.3691 78.0318 74.2483 79.3489 70.9511 79.6843C67.6538 80.0197 64.3317 79.3581 61.4146 77.7849C61.0261 77.2027 60.7878 76.5334 60.7207 75.8367L79.9097 75.9034Z" fill="#331F3A"/>
<path d="M51.2998 93.2509C51.1177 93.8986 51.0949 94.5807 51.2331 95.2392C51.6201 96.9339 55.5166 100.577 59.8801 101.818C79.8964 107.796 83.2058 97.4143 83.2058 97.4143L79.8297 58.4625C79.8297 58.4625 81.9781 50.2425 76.4403 45.4787C75.4128 44.5846 74.2785 43.7172 73.1176 42.8899C72.5571 42.4762 71.9967 42.0758 71.4095 41.6889C66.7391 38.5663 61.7883 36.2044 59.7467 36.2578C59.3586 35.9704 58.9531 35.7075 58.5324 35.4705C58.1988 35.2837 57.8251 35.0835 57.3981 34.8833C56.6333 34.5189 55.8198 34.2672 54.9828 34.1361C52.6209 33.8292 49.3248 38.4462 49.5383 43.3436C49.7519 48.2409 54.4223 62.1722 54.5424 64.0404C54.6625 65.6417 51.8869 91.1292 51.2998 93.2509Z" fill="#0BBBB9"/>
<path d="M80.3235 100.991C80.3235 100.991 67.9934 62.0788 70.3153 50.9765C70.9692 47.8005 77.2676 48.6279 78.7755 48.3076C80.2465 51.453 80.6132 55.0028 79.8164 58.3825L83.2058 97.3342C82.5815 98.7842 81.5876 100.045 80.3235 100.991Z" fill="#0AA2A0"/>
<path d="M71.5562 33.202C70.8572 35.8268 70.3752 38.5047 70.115 41.2085C69.21 41.8039 68.1892 42.2009 67.1197 42.3734C66.0502 42.5459 64.9563 42.49 63.91 42.2093C60.5205 41.2485 60.5205 39.5405 60.4271 38.0726L60.7607 30.5598C60.7607 30.5598 70.6221 31.574 71.5562 33.202Z" fill="#F9B194"/>
<path d="M74.2519 19.751C74.2519 19.751 76.4403 22.5132 75.1325 27.7575C74.4119 30.6398 74.065 33.0151 73.251 33.5088C71.8744 34.0227 70.4406 34.3677 68.9809 34.5363C67.4392 34.87 65.8281 34.5823 64.4972 33.7357C62.0819 32.3212 60.3472 30.6265 59.9735 29.1052C59.5999 27.584 58.7058 21.2989 61.5348 19.2038C64.3638 17.1088 69.9684 17.6826 71.583 18.2697C72.5554 18.5968 73.4599 19.0988 74.2519 19.751Z" fill="#F9B194"/>
<path d="M72.6105 31.0267C72.6105 31.0267 73.0108 30.8132 73.1976 29.6923C73.3844 28.5714 72.4503 26.0893 73.5179 24.6348C74.0645 23.9227 74.5681 23.1786 75.0258 22.4063C75.0258 22.4063 76.2268 20.8718 74.5454 18.4031C73.7314 17.2421 72.2769 15.841 67.5664 16.0011C62.8559 16.1612 63.0827 16.5215 60.3338 19.524C59.4936 20.4873 58.8562 21.6101 58.4596 22.8252C58.063 24.0404 57.9152 25.3229 58.0253 26.5964C58.1854 28.8649 59.3597 29.5055 59.9068 31.2002C60.4539 32.8949 60.0536 33.6689 61.6549 34.5096C63.1392 35.4317 64.7608 36.1118 66.4588 36.5245C67.2301 36.5873 67.9948 36.3416 68.5852 35.8412C69.1756 35.3409 69.5434 34.6268 69.608 33.8557C69.9683 31.9875 69.608 30.7865 70.382 30.2661C71.1559 29.7456 72.6105 31.0267 72.6105 31.0267Z" fill="#391215"/>
<path d="M105.01 59.3355L102.475 60.7366L99.6726 56.5866L101.888 55.2522C101.888 55.0253 102.021 54.7184 102.115 54.3048C102.592 52.9512 103.915 52.0961 105.01 51.1689C105.651 50.7552 106.518 51.2623 105.718 52.7835C105.718 52.7835 106.972 53.1305 107.679 51.1689C107.679 51.1689 110.081 51.8761 109.574 52.8903C109.574 52.8903 109.934 53.3039 109.401 54.1446C109.518 54.3804 109.562 54.6456 109.529 54.9068C109.496 55.168 109.386 55.4135 109.214 55.6125C109.214 55.6125 109.401 56.0262 108.933 56.8802C108.466 57.7342 105.424 59.5357 105.01 59.3355Z" fill="#F9B194"/>
<path d="M100.54 55.7142L84.527 65.0552L78.989 48.6818C78.989 48.6818 78.3218 48.0146 76.7339 47.2931C76.7339 47.2931 70.4355 45.9587 70.3554 51.4031C70.2753 58.4088 81.6179 74.5829 85.2742 73.2619C88.9305 71.9408 103.009 60.6916 103.009 60.6916C103.009 60.6916 103.596 56.8618 100.54 55.7142Z" fill="#0AA2A0"/>
<path d="M112.531 21.9765C112.118 21.8881 111.704 21.8085 111.296 21.737C108.256 21.2046 105.517 21.1176 105.517 21.1176L104.687 24.9855C103.399 30.9882 106.188 36.8221 108.609 37.2406L109.227 37.373C109.435 37.4151 109.647 37.4298 109.859 37.4169C112.539 37.2769 117.264 33.4678 118.452 27.932L119.281 24.064C119.281 24.064 116.586 22.8445 112.531 21.9765ZM105.892 26.3686C105.876 26.3065 105.887 26.2409 105.92 26.1863C105.953 26.1316 106.007 26.0924 106.069 26.0771C107.032 25.8365 108.047 25.9096 108.966 26.2859C109.133 26.3546 109.296 26.4327 109.454 26.5199C109.847 26.7369 110.069 26.9339 110.081 26.945C110.127 26.9881 110.155 27.0475 110.157 27.1104C110.16 27.1734 110.138 27.2349 110.096 27.2818C110.054 27.3287 109.995 27.3572 109.932 27.3614C109.869 27.3655 109.807 27.3449 109.759 27.3039C109.675 27.2333 109.587 27.168 109.495 27.1083C109.452 27.0798 109.404 27.0493 109.351 27.0176C109.164 26.9052 108.968 26.8076 108.765 26.7256C107.937 26.3902 107.068 26.3297 106.184 26.5464C106.153 26.554 106.121 26.5554 106.089 26.5506C106.058 26.5457 106.028 26.5348 106.001 26.5184C105.974 26.502 105.95 26.4804 105.932 26.4548C105.913 26.4293 105.899 26.3994 105.892 26.3686ZM112.366 33.0852C111.461 33.8145 110.55 34.1102 109.663 33.92C109.491 33.8836 109.324 33.8301 109.162 33.7603C108.255 33.3662 107.742 32.5365 107.499 32.0221C107.481 31.9832 107.475 31.9399 107.48 31.8973C107.486 31.8548 107.504 31.8149 107.532 31.7824C107.56 31.7498 107.597 31.7261 107.638 31.7141C107.68 31.7021 107.724 31.7022 107.765 31.7146C108.082 31.8094 108.538 31.9419 109.02 32.07C109.348 32.1574 109.689 32.2428 110.007 32.3135C110.91 32.5135 111.745 32.6304 112.253 32.6904C112.297 32.6955 112.338 32.7134 112.371 32.7419C112.405 32.7704 112.429 32.8081 112.441 32.8503C112.453 32.8925 112.452 32.9374 112.439 32.9792C112.425 33.021 112.4 33.0579 112.366 33.0852ZM116.358 28.6243C116.315 28.6717 116.256 28.7003 116.192 28.7038C116.128 28.7073 116.066 28.6853 116.018 28.6428C115.934 28.5719 115.846 28.5064 115.754 28.4469C115.524 28.2955 115.279 28.1673 115.024 28.0642C114.196 27.7291 113.327 27.6686 112.442 27.8851C112.407 27.8939 112.37 27.8945 112.334 27.8867C112.281 27.8754 112.233 27.8463 112.198 27.8041C112.163 27.7619 112.144 27.7092 112.143 27.6545C112.143 27.5999 112.16 27.5467 112.194 27.5035C112.227 27.4603 112.275 27.4298 112.328 27.4169C113.291 27.1763 114.306 27.2495 115.225 27.6257C115.92 27.9106 116.323 28.2686 116.34 28.2848C116.388 28.3276 116.416 28.3873 116.419 28.4509C116.423 28.5145 116.401 28.5768 116.358 28.6243Z" fill="#0BBBB9"/>
<path d="M111.296 21.7373C110.392 23.2998 109.808 24.9204 109.454 26.5192C109.296 26.432 109.133 26.3538 108.966 26.2851C108.047 25.9089 107.032 25.8358 106.069 26.0764C106.038 26.0839 106.009 26.0974 105.983 26.1161C105.958 26.1349 105.936 26.1584 105.92 26.1855C105.886 26.2402 105.876 26.3058 105.892 26.3679C105.899 26.3986 105.913 26.4276 105.931 26.4532C105.95 26.4787 105.974 26.5003 106.001 26.5167C106.028 26.5331 106.058 26.5441 106.089 26.5489C106.12 26.5537 106.152 26.5523 106.183 26.5448C107.068 26.328 107.936 26.3876 108.765 26.724C108.968 26.8059 109.164 26.9035 109.351 27.0159C109.012 28.7737 108.942 30.494 109.021 32.0691C108.538 31.941 108.083 31.8085 107.765 31.7137C107.724 31.7013 107.68 31.7012 107.639 31.7132C107.598 31.7252 107.561 31.749 107.533 31.7815C107.505 31.814 107.487 31.8539 107.481 31.8965C107.475 31.939 107.482 31.9823 107.5 32.0212C107.742 32.5356 108.255 33.3653 109.163 33.7594C109.31 34.993 109.542 36.2149 109.859 37.4161C109.647 37.4291 109.435 37.4144 109.227 37.3722L108.609 37.2399C106.188 36.8214 103.399 30.9875 104.687 24.9847L105.517 21.1168C105.517 21.1168 108.256 21.2049 111.296 21.7373Z" fill="#0AA2A0"/>
</svg>
