<svg width="205" height="167" viewBox="0 0 205 167" fill="none" xmlns="http://www.w3.org/2000/svg">
<path d="M102.142 166.038C45.7305 166.038 0 139.614 0 107.019C0 74.4237 45.7305 48 102.142 48C158.554 48 204.284 74.4237 204.284 107.019C204.284 139.614 158.554 166.038 102.142 166.038Z" fill="white"/>
<path d="M117.372 20.935L131.46 12.8054L167.547 33.6542V35.1999L153.459 43.3343L117.372 22.4855V20.935Z" fill="#EBEBEB"/>
<path d="M153.459 41.7885L117.372 20.935L131.46 12.8054L167.547 33.6542L153.459 41.7885Z" fill="#FAFAFA"/>
<path d="M153.459 41.7884V43.3342L167.547 35.1998V33.6541L153.459 41.7884Z" fill="#E6E6E6"/>
<path d="M129.499 0.190918L121.236 4.96657V20.6914L129.499 15.9205V0.190918Z" fill="#E0E0E0"/>
<path d="M121.499 5.22874L129.499 0.63916C129.989 1.15674 130.631 1.5058 131.331 1.63627L123.397 6.20678C122.724 5.96641 122.085 5.63752 121.499 5.22874Z" fill="white"/>
<path d="M124.165 6.18306C123.927 6.30303 123.664 6.36552 123.397 6.36552C123.131 6.36552 122.868 6.30303 122.629 6.18306L121.284 5.41018C121.196 5.37423 121.121 5.31309 121.069 5.23451C121.016 5.15593 120.988 5.06347 120.988 4.96887C120.988 4.87427 121.016 4.78181 121.069 4.70323C121.121 4.62465 121.196 4.56351 121.284 4.52757L129.165 0L129.499 0.190836L121.747 4.68977C121.489 4.83767 121.494 5.07145 121.747 5.21934L122.997 5.91112C123.141 5.98186 123.299 6.01865 123.459 6.01865C123.62 6.01865 123.778 5.98186 123.922 5.91112L131.67 1.44081L132.052 1.6555L124.165 6.18306Z" fill="#FAFAFA"/>
<path d="M132.061 1.65552V17.3994L124.175 21.927C123.937 22.047 123.674 22.1094 123.407 22.1094C123.14 22.1094 122.877 22.047 122.639 21.927L121.293 21.1541C121.205 21.1154 121.129 21.0538 121.073 20.9758C121.017 20.8978 120.983 20.8062 120.974 20.7104V4.96651C120.983 5.06225 121.017 5.15388 121.073 5.23189C121.129 5.3099 121.205 5.37147 121.293 5.4102L122.639 6.18308C122.877 6.30305 123.14 6.36554 123.407 6.36554C123.674 6.36554 123.937 6.30305 124.175 6.18308L132.061 1.65552Z" fill="#E0E0E0"/>
<path d="M123.397 6.36418C123.13 6.3687 122.866 6.30638 122.629 6.18288L121.284 5.41C121.196 5.37127 121.12 5.3097 121.064 5.23169C121.007 5.15367 120.973 5.06205 120.964 4.96631V20.7102C120.973 20.8059 121.007 20.8976 121.064 20.9756C121.12 21.0536 121.196 21.1152 121.284 21.1539L122.629 21.9268C122.866 22.0503 123.13 22.1126 123.397 22.1081V6.36418Z" fill="#F0F0F0"/>
<path d="M132.882 2.13257L124.614 6.90822V22.633L132.882 17.8574V2.13257Z" fill="#EBEBEB"/>
<path d="M124.905 7.17053L132.906 2.57617C133.392 3.09648 134.033 3.44754 134.733 3.57806L126.804 8.14856C126.13 7.90941 125.491 7.58043 124.905 7.17053Z" fill="white"/>
<path d="M127.548 8.12018C127.31 8.24243 127.045 8.30618 126.778 8.30618C126.51 8.30618 126.245 8.24243 126.007 8.12018L124.662 7.3473C124.576 7.31064 124.502 7.24948 124.451 7.17145C124.399 7.09341 124.372 7.00192 124.372 6.90838C124.372 6.81483 124.399 6.72335 124.451 6.64531C124.502 6.56727 124.576 6.50612 124.662 6.46946L132.538 1.94189L132.872 2.13273L125.124 6.59827C125.07 6.61792 125.023 6.65388 124.99 6.70127C124.956 6.74865 124.938 6.80515 124.938 6.86306C124.938 6.92096 124.956 6.97746 124.99 7.02484C125.023 7.07223 125.07 7.10819 125.124 7.12784L126.379 7.83393C126.522 7.90679 126.679 7.94479 126.84 7.94479C127 7.94479 127.157 7.90679 127.3 7.83393L135.053 3.36839L135.43 3.58308L127.548 8.12018Z" fill="#FAFAFA"/>
<path d="M135.43 3.59741V19.3413L127.548 23.8641C127.309 23.9841 127.045 24.0466 126.778 24.0466C126.51 24.0466 126.246 23.9841 126.007 23.8641L124.662 23.0912C124.574 23.0533 124.498 22.9926 124.442 22.9154C124.386 22.8382 124.351 22.7474 124.342 22.6523V6.9084C124.352 7.0033 124.386 7.09393 124.443 7.17104C124.499 7.24815 124.574 7.30898 124.662 7.34732L126.007 8.12498C126.246 8.245 126.51 8.3075 126.778 8.3075C127.045 8.3075 127.309 8.245 127.548 8.12498L135.43 3.59741Z" fill="#E0E0E0"/>
<path d="M126.78 8.30607C126.511 8.31059 126.246 8.24829 126.007 8.12478L124.662 7.34712C124.574 7.30878 124.499 7.24795 124.443 7.17084C124.386 7.09373 124.352 7.0031 124.342 6.9082V22.6521C124.351 22.7472 124.386 22.838 124.442 22.9152C124.498 22.9924 124.574 23.0531 124.662 23.091L126.007 23.8639C126.244 23.9912 126.511 24.0553 126.78 24.05V8.30607Z" fill="#F0F0F0"/>
<path d="M138.526 6.31177L130.263 11.0874L132.829 27.2846L141.093 22.5137L138.526 6.31177Z" fill="#EBEBEB"/>
<path d="M130.587 11.3122L138.588 6.72266C139.214 7.18069 139.949 7.46688 140.72 7.55279L132.786 12.1233C132.026 11.9345 131.288 11.6625 130.587 11.3122Z" fill="white"/>
<path d="M133.617 12.0561C133.357 12.1786 133.076 12.2484 132.789 12.2615C132.503 12.2746 132.216 12.2307 131.947 12.1325L130.377 11.4884C129.9 11.288 129.824 10.9254 130.248 10.6821L138.135 6.15454L138.526 6.31198L130.768 10.7918C130.516 10.935 130.549 11.1544 130.849 11.2689L132.309 11.8462C132.471 11.9051 132.643 11.9312 132.815 11.9231C132.987 11.9149 133.156 11.8725 133.311 11.7985L141.059 7.32818L141.503 7.50947L133.617 12.0561Z" fill="#FAFAFA"/>
<path d="M141.503 7.55225L144.07 23.7732L136.183 28.3008C135.924 28.4238 135.642 28.4935 135.356 28.5057C135.069 28.518 134.782 28.4727 134.513 28.3724L132.944 27.7331C132.696 27.6281 132.557 27.4898 132.534 27.3419L129.967 11.1209C129.991 11.2688 130.129 11.4119 130.372 11.5121L131.947 12.1561C132.216 12.2544 132.503 12.2982 132.789 12.2851C133.076 12.272 133.357 12.2023 133.617 12.0798L141.503 7.55225Z" fill="#E0E0E0"/>
<path d="M132.81 12.2613C132.517 12.279 132.222 12.2352 131.947 12.1324L130.372 11.4884C130.129 11.3882 129.991 11.2451 129.967 11.0972L132.534 27.3182C132.557 27.4661 132.696 27.6044 132.944 27.7094L134.513 28.3487C134.789 28.4514 135.083 28.4953 135.377 28.4775L132.81 12.2613Z" fill="#F0F0F0"/>
<path d="M146.751 10.5869L138.483 15.3626V31.0874L146.751 26.3117V10.5869Z" fill="#E0E0E0"/>
<path d="M138.741 15.6199L146.741 11.0303C147.228 11.5506 147.868 11.9016 148.569 12.0322L140.649 16.617C139.971 16.3726 139.329 16.0372 138.741 15.6199Z" fill="white"/>
<path d="M141.412 16.5742C141.174 16.6942 140.911 16.7567 140.644 16.7567C140.377 16.7567 140.114 16.6942 139.876 16.5742L138.531 15.8014C138.443 15.7654 138.368 15.7043 138.316 15.6257C138.263 15.5471 138.235 15.4547 138.235 15.3601C138.235 15.2655 138.263 15.173 138.316 15.0944C138.368 15.0158 138.443 14.9547 138.531 14.9188L146.412 10.415L146.751 10.6059L138.993 15.0857C138.938 15.1041 138.891 15.1394 138.857 15.1865C138.823 15.2336 138.804 15.2901 138.804 15.3481C138.804 15.4061 138.823 15.4627 138.857 15.5098C138.891 15.5569 138.938 15.5921 138.993 15.6105L140.248 16.3214C140.391 16.3942 140.548 16.4322 140.708 16.4322C140.869 16.4322 141.026 16.3942 141.169 16.3214L148.922 11.8463L149.298 12.0658L141.412 16.5742Z" fill="#FAFAFA"/>
<path d="M149.298 12.0515V27.7954L141.412 32.3182C141.174 32.4382 140.911 32.5007 140.644 32.5007C140.377 32.5007 140.114 32.4382 139.876 32.3182L138.531 31.5453C138.443 31.507 138.368 31.4462 138.311 31.369C138.255 31.2919 138.221 31.2013 138.211 31.1064V15.3625C138.222 15.4571 138.257 15.5473 138.313 15.6243C138.369 15.7012 138.444 15.7623 138.531 15.8014L139.876 16.5743C140.114 16.6943 140.377 16.7568 140.644 16.7568C140.911 16.7568 141.174 16.6943 141.412 16.5743L149.298 12.0515Z" fill="#E0E0E0"/>
<path d="M140.649 16.7602C140.381 16.7649 140.117 16.7008 139.881 16.5741L138.535 15.8012C138.449 15.7621 138.373 15.701 138.317 15.6241C138.261 15.5471 138.226 15.4569 138.216 15.3623V31.1062C138.225 31.2011 138.26 31.2917 138.316 31.3688C138.372 31.446 138.448 31.5068 138.535 31.5451L139.881 32.318C140.117 32.4433 140.382 32.5057 140.649 32.4993V16.7602Z" fill="#F0F0F0"/>
<path d="M150.129 12.5283L141.865 17.304V33.024L150.129 28.2531V12.5283Z" fill="#EBEBEB"/>
<path d="M142.128 17.571L150.129 12.9814C150.617 13.4999 151.256 13.8506 151.956 13.9833L144.027 18.5252C143.354 18.2928 142.716 17.972 142.128 17.571Z" fill="white"/>
<path d="M144.795 18.5254C144.556 18.6454 144.293 18.7078 144.027 18.7078C143.76 18.7078 143.497 18.6454 143.258 18.5254L141.908 17.7525C141.821 17.7166 141.746 17.6554 141.693 17.5768C141.641 17.4983 141.613 17.4058 141.613 17.3112C141.613 17.2166 141.641 17.1241 141.693 17.0456C141.746 16.967 141.821 16.9058 141.908 16.8699L149.795 12.3232L150.129 12.5141L142.376 16.9892C142.118 17.1371 142.118 17.3756 142.376 17.5187L143.626 18.2296C143.769 18.3025 143.928 18.3405 144.089 18.3405C144.249 18.3405 144.408 18.3025 144.551 18.2296L152.299 13.7545L152.681 13.974L144.795 18.5254Z" fill="#FAFAFA"/>
<path d="M152.676 13.9883V29.7322L144.795 34.255C144.556 34.3749 144.293 34.4374 144.027 34.4374C143.76 34.4374 143.497 34.3749 143.259 34.255L141.908 33.4821C141.821 33.4427 141.746 33.3808 141.691 33.3029C141.636 33.2249 141.602 33.1336 141.593 33.0384V17.2945C141.602 17.3897 141.636 17.481 141.691 17.559C141.746 17.6369 141.821 17.6988 141.908 17.7382L143.259 18.5254C143.497 18.6454 143.76 18.7079 144.027 18.7079C144.293 18.7079 144.556 18.6454 144.795 18.5254L152.676 13.9883Z" fill="#E0E0E0"/>
<path d="M144.027 18.6972C143.759 18.704 143.495 18.6416 143.259 18.5159L141.908 17.743C141.821 17.7036 141.746 17.6418 141.691 17.5638C141.636 17.4858 141.602 17.3946 141.593 17.2993V33.0432C141.602 33.1384 141.636 33.2297 141.691 33.3077C141.746 33.3857 141.821 33.4475 141.908 33.4869L143.259 34.2598C143.495 34.3833 143.759 34.4456 144.027 34.4411V18.6972Z" fill="#F0F0F0"/>
<path d="M155.773 16.7075L147.509 21.4784L150.076 37.6803L158.344 32.9047L155.773 16.7075Z" fill="#EBEBEB"/>
<path d="M147.834 21.7074L155.839 17.094C156.463 17.5531 157.197 17.838 157.967 17.9194L150.033 22.4946C149.273 22.3135 148.536 22.0495 147.834 21.7074Z" fill="white"/>
<path d="M150.863 22.4518C150.605 22.5746 150.324 22.6442 150.038 22.6565C149.752 22.6688 149.466 22.6235 149.198 22.5233L147.624 21.884C147.147 21.6789 147.07 21.3163 147.495 21.073L155.381 16.5454L155.773 16.7076L148.02 21.1827C147.762 21.3306 147.8 21.5453 148.096 21.6598L149.556 22.2466C149.718 22.3063 149.889 22.3332 150.061 22.3258C150.233 22.3185 150.402 22.2769 150.558 22.2037L158.301 17.7429L158.74 17.9242L150.863 22.4518Z" fill="#FAFAFA"/>
<path d="M158.75 17.9246L161.316 34.1455L153.43 38.6731C153.171 38.7957 152.891 38.8656 152.605 38.8787C152.319 38.8918 152.034 38.8478 151.765 38.7494L150.191 38.0863C149.943 37.9861 149.804 37.843 149.78 37.6999L147.214 21.4789C147.237 21.6268 147.376 21.7651 147.624 21.8653L149.198 22.5094C149.466 22.6096 149.752 22.6549 150.038 22.6426C150.324 22.6303 150.605 22.5606 150.863 22.4378L158.75 17.9246Z" fill="#E0E0E0"/>
<path d="M150.057 22.6568C149.765 22.6726 149.472 22.6271 149.198 22.5232L147.624 21.8791C147.376 21.7789 147.237 21.6406 147.214 21.4927L149.78 37.7137C149.804 37.8568 149.943 37.9999 150.191 38.1001L151.765 38.7442C152.039 38.8465 152.332 38.8904 152.624 38.873L150.057 22.6568Z" fill="#F0F0F0"/>
<path d="M27.967 95.833L11.2874 86.2235C11.2034 86.194 11.1306 86.1391 11.0791 86.0664C11.0276 85.9938 11 85.9069 11 85.8179C11 85.7288 11.0276 85.642 11.0791 85.5693C11.1306 85.4967 11.2034 85.4418 11.2874 85.4122L52.5037 61.5286C52.7212 61.4185 52.9616 61.3611 53.2054 61.3611C53.4493 61.3611 53.6897 61.4185 53.9072 61.5286L70.5868 71.138C70.669 71.1693 70.7398 71.2249 70.7897 71.2973C70.8397 71.3698 70.8664 71.4557 70.8664 71.5437C70.8664 71.6317 70.8397 71.7176 70.7897 71.79C70.7398 71.8624 70.669 71.918 70.5868 71.9493L29.3624 95.833C29.1464 95.9436 28.9073 96.0014 28.6647 96.0014C28.422 96.0014 28.1829 95.9436 27.967 95.833Z" fill="#EBEBEB"/>
<path d="M31.496 86.5398L30.0641 93.6425L28.6728 94.4497L27.2896 93.6506L25.8456 86.5398L28.6728 84.9092L31.496 86.5398Z" fill="#E0E0E0"/>
<path opacity="0.05" d="M31.496 86.5398L30.0641 93.6425L28.6728 94.4497L27.2896 93.6506L25.8456 86.5398L28.6728 84.9092L31.496 86.5398Z" fill="black"/>
<path d="M28.6728 94.4494V88.1702L31.496 86.5396L30.0641 93.6422L28.6728 94.4494Z" fill="#EBEBEB"/>
<path opacity="0.05" d="M31.496 86.5398L30.5712 91.1275L28.6728 92.2227L26.7785 91.1316L25.8456 86.5398L28.6728 84.9092L31.496 86.5398Z" fill="black"/>
<path d="M19.0755 79.3682L17.6436 86.4749L16.2523 87.278L14.8732 86.4789L13.4291 79.3682L16.2523 77.7375L19.0755 79.3682Z" fill="#E0E0E0"/>
<path opacity="0.05" d="M19.0755 79.3682L17.6436 86.4749L16.2523 87.278L14.8732 86.4789L13.4291 79.3682L16.2523 77.7375L19.0755 79.3682Z" fill="black"/>
<path d="M16.2523 87.2782V80.999L19.0756 79.3684L17.6437 86.4751L16.2523 87.2782Z" fill="#EBEBEB"/>
<path opacity="0.05" d="M19.0755 79.3682L18.1507 83.9559L16.2523 85.0511L14.358 83.96L13.4291 79.3682L16.2523 77.7375L19.0755 79.3682Z" fill="black"/>
<path opacity="0.05" d="M68.2341 65.3252L66.8023 72.4319L65.4109 73.2351L64.0318 72.44L62.5837 65.3252L65.4109 63.6946L68.2341 65.3252Z" fill="black"/>
<path d="M65.4109 73.235V66.9558L68.2342 65.3252L66.8023 72.4319L65.4109 73.235Z" fill="#EBEBEB"/>
<path opacity="0.05" d="M68.2341 65.3252L67.3093 69.917L65.4109 71.0122L63.5166 69.921L62.5837 65.3252L65.4109 63.6946L68.2341 65.3252Z" fill="black"/>
<path d="M28.6728 91.0787L13.2791 82.1913V48.8767L28.6688 57.7641L28.6728 91.0787Z" fill="#E0E0E0"/>
<path d="M28.6687 57.7643L69.0332 34.4607L69.0373 67.7712L28.6728 91.0789L28.6687 57.7643Z" fill="#EBEBEB"/>
<path d="M69.0333 34.4604L28.6688 57.764L13.2791 48.8766L53.6436 25.573L69.0333 34.4604Z" fill="#F5F5F5"/>
<path d="M30.8713 74.2653L66.8347 53.501V65.7267L67.2404 65.962L31.2729 86.7263L30.8713 86.4911V74.2653Z" fill="#E0E0E0"/>
<path d="M31.2729 74.5004L67.2403 53.7361V65.9619L31.2729 86.7262V74.5004Z" fill="#F5F5F5"/>
<path d="M48.565 66.8424L51.5545 65.1185C51.9601 64.8913 52.2603 64.9968 52.2603 65.3456C52.2307 65.562 52.1517 65.7686 52.0293 65.9494C51.9069 66.1302 51.7444 66.2803 51.5545 66.3881L48.565 68.112C48.1594 68.3392 47.8592 68.2337 47.8592 67.8849C47.8888 67.6685 47.9678 67.4619 48.0902 67.2811C48.2126 67.1003 48.3751 66.9502 48.565 66.8424Z" fill="#E0E0E0"/>
<path d="M30.8714 59.5043L66.8348 38.74V50.9658L67.2404 51.201L31.2729 71.9654L30.8673 71.7301L30.8714 59.5043Z" fill="#E0E0E0"/>
<path d="M31.2729 59.7396L67.2403 38.9712V51.201L31.2729 71.9654V59.7396Z" fill="#F5F5F5"/>
<path d="M48.565 52.0649L51.5545 50.3369C51.9601 50.1138 52.2562 50.2152 52.2562 50.5681C52.228 50.7839 52.1499 50.99 52.0281 51.1703C51.9063 51.3506 51.7441 51.4999 51.5545 51.6066L48.565 53.3346C48.1594 53.5577 47.8592 53.4563 47.8592 53.1074C47.8878 52.8908 47.9665 52.6838 48.089 52.5029C48.2115 52.3219 48.3745 52.172 48.565 52.0649Z" fill="#E0E0E0"/>
<path d="M58.7951 29.8647C60.661 30.9437 60.661 32.7041 58.7951 33.7669C56.9291 34.8296 53.9072 34.8418 52.0413 33.7669C50.1754 32.692 50.1754 30.9274 52.0413 29.8647C53.9072 28.8019 56.9454 28.7857 58.7951 29.8647Z" fill="#E0E0E0"/>
<path d="M52.4469 32.0551C50.8244 30.396 49.8671 26.2586 51.4531 24.9443H59.5171C61.0991 26.2586 60.1458 30.396 58.5233 32.0551L58.4787 32.0997L58.4219 32.1524L58.2759 32.2863L58.2353 32.3147C58.1973 32.349 58.1566 32.3802 58.1136 32.408C58.0458 32.4564 57.9754 32.5011 57.9027 32.5418C57.1527 32.9217 56.3238 33.1197 55.4831 33.1197C54.6424 33.1197 53.8135 32.9217 53.0635 32.5418C52.9908 32.5011 52.9204 32.4564 52.8526 32.408L52.739 32.3228L52.6903 32.2822C52.6403 32.2435 52.5928 32.2015 52.5483 32.1565L52.4834 32.0956L52.4469 32.0551Z" fill="#EBEBEB"/>
<path d="M58.8154 24.413C60.6569 25.4758 60.6569 27.1957 58.8154 28.2584C56.9738 29.3212 53.9924 29.3212 52.1508 28.2584C50.3092 27.1957 50.3133 25.4758 52.1508 24.413C53.9883 23.3503 56.9738 23.3503 58.8154 24.413Z" fill="#FAFAFA"/>
<path d="M57.5092 25.1675C58.6288 25.8125 58.6288 26.859 57.5092 27.508C56.8806 27.8266 56.1858 27.9926 55.481 27.9926C54.7763 27.9926 54.0815 27.8266 53.4529 27.508C52.3333 26.859 52.3333 25.8125 53.4529 25.1675C54.0809 24.847 54.776 24.6799 55.481 24.6799C56.1861 24.6799 56.8812 24.847 57.5092 25.1675Z" fill="#F5F5F5"/>
<path d="M53.457 26.2788C54.085 25.9584 54.78 25.7913 55.4851 25.7913C56.1902 25.7913 56.8852 25.9584 57.5133 26.2788C57.7846 26.4264 58.0158 26.6381 58.1866 26.8954C58.0158 27.1528 57.7846 27.3644 57.5133 27.512C56.8847 27.8306 56.1898 27.9966 55.4851 27.9966C54.7804 27.9966 54.0856 27.8306 53.457 27.512C53.1868 27.3643 52.957 27.1526 52.7877 26.8954C52.9555 26.637 53.1857 26.425 53.457 26.2788Z" fill="#EBEBEB"/>
<path d="M57.2658 26.8914C57.838 26.3101 58.3304 25.6554 58.7302 24.9444C59.4076 23.7275 59.5414 22.1415 59.1804 21.9427C58.8194 21.744 57.4078 23.3462 57.4078 23.3462C57.5378 22.6785 57.5881 21.9977 57.5579 21.3181C57.497 20.2512 57.2374 19.2899 56.9332 19.0871C56.629 18.8843 55.9435 20.235 55.6514 21.2126C55.3594 22.1902 55.1809 22.9893 55.1809 22.9893C55.0641 22.2293 54.8891 21.4794 54.6576 20.7461C54.3007 19.732 53.9802 19.5049 53.7287 19.6022C53.4772 19.6996 53.3231 20.1742 53.242 21.5249C53.2126 22.1636 53.2302 22.8035 53.2947 23.4395C53.2947 23.4395 52.7917 22.8879 52.2319 22.3524C51.6722 21.817 51.3598 21.6831 51.1854 21.7967C51.011 21.9103 50.9582 22.823 51.9074 24.5388C52.3801 25.412 52.9849 26.2069 53.7003 26.8955C53.7003 26.8955 55.0186 27.7392 57.2658 26.8914Z" fill="#E0E0E0"/>
<path d="M30.9119 49.4448L31.5041 49.7287L42.4278 43.4211L41.8396 43.1372L30.9119 49.4448Z" fill="#FAFAFA"/>
<path d="M41.8396 43.137L31.4473 49.1363L29.9343 33.5924L40.3266 27.5972L41.8396 43.137Z" fill="white"/>
<path d="M41.7544 25.6055L28.8229 33.0732L30.6036 51.428L43.5595 43.9401L41.7544 25.6055ZM42.4278 43.4209L31.5001 49.7284L29.9343 33.5802L40.858 27.2726L42.4278 43.4209Z" fill="#F0F0F0"/>
<path d="M42.4278 43.421L41.8396 43.137L40.3266 27.5973L40.858 27.2849L42.4278 43.421Z" fill="#E0E0E0"/>
<path d="M41.7585 25.6054L41.1582 25.3296L28.2225 32.7973L28.8229 33.0731L41.7585 25.6054Z" fill="#FAFAFA"/>
<path d="M28.2225 32.7976L28.8229 33.0734L30.6077 51.408L30.0073 51.1322L28.2225 32.7976Z" fill="#E0E0E0"/>
<path d="M57.1978 129.679C49.0292 130.734 47.2626 136.174 53.2531 141.826C59.2436 147.479 70.7274 151.212 78.9011 150.155C87.0747 149.099 88.8363 143.661 82.8458 138.008C76.8553 132.356 65.3714 128.623 57.1978 129.679Z" fill="#EBEBEB"/>
<path d="M104.297 52.057L97.7357 48.2432C97.3762 48.0386 96.9652 47.9422 96.5522 47.9656L103.128 51.7939C103.535 51.7639 103.942 51.8554 104.297 52.057Z" fill="#0C5D8F"/>
<path d="M103.128 51.7646L96.5521 47.9363C96.0883 47.9745 95.6365 48.1036 95.2224 48.3162L101.798 52.1299C102.21 51.9147 102.663 51.7901 103.128 51.7646Z" fill="#0C5D8F"/>
<path d="M101.798 52.1592L95.2224 48.3455L94.9156 48.5062L101.476 52.3346L101.798 52.1592Z" fill="#0C5D8F"/>
<path d="M65.2677 105.04L58.7069 101.226C58.656 101.714 58.7362 102.207 58.9391 102.654C59.1419 103.101 59.4603 103.486 59.8612 103.769L66.4367 107.583C66.0341 107.3 65.7138 106.916 65.5084 106.469C65.303 106.023 65.22 105.529 65.2677 105.04Z" fill="#024849"/>
<path d="M65.2093 77.8472L58.6339 74.0188L58.7069 101.226L65.2677 105.055L65.2093 77.8472Z" fill="#069798"/>
<path d="M101.476 52.3345L94.9156 48.5061L62.5937 67.1657L69.1545 70.994L101.476 52.3345Z" fill="#089E9F"/>
<path d="M69.1545 70.9939L62.5937 67.1655C60.913 68.2526 59.6549 69.8819 59.0284 71.7829L65.6038 75.5967C66.2295 73.7032 67.4819 72.0797 69.1545 70.9939Z" fill="#049B9C"/>
<path d="M65.6038 75.5969L59.0284 71.7832C58.8409 72.3478 58.7135 72.9307 58.6485 73.522L65.2239 77.3358C65.2747 76.7422 65.4024 76.1577 65.6038 75.5969Z" fill="#089697"/>
<path d="M65.2239 77.3357L58.6485 73.522C58.6485 73.6827 58.6485 73.858 58.6485 74.0188L65.2239 77.8471C65.2239 77.6718 65.2239 77.511 65.2239 77.3357Z" fill="#03797A"/>
<path d="M69.1545 70.9942C68.0061 71.7477 67.0507 72.7604 66.3654 73.9507C65.6801 75.1411 65.2841 76.4758 65.2093 77.8473V105.04C65.2093 107.554 67.0065 108.576 69.1984 107.32L101.52 88.6602C102.671 87.9084 103.63 86.8964 104.318 85.706C105.005 84.5155 105.404 83.18 105.48 81.8072V54.5995C105.48 52.0862 103.683 51.0634 101.491 52.3347L69.1545 70.9942Z" fill="#018081"/>
<path d="M98.8317 32.974L104.428 29.7008C103.969 29.3719 103.431 29.1703 102.869 29.1164C102.307 29.0625 101.741 29.1583 101.228 29.394L95.617 32.6671C96.1308 32.424 96.7007 32.3243 97.2665 32.3783C97.8324 32.4323 98.3731 32.6381 98.8317 32.974Z" fill="#0C9596"/>
<path d="M144.041 95.3821L149.652 92.1236C150.114 91.7989 150.481 91.3569 150.715 90.8431C150.948 90.3294 151.041 89.7626 150.982 89.2012L145.371 92.4597C145.43 93.0211 145.337 93.5879 145.103 94.1016C144.87 94.6154 144.503 95.0574 144.041 95.3821Z" fill="#7295AA"/>
<path d="M145.371 92.4887L150.968 89.2302L151.055 61.4673L145.444 64.7257L145.371 92.4887Z" fill="#0D9394"/>
<path d="M140.944 56.9376L146.555 53.6645L104.428 29.7153L98.8317 32.9738L140.944 56.9376Z" fill="#089697"/>
<path d="M145.444 64.7262L151.055 61.4677C150.968 59.9076 150.515 58.3898 149.734 57.0369C148.952 55.684 147.863 54.5339 146.555 53.6794L140.944 56.938C142.254 57.7898 143.345 58.9393 144.127 60.2927C144.909 61.6462 145.361 63.1652 145.444 64.7262Z" fill="#0A9495"/>
<path d="M98.8316 32.9741C96.3476 31.5129 94.3019 32.6964 94.2873 35.5458V68.5983C94.2873 71.5207 96.3038 69.6796 98.7878 71.1115L140.914 95.0754C143.398 96.5366 145.43 95.3383 145.444 92.489V64.7261C145.361 63.1651 144.909 61.6461 144.127 60.2926C143.345 58.9392 142.254 57.7897 140.944 56.9379L98.8316 32.9741Z" fill="#009C9D"/>
<path d="M113.194 67.965C113.237 68.2416 113.03 68.4892 112.838 68.6934L111.582 70.0299C111.168 70.4714 110.73 70.926 110.16 71.1234C109.976 71.1914 109.78 71.2177 109.585 71.2004C109.384 71.1665 109.188 71.1039 109.004 71.0146C108.14 70.6564 107.242 70.3882 106.324 70.2143C106.042 70.1475 105.751 70.1291 105.463 70.1599C105.231 70.226 104.99 70.2579 104.749 70.2546C104.568 70.1941 104.395 70.1123 104.234 70.0107C103.672 69.7641 103.137 69.46 102.638 69.1034C102.533 69.0285 102.448 68.9299 102.389 68.8157C102.353 68.7226 102.444 68.5129 102.546 68.4999C102.496 68.4405 102.467 68.3666 102.462 68.2892C102.457 68.2117 102.476 68.1346 102.518 68.0692C102.558 68.0051 102.617 67.9552 102.688 67.9268C102.758 67.8983 102.835 67.8926 102.908 67.9105C102.921 67.8255 102.964 67.7483 103.031 67.6939C103.097 67.6395 103.182 67.6119 103.268 67.6166C103.354 67.645 103.41 67.7137 103.503 67.713C103.595 67.7122 103.613 67.7246 103.684 67.6872C103.918 67.5598 104.027 67.7137 104.205 67.8909C104.426 68.0826 104.673 68.2411 104.94 68.3613C105.078 68.4079 105.221 68.4392 105.366 68.4546C106.052 68.5778 106.89 68.4661 107.584 68.4919C107.876 68.4969 108.167 68.4534 108.445 68.3634C109.139 68.1562 109.57 68.3553 110.112 67.8787C110.368 67.6569 110.597 67.4072 110.876 67.2166C111.145 67.0055 111.48 66.8977 111.82 66.9129C112.193 66.9893 112.535 67.1725 112.804 67.44C112.993 67.563 113.131 67.7492 113.194 67.965Z" fill="#B2B2B2"/>
<path d="M64.3472 95.6011V105.099C64.4075 105.576 64.5916 106.03 64.8813 106.414C65.1709 106.799 65.556 107.101 65.9983 107.291V97.7929C65.5568 97.6019 65.1725 97.2995 64.883 96.9153C64.5936 96.531 64.4089 96.0782 64.3472 95.6011Z" fill="#414141"/>
<path d="M135.654 103.535V113.033C136.111 112.832 136.506 112.512 136.797 112.106C137.088 111.699 137.263 111.222 137.305 110.724V101.227C137.261 101.722 137.087 102.197 136.799 102.602C136.512 103.008 136.122 103.33 135.669 103.535H135.654Z" fill="#072E47"/>
<path d="M65.9691 97.8225L65.9983 107.32L107.76 131.62L101.696 118.572L65.9691 97.8225Z" fill="#035253"/>
<path d="M109.601 118.571L109.63 128.069L135.669 113.033L135.654 103.536L109.601 118.571Z" fill="#072E47"/>
<path d="M101.696 118.571V128.069C102.921 128.688 104.275 129.011 105.648 129.011C107.021 129.011 108.375 128.688 109.601 128.069V118.571C108.375 119.19 107.021 119.513 105.648 119.513C104.275 119.513 102.921 119.19 101.696 118.571Z" fill="#034E4F"/>
<path d="M65.9837 93.2339C63.8065 94.4906 63.7919 96.5509 65.9837 97.8221L101.71 118.571C102.936 119.19 104.29 119.513 105.663 119.513C107.036 119.513 108.39 119.19 109.615 118.571L135.669 103.535C137.846 102.279 137.86 100.219 135.669 98.9473L99.9422 78.1981C98.7165 77.5791 97.3627 77.2566 95.9896 77.2566C94.6165 77.2566 93.2626 77.5791 92.037 78.1981L65.9837 93.2339Z" fill="#034041"/>
<path d="M65.9691 87.7101L101.696 108.459C102.921 109.078 104.275 109.401 105.648 109.401C107.021 109.401 108.375 109.078 109.601 108.459L135.654 93.4235C136.108 93.2195 136.499 92.8978 136.787 92.4919C137.074 92.086 137.248 91.6105 137.291 91.1147V100.613C137.249 101.105 137.076 101.577 136.791 101.98C136.506 102.383 136.119 102.703 135.669 102.907L109.63 117.957C108.404 118.576 107.05 118.899 105.677 118.899C104.304 118.899 102.95 118.576 101.725 117.957L65.9983 97.208C65.5495 97.0069 65.1625 96.6895 64.8773 96.2888C64.5922 95.8881 64.4193 95.4185 64.3764 94.9285V85.4307C64.418 85.9171 64.5871 86.384 64.8668 86.7842C65.1464 87.1844 65.5266 87.5038 65.9691 87.7101Z" fill="#087071"/>
<path d="M65.9837 83.1219C63.8065 84.3785 63.7919 86.4388 65.9837 87.7101L101.71 108.459C102.936 109.078 104.29 109.401 105.663 109.401C107.036 109.401 108.39 109.078 109.615 108.459L135.669 93.4234C137.846 92.1668 137.86 90.1065 135.669 88.8352L99.9422 68.0861C98.7165 67.4671 97.3627 67.1445 95.9896 67.1445C94.6165 67.1445 93.2626 67.4671 92.037 68.0861L65.9837 83.1219Z" fill="#038788"/>
<path d="M110.974 131.62L104.399 127.748C104.348 128.236 104.428 128.729 104.631 129.176C104.834 129.623 105.152 130.007 105.553 130.29L112.129 134.104C111.727 133.822 111.407 133.438 111.204 132.99C111.001 132.543 110.922 132.05 110.974 131.562V131.62Z" fill="#024849"/>
<path d="M110.901 107.247L104.326 103.419L104.399 127.806L110.96 131.62L110.901 107.247Z" fill="#0D8384"/>
<path d="M127.355 85.9292C127.389 85.9857 127.431 86.0375 127.478 86.0832C127.663 86.2416 127.88 86.357 128.114 86.4208C128.349 86.4847 128.594 86.4955 128.833 86.4524C129.309 86.3636 129.758 86.1665 130.145 85.8764C130.802 85.4366 131.326 84.8254 131.661 84.1092C131.824 83.7504 131.911 83.3614 131.915 82.9671C131.92 82.5728 131.841 82.182 131.686 81.8198C131.505 81.4602 131.261 81.1357 130.967 80.8613C130.07 79.9617 128.874 79.5708 127.92 78.7659C127.491 78.4072 127.138 77.9663 126.882 77.4691C126.567 76.845 126.377 76.1648 126.325 75.4675C126.325 73.2363 125.422 73.3179 125.626 72.7485C125.831 72.2074 124.987 72.3003 125.171 71.7495C120.639 71.3768 122.755 71.7496 122.755 71.7496C122.755 71.7496 125.347 72.9218 125.171 74.0865C125.004 75.1993 125.161 76.3369 125.626 77.362C126.297 78.8323 127.418 79.8772 128.772 80.7388C129.321 81.0926 129.915 81.4464 130.236 82.0138C130.443 82.4025 130.526 82.8452 130.475 83.2825C130.423 83.7198 130.239 84.1309 129.948 84.461C129.65 84.7801 129.283 85.027 128.876 85.1828C128.468 85.3386 128.03 85.3992 127.595 85.36C127.545 85.3539 127.493 85.3606 127.446 85.3793C127.398 85.3981 127.356 85.4284 127.323 85.4675C127.29 85.5066 127.268 85.5532 127.257 85.6033C127.247 85.6533 127.249 85.7051 127.264 85.7541C127.283 85.8176 127.314 85.877 127.355 85.9292Z" fill="#E0E0E0"/>
<path d="M108.286 96.5657L140.608 77.9061L140.929 77.7308C141.341 77.5291 141.787 77.4052 142.244 77.3655C142.657 77.3404 143.069 77.4369 143.428 77.6431L149.989 81.4569C149.636 81.2492 149.227 81.1572 148.82 81.1939C148.355 81.2194 147.902 81.3439 147.49 81.5592L147.183 81.7199L114.861 100.379C113.18 101.466 111.922 103.096 111.296 104.997L104.735 101.183C105.358 99.2843 106.61 97.6552 108.286 96.5657Z" fill="#089E9F"/>
<path d="M111.296 104.997L104.735 101.183C104.534 101.744 104.406 102.329 104.355 102.922L110.916 106.736C110.981 106.145 111.108 105.562 111.296 104.997Z" fill="#048586"/>
<path d="M110.916 106.736L104.355 102.907C104.355 103.068 104.355 103.244 104.355 103.404L110.93 107.233C110.93 107.057 110.93 106.897 110.93 106.721L110.916 106.736Z" fill="#03797A"/>
<path d="M114.861 100.379C113.708 101.132 112.749 102.147 112.061 103.34C111.373 104.533 110.975 105.872 110.901 107.247V131.62C110.901 134.133 112.699 135.156 114.876 133.899L147.212 115.24C148.363 114.488 149.322 113.476 150.01 112.285C150.697 111.095 151.096 109.759 151.172 108.387L151.099 83.999C151.099 81.4857 149.302 80.4629 147.125 81.7195L114.861 100.379Z" fill="#078E8F"/>
<path d="M121.299 73.0322C121.276 73.2989 121.23 73.563 121.159 73.8213C120.886 74.8747 120.311 75.8552 119.901 76.8757C119.877 76.934 119.864 76.9959 119.861 77.0587C119.873 77.2761 119.923 77.4896 120.011 77.689C120.05 77.8476 120.033 78.0149 119.963 78.1625C119.747 78.5619 119.45 78.9116 119.09 79.189C118.545 79.6578 117.956 80.074 117.332 80.4321C116.889 80.6826 116.437 80.9109 115.988 81.1518C115.825 81.2606 115.631 81.3122 115.436 81.2985C115.348 81.2854 115.265 81.2522 115.192 81.2014C115.12 81.1507 115.06 81.0837 115.018 81.0059C115.018 81.0059 115.018 81.0059 115.018 80.9872C115.019 80.9685 114.993 80.9863 114.987 80.9861C114.882 80.9708 114.781 80.9309 114.694 80.8698C114.665 80.8443 114.638 80.8173 114.613 80.7888C114.565 80.7028 114.528 80.6112 114.503 80.5163C114.503 80.4793 114.494 80.4428 114.479 80.4092C114.452 80.3723 114.422 80.3369 114.392 80.303C114.335 80.245 114.297 80.1721 114.28 80.0929C114.277 79.98 114.301 79.8681 114.35 79.7664C114.399 79.6648 114.472 79.5764 114.563 79.5087C115.041 79.0625 115.655 78.8335 116.219 78.5309C116.759 78.2726 117.229 77.8877 117.589 77.409L117.661 77.302C117.174 77.0968 116.733 76.7945 116.366 76.4137C116.093 76.1392 115.878 75.813 115.733 75.4542C115.48 74.7237 115.492 73.9269 115.77 73.205C115.911 72.8614 116.1 72.5395 116.331 72.249C116.668 71.801 117.091 71.4245 117.576 71.1415C117.994 70.9278 118.456 70.8132 118.925 70.8065C119.395 70.7999 119.86 70.9014 120.284 71.1031C120.432 71.1682 120.572 71.2485 120.704 71.3426C121.214 71.6914 121.352 72.4026 121.299 73.0322Z" fill="#C0C0C0"/>
<path d="M116.541 78.4171C116.901 78.1821 117.288 77.9937 117.695 77.8566C117.817 77.8074 117.949 77.7934 118.079 77.8161C118.208 77.8387 118.328 77.8972 118.425 77.9848C118.482 78.0618 118.516 78.1526 118.525 78.2475C118.534 78.3425 118.517 78.4381 118.475 78.5241C118.393 78.6957 118.276 78.8482 118.132 78.9718C117.269 79.7893 116.194 80.34 115.134 80.8819C115.17 80.7425 115.361 80.6677 115.359 80.5239C115.357 80.4917 115.347 80.4606 115.329 80.4337C115.312 80.4067 115.287 80.3849 115.258 80.3704C115.243 80.3699 115.094 80.3335 115.094 80.3335C115.128 80.2791 115.153 80.2199 115.169 80.1579C115.175 80.1265 115.173 80.094 115.163 80.0635C115.154 80.033 115.136 80.0056 115.112 79.984C115.076 79.9588 115.033 79.9453 114.988 79.9454C114.902 79.9438 114.816 79.9668 114.742 80.012C114.752 79.9963 114.759 79.9789 114.763 79.9606C114.766 79.9422 114.765 79.9235 114.761 79.9053C114.757 79.8871 114.75 79.8699 114.739 79.8547C114.728 79.8395 114.715 79.8266 114.699 79.8167C114.665 79.7994 114.628 79.7897 114.591 79.7884C114.553 79.7872 114.515 79.7942 114.48 79.8092C114.766 79.5627 115.066 79.3339 115.379 79.1243C115.75 78.8776 116.133 78.65 116.519 78.4351L116.541 78.4171Z" fill="#ABABAB"/>
<path d="M121.299 73.0322C121.276 73.2989 121.23 73.563 121.159 73.8213C120.886 74.8747 120.311 75.8552 119.901 76.8757C119.877 76.934 119.864 76.9959 119.86 77.0587C119.873 77.2761 119.923 77.4896 120.011 77.689C120.05 77.8476 120.033 78.0149 119.963 78.1625C119.747 78.5619 119.45 78.9116 119.09 79.189C118.545 79.6578 117.956 80.074 117.332 80.4321C116.889 80.6826 116.437 80.9109 115.988 81.1518C115.825 81.2606 115.631 81.3122 115.436 81.2985C115.348 81.2854 115.265 81.2522 115.192 81.2015C115.12 81.1507 115.06 81.0837 115.018 81.0059C115.621 80.7453 116.212 80.4582 116.791 80.1447C117.381 79.8552 117.921 79.4751 118.393 79.0182C118.741 78.6702 118.994 78.2387 119.127 77.765C119.256 77.2818 119.208 76.7644 119.319 76.2681C119.549 75.3039 120.316 74.5332 120.565 73.5665C120.715 73.0329 120.688 72.4652 120.489 71.9479C120.388 71.6628 120.317 71.3681 120.276 71.0685C120.423 71.1335 120.564 71.2138 120.696 71.308C121.214 71.6915 121.352 72.4026 121.299 73.0322Z" fill="#8C8C8C"/>
<path d="M126.163 76.4029C126.055 77.0862 125.859 77.7529 125.582 78.3865C125.565 78.4172 125.552 78.4511 125.535 78.4818C125.251 79.0577 124.897 79.5957 124.48 80.0835C124.105 80.527 123.823 80.9986 123.233 80.9784C122.371 80.9488 121.975 80.4757 121.458 79.861C120.857 79.1714 120.287 78.4767 119.701 77.7846L119.503 77.5527C118.957 76.8384 118.274 76.24 117.494 75.7927C117.131 75.624 116.754 75.4856 116.367 75.379C115.439 75.0939 114.512 74.8058 113.582 74.5832C113.093 74.485 112.611 74.3557 112.138 74.1961C111.833 74.0774 111.54 73.927 111.266 73.7473C111.058 73.6128 110.863 73.4608 110.681 73.2927C110.474 73.1112 110.311 72.8856 110.203 72.6325C110.095 72.3794 110.045 72.1053 110.056 71.8303C110.06 71.7273 110.045 71.6236 110.042 71.5173C109.994 70.6976 110.059 69.8753 110.235 69.0733C110.462 68.1059 110.783 67.1417 110.736 66.1399L110.737 66.1211C110.726 65.8832 110.691 65.6351 110.671 65.3906C110.644 65.1336 110.653 64.874 110.698 64.6195C110.766 64.4078 110.879 64.2135 111.029 64.0497C111.179 63.886 111.363 63.7568 111.568 63.671C112.289 63.2489 113.144 63.1152 113.96 63.2967C114.468 63.4331 114.945 63.6694 115.361 63.9918L115.617 64.1757C115.898 64.3885 116.174 64.6136 116.461 64.8298C116.497 64.8592 116.531 64.8884 116.564 64.9115C116.871 65.1315 117.19 65.3354 117.518 65.5225C118.449 66.0408 119.421 66.4809 120.424 66.8381C121.726 67.2798 122.944 67.9389 124.027 68.7872C124.817 69.4395 125.306 70.394 125.715 71.3145C126.387 72.8567 126.44 74.7777 126.163 76.4029Z" fill="#E0E0E0"/>
<path d="M125.535 78.4819C125.251 79.0577 124.897 79.5958 124.48 80.0835C124.105 80.527 123.823 80.9987 123.233 80.9784C122.371 80.9489 121.975 80.4758 121.458 79.861C120.857 79.1715 120.287 78.4768 119.701 77.7846L119.503 77.5528C118.957 76.8384 118.274 76.2401 117.494 75.7928C117.131 75.6241 116.754 75.4857 116.367 75.379C115.439 75.094 114.512 74.8059 113.582 74.5833C113.093 74.4851 112.611 74.3558 112.138 74.1961C111.833 74.0775 111.54 73.927 111.266 73.7473C111.058 73.6129 110.863 73.4608 110.681 73.2928C110.474 73.1113 110.311 72.8857 110.203 72.6326C110.095 72.3795 110.045 72.1054 110.056 71.8304C110.06 71.7274 110.045 71.6237 110.042 71.5173C110.275 71.8744 110.554 72.1992 110.872 72.4835C110.995 72.5888 111.136 72.6719 111.288 72.7291C111.452 72.7781 111.622 72.8008 111.792 72.7964C112.152 72.79 112.51 72.7367 112.868 72.6958C114.151 72.5426 115.446 72.5189 116.734 72.6254C116.911 72.6162 117.088 72.642 117.255 72.7014C117.422 72.7608 117.575 72.8525 117.707 72.9713C117.923 73.2288 117.958 73.5738 118.129 73.8579C118.311 74.1518 118.537 74.4158 118.799 74.6405C119.318 75.1004 119.972 75.3786 120.663 75.4327C121.368 75.4757 122.069 75.2841 122.775 75.2802C122.826 75.2718 122.878 75.2769 122.926 75.295C122.975 75.3131 123.017 75.3436 123.05 75.3834C123.074 75.4442 123.08 75.5105 123.068 75.5747C122.984 76.4783 123.634 77.3039 124.373 77.8075C124.743 78.061 125.131 78.2864 125.535 78.4819Z" fill="#C5C5C5"/>
<path d="M116.569 65.0494C115.556 64.4238 114.677 62.9777 113.306 63.4964C113.096 63.5634 112.914 63.6964 112.786 63.8755C112.522 64.2884 112.772 64.8378 113.091 65.2113C113.776 66.0162 114.752 66.5186 115.733 66.9086C117.45 67.5555 119.097 68.3733 120.65 69.3498C121.228 69.7353 121.781 70.1857 122.443 70.4053C122.921 70.5746 123.445 70.5592 123.913 70.362C124.46 70.0995 124.327 69.4917 124.051 69.0696C123.618 68.4077 122.864 68.0442 122.144 67.7226C121.34 67.3408 120.517 66.9996 119.678 66.7002C119.053 66.4914 118.456 66.2085 117.898 65.8577L116.569 65.0494Z" fill="#C5C5C5"/>
<path d="M125.878 76.5121C125.855 76.7798 125.808 77.0449 125.738 77.3044C125.464 78.3577 124.89 79.3351 124.48 80.3556C124.456 80.414 124.442 80.4758 124.439 80.5386C124.451 80.7561 124.502 80.9696 124.589 81.1689C124.629 81.3275 124.612 81.4948 124.542 81.6424C124.326 82.0428 124.028 82.3936 123.669 82.6721C123.122 83.1389 122.533 83.554 121.91 83.912C121.467 84.1625 121.015 84.3908 120.566 84.6317C120.404 84.7405 120.21 84.7921 120.014 84.7784C119.927 84.7661 119.843 84.7331 119.77 84.6823C119.697 84.6314 119.638 84.5641 119.596 84.4858C119.596 84.4858 119.596 84.4858 119.597 84.4671C119.597 84.4484 119.575 84.4664 119.569 84.4661C119.463 84.4502 119.363 84.4092 119.276 84.3467C119.248 84.3196 119.222 84.2893 119.201 84.2566C119.153 84.1708 119.116 84.0792 119.091 83.984C119.089 83.9473 119.081 83.9111 119.067 83.8769C119.04 83.8411 119.011 83.8067 118.98 83.7739C118.924 83.7143 118.885 83.6406 118.868 83.5606C118.865 83.4477 118.889 83.3355 118.938 83.2338C118.987 83.1321 119.06 83.0438 119.151 82.9765C119.629 82.5303 120.243 82.3013 120.807 81.9987C121.347 81.7412 121.816 81.3561 122.174 80.8766L122.249 80.7729C121.763 80.5681 121.323 80.2658 120.958 79.8846C120.685 79.6104 120.469 79.2841 120.325 78.9252C120.07 78.1939 120.082 77.3961 120.358 76.6727C120.501 76.331 120.69 76.0104 120.919 75.7199C121.257 75.2716 121.68 74.8942 122.164 74.6092C122.583 74.3962 123.045 74.282 123.515 74.2753C123.985 74.2687 124.45 74.3699 124.875 74.571C125.022 74.6373 125.163 74.7175 125.295 74.8105C125.792 75.1714 125.927 75.8855 125.878 76.5121Z" fill="#ABABAB"/>
<path d="M119.558 83.3343C119.526 83.4067 119.481 83.4729 119.426 83.5298C119.504 83.4448 119.602 83.3805 119.71 83.3426C119.745 83.326 119.784 83.318 119.822 83.3194C119.861 83.3207 119.898 83.3313 119.932 83.3502C119.967 83.3892 119.988 83.4391 119.991 83.4916C119.994 83.5441 119.978 83.5959 119.947 83.6383C119.882 83.7219 119.823 83.8097 119.769 83.901C119.839 83.8461 119.917 83.8014 119.999 83.7683C120.041 83.7532 120.086 83.7479 120.13 83.7526C120.174 83.7574 120.217 83.7721 120.254 83.7958C120.309 83.8383 120.351 83.9085 120.419 83.9171C120.451 83.9161 120.482 83.9087 120.51 83.8952C121.435 83.5784 122.268 83.0379 122.934 82.3218C123.005 82.2562 123.061 82.176 123.099 82.0867C123.137 81.9974 123.155 81.901 123.152 81.8041C123.131 81.7171 123.087 81.6376 123.023 81.5751C122.959 81.5125 122.879 81.4695 122.792 81.4511C122.616 81.4147 122.434 81.4224 122.263 81.4736C121.535 81.6965 120.848 82.0349 120.228 82.4758C120.065 82.5796 119.908 82.6805 119.751 82.797C119.653 82.8556 119.579 82.9473 119.542 83.0555C119.533 83.1459 119.599 83.2294 119.558 83.3343Z" fill="#C0C0C0"/>
<path d="M122.213 74.8205C121.695 75.1205 121.264 75.5508 120.963 76.0685C120.415 76.9374 120.01 78.5363 121.059 79.1975C121.527 79.5011 122.144 79.3848 122.669 79.1996C123.344 78.9396 123.92 78.4744 124.317 77.8695C124.713 77.2645 124.91 76.5504 124.879 75.8278C124.892 75.6565 124.871 75.4843 124.816 75.3214C124.762 75.1585 124.675 75.0081 124.561 74.8792C124.358 74.6672 124.082 74.5385 123.789 74.5182C123.246 74.4664 122.699 74.5712 122.213 74.8205Z" fill="#C5C5C5"/>
<path d="M125.878 76.5122C125.855 76.7799 125.808 77.045 125.738 77.3044C125.464 78.3578 124.89 79.3352 124.48 80.3557C124.456 80.4141 124.442 80.4759 124.439 80.5387C124.451 80.7561 124.502 80.9697 124.589 81.169C124.629 81.3276 124.612 81.4949 124.542 81.6425C124.326 82.0429 124.028 82.3936 123.669 82.6721C123.122 83.1389 122.533 83.554 121.91 83.9121C121.467 84.1625 121.015 84.3908 120.566 84.6317C120.404 84.7406 120.21 84.7922 120.014 84.7785C119.927 84.7661 119.843 84.7332 119.77 84.6824C119.697 84.6315 119.638 84.5642 119.596 84.4859C120.199 84.2284 120.793 83.9394 121.373 83.6248C121.962 83.3344 122.502 82.9544 122.975 82.4983C123.322 82.1503 123.575 81.7188 123.708 81.245C123.837 80.765 123.79 80.2445 123.9 79.7513C124.13 78.784 124.898 78.0132 125.146 77.0466C125.296 76.513 125.27 75.9452 125.071 75.428C124.968 75.1433 124.897 74.8485 124.857 74.5486C125.004 74.6149 125.145 74.6951 125.277 74.788C125.792 75.1714 125.927 75.8856 125.878 76.5122Z" fill="#939393"/>
<path d="M110.491 60.1709C110.821 59.107 111.152 58.0431 111.538 56.9967C111.592 56.8272 111.663 56.6632 111.748 56.507C111.812 56.3935 111.909 56.2781 112.037 56.2825C112.081 56.2852 112.122 56.298 112.16 56.3199C112.197 56.3418 112.229 56.3722 112.252 56.4086C112.296 56.4832 112.328 56.5646 112.347 56.6494C112.671 57.7691 112.944 58.9048 113.167 60.0565C113.182 60.1965 113.228 60.3314 113.301 60.4518C113.117 60.4318 112.931 60.4714 112.772 60.5649C112.343 60.7565 111.915 60.9387 111.472 61.0954C111.31 61.1621 111.137 61.1986 110.962 61.2029C110.778 61.1966 110.436 61.1442 110.386 60.9487C110.354 60.6848 110.39 60.417 110.491 60.1709Z" fill="#E0E0E0"/>
<path d="M112.178 57.0217C112.14 56.9392 112.043 56.7577 111.947 56.7387C111.85 56.7198 111.749 56.8601 111.713 56.9777L111.27 58.4128C111.184 58.6684 111.118 58.9306 111.075 59.1969C111.062 59.4002 111.032 59.602 110.985 59.8002C110.887 60.1094 110.653 60.3795 110.563 60.7047C110.535 60.7996 110.541 60.9013 110.579 60.9928C110.713 61.2693 111.058 61.0592 111.245 60.975C111.515 60.8499 111.776 60.7088 112.034 60.5645C112.252 60.4617 112.445 60.3126 112.599 60.1275C112.71 59.9406 112.753 59.7217 112.724 59.5067C112.719 58.9585 112.641 58.4134 112.492 57.8858C112.408 57.5907 112.303 57.3019 112.178 57.0217Z" fill="#A8A8A8"/>
<path d="M117.507 63.478C117.436 63.6973 117.332 63.9045 117.199 64.0925C116.77 64.7296 116.191 65.2506 115.512 65.6091C114.833 65.9676 114.076 66.1524 113.308 66.147C112.983 66.146 112.659 66.0959 112.348 65.9984C112.113 65.9184 111.889 65.8045 111.65 65.7369C111.412 65.6693 111.094 65.6459 110.821 65.574C110.593 65.5177 110.379 65.4148 110.192 65.2717C110.006 65.1287 109.851 64.9487 109.737 64.7429C109.711 64.6925 109.687 64.6405 109.667 64.5873C109.644 64.5089 109.612 64.4334 109.572 64.3621C109.486 64.2216 109.339 64.1353 109.326 63.9598C109.307 63.7861 109.313 63.6105 109.344 63.4385C109.369 63.3475 109.409 63.2612 109.462 63.1831C109.505 63.1158 109.623 63.0448 109.648 62.9769C109.672 62.909 109.631 62.7356 109.625 62.6479C109.621 62.5281 109.625 62.4082 109.637 62.2889C109.683 61.5716 110.122 61.1678 110.736 60.8669C111.222 60.6273 111.735 60.4511 112.213 60.1893C112.279 60.135 112.351 60.0873 112.427 60.0466C112.562 60.0215 112.701 60.0199 112.837 60.0419C113.517 60.0653 114.023 60.4421 114.596 60.7681C115.464 61.2194 116.29 61.7489 117.061 62.3499C117.229 62.4729 117.369 62.6288 117.474 62.808C117.571 63.0186 117.583 63.2588 117.507 63.478Z" fill="#E0E0E0"/>
<path d="M117.507 63.4782C117.436 63.6975 117.332 63.9047 117.199 64.0927C116.77 64.7298 116.191 65.2508 115.512 65.6093C114.833 65.9678 114.076 66.1526 113.308 66.1472C112.983 66.1462 112.659 66.0961 112.348 65.9986C112.113 65.9186 111.889 65.8047 111.65 65.7371C111.412 65.6695 111.094 65.6461 110.821 65.5742C110.593 65.5179 110.379 65.415 110.192 65.2719C110.006 65.1289 109.851 64.9488 109.737 64.7431C110.161 65.0447 110.65 65.2405 111.165 65.3141C111.461 65.343 111.756 65.3093 112.052 65.3226C112.442 65.336 112.823 65.4366 113.213 65.475C113.567 65.5112 113.924 65.4972 114.274 65.4333C114.907 65.3165 115.503 65.0509 116.013 64.6584C116.276 64.4762 116.503 64.2478 116.683 63.9844C116.832 63.7426 116.929 63.4677 117.261 63.4479C117.345 63.4422 117.428 63.4525 117.507 63.4782Z" fill="#ACACAC"/>
<path d="M115.092 62.3635C115.268 62.69 115.511 62.9762 115.804 63.2037C116.138 63.4778 116.523 63.7317 116.691 64.1313C116.72 64.1917 116.752 64.2678 116.817 64.2763C116.842 64.2767 116.867 64.2718 116.89 64.2618C116.913 64.2518 116.934 64.237 116.951 64.2183C117.326 63.9107 117.669 63.5653 117.974 63.1876C118.14 62.9714 118.301 62.7425 118.447 62.5193C118.729 62.1592 118.971 61.7692 119.168 61.3563C119.328 60.9709 119.388 60.5518 119.344 60.1371C119.315 59.8372 119.234 59.5446 119.105 59.2724C119.053 59.1581 119.014 59.0192 118.904 58.9529C118.783 58.8965 118.652 58.8674 118.519 58.8678C118.262 58.8731 118.017 58.9765 117.834 59.1569C117.605 59.3584 117.388 59.5792 117.159 59.7776C116.898 59.9757 116.62 60.1503 116.329 60.2992C116.029 60.4733 115.726 60.638 115.415 60.793C115.303 60.8282 115.203 60.8942 115.127 60.9833C115.051 61.0725 115.002 61.1812 114.985 61.2971C114.88 61.6529 114.918 62.0357 115.092 62.3635Z" fill="#E0E0E0"/>
<path d="M118.98 59.831C118.688 59.2333 117.852 59.6422 117.474 59.9012C117.179 60.0991 116.917 60.341 116.696 60.6184C116.36 61.0454 116.062 61.5005 115.805 61.9788C115.718 62.154 115.566 62.4769 115.672 62.6744C115.778 62.8718 116.101 62.9235 116.257 63.032C116.432 63.1374 116.559 63.3081 116.609 63.5067C116.613 63.5695 116.623 63.6317 116.64 63.6922C116.649 63.7226 116.667 63.7495 116.691 63.7694C116.716 63.7892 116.746 63.801 116.777 63.8032C116.821 63.7966 116.861 63.776 116.892 63.7446C117.262 63.4198 117.472 62.9518 117.807 62.5914C117.956 62.4277 118.129 62.2899 118.273 62.1166C118.386 61.9739 118.484 61.8202 118.567 61.6579C118.824 61.221 118.985 60.7341 119.038 60.23C119.052 60.0942 119.032 59.957 118.98 59.831Z" fill="#A8A8A8"/>
<path d="M110.412 62.3717C110.442 62.3289 110.468 62.2861 110.501 62.2466C110.613 62.1015 110.732 61.9626 110.859 61.8306C110.921 61.7614 110.992 61.6998 111.069 61.6472C111.22 61.5528 111.399 61.5137 111.576 61.5364C111.634 61.5422 111.69 61.5618 111.739 61.5937C111.788 61.6256 111.829 61.6689 111.858 61.7198C111.887 61.7707 111.903 61.8279 111.905 61.8864C111.907 61.9449 111.895 62.0031 111.87 62.056C111.72 62.329 111.529 62.5775 111.304 62.793C111.185 62.9203 111.056 63.0392 110.92 63.1487C110.795 63.2413 110.658 63.0365 110.532 62.9978C110.435 62.9786 110.34 62.9534 110.247 62.9224C110.203 62.9083 110.167 62.8793 110.143 62.8407C110.114 62.7772 110.165 62.7476 110.198 62.7019C110.277 62.5952 110.343 62.4818 110.412 62.3717Z" fill="#A2A2A2"/>
<path d="M109.848 62.965C109.775 62.9616 109.702 62.9737 109.634 63.0004C109.565 63.0272 109.504 63.068 109.452 63.1202C109.33 63.2711 109.267 63.461 109.274 63.6549C109.269 63.7899 109.294 63.9244 109.348 64.0481C109.377 64.11 109.419 64.1645 109.471 64.2076C109.524 64.2506 109.586 64.2809 109.652 64.2961C109.737 64.3094 109.824 64.3038 109.906 64.2798C110.015 64.2522 110.121 64.214 110.223 64.1656C110.237 64.1551 110.255 64.1502 110.273 64.1517C110.288 64.1546 110.303 64.1604 110.316 64.1689C110.588 64.3626 110.694 64.7257 110.959 64.9286C111.078 65.0175 111.216 65.0769 111.363 65.1019C111.479 65.1295 111.6 65.1337 111.718 65.1141C111.837 65.0946 111.95 65.0517 112.051 64.988C112.129 64.931 112.195 64.8587 112.244 64.7754C112.293 64.6922 112.324 64.5998 112.337 64.5039C112.359 64.3104 112.308 64.1154 112.193 63.9582C112.11 63.8456 112.007 63.7489 111.89 63.6728C111.684 63.514 111.441 63.408 111.185 63.3641C110.914 63.38 110.642 63.3431 110.385 63.2554C110.185 63.1548 110.076 62.9791 109.848 62.965Z" fill="#C5C5C5"/>
<path d="M115.977 62.438C115.938 62.5742 115.896 62.7134 115.853 62.8495C115.843 62.8734 115.837 62.8992 115.836 62.9254C115.835 62.9517 115.839 62.9779 115.848 63.0025C115.895 63.0822 116.015 63.052 116.098 63.011C116.181 62.9701 116.297 62.9397 116.348 63.0196C116.347 63.0383 116.365 63.0608 116.377 63.0831C116.399 63.1262 116.428 63.1652 116.464 63.1986C116.576 63.322 116.637 63.4843 116.632 63.6514C116.629 63.7544 116.624 63.8887 116.71 63.9323C116.796 63.9758 116.906 63.8702 116.969 63.7817C117.049 63.6722 117.139 63.5707 117.238 63.4784C117.394 63.3647 117.524 63.2202 117.622 63.054C117.661 62.9582 117.671 62.8532 117.652 62.7517C117.633 62.6501 117.585 62.5563 117.513 62.4814C117.451 62.4338 117.4 62.3734 117.363 62.3043C117.315 62.1713 117.428 62.044 117.52 61.9377C117.61 61.8496 117.672 61.7362 117.696 61.6124C117.71 61.5502 117.702 61.4851 117.675 61.4276C117.647 61.3701 117.602 61.3233 117.545 61.2947C117.414 61.2686 117.279 61.2848 117.159 61.3408C116.973 61.3876 116.831 61.3295 116.831 61.1295C116.834 61.0421 116.895 61.0223 116.798 61.0096C116.702 60.9969 116.629 61.1007 116.591 61.1369C116.251 61.4659 116.111 61.9987 115.977 62.438Z" fill="#C5C5C5"/>
<path d="M112.686 62.4251C112.858 62.3144 113.062 62.2632 113.266 62.2793C113.348 62.2905 113.428 62.3111 113.505 62.3407C113.759 62.4312 114.001 62.5518 114.227 62.6999C114.086 62.7662 113.941 62.8249 113.793 62.8757C113.462 62.9915 113.101 62.9902 112.771 62.8718C112.687 62.8409 112.598 62.8159 112.514 62.7818C112.478 62.7649 112.412 62.747 112.398 62.7028C112.364 62.5985 112.616 62.4664 112.686 62.4251Z" fill="#554842"/>
<path d="M112.998 62.892C113.273 62.9432 113.556 62.9139 113.814 62.8074C113.865 62.7811 113.919 62.736 113.903 62.6823C113.886 62.6286 113.864 62.6341 113.839 62.6145L113.733 62.5358C113.617 62.4409 113.477 62.3799 113.329 62.3593C113.181 62.3388 113.03 62.3596 112.893 62.4195C112.797 62.4725 112.661 62.6147 112.707 62.7257C112.738 62.7758 112.78 62.8173 112.831 62.8464C112.882 62.8755 112.94 62.8911 112.998 62.892Z" fill="#009C9D"/>
<path d="M113.06 62.7375C113.052 62.7819 113.057 62.8277 113.074 62.8693C113.101 62.9046 113.139 62.8934 113.168 62.8725C113.199 62.8432 113.227 62.8106 113.252 62.7754C113.299 62.6967 113.329 62.6096 113.342 62.5191C113.351 62.4784 113.345 62.4359 113.325 62.3997C113.194 62.192 113.065 62.669 113.06 62.7375Z" fill="#554842"/>
<path d="M110.184 61.461C110.168 61.5222 110.165 61.586 110.174 61.6485C110.183 61.7111 110.205 61.7712 110.237 61.8254C110.279 61.8824 110.334 61.9291 110.397 61.9616C110.459 61.9941 110.529 62.0117 110.6 62.0129C110.614 62.0166 110.629 62.0171 110.643 62.0144C110.654 62.0076 110.663 61.9983 110.669 61.9871C110.732 61.9171 110.776 61.8324 110.798 61.7407C110.819 61.649 110.816 61.5535 110.791 61.463C110.749 61.3719 110.679 61.2962 110.592 61.2468C110.537 61.2136 110.38 61.1208 110.317 61.1561C110.253 61.1914 110.202 61.3897 110.184 61.461Z" fill="#554842"/>
<path d="M110.319 61.4372C110.288 61.5013 110.269 61.5705 110.262 61.6415C110.255 61.6796 110.253 61.7186 110.258 61.7571C110.269 61.7918 110.285 61.825 110.305 61.8556C110.34 61.9172 110.396 61.9637 110.463 61.986C110.496 61.9916 110.531 61.9875 110.561 61.9741C110.592 61.9608 110.619 61.9388 110.638 61.9107C110.69 61.8573 110.729 61.7919 110.75 61.7202C110.772 61.6485 110.775 61.5727 110.761 61.4993C110.75 61.4413 110.722 61.3878 110.682 61.345C110.641 61.3021 110.589 61.2716 110.532 61.257C110.429 61.2378 110.366 61.3513 110.319 61.4372Z" fill="#009C9D"/>
<path d="M110.74 61.4832C110.744 61.4637 110.744 61.4437 110.742 61.4239C110.742 61.4083 110.744 61.3771 110.709 61.3759C110.67 61.38 110.633 61.3924 110.599 61.4123C110.566 61.4322 110.537 61.4591 110.515 61.4911C110.513 61.4994 110.513 61.5078 110.514 61.5161C110.49 61.5532 110.473 61.5937 110.463 61.6362C110.459 61.6537 110.458 61.6717 110.461 61.6893C110.461 61.6893 110.461 61.6893 110.48 61.69L110.508 61.6909C110.546 61.6917 110.583 61.684 110.618 61.6684C110.652 61.6528 110.683 61.6298 110.708 61.6009C110.728 61.5648 110.739 61.5245 110.74 61.4832Z" fill="#554842"/>
<path d="M110.323 63.9881L110.351 63.714C110.358 63.6665 110.36 63.6183 110.356 63.5704L110.356 63.5548C110.356 63.5548 110.356 63.5548 110.34 63.5761C110.316 63.6534 110.297 63.7321 110.282 63.8117C110.28 63.8554 110.263 63.9016 110.249 63.9418C110.231 64.0005 110.202 64.0555 110.165 64.1046C110.114 64.1533 110.053 64.1906 109.987 64.2141C109.853 64.2533 109.73 64.3217 109.626 64.4143C109.726 64.4014 109.822 64.3674 109.908 64.3146C110.004 64.269 110.104 64.2316 110.206 64.2029C110.232 64.199 110.258 64.1999 110.284 64.2056C110.339 64.2166 110.389 64.2485 110.421 64.2947C110.514 64.3938 110.597 64.5013 110.67 64.6158C110.725 64.709 110.785 64.7987 110.851 64.8846C110.917 64.9706 111.008 65.0348 111.111 65.0685C111.085 65.0187 111.054 64.9715 111.019 64.9278C110.822 64.6611 110.609 64.4064 110.382 64.1652C110.36 64.1448 110.342 64.1196 110.331 64.0915C110.329 64.0707 110.33 64.0497 110.334 64.0291L110.323 63.9881Z" fill="#554842"/>
<path d="M110.126 62.9839C110.149 63.041 110.204 63.0835 110.22 63.1434C110.251 63.2508 110.147 63.3597 110.165 63.4698C110.172 63.4999 110.184 63.5288 110.2 63.5553C110.234 63.6094 110.274 63.659 110.32 63.7032C110.398 63.6481 110.459 63.5723 110.496 63.4842C110.503 63.4245 110.524 63.3673 110.558 63.3176C110.633 63.2389 110.784 63.2941 110.874 63.219C110.897 63.1885 110.908 63.1508 110.905 63.1129C110.902 63.075 110.886 63.0393 110.859 63.0122C110.8 62.9616 110.727 62.9306 110.65 62.9238C110.574 62.9191 110.499 62.905 110.426 62.8817C110.361 62.8545 110.265 62.7449 110.199 62.7707C110.132 62.7966 110.1 62.9236 110.126 62.9839Z" fill="#554842"/>
<path d="M113.42 64.3661C113.219 64.3874 113.014 64.3335 112.814 64.3453C112.714 64.3387 112.615 64.3638 112.531 64.4171C112.446 64.4704 112.381 64.549 112.344 64.6418C112.341 64.6928 112.33 64.7431 112.311 64.7907C112.293 64.8201 112.27 64.8459 112.243 64.8665C112.1 65.0025 111.992 65.1716 111.929 65.3589C111.913 65.4074 111.911 65.4594 111.924 65.5088C111.929 65.5341 111.941 65.5571 111.961 65.5742C111.98 65.5913 112.004 65.6014 112.03 65.6031C112.052 65.5993 112.073 65.5898 112.09 65.5756C112.108 65.5615 112.121 65.543 112.13 65.5221C112.145 65.4808 112.158 65.4384 112.168 65.3953C112.204 65.3123 112.259 65.2389 112.328 65.181C112.397 65.1231 112.479 65.0823 112.567 65.062C112.715 65.0443 112.853 64.98 112.961 64.8786C112.981 64.8481 112.998 64.8143 113.021 64.7838C113.081 64.7173 113.166 64.6775 113.256 64.6731C113.344 64.6605 113.434 64.6792 113.522 64.6603C113.649 64.6417 113.771 64.5978 113.881 64.5313C113.99 64.4647 114.085 64.3768 114.161 64.2728C114.226 64.1906 114.62 63.3509 114.4 63.3964C114.309 63.4121 114.238 63.6659 114.204 63.7367C114.132 63.8827 114.033 64.014 113.912 64.1236C113.778 64.2546 113.605 64.3395 113.42 64.3661Z" fill="#C5C5C5"/>
<path d="M113.188 65.2928C113.31 65.2165 113.456 65.1892 113.597 65.2162C113.713 65.2511 113.828 65.2926 113.939 65.3405C114.175 65.4135 114.427 65.4079 114.659 65.3246C114.888 65.2417 115.103 65.1236 115.296 64.9745C115.322 64.9535 115.352 64.9395 115.385 64.9338C115.419 64.935 115.456 64.9581 115.452 64.9923C115.454 65.0037 115.454 65.0155 115.451 65.0267C115.273 65.2482 115.027 65.4037 114.751 65.4684C114.476 65.5283 114.195 65.5492 113.914 65.5303C113.799 65.5216 113.683 65.5271 113.57 65.5466C113.434 65.5795 113.316 65.6536 113.183 65.699C113.029 65.7437 112.869 65.7635 112.709 65.7578C112.587 65.7536 112.397 65.7471 112.307 65.6314C112.217 65.5158 112.385 65.4622 112.48 65.503C112.576 65.5438 112.652 65.6151 112.79 65.5761C112.929 65.5371 113.044 65.3817 113.188 65.2928Z" fill="#A2A2A2"/>
<path d="M112.502 61.5149C112.624 61.4035 112.795 61.3406 112.893 61.2158C112.939 61.1405 112.979 61.0613 113.011 60.9791C113.078 60.8376 113.182 60.7163 113.311 60.6275C113.44 60.5386 113.591 60.4854 113.747 60.4731C113.522 60.5294 113.328 60.6706 113.205 60.867C113.178 60.9255 113.167 60.9876 113.143 61.0462C113.034 61.3113 112.742 61.4294 112.56 61.6357C112.518 61.6874 112.422 61.9123 112.389 61.8955C112.238 61.8216 112.459 61.5635 112.502 61.5149Z" fill="#C5C5C5"/>
<path d="M113.648 60.7042C113.571 60.7703 113.47 60.8012 113.454 60.9163C113.437 61.0314 113.528 61.1158 113.575 61.1987C113.646 61.3472 113.698 61.5046 113.728 61.6665C113.787 61.8624 113.905 62.0665 114.104 62.1045C114.119 62.1051 114.135 62.1056 114.144 62.1059C114.153 62.1001 114.16 62.0916 114.164 62.0816C114.175 62.035 114.176 61.9866 114.167 61.9395C114.159 61.8924 114.141 61.8476 114.114 61.8079C113.996 61.6063 113.899 61.3936 113.823 61.1728C113.785 61.06 113.774 60.9399 113.791 60.8221C113.808 60.7043 113.853 60.5922 113.921 60.4948C113.79 60.484 113.742 60.6262 113.648 60.7042Z" fill="#C5C5C5"/>
<path d="M112.357 60.9164C112.427 60.8356 112.512 60.7685 112.607 60.7187L113.028 60.4644C113.07 60.4408 113.115 60.3955 113.092 60.3571C113.02 60.3544 112.95 60.3763 112.892 60.4191C112.723 60.5227 112.573 60.6331 112.397 60.7459C112.224 60.8471 112.064 60.9698 111.922 61.1109C111.827 61.2327 111.916 61.2889 112.033 61.2491C112.15 61.2094 112.258 61.0443 112.357 60.9164Z" fill="#C5C5C5"/>
<path d="M114.78 63.4374C114.748 63.5613 114.684 63.6748 114.646 63.7985C114.578 64.1073 114.577 64.4273 114.645 64.7362C114.642 64.8236 114.638 64.9454 114.559 64.9677C114.48 64.99 114.405 64.8843 114.38 64.7959C114.331 64.6453 114.314 64.486 114.331 64.3285C114.366 64.1571 114.413 63.9884 114.473 63.8238C114.532 63.6027 114.54 63.371 114.496 63.1464C114.481 63.0847 114.474 63.0215 114.474 62.9581C114.48 62.7989 114.66 62.7425 114.74 62.8859C114.82 63.0586 114.834 63.2548 114.78 63.4374Z" fill="#C5C5C5"/>
<g style="mix-blend-mode:screen">
<path d="M113.284 62.4861C113.264 62.5013 113.251 62.5239 113.247 62.5488C113.243 62.5738 113.249 62.5993 113.264 62.6198C113.274 62.6383 113.29 62.6531 113.309 62.662C113.332 62.6736 113.357 62.6801 113.382 62.681C113.408 62.6819 113.433 62.6771 113.456 62.667C113.479 62.6554 113.498 62.6379 113.511 62.6163C113.524 62.5948 113.532 62.57 113.532 62.5446C113.529 62.5264 113.523 62.5089 113.512 62.4935C113.502 62.4781 113.489 62.4651 113.473 62.4553C113.457 62.4456 113.44 62.4394 113.421 62.4371C113.403 62.4348 113.385 62.4365 113.367 62.4421C113.336 62.4496 113.308 62.4648 113.284 62.4861Z" fill="#CCCCCC"/>
</g>
<g style="mix-blend-mode:screen">
<path d="M110.586 61.4903C110.57 61.5027 110.559 61.5207 110.555 61.5409C110.552 61.5611 110.556 61.5818 110.567 61.5991C110.578 61.6123 110.592 61.6233 110.607 61.6317C110.624 61.6407 110.644 61.6457 110.664 61.6464C110.684 61.6471 110.704 61.6434 110.722 61.6356C110.74 61.6264 110.755 61.6124 110.766 61.5951C110.776 61.5778 110.782 61.5579 110.782 61.5377C110.78 61.5232 110.774 61.5093 110.766 61.4971C110.758 61.4849 110.747 61.4746 110.735 61.467C110.722 61.4594 110.708 61.4547 110.693 61.4531C110.679 61.4516 110.664 61.4533 110.65 61.4581C110.627 61.4637 110.605 61.4747 110.586 61.4903Z" fill="#CCCCCC"/>
</g>
<path d="M105.094 68.163C105.221 68.2388 105.358 68.2959 105.501 68.3324C105.76 68.4464 105.989 68.6198 106.168 68.8386C106.228 68.9041 106.285 68.9767 106.343 69.0457C106.607 69.372 106.858 69.7118 107.095 70.06C107.153 70.1438 107.209 70.2286 107.264 70.3134C107.415 70.5502 107.554 70.777 107.69 71.0134C107.783 71.175 107.874 71.3376 107.961 71.4986C108.022 71.6136 108.085 71.7276 108.149 71.8417L108.312 72.1353L108.432 72.3368C108.443 72.3651 108.468 72.3911 108.483 72.4174C108.499 72.4437 108.506 72.4765 108.535 72.5006L108.621 72.6355C108.631 72.6612 108.641 72.6869 108.671 72.7049L108.73 72.7913C108.761 72.8353 108.793 72.8793 108.827 72.9223C108.86 72.9654 108.892 73.0094 108.925 73.0498C108.957 73.0903 109.006 73.1484 109.048 73.1972C109.156 73.3217 109.271 73.44 109.393 73.5516C109.477 73.644 109.59 73.7049 109.713 73.7244C109.788 73.7226 109.863 73.7095 109.934 73.6854C110.375 73.5827 110.826 73.5238 111.28 73.5096C111.965 73.4433 112.643 73.3239 113.309 73.1525C113.757 73.0395 114.199 72.911 114.636 72.7758L114.893 72.6788C115.255 72.5656 115.615 72.4447 115.972 72.3247C116.086 72.299 116.19 72.2385 116.268 72.1515C116.308 72.0864 116.333 72.0128 116.34 71.9365C116.397 71.4877 116.327 71.0317 116.137 70.6209C116.07 70.4671 115.989 70.3198 115.895 70.1808L115.839 70.1021C115.742 69.972 115.636 69.8491 115.521 69.7344C115.386 69.5957 115.239 69.4682 115.084 69.3532C114.895 69.2165 114.695 69.0954 114.486 68.9911C114.42 68.9584 114.352 68.9291 114.283 68.9034C114.196 68.8704 114.105 68.8522 114.013 68.8495C113.908 68.8448 113.803 68.8613 113.705 68.898C113.561 68.9553 113.422 69.0253 113.291 69.1072L112.025 69.8781L111.953 69.9052L111.62 70.1042L111.535 70.1362L111.478 70.1576C111.245 70.3177 110.966 70.3981 110.684 70.3867C110.445 70.3433 110.225 70.2288 110.052 70.0582C109.97 69.9892 109.892 69.9157 109.816 69.8534C109.74 69.7912 109.62 69.6837 109.518 69.6015C109.417 69.5194 109.262 69.4045 109.111 69.3C108.96 69.1954 108.855 69.103 108.73 69.0209C108.408 68.7899 108.087 68.5615 107.783 68.3089C107.715 68.2525 107.648 68.1924 107.582 68.135C107.517 68.0775 107.429 67.9931 107.357 67.9264C107.161 67.7328 106.983 67.5217 106.825 67.2957C106.725 67.1533 106.638 67.0025 106.564 66.845C106.474 66.658 106.405 66.4615 106.358 66.2591C106.345 66.2256 106.33 66.1845 106.33 66.1375C106.29 65.908 106.181 65.696 106.018 65.5296C105.889 65.4347 105.772 65.5462 105.653 65.4325C105.498 65.2855 105.457 64.9662 105.24 64.9772C105.009 64.9323 104.996 65.0693 104.875 65.1149C104.845 65.0791 104.808 65.0498 104.766 65.0288C104.724 65.0078 104.678 64.9955 104.631 64.9926C104.584 64.9897 104.537 64.9963 104.493 65.012C104.449 65.0277 104.408 65.0522 104.373 65.084C104.21 65.219 104.269 65.235 104.19 65.432C103.965 65.4111 103.881 65.7483 103.878 65.8024C103.885 65.9024 103.914 65.9996 103.962 66.0878C104.233 66.652 104.554 67.2065 104.824 67.7743C104.881 67.9238 104.974 68.0572 105.094 68.163Z" fill="#E0E0E0"/>
<path d="M85.7952 56.6878C84.2635 56.6349 82.7346 56.8566 81.281 57.3424C80.1632 57.8479 79.2795 58.7597 78.8095 59.8929C78.2226 61.2585 78.8095 62.7482 79.1368 64.1024C79.4712 65.6031 79.8894 67.0838 80.3895 68.5377C80.5362 67.8831 80.6603 67.2285 80.8635 66.5965C81.0259 65.9644 81.154 65.324 81.2472 64.678C81.5798 63.3472 81.9867 62.036 82.466 60.7506C82.7533 59.8383 83.1838 58.9773 83.7413 58.2001C83.9238 57.8791 84.1741 57.6018 84.4748 57.3875C84.8655 57.071 85.3139 56.8334 85.7952 56.6878Z" fill="#0AA2A0"/>
<path d="M69.0475 130.631C67.2705 131.384 65.6278 132.421 64.1835 133.701L60.9332 136.488C60.2947 137.005 59.7054 137.579 59.1727 138.204C58.6272 138.842 58.2818 139.627 58.1795 140.461C58.1313 140.849 58.2022 141.242 58.3827 141.589C58.5836 141.865 58.8444 142.091 59.1454 142.251C59.4464 142.412 59.7799 142.502 60.1206 142.515C61.2392 142.667 62.3779 142.498 63.4047 142.029C65.4023 141.115 66.7904 139.14 68.8895 138.452C70.1535 138.023 71.6545 138.079 72.6589 137.188C73.0298 136.819 73.3057 136.365 73.4629 135.866C73.6202 135.366 73.6541 134.837 73.5617 134.321C73.3575 133.299 72.9126 132.339 72.2639 131.523C72.1221 131.242 71.9233 130.995 71.6803 130.795C71.4373 130.596 71.1554 130.45 70.8527 130.366C70.5499 130.282 70.233 130.262 69.9222 130.308C69.6113 130.354 69.3134 130.464 69.0475 130.631Z" fill="#414141"/>
<path d="M62.5583 141.465C62.1045 141.959 61.8164 142.583 61.7344 143.248C61.7123 143.696 61.8526 144.137 62.1294 144.49C62.6059 145.011 63.2333 145.37 63.9238 145.517C64.6131 145.665 65.321 145.707 66.023 145.641C66.8339 145.594 67.6349 145.439 68.4042 145.178C69.1 144.91 69.7658 144.57 70.3905 144.162C70.8964 143.88 71.3537 143.518 71.7447 143.09C72.1623 142.616 72.3542 141.962 72.7266 141.477C73.0374 141.04 73.4188 140.659 73.8551 140.348C74.9043 139.713 75.904 139 76.8458 138.215C77.3583 137.718 77.76 137.118 78.0245 136.455C78.289 135.792 78.4104 135.08 78.3806 134.367C78.3271 133.664 78.0987 132.987 77.7163 132.395C77.3339 131.804 76.8096 131.318 76.1912 130.981C75.862 130.891 75.512 130.915 75.1981 131.049C74.8388 131.18 74.5004 131.362 74.1937 131.59C73.7397 131.898 73.2557 132.159 72.7491 132.369C72.4282 132.516 72.0725 132.571 71.7222 132.527C71.5499 132.502 71.3912 132.419 71.2723 132.292C71.1533 132.165 71.0811 132.001 71.0676 131.827C70.1311 133.194 69.1254 134.513 68.0544 135.777C66.9258 137.041 65.7972 138.159 64.601 139.321C63.8756 139.992 63.1934 140.708 62.5583 141.465Z" fill="#545454"/>
<path d="M70.5936 128.137C70.1498 126.941 69.8836 125.686 69.8036 124.413C69.2506 118.77 69.8036 112.913 68.3704 107.372C68.3723 107.338 68.3723 107.304 68.3704 107.27C68.6105 106.831 68.886 106.412 69.1942 106.017C69.5215 105.589 69.8939 105.194 70.1986 104.753C70.5201 104.321 70.7189 103.811 70.7742 103.275C70.7928 102.753 70.6844 102.234 70.4582 101.763C70.1372 100.837 69.4696 100.073 68.5961 99.6298C68.1297 99.459 67.637 99.3712 67.1402 99.3703C66.2872 99.3273 65.4346 99.4638 64.6375 99.7709C63.8405 100.078 63.1168 100.549 62.5132 101.153C61.6178 101.996 60.8768 102.989 60.3238 104.088C60.3177 104.117 60.3177 104.148 60.3238 104.178C59.2742 106.435 59.7256 109.2 60.5946 111.412C61.6216 114.03 62.4229 116.716 63.3709 119.312L65.5264 125.338C65.8988 126.377 66.3503 127.426 66.655 128.498C66.9207 129.303 66.9636 130.165 66.7791 130.992C66.5523 131.752 66.1677 132.456 65.6505 133.058C64.9307 133.797 64.2668 134.59 63.6643 135.428C63.4724 135.732 63.337 136.218 63.6643 136.409C63.775 136.469 63.9001 136.496 64.0254 136.488C64.9888 136.431 65.9145 136.094 66.6888 135.518C67.9201 134.665 69.0926 133.729 70.1986 132.719C70.7759 132.304 71.216 131.727 71.4626 131.06C71.5028 130.017 71.1973 128.989 70.5936 128.137Z" fill="#FFCB9D"/>
<path d="M86.6191 106.232C85.9871 106.164 85.6034 105.611 85.2084 105.171C84.7128 104.631 84.3292 103.998 84.0799 103.309C83.9186 102.65 83.6227 102.031 83.2109 101.492C82.7694 100.955 82.1475 100.598 81.4616 100.487C81.0876 100.386 80.7382 100.209 80.4346 99.9682C80.3656 99.8955 80.2742 99.8479 80.1751 99.8328C80.0922 99.8269 80.0095 99.8466 79.9381 99.8892L74.0357 102.53C72.2865 103.32 70.3228 103.873 69.0362 105.351C68.261 106.253 67.7083 107.324 67.4224 108.478C67.2071 109.692 67.3002 110.942 67.6933 112.111C68.3478 114.933 69.0588 117.735 69.8262 120.519C70.6605 123.133 71.1016 125.856 71.1354 128.6C71.062 130.521 70.573 132.404 69.7021 134.118C68.7486 135.83 67.7012 137.488 66.5647 139.084C66.418 139.332 66.0456 139.919 66.3616 140.213C66.4791 140.287 66.6185 140.319 66.7566 140.303C67.4229 140.231 68.074 140.056 68.6864 139.784C70.5646 139.035 72.3798 138.136 74.1147 137.098C75.5029 136.274 76.97 135.145 77.1393 133.531C77.1388 132.695 77.0365 131.861 76.8346 131.049C76.7315 129.423 76.8955 127.791 77.3198 126.218C78.3097 122.024 78.1616 117.641 76.891 113.522C76.891 113.387 76.7894 113.251 76.733 113.116C77.2747 112.868 77.8615 112.597 78.3355 112.337L81.5406 110.814C82.6692 110.261 83.8542 109.685 84.994 109.121C86.4029 108.446 87.6975 107.555 88.8311 106.48C88.1064 106.309 87.3637 106.226 86.6191 106.232Z" fill="#FFD8B5"/>
<path d="M76.7894 87.069C75.0559 89.5404 73.0072 91.7751 70.6952 93.7162C68.8556 95.409 66.971 97.1019 65.0524 98.727L64.2511 99.4267C64.1119 99.5344 63.9799 99.6513 63.8562 99.7765C63.5402 100.115 64.3189 99.912 64.443 99.8894C64.8183 99.8529 65.1963 99.8529 65.5716 99.8894C66.3742 99.9625 67.1478 100.226 67.8287 100.657C68.4689 101.069 69.0118 101.616 69.4199 102.259C69.7021 102.711 69.8826 103.963 70.2551 104.223C70.6275 104.483 72.151 103.986 72.6589 103.93C73.5463 103.82 74.4466 103.881 75.311 104.11C76.1027 104.358 76.8329 104.771 77.4535 105.321C78.074 105.872 78.5708 106.547 78.9111 107.304C79.2923 108.123 79.5108 109.009 79.5544 109.911C79.5939 110.362 79.5939 110.815 79.5544 111.265C79.5544 111.423 79.3738 111.751 79.4641 111.897C79.5544 112.044 80.1186 111.954 80.2992 111.897C81.1343 111.593 81.9243 111.209 82.7256 110.87C84.772 110.013 86.8072 109.144 88.8311 108.263C92.1378 106.841 95.6024 105.521 98.7737 103.873C99.5579 103.502 100.24 102.945 100.761 102.251C101.282 101.557 101.626 100.746 101.764 99.8894C102.276 96.5334 101.81 93.1011 100.421 90.0033C99.043 86.9197 97.3042 84.0103 95.2413 81.3359C93.6871 82.5804 91.8929 83.4909 89.9709 84.0106C88.0309 84.5217 85.9692 84.2756 84.204 83.3222C83.4686 82.7538 82.6648 82.2799 81.8115 81.9115C80.9443 81.7662 80.1372 81.3744 79.4866 80.783C78.8965 82.7741 78.0944 84.6961 77.0941 86.516C77.0377 86.674 76.9135 86.8771 76.7894 87.069Z" fill="#99D9D8"/>
<path d="M84.8586 44.906C84.6462 45.4685 84.3657 46.0029 84.0235 46.4973C83.6763 46.9014 83.299 47.2787 82.8949 47.6259C82.3492 48.1035 81.9059 48.6868 81.5917 49.3404C81.2775 49.9941 81.0989 50.7046 81.0667 51.4291C81.0667 52.5576 81.6535 53.6185 81.71 54.7358C81.71 55.6273 81.4842 56.4963 81.4504 57.3878C81.3998 57.8329 81.4795 58.2832 81.6798 58.6838C81.8802 59.0845 82.1925 59.4184 82.5789 59.645C82.8177 59.7422 83.0761 59.7816 83.333 59.7601C83.5899 59.7385 83.8381 59.6565 84.0574 59.5208C84.3103 59.3587 84.5196 59.1372 84.6672 58.8756C84.8147 58.6139 84.896 58.3201 84.9038 58.0198C85.0279 57.2186 85.2762 56.4624 85.3439 55.6499C85.3107 54.0936 85.5475 52.5434 86.0436 51.068C86.7772 49.4541 88.3007 48.3594 89.3503 46.9374C89.8176 46.3429 90.128 45.6405 90.2531 44.8948C90.264 44.3719 90.164 43.8526 89.9597 43.3712C89.9597 43.2358 89.6098 41.8589 89.7678 41.8477C87.9057 42.0169 85.6035 43.1455 84.8586 44.906Z" fill="#414141"/>
<path d="M81.1682 57.6476C79.4866 58.5053 78.9111 60.6608 78.9111 62.5568C78.9111 64.4527 79.2496 66.4164 78.5612 68.1995C78.1888 69.1249 77.5568 69.9375 77.2634 70.8968C76.6765 72.8492 77.6471 74.8919 77.9405 76.912C78.1098 78.0405 78.6515 82.6337 78.8321 83.8187C78.9498 84.7077 79.3447 85.537 79.9606 86.1887C81.2752 87.6678 83.0776 88.625 85.0391 88.8859C87.7541 89.1425 90.4873 88.6467 92.939 87.4527C94.1597 87.012 95.2448 86.2614 96.0877 85.2746C96.8411 84.0391 97.3399 82.6654 97.5548 81.2343C98.3787 78.018 99.1009 74.779 99.8119 71.5401C100.038 70.5018 100.252 69.4522 100.478 68.414C100.584 68.1075 100.628 67.7828 100.607 67.459C100.585 67.1353 100.499 66.8192 100.354 66.5293C98.3814 63.2599 95.8352 60.3734 92.8374 58.0087C91.0318 56.5754 88.9439 55.4807 86.5853 56.203C85.8855 56.4287 85.2536 56.8011 84.52 56.9704C83.3809 57.0702 82.2566 57.2973 81.1682 57.6476Z" fill="#B6EBEA"/>
<path d="M85.4906 79.6091C86.0284 79.9285 86.622 80.143 87.2399 80.2411C88.001 80.3601 88.7792 80.3051 89.5161 80.0803C90.253 79.8556 90.9294 79.4668 91.4945 78.9432C91.0974 79.7685 90.4413 80.4412 89.6263 80.8589C88.8113 81.2766 87.8821 81.4163 86.9803 81.2568C85.8976 81.0869 84.9101 80.5391 84.1927 79.7107C83.6213 78.963 83.2977 78.0555 83.2673 77.115C83.7656 78.1346 84.5347 78.9974 85.4906 79.6091Z" fill="#99D9D8"/>
<path d="M79.0126 75.1625L79.1706 75.3205C79.1706 75.3205 79.1706 75.3205 79.1706 75.3769C79.0565 75.7741 78.9883 76.183 78.9675 76.5957C78.8433 76.449 78.7644 76.3023 78.6402 76.1782C78.4972 76.0502 78.365 75.9105 78.2452 75.7606C78.036 75.4679 77.8582 75.1539 77.7148 74.8239C77.4276 74.1652 77.2778 73.4547 77.2747 72.7361C77.3948 73.1975 77.5974 73.6334 77.8728 74.0226C78.076 74.273 78.2946 74.5105 78.5274 74.7336L79.0126 75.1625Z" fill="#99D9D8"/>
<path d="M109.19 72.8602L109.055 72.7586C108.196 72.0122 107.164 71.4924 106.053 71.2463C106.297 71.483 106.458 71.7926 106.511 72.1284C106.563 72.4643 106.506 72.8082 106.346 73.1085C106.143 73.5147 105.917 73.8985 105.68 74.237C105.463 74.5956 105.175 74.9065 104.834 75.1511C104.247 75.5687 103.48 75.6928 102.904 76.133C102.837 76.133 102.758 76.2458 102.746 76.3248C102.724 76.3868 102.724 76.4547 102.746 76.5167C102.919 76.9309 103.219 77.2789 103.604 77.5098L105.049 78.6384C105.692 79.1575 106.346 79.6767 106.956 80.2296C107.409 80.6894 107.891 81.1192 108.4 81.5162C109.314 82.0978 110.365 82.4286 111.447 82.4755C112.528 82.513 113.608 82.3913 114.653 82.1143C114.807 82.1097 114.958 82.071 115.096 82.0011C115.233 81.9313 115.354 81.8319 115.449 81.7101C115.544 81.5883 115.61 81.4471 115.644 81.2966C115.679 81.146 115.679 80.9898 115.646 80.8391C115.607 79.5327 115.117 78.2802 114.258 77.2954C113.82 76.7999 113.345 76.3395 112.836 75.9186C111.639 74.8803 110.443 73.8307 109.19 72.8602Z" fill="#FFD8B5"/>
<path d="M114.562 80.23C113.467 80.0072 112.359 79.8527 111.244 79.7673C110.519 79.6384 109.803 79.465 109.1 79.2482C108.796 79.2059 108.504 79.1023 108.242 78.9435C108.175 78.8871 107.802 78.3228 107.971 78.2664C105.098 79.0957 102.135 79.5769 99.1461 79.6996C98.4108 79.7353 97.7132 80.036 97.1824 80.546C96.3751 81.4767 95.6748 82.495 95.0945 83.5819C94.6544 84.2364 94.1804 84.8684 93.7064 85.5004C93.322 86.0236 92.8995 86.5177 92.4425 86.9788C91.9335 87.4201 91.4511 87.8911 90.9979 88.3895C90.8061 88.6491 90.411 89.1456 90.5465 89.5181C90.7948 90.1839 91.675 89.6422 91.9797 89.3601C92.9485 88.512 93.8192 87.5581 94.5754 86.5161C94.6576 86.383 94.7696 86.2709 94.9027 86.1888C95.1675 86.085 95.4618 86.085 95.7266 86.1888C96.0647 86.2561 96.4087 86.2901 96.7535 86.2904C97.0267 86.3136 97.3015 86.2711 97.5548 86.1662C97.6816 86.1077 97.7844 86.0073 97.846 85.882C97.9076 85.7567 97.9244 85.614 97.8934 85.4778C97.8144 85.2747 97.5774 85.128 97.5661 84.9023C97.5548 84.6766 97.7579 84.4847 97.8708 84.3041C97.9045 84.2612 97.9277 84.2109 97.9385 84.1574C97.94 84.1311 97.94 84.1047 97.9385 84.0784C97.9385 83.9994 98.0514 84.0784 98.1078 84.0784H98.3786H98.9204C100.782 84.0784 102.645 84.2026 104.563 84.1461C106.353 84.0472 108.136 83.8399 109.901 83.5254C110.702 83.4013 111.504 83.311 112.294 83.153C113.341 83.0189 114.334 82.61 115.172 81.968C115.454 81.7197 115.804 81.3248 115.612 80.941C115.367 80.5771 114.991 80.3222 114.562 80.23Z" fill="#FFD8B5"/>
<path d="M94.598 71.7884C94.5282 72.2738 94.5735 72.7689 94.7303 73.2335C94.8872 73.6981 95.1511 74.1194 95.5008 74.4631C96.257 75.0274 97.3178 74.9033 98.2207 75.208C98.8176 75.4604 99.3701 75.8072 99.8571 76.235L101.764 77.7585C101.876 77.8697 102.017 77.9478 102.171 77.9842C102.297 78.0121 102.428 78.0121 102.554 77.9842C104.665 77.4086 106.019 75.6481 107.238 73.9553C107.567 73.4901 107.801 72.9647 107.926 72.4091C108.141 71.653 107.588 71.4612 107.023 71.1113C106.459 70.7615 105.816 70.389 105.206 69.9827C103.66 69.0686 102.419 67.7256 100.895 66.8115C100.389 66.4665 99.8149 66.2345 99.2112 66.1313C98.6075 66.0281 97.9887 66.0561 97.3968 66.2134C95.1284 66.9808 94.6657 69.7232 94.598 71.7884Z" fill="#99D9D8"/>
<path d="M82.9626 59.6678C82.9573 59.6553 82.9546 59.6419 82.9546 59.6283C82.9546 59.6147 82.9573 59.6013 82.9626 59.5888C82.9626 59.5888 82.9626 59.4872 83.0754 59.4647C84.5249 58.523 85.7655 57.2938 86.7207 55.8533C85.9535 58.3122 85.4577 60.8478 85.2423 63.4146C85.1746 64.1482 85.152 64.8704 85.1181 65.604C84.9386 64.6457 84.6626 63.7079 84.2943 62.8052C83.9258 61.7289 83.4808 60.6805 82.9626 59.6678Z" fill="#99D9D8"/>
<path d="M85.3777 57.4217C85.8065 58.4148 85.2422 59.9045 84.8472 60.8074C84.6705 61.1413 84.5558 61.5046 84.5087 61.8795C84.5245 62.2623 84.5889 62.6415 84.7005 63.0081C84.8021 63.4143 85.0729 65.1749 85.0955 65.378C85.1181 65.5812 85.0955 65.4796 85.0955 65.5247C85.1541 65.4756 85.2185 65.4339 85.2874 65.4006C85.3728 65.3736 85.4558 65.3396 85.5357 65.299C85.9565 65.083 86.3943 64.9019 86.8448 64.7573C87.33 64.6106 87.8153 64.4188 88.278 64.2382L89.4066 63.798C90.792 63.235 92.148 62.6022 93.4694 61.9021C93.8 61.7468 94.1046 61.5413 94.3722 61.2927C94.5279 61.1698 94.6485 61.0081 94.7218 60.8239C94.7951 60.6396 94.8186 60.4393 94.7898 60.2431C94.7108 59.8142 94.3609 59.6675 94.0562 59.3854L93.3904 58.7647C93.1268 58.5333 92.9153 58.2487 92.7697 57.9296C92.6223 57.3247 92.686 56.6876 92.9503 56.1239C93.4036 54.512 93.7282 52.8667 93.9208 51.2034C91.3084 53.2466 88.0959 54.373 84.7795 54.4085C84.1475 54.4085 82.6804 54.6567 83.4478 55.537C83.9782 56.3609 84.9827 56.5076 85.3777 57.4217Z" fill="#FECEA1"/>
<path d="M97.4306 61.8796C96.5464 61.0429 95.9299 59.9629 95.6588 58.7761C95.6719 59.1685 95.5824 59.5575 95.3992 59.9047C94.7992 60.9477 93.8985 61.7854 92.8149 62.3085C90.332 63.6402 87.4429 64.1255 85.0617 65.6942C87.6887 65.1409 90.4022 65.1409 93.0293 65.6942C93.1734 65.1929 93.4457 64.7378 93.8193 64.3737C94.8409 63.3054 96.0698 62.4568 97.4306 61.8796Z" fill="#99D9D8"/>
<path d="M93.9548 42.0171C93.4448 41.8557 92.9188 41.7497 92.3861 41.7011C91.6332 41.639 90.8757 41.6655 90.129 41.7801C89.4233 41.8563 88.734 42.0429 88.0863 42.3331C87.3472 42.731 86.6609 43.2201 86.0436 43.789C85.7276 44.0598 85.3891 44.3081 85.0843 44.5902C84.7861 44.8152 84.5525 45.115 84.4072 45.4592C84.3732 45.7403 84.3732 46.0245 84.4072 46.3056C84.2506 47.3739 82.7257 49.6913 82.7257 49.6913C82.7257 49.6913 82.8611 49.6913 82.5225 49.6913C82.5757 49.8588 82.6437 50.0212 82.7257 50.1766C82.7826 50.5675 82.7029 50.9662 82.5 51.3051C82.2404 52.0613 82.3645 52.919 82.0598 53.6525C81.9549 53.8406 81.8752 54.0417 81.8228 54.2507C81.8014 54.4101 81.8123 54.5723 81.855 54.7274C81.8976 54.8825 81.9711 55.0274 82.0711 55.1535C82.4997 55.6313 83.0619 55.9694 83.6849 56.1241C85.0387 56.5758 86.4397 56.8711 87.8606 57.0043C88.3538 57.0612 88.853 57.0384 89.339 56.9366C89.9945 56.6932 90.588 56.3078 91.077 55.8081C91.2297 55.6109 91.4335 55.4594 91.6663 55.3698C91.8991 55.2803 92.1519 55.2562 92.3974 55.3002C94.5191 55.5485 96.6069 53.7992 97.6226 52.0951C98.3248 50.9603 98.7142 49.6598 98.7511 48.3257C98.7673 46.9907 98.3733 45.683 97.6226 44.5789C96.7256 43.3341 95.4323 42.4308 93.9548 42.0171Z" fill="#FFD8B5"/>
<path d="M89.4293 48.1224C89.177 47.757 88.8856 47.4202 88.5603 47.118C88.3856 46.9565 88.1924 46.8163 87.9847 46.7004C87.7563 46.5968 87.5122 46.532 87.2624 46.5086C86.9883 46.4861 86.7127 46.4861 86.4386 46.5086C86.2354 46.5086 85.9646 46.5086 85.942 46.7794C85.942 46.8584 85.942 46.9713 85.942 47.0277C85.9866 47.0562 86.0365 47.0754 86.0887 47.0842C86.4042 47.1539 86.7252 47.1955 87.048 47.2083C87.285 47.2083 87.522 47.2083 87.759 47.2647C88.0747 47.3397 88.3734 47.4737 88.6393 47.6597C88.9164 47.8179 89.1773 48.0032 89.418 48.2127L89.4293 48.1224Z" fill="#414141"/>
<path d="M84.6216 46.1812C84.6498 46.2007 84.6833 46.2111 84.7175 46.2111C84.7518 46.2111 84.7852 46.2007 84.8135 46.1812C84.8184 46.1438 84.8184 46.1058 84.8135 46.0684C84.8368 45.9415 84.8368 45.8115 84.8135 45.6847C84.7789 45.5824 84.7061 45.4974 84.6103 45.4477C84.5863 45.4338 84.5591 45.4265 84.5313 45.4265C84.5036 45.4265 84.4763 45.4338 84.4523 45.4477C84.3169 45.4477 84.2605 45.7524 84.283 45.8765C84.3056 46.0007 84.4975 46.1135 84.6216 46.1812Z" fill="#414141"/>
<path d="M93.7065 61.2023C93.9548 62.4889 93.4695 63.9221 93.7065 65.2313C93.9529 66.0532 94.3963 66.8026 94.9981 67.4142C95.6 68.0259 96.342 68.4814 97.1599 68.7411C98.1504 69.1933 99.2668 69.289 100.32 69.0119C101.064 68.7103 101.7 68.1915 102.145 67.5232C102.59 66.8548 102.823 66.068 102.814 65.2651C102.762 63.6566 102.214 62.1034 101.245 60.8186C100.393 59.8318 99.7554 58.6789 99.3719 57.4329C99.0784 55.7853 99.9474 54.194 100.5 52.6253C101.482 49.928 101.527 46.7004 99.812 44.3869C98.404 42.6605 96.3811 41.5479 94.1692 41.2833C92.773 41.0514 91.344 41.1091 89.971 41.4526C89.361 41.5974 88.7701 41.8133 88.2105 42.0959L87.8832 42.2652C87.8042 42.2652 87.6123 42.4796 87.522 42.4796C88.347 42.3869 89.1816 42.5195 89.9371 42.8633C90.3099 42.9856 90.6633 43.1604 90.9867 43.3824C91.3999 43.7089 91.716 44.1421 91.9008 44.6351C92.1423 45.3623 92.2531 46.1265 92.2281 46.8922C92.2048 47.6925 92.0913 48.4875 91.8895 49.2622C91.6141 50.0006 91.5025 50.79 91.5623 51.5757C91.6011 51.7653 91.6927 51.94 91.8264 52.0798C91.9602 52.2195 92.1307 52.3186 92.3184 52.3657C92.4253 52.0825 92.6159 51.8386 92.8649 51.6664C93.1139 51.4942 93.4094 51.402 93.7122 51.402C94.0149 51.402 94.3104 51.4942 94.5594 51.6664C94.8084 51.8386 94.999 52.0825 95.1059 52.3657C95.2199 52.6246 95.2514 52.9122 95.1962 53.1896C95.1337 53.5282 95.0114 53.8531 94.8351 54.1488C94.5781 54.5768 94.1785 54.9005 93.7065 55.063C93.2316 55.1484 92.8009 55.3956 92.4877 55.7627C92.2542 56.1261 92.111 56.5402 92.0701 56.9702C92.062 57.3542 92.1231 57.7365 92.2507 58.0988C92.5916 58.9027 92.9993 59.6766 93.4695 60.4123C93.5827 60.6642 93.6624 60.9298 93.7065 61.2023Z" fill="#414141"/>
<path d="M87.6021 48.8404C87.6021 48.9733 87.5628 49.1032 87.4893 49.2138C87.4157 49.3243 87.3111 49.4104 87.1888 49.4612C87.0664 49.5121 86.9318 49.5254 86.8019 49.4995C86.672 49.4736 86.5527 49.4096 86.4591 49.3156C86.3655 49.2216 86.3017 49.1019 86.2759 48.9715C86.25 48.8412 86.2633 48.7061 86.314 48.5833C86.3646 48.4605 86.4505 48.3555 86.5606 48.2817C86.6707 48.2079 86.8001 48.1685 86.9326 48.1685C87.1098 48.1696 87.2794 48.2407 87.4048 48.3665C87.5301 48.4923 87.601 48.6626 87.6021 48.8404Z" fill="#555555"/>
<path d="M82.2716 53.0952L84.5404 53.8735C84.5648 53.7669 84.5589 53.65 84.523 53.5298C84.4872 53.4096 84.4222 53.2886 84.3318 53.174C84.2415 53.0593 84.1277 52.9534 83.9973 52.8626C83.8669 52.7718 83.7225 52.6979 83.5727 52.6454C83.2643 52.5439 82.9563 52.5341 82.7136 52.618C82.4709 52.7019 82.3124 52.873 82.2716 53.0952Z" fill="#555555"/>
<path d="M169.091 108.014C163.018 111.54 163.018 117.26 169.091 120.786C175.163 124.312 185.014 124.315 191.09 120.786C197.165 117.256 197.162 111.54 191.09 108.014C185.017 104.488 175.167 104.485 169.091 108.014Z" fill="#EBEBEB"/>
<path d="M170.942 96.5798C170.947 96.5115 170.972 96.4461 171.012 96.3906C171.052 96.3351 171.107 96.2918 171.17 96.2653C171.339 96.1785 171.527 96.1333 171.717 96.1333C171.907 96.1333 172.094 96.1785 172.263 96.2653C172.327 96.2918 172.381 96.3351 172.422 96.3906C172.462 96.4461 172.486 96.5115 172.492 96.5798L168.863 116.16C168.858 116.208 168.84 116.253 168.812 116.292C168.784 116.331 168.746 116.361 168.702 116.381C168.583 116.442 168.451 116.474 168.317 116.474C168.183 116.474 168.05 116.442 167.931 116.381C167.887 116.361 167.85 116.331 167.821 116.292C167.793 116.253 167.775 116.208 167.77 116.16L170.942 96.5798Z" fill="#E0E0E0"/>
<path d="M189.687 96.5799C189.682 96.512 189.658 96.4468 189.618 96.3914C189.579 96.3359 189.525 96.2924 189.462 96.2653C189.293 96.1785 189.105 96.1333 188.914 96.1333C188.723 96.1333 188.535 96.1785 188.365 96.2653C188.303 96.2924 188.249 96.3359 188.209 96.3914C188.17 96.4468 188.146 96.512 188.141 96.5799L191.765 116.16C191.771 116.208 191.788 116.253 191.817 116.292C191.845 116.331 191.883 116.362 191.926 116.381C192.046 116.442 192.179 116.474 192.314 116.474C192.449 116.474 192.581 116.442 192.701 116.381C192.745 116.361 192.782 116.33 192.809 116.292C192.837 116.253 192.854 116.208 192.859 116.16L189.687 96.5799Z" fill="#E0E0E0"/>
<path d="M181.183 97.3778C181.178 97.3092 181.155 97.2433 181.115 97.1871C181.076 97.131 181.021 97.0868 180.958 97.0595C180.788 96.9744 180.6 96.9302 180.41 96.9302C180.219 96.9302 180.032 96.9744 179.861 97.0595C179.798 97.0868 179.744 97.131 179.704 97.1871C179.665 97.2433 179.641 97.3092 179.637 97.3778L179.861 120.044C179.866 120.091 179.883 120.136 179.91 120.174C179.938 120.212 179.975 120.242 180.018 120.261C180.139 120.322 180.271 120.354 180.406 120.354C180.541 120.354 180.673 120.322 180.794 120.261C180.837 120.242 180.874 120.212 180.902 120.174C180.929 120.136 180.946 120.091 180.951 120.044L181.183 97.3778Z" fill="#E0E0E0"/>
<path d="M194.274 90.7871C194.274 88.7388 192.934 86.6905 190.223 85.129C184.812 82.0023 176.031 82.0023 170.616 85.129C167.909 86.6905 166.568 88.7388 166.568 90.7871V91.888C166.598 93.9101 167.957 95.9246 170.627 97.4674C176.042 100.594 184.823 100.594 190.238 97.4674C192.908 95.9246 194.263 93.9101 194.297 91.888L194.274 90.7871Z" fill="#F0F0F0"/>
<path d="M170.605 85.129C165.19 88.252 165.19 93.3222 170.605 96.4489C176.019 99.5756 184.8 99.5756 190.215 96.4489C195.63 93.3222 195.63 88.2557 190.215 85.129C184.8 82.0023 176.012 82.0023 170.605 85.129Z" fill="#F5F5F5"/>
<path d="M180.442 93.3482C181.907 93.3835 183.35 92.9933 184.598 92.2249C185.568 91.5808 186.096 90.7757 186.096 89.9556C186.096 89.1356 185.56 88.3305 184.598 87.6864C183.339 86.9437 181.904 86.552 180.442 86.552C178.98 86.552 177.544 86.9437 176.285 87.6864C175.315 88.3305 174.787 89.1356 174.787 89.9556C174.787 90.7757 175.323 91.5808 176.285 92.2249C177.533 92.9937 178.977 93.3839 180.442 93.3482Z" fill="#E0E0E0"/>
<path d="M176.723 89.6749C176.722 89.5754 176.732 89.4762 176.753 89.379C176.992 88.2911 177.634 87.3342 178.551 86.7017H182.295C183.212 87.3342 183.854 88.2911 184.093 89.379C184.112 89.4765 184.122 89.5755 184.123 89.6749C184.124 89.6911 184.124 89.7073 184.123 89.7235C184.089 90.244 183.748 90.7571 183.044 91.154C182.232 91.5664 181.334 91.7814 180.423 91.7814C179.512 91.7814 178.614 91.5664 177.802 91.154C177.116 90.7571 176.761 90.244 176.723 89.7235C176.727 89.7235 176.723 89.6898 176.723 89.6749Z" fill="#EBEBEB"/>
<path d="M182.205 86.638C183.19 87.2072 183.19 88.1359 182.205 88.6938C181.654 88.9743 181.044 89.1206 180.425 89.1206C179.806 89.1206 179.196 88.9743 178.644 88.6938C177.663 88.1284 177.663 87.196 178.644 86.638C179.196 86.3587 179.806 86.2131 180.425 86.2131C181.043 86.2131 181.653 86.3587 182.205 86.638Z" fill="#FAFAFA"/>
<path d="M179.914 74.1123H180.94V87.2745C180.941 87.3234 180.928 87.3717 180.902 87.4132C180.876 87.4546 180.838 87.4872 180.794 87.5067C180.681 87.5639 180.557 87.5938 180.43 87.5938C180.304 87.5938 180.18 87.5639 180.067 87.5067C180.022 87.4872 179.984 87.4546 179.958 87.4132C179.932 87.3717 179.919 87.3234 179.921 87.2745L179.914 74.1123Z" fill="#E0E0E0"/>
<path d="M172.878 72.1426L176.435 63.0732H184.43L187.994 72.1426C188.5 73.5618 187.807 75.0934 185.898 76.1943C182.902 77.9318 178.004 77.9318 174.99 76.1943C173.065 75.0934 172.372 73.5618 172.878 72.1426Z" fill="#F0F0F0"/>
<path d="M183.317 65.2453C182.422 65.6996 181.431 65.9364 180.427 65.9364C179.422 65.9364 178.432 65.6996 177.536 65.2453C175.937 64.3242 175.937 62.8263 177.536 61.9052C178.432 61.4509 179.422 61.2141 180.427 61.2141C181.431 61.2141 182.422 61.4509 183.317 61.9052C184.916 62.8263 184.916 64.3242 183.317 65.2453Z" fill="#FAFAFA"/>
<path d="M180.427 65.4814C181.351 65.5022 182.265 65.2856 183.082 64.8523C183.703 64.4778 184.044 64.0472 184.044 63.5941C184.044 63.141 183.703 62.6917 183.082 62.3359C182.258 61.9222 181.349 61.7068 180.427 61.7068C179.505 61.7068 178.596 61.9222 177.772 62.3359C177.15 62.6917 176.809 63.141 176.809 63.5941C176.809 64.0472 177.15 64.4965 177.772 64.8523C178.588 65.2856 179.502 65.5022 180.427 65.4814Z" fill="#E0E0E0"/>
</svg>
