<?xml version="1.0" standalone="no"?>
<!DOCTYPE svg PUBLIC "-//W3C//DTD SVG 20010904//EN"
 "http://www.w3.org/TR/2001/REC-SVG-20010904/DTD/svg10.dtd">
<svg version="1.0" xmlns="http://www.w3.org/2000/svg"
 width="1080.000000pt" height="1080.000000pt" viewBox="0 0 1080.000000 1080.000000"
 preserveAspectRatio="xMidYMid meet">
<metadata>
Created by potrace 1.14, written by Peter Selinger 2001-2017
</metadata>
<g transform="translate(0.000000,1080.000000) scale(0.100000,-0.100000)"
fill="#000000" stroke="none">
<path d="M0 5400 l0 -5400 5400 0 5400 0 0 5400 0 5400 -5400 0 -5400 0 0
-5400z m10650 2430 l0 -90 -5245 0 -5245 0 0 90 0 90 5245 0 5245 0 0 -90z
m-8325 -1130 c199 -15 434 -59 595 -114 147 -49 176 -60 248 -95 34 -17 65
-31 68 -31 20 0 224 -134 317 -208 311 -247 545 -639 603 -1010 34 -217 44
-480 24 -652 -17 -149 -39 -278 -55 -331 -41 -127 -81 -243 -95 -274 -5 -11
-21 -47 -35 -80 -26 -59 -68 -131 -149 -250 -173 -257 -467 -506 -743 -630
-32 -14 -71 -32 -88 -40 -28 -12 -97 -38 -175 -65 -177 -60 -500 -109 -730
-109 -188 0 -513 42 -645 83 -27 8 -79 24 -115 35 -139 41 -282 110 -445 217
-124 80 -158 108 -260 209 -72 73 -92 95 -159 179 -91 114 -226 352 -255 450
-5 17 -21 63 -35 101 -14 39 -28 90 -32 115 -4 25 -11 53 -16 62 -21 42 -41
270 -41 483 0 213 20 440 41 483 5 9 12 37 16 61 7 44 28 113 67 211 11 30 27
71 34 90 28 73 109 213 183 317 129 179 299 340 496 468 110 71 308 173 376
193 19 6 60 20 90 32 30 12 89 28 130 36 41 8 82 17 90 20 31 13 179 36 280
43 148 10 276 10 415 1z m4420 0 c72 -5 171 -16 220 -24 166 -29 290 -54 325
-66 52 -19 97 -34 175 -60 100 -34 216 -86 243 -109 27 -24 28 -62 3 -133 -29
-79 -49 -148 -56 -193 -4 -22 -10 -51 -15 -65 -4 -14 -13 -44 -19 -67 -13 -48
-48 -73 -102 -73 -27 0 -44 11 -94 63 -34 34 -79 77 -101 95 -85 72 -315 193
-454 239 -138 45 -319 66 -467 54 -355 -31 -600 -139 -824 -364 -99 -99 -155
-177 -247 -347 -28 -52 -91 -222 -121 -330 -12 -41 -26 -90 -32 -108 -42 -131
-56 -562 -26 -790 9 -67 21 -131 27 -142 5 -10 10 -27 10 -38 0 -46 98 -310
153 -412 62 -114 158 -239 248 -324 78 -73 199 -166 216 -166 4 0 14 -6 22
-13 24 -20 177 -83 261 -107 41 -12 89 -26 105 -31 87 -29 473 -29 560 0 17 5
50 15 75 21 111 28 150 41 230 74 166 69 315 158 474 283 36 29 87 30 111 3
16 -18 17 -30 7 -162 -11 -142 -19 -213 -27 -255 -9 -39 -293 -186 -435 -223
-36 -10 -90 -25 -120 -35 -70 -21 -255 -52 -435 -71 -146 -16 -413 -13 -545 6
-190 27 -360 64 -407 88 -10 5 -33 12 -52 16 -64 12 -317 145 -428 225 -106
77 -297 263 -349 340 -13 20 -39 56 -57 81 -43 58 -130 223 -163 308 -14 37
-32 83 -39 102 -8 19 -22 62 -30 95 -9 33 -23 85 -32 115 -8 30 -21 111 -29
180 -8 69 -19 148 -25 175 -24 117 6 591 47 735 44 155 59 202 91 280 45 107
91 192 164 302 68 103 99 139 234 273 131 129 170 159 365 279 64 40 264 131
319 146 24 6 51 15 60 19 50 25 141 47 361 87 159 29 396 38 625 24z m3936
-89 c24 -19 24 -22 24 -209 0 -239 2 -236 -125 -228 -124 7 -392 32 -415 39
-11 3 -138 8 -282 11 l-263 6 0 -1655 0 -1656 -26 -25 c-21 -22 -31 -25 -62
-20 -136 24 -298 24 -434 0 -31 -5 -41 -2 -62 20 l-26 25 0 1657 0 1657 -287
-7 c-159 -4 -301 -11 -318 -16 -16 -5 -102 -14 -190 -20 -88 -6 -195 -13 -238
-16 -117 -8 -113 -17 -112 227 1 185 3 203 20 215 16 12 242 14 1396 14 1341
0 1377 -1 1400 -19z"/>
<path d="M2000 6386 c-3 -3 -39 -10 -80 -16 -68 -11 -104 -19 -210 -51 -76
-23 -220 -95 -310 -154 -97 -64 -222 -178 -275 -250 -123 -166 -201 -315 -251
-480 -14 -44 -29 -93 -35 -110 -14 -40 -38 -172 -50 -270 -6 -44 -15 -102 -20
-130 -20 -99 2 -581 30 -655 5 -14 12 -43 16 -65 25 -165 180 -492 286 -606
13 -14 38 -41 54 -60 45 -51 162 -150 225 -191 65 -42 187 -103 233 -117 18
-5 57 -19 87 -31 127 -50 377 -79 537 -63 128 13 262 37 289 51 10 6 48 21 84
33 36 13 91 38 122 56 31 18 59 33 62 33 4 0 39 24 79 54 96 71 222 195 279
276 46 65 168 266 168 278 0 5 12 34 55 127 7 17 16 41 20 55 3 14 12 41 19
60 38 103 40 109 76 290 6 30 16 69 22 85 16 43 22 483 8 575 -6 41 -15 105
-20 142 -5 37 -13 75 -18 85 -5 10 -13 38 -17 63 -4 25 -13 59 -20 75 -7 17
-25 61 -40 98 -90 233 -269 461 -449 575 -23 14 -59 37 -81 52 -93 61 -316
143 -470 171 -64 12 -396 24 -405 15z"/>
</g>
</svg>
